G04*
G04 #@! TF.GenerationSoftware,Altium Limited,Altium Designer,21.3.2 (30)*
G04*
G04 Layer_Physical_Order=3*
G04 Layer_Color=16440176*
%FSLAX25Y25*%
%MOIN*%
G70*
G04*
G04 #@! TF.SameCoordinates,4FB7CEAD-E32D-458C-9978-29DB153300B6*
G04*
G04*
G04 #@! TF.FilePolarity,Positive*
G04*
G01*
G75*
%ADD11C,0.00787*%
%ADD14C,0.06024*%
%ADD18C,0.01000*%
%ADD19C,0.00394*%
%ADD68C,0.05906*%
%ADD73C,0.02953*%
D11*
X58001Y18701D02*
X62575Y23275D01*
X14075Y28248D02*
X23622Y18701D01*
X58001D01*
X14075Y28248D02*
Y74075D01*
X9528Y78622D02*
Y131890D01*
Y78622D02*
X14075Y74075D01*
X79543Y91875D02*
X99528Y71890D01*
X75175Y91875D02*
X79543D01*
X165354Y117654D02*
Y149606D01*
X135175Y87475D02*
X165354Y117654D01*
X130676Y87475D02*
X135175D01*
X124675Y192628D02*
X128898Y196850D01*
X124675Y169875D02*
Y192628D01*
X119175Y164375D02*
X124675Y169875D01*
X107735Y164375D02*
X119175D01*
X98675Y155315D02*
X107735Y164375D01*
X78615Y155315D02*
X98675D01*
X74075Y150775D02*
X78615Y155315D01*
X74075Y104975D02*
Y150775D01*
X69675Y100575D02*
X74075Y104975D01*
X69675Y89975D02*
Y100575D01*
X108898Y196850D02*
X113122Y201075D01*
X131175D01*
X133075Y199175D01*
Y157575D02*
Y199175D01*
X129677Y154177D02*
X133075Y157575D01*
X79277Y154177D02*
X129677D01*
X75275Y150175D02*
X79277Y154177D01*
X75275Y101575D02*
Y150175D01*
X72775Y99075D02*
X75275Y101575D01*
X72775Y77075D02*
Y99075D01*
Y77075D02*
X73775Y76075D01*
Y43675D02*
Y76075D01*
X69275Y39175D02*
X73775Y43675D01*
X56275Y39175D02*
X69275D01*
X53075Y42375D02*
X56275Y39175D01*
X53075Y42375D02*
Y58929D01*
X63721Y69575D01*
Y74375D01*
X61921Y76175D02*
X63721Y74375D01*
X53813Y76175D02*
X61921D01*
X49528Y71890D02*
X53813Y76175D01*
X73975Y191928D02*
X78898Y196850D01*
X73975Y172418D02*
Y191928D01*
X66631Y165075D02*
X73975Y172418D01*
X55175Y165075D02*
X66631D01*
X49528Y159428D02*
X55175Y165075D01*
X49528Y131890D02*
Y159428D01*
X39528Y131890D02*
X44775Y137137D01*
Y169475D01*
X48775Y173475D01*
X61775D01*
X64764Y176464D01*
Y192716D01*
X68898Y196850D01*
X40577Y178529D02*
X48898Y186850D01*
X31884Y178529D02*
X40577D01*
X26929Y173575D02*
X31884Y178529D01*
X26929Y137220D02*
Y173575D01*
X23875Y128475D02*
Y180175D01*
X26375Y182675D01*
X43075D01*
X43275Y199175D01*
X41375Y201075D02*
X43275Y199175D01*
X33122Y201075D02*
X41375D01*
X28898Y196850D02*
X33122Y201075D01*
X198975Y194275D02*
X200575Y192675D01*
X206475D01*
X207275Y193475D01*
X212254D01*
X213012Y192716D01*
X215175D01*
X218875Y189016D01*
Y179975D02*
Y189016D01*
X212375Y173475D02*
X218875Y179975D01*
X212375Y98475D02*
Y173475D01*
Y98475D02*
X224375Y86475D01*
X195175Y137775D02*
Y177301D01*
X204724Y186850D01*
X102175Y82675D02*
X118775Y99275D01*
X130375D01*
X141675Y110575D01*
Y125375D01*
X157475Y49275D02*
X184875Y76675D01*
Y192975D01*
X193175Y201275D01*
X216775D01*
X218875Y199175D01*
Y194375D02*
Y199175D01*
Y194375D02*
X221375Y191875D01*
X227732D01*
X238032Y181575D01*
X57375Y41575D02*
X64175Y48375D01*
Y65876D01*
X64858Y66559D01*
Y105358D01*
X65275Y105775D01*
Y141475D01*
X58775Y147975D02*
X65275Y141475D01*
X58775Y147975D02*
Y155231D01*
X62992Y159449D01*
X133826Y92126D02*
X143275Y101575D01*
Y108875D01*
X154775Y120375D01*
Y145075D01*
X55313Y67675D02*
X59528Y71890D01*
X47175Y67675D02*
X55313D01*
X45275Y69575D02*
X47175Y67675D01*
X45275Y69575D02*
Y91675D01*
X63775Y110175D01*
Y136275D01*
X57575Y142475D02*
X63775Y136275D01*
X57575Y142475D02*
Y162375D01*
X58875Y163675D01*
X91975D01*
X93875Y165575D01*
Y191828D01*
X98898Y196850D01*
X38475Y55775D02*
Y61575D01*
X28775Y46075D02*
X38475Y55775D01*
X34722Y192675D02*
X38898Y196850D01*
X24675Y192675D02*
X34722D01*
X21775Y189775D02*
X24675Y192675D01*
X21775Y142575D02*
Y189775D01*
X15275Y136075D02*
X21775Y142575D01*
X15275Y78975D02*
Y136075D01*
X114169Y192122D02*
X118898Y196850D01*
X106128Y192122D02*
X114169D01*
X103075Y195175D02*
X106128Y192122D01*
X103075Y195175D02*
Y199175D01*
X101175Y201075D02*
X103075Y199175D01*
X64775Y201075D02*
X101175D01*
X63575Y199875D02*
X64775Y201075D01*
X63575Y180675D02*
Y199875D01*
X58675Y175775D02*
X63575Y180675D01*
X35375Y175775D02*
X58675D01*
X33175Y173575D02*
X35375Y175775D01*
X33175Y145475D02*
Y173575D01*
Y145475D02*
X33775Y144875D01*
Y76137D02*
Y144875D01*
X29528Y71890D02*
X33775Y76137D01*
X67235Y100168D02*
X69528Y102461D01*
Y131890D01*
X103875Y80275D02*
X106475Y82875D01*
X94775Y80275D02*
X103875D01*
X79528Y95522D02*
X94775Y80275D01*
X79528Y95522D02*
Y131890D01*
X208975Y80275D02*
Y191075D01*
Y80275D02*
X224375Y64875D01*
X231375Y176575D02*
X233875Y174075D01*
Y49432D02*
Y174075D01*
Y49432D02*
X238189Y45118D01*
D14*
X9528Y131890D02*
D03*
X39528D02*
D03*
X49528D02*
D03*
X69528D02*
D03*
X79528D02*
D03*
X29528Y71890D02*
D03*
X49528D02*
D03*
X59528D02*
D03*
X99528D02*
D03*
D18*
X0Y10300D02*
X50Y9290D01*
X198Y8291D01*
X444Y7310D01*
X784Y6358D01*
X1216Y5445D01*
X1736Y4578D01*
X2338Y3766D01*
X3017Y3017D01*
X3766Y2338D01*
X4578Y1736D01*
X5445Y1216D01*
X6358Y784D01*
X7310Y444D01*
X8291Y198D01*
X9290Y50D01*
X10300Y0D01*
X245605D02*
X246615Y50D01*
X247615Y198D01*
X248595Y444D01*
X249547Y784D01*
X250461Y1216D01*
X251328Y1736D01*
X252140Y2338D01*
X252889Y3017D01*
X253568Y3766D01*
X254170Y4578D01*
X254689Y5445D01*
X255121Y6358D01*
X255462Y7310D01*
X255708Y8291D01*
X255856Y9290D01*
X255906Y10300D01*
Y194485D02*
X255856Y195495D01*
X255708Y196494D01*
X255462Y197475D01*
X255121Y198427D01*
X254689Y199340D01*
X254170Y200207D01*
X253568Y201019D01*
X252889Y201768D01*
X252140Y202447D01*
X251328Y203049D01*
X250461Y203569D01*
X249547Y204001D01*
X248595Y204342D01*
X247615Y204587D01*
X246615Y204735D01*
X245605Y204785D01*
X10300D02*
X9290Y204735D01*
X8291Y204587D01*
X7310Y204342D01*
X6358Y204001D01*
X5445Y203569D01*
X4578Y203049D01*
X3766Y202447D01*
X3017Y201768D01*
X2338Y201019D01*
X1736Y200207D01*
X1216Y199340D01*
X784Y198427D01*
X444Y197475D01*
X198Y196494D01*
X50Y195495D01*
X0Y194485D01*
Y10300D02*
Y91535D01*
X10300Y0D02*
X245606D01*
X255906Y10300D02*
Y194485D01*
X10300Y204785D02*
X245606D01*
X0Y91535D02*
Y194485D01*
D19*
X197Y19685D02*
Y62992D01*
D68*
X238032Y181575D02*
D03*
X204724Y186850D02*
D03*
X128898Y196850D02*
D03*
X118898D02*
D03*
X108898D02*
D03*
X98898D02*
D03*
X78898D02*
D03*
X68898D02*
D03*
X48898Y186850D02*
D03*
X38898Y196850D02*
D03*
X28898D02*
D03*
X238189Y45118D02*
D03*
X165354Y149606D02*
D03*
X62992Y159449D02*
D03*
D73*
X62575Y23275D02*
D03*
X75175Y91875D02*
D03*
X130676Y87475D02*
D03*
X69675Y89975D02*
D03*
X26929Y137220D02*
D03*
X23875Y128475D02*
D03*
X198975Y194275D02*
D03*
X224375Y86475D02*
D03*
X102175Y82675D02*
D03*
X141675Y125375D02*
D03*
X195175Y137775D02*
D03*
X157475Y49275D02*
D03*
X57375Y41575D02*
D03*
X133826Y92126D02*
D03*
X154775Y145075D02*
D03*
X38475Y61575D02*
D03*
X28775Y46075D02*
D03*
X15275Y78975D02*
D03*
X67235Y100168D02*
D03*
X106475Y82875D02*
D03*
X208975Y191075D02*
D03*
X224375Y64875D02*
D03*
X231375Y176575D02*
D03*
M02*
