G04*
G04 #@! TF.GenerationSoftware,Altium Limited,Altium Designer,21.3.2 (30)*
G04*
G04 Layer_Color=128*
%FSLAX25Y25*%
%MOIN*%
G70*
G04*
G04 #@! TF.SameCoordinates,4FB7CEAD-E32D-458C-9978-29DB153300B6*
G04*
G04*
G04 #@! TF.FilePolarity,Positive*
G04*
G01*
G75*
%ADD18C,0.01000*%
%ADD19C,0.00394*%
%ADD29R,0.05512X0.03740*%
D18*
X0Y10300D02*
X50Y9290D01*
X198Y8291D01*
X444Y7310D01*
X784Y6358D01*
X1216Y5445D01*
X1736Y4578D01*
X2338Y3766D01*
X3017Y3017D01*
X3766Y2338D01*
X4578Y1736D01*
X5445Y1216D01*
X6358Y784D01*
X7310Y444D01*
X8291Y198D01*
X9290Y50D01*
X10300Y0D01*
X245605D02*
X246615Y50D01*
X247615Y198D01*
X248595Y444D01*
X249547Y784D01*
X250461Y1216D01*
X251328Y1736D01*
X252140Y2338D01*
X252889Y3017D01*
X253568Y3766D01*
X254170Y4578D01*
X254689Y5445D01*
X255121Y6358D01*
X255462Y7310D01*
X255708Y8291D01*
X255856Y9290D01*
X255906Y10300D01*
Y194485D02*
X255856Y195495D01*
X255708Y196494D01*
X255462Y197475D01*
X255121Y198427D01*
X254689Y199340D01*
X254170Y200207D01*
X253568Y201019D01*
X252889Y201768D01*
X252140Y202447D01*
X251328Y203049D01*
X250461Y203569D01*
X249547Y204001D01*
X248595Y204342D01*
X247615Y204587D01*
X246615Y204735D01*
X245605Y204785D01*
X10300D02*
X9290Y204735D01*
X8291Y204587D01*
X7310Y204342D01*
X6358Y204001D01*
X5445Y203569D01*
X4578Y203049D01*
X3766Y202447D01*
X3017Y201768D01*
X2338Y201019D01*
X1736Y200207D01*
X1216Y199340D01*
X784Y198427D01*
X444Y197475D01*
X198Y196494D01*
X50Y195495D01*
X0Y194485D01*
Y10300D02*
Y91535D01*
X10300Y0D02*
X245606D01*
X255906Y10300D02*
Y194485D01*
X10300Y204785D02*
X245606D01*
X0Y91535D02*
Y194485D01*
D19*
X197Y19685D02*
Y62992D01*
D29*
X27559Y168012D02*
D03*
Y160728D02*
D03*
X155512Y168012D02*
D03*
Y160728D02*
D03*
X129921Y168012D02*
D03*
Y160728D02*
D03*
X78740Y168012D02*
D03*
Y160728D02*
D03*
X53150Y168012D02*
D03*
Y160728D02*
D03*
X104331Y168012D02*
D03*
Y160728D02*
D03*
X181102Y168012D02*
D03*
Y160728D02*
D03*
X206693Y168012D02*
D03*
Y160728D02*
D03*
M02*
