G04*
G04 #@! TF.GenerationSoftware,Altium Limited,Altium Designer,21.3.2 (30)*
G04*
G04 Layer_Color=32896*
%FSLAX25Y25*%
%MOIN*%
G70*
G04*
G04 #@! TF.SameCoordinates,4FB7CEAD-E32D-458C-9978-29DB153300B6*
G04*
G04*
G04 #@! TF.FilePolarity,Positive*
G04*
G01*
G75*
%ADD11C,0.00787*%
%ADD17C,0.00591*%
%ADD18C,0.01000*%
%ADD19C,0.00394*%
G36*
X165858Y59860D02*
Y59060D01*
Y58260D01*
Y57460D01*
Y56660D01*
Y55860D01*
Y55060D01*
Y54260D01*
Y53460D01*
Y52660D01*
Y51860D01*
Y51060D01*
Y50260D01*
Y49460D01*
X154658D01*
Y50260D01*
Y51060D01*
Y51860D01*
Y52660D01*
Y53460D01*
Y54260D01*
Y55060D01*
Y55860D01*
Y56660D01*
Y57460D01*
Y58260D01*
Y59060D01*
Y59860D01*
Y60660D01*
X165858D01*
Y59860D01*
D02*
G37*
G36*
X153058D02*
Y59060D01*
Y58260D01*
Y57460D01*
Y56660D01*
Y55860D01*
Y55060D01*
Y54260D01*
X151458D01*
Y53460D01*
Y52660D01*
X153058D01*
Y51860D01*
Y51060D01*
Y50260D01*
Y49460D01*
X151458D01*
Y50260D01*
Y51060D01*
X149858D01*
Y50260D01*
Y49460D01*
Y48660D01*
Y47860D01*
Y47060D01*
Y46260D01*
X148258D01*
Y47060D01*
Y47860D01*
X146658D01*
Y48660D01*
Y49460D01*
X145058D01*
Y50260D01*
Y51060D01*
X143458D01*
Y50260D01*
Y49460D01*
Y48660D01*
Y47860D01*
X141858D01*
Y47060D01*
Y46260D01*
X143458D01*
Y45460D01*
Y44660D01*
X145058D01*
Y43860D01*
Y43060D01*
X146658D01*
Y42260D01*
Y41460D01*
X148258D01*
Y40660D01*
Y39860D01*
X149858D01*
Y39060D01*
Y38260D01*
X156258D01*
Y37460D01*
Y36660D01*
X154658D01*
Y35860D01*
Y35060D01*
X156258D01*
Y34260D01*
Y33460D01*
X154658D01*
Y34260D01*
Y35060D01*
X153058D01*
Y35860D01*
Y36660D01*
X151458D01*
Y35860D01*
Y35060D01*
X146658D01*
Y35860D01*
Y36660D01*
X145058D01*
Y37460D01*
Y38260D01*
X143458D01*
Y39060D01*
Y39860D01*
X146658D01*
Y39060D01*
Y38260D01*
X148258D01*
Y39060D01*
Y39860D01*
X146658D01*
Y40660D01*
Y41460D01*
X145058D01*
Y42260D01*
Y43060D01*
X141858D01*
Y42260D01*
Y41460D01*
X140258D01*
Y42260D01*
Y43060D01*
Y43860D01*
Y44660D01*
X138658D01*
Y45460D01*
Y46260D01*
X140258D01*
Y47060D01*
Y47860D01*
Y48660D01*
Y49460D01*
X138658D01*
Y50260D01*
Y51060D01*
X140258D01*
Y50260D01*
Y49460D01*
X141858D01*
Y50260D01*
Y51060D01*
Y51860D01*
Y52660D01*
X138658D01*
Y53460D01*
Y54260D01*
Y55060D01*
Y55860D01*
Y56660D01*
Y57460D01*
Y58260D01*
Y59060D01*
Y59860D01*
Y60660D01*
X145058D01*
Y59860D01*
Y59060D01*
X148258D01*
Y58260D01*
Y57460D01*
X146658D01*
Y56660D01*
Y55860D01*
Y55060D01*
Y54260D01*
Y53460D01*
Y52660D01*
X145058D01*
Y51860D01*
Y51060D01*
X146658D01*
Y50260D01*
Y49460D01*
X148258D01*
Y50260D01*
Y51060D01*
Y51860D01*
Y52660D01*
Y53460D01*
Y54260D01*
Y55060D01*
Y55860D01*
X149858D01*
Y56660D01*
Y57460D01*
X151458D01*
Y58260D01*
Y59060D01*
Y59860D01*
Y60660D01*
X153058D01*
Y59860D01*
D02*
G37*
G36*
X137058D02*
Y59060D01*
Y58260D01*
Y57460D01*
Y56660D01*
Y55860D01*
Y55060D01*
Y54260D01*
Y53460D01*
Y52660D01*
Y51860D01*
Y51060D01*
Y50260D01*
Y49460D01*
X125858D01*
Y50260D01*
Y51060D01*
Y51860D01*
Y52660D01*
Y53460D01*
Y54260D01*
Y55060D01*
Y55860D01*
Y56660D01*
Y57460D01*
Y58260D01*
Y59060D01*
Y59860D01*
Y60660D01*
X137058D01*
Y59860D01*
D02*
G37*
G36*
X146658Y47060D02*
Y46260D01*
X145058D01*
Y47060D01*
Y47860D01*
X146658D01*
Y47060D01*
D02*
G37*
G36*
X135458D02*
Y46260D01*
X133858D01*
Y47060D01*
Y47860D01*
X135458D01*
Y47060D01*
D02*
G37*
G36*
X165858D02*
Y46260D01*
Y45460D01*
Y44660D01*
X164258D01*
Y45460D01*
Y46260D01*
X162658D01*
Y47060D01*
Y47860D01*
X165858D01*
Y47060D01*
D02*
G37*
G36*
X159458D02*
Y46260D01*
X162658D01*
Y45460D01*
Y44660D01*
X159458D01*
Y45460D01*
Y46260D01*
X154658D01*
Y47060D01*
Y47860D01*
X159458D01*
Y47060D01*
D02*
G37*
G36*
X157858Y43860D02*
Y43060D01*
X159458D01*
Y42260D01*
Y41460D01*
X161058D01*
Y40660D01*
Y39860D01*
Y39060D01*
Y38260D01*
Y37460D01*
Y36660D01*
Y35860D01*
Y35060D01*
X159458D01*
Y34260D01*
Y33460D01*
X157858D01*
Y34260D01*
Y35060D01*
Y35860D01*
Y36660D01*
X159458D01*
Y37460D01*
Y38260D01*
Y39060D01*
Y39860D01*
Y40660D01*
Y41460D01*
X157858D01*
Y42260D01*
Y43060D01*
X154658D01*
Y42260D01*
Y41460D01*
X157858D01*
Y40660D01*
Y39860D01*
Y39060D01*
Y38260D01*
X156258D01*
Y39060D01*
Y39860D01*
X154658D01*
Y40660D01*
Y41460D01*
X153058D01*
Y40660D01*
Y39860D01*
X151458D01*
Y40660D01*
Y41460D01*
X149858D01*
Y42260D01*
Y43060D01*
X148258D01*
Y43860D01*
Y44660D01*
X151458D01*
Y43860D01*
Y43060D01*
X153058D01*
Y43860D01*
Y44660D01*
X157858D01*
Y43860D01*
D02*
G37*
G36*
X165858Y42260D02*
Y41460D01*
Y40660D01*
Y39860D01*
Y39060D01*
Y38260D01*
X164258D01*
Y39060D01*
Y39860D01*
X162658D01*
Y40660D01*
Y41460D01*
Y42260D01*
Y43060D01*
X165858D01*
Y42260D01*
D02*
G37*
G36*
X132258Y47060D02*
Y46260D01*
X133858D01*
Y45460D01*
Y44660D01*
X137058D01*
Y43860D01*
Y43060D01*
Y42260D01*
Y41460D01*
X138658D01*
Y40660D01*
Y39860D01*
X141858D01*
Y39060D01*
Y38260D01*
X143458D01*
Y37460D01*
Y36660D01*
X140258D01*
Y37460D01*
Y38260D01*
X138658D01*
Y39060D01*
Y39860D01*
X133858D01*
Y40660D01*
Y41460D01*
X135458D01*
Y42260D01*
Y43060D01*
X132258D01*
Y43860D01*
Y44660D01*
Y45460D01*
Y46260D01*
X130658D01*
Y45460D01*
Y44660D01*
Y43860D01*
Y43060D01*
Y42260D01*
Y41460D01*
X132258D01*
Y40660D01*
Y39860D01*
X133858D01*
Y39060D01*
Y38260D01*
Y37460D01*
Y36660D01*
X135458D01*
Y35860D01*
Y35060D01*
X143458D01*
Y34260D01*
Y33460D01*
X145058D01*
Y32660D01*
Y31860D01*
X143458D01*
Y32660D01*
Y33460D01*
X140258D01*
Y32660D01*
Y31860D01*
Y31060D01*
Y30260D01*
Y29460D01*
Y28660D01*
Y27860D01*
Y27060D01*
X141858D01*
Y27860D01*
Y28660D01*
Y29460D01*
Y30260D01*
X143458D01*
Y29460D01*
Y28660D01*
X145058D01*
Y27860D01*
Y27060D01*
X146658D01*
Y26260D01*
Y25460D01*
X148258D01*
Y24660D01*
Y23860D01*
Y23060D01*
Y22260D01*
X149858D01*
Y21460D01*
Y20660D01*
X148258D01*
Y21460D01*
Y22260D01*
X146658D01*
Y23060D01*
Y23860D01*
X145058D01*
Y23060D01*
Y22260D01*
X146658D01*
Y21460D01*
Y20660D01*
X143458D01*
Y21460D01*
Y22260D01*
Y23060D01*
Y23860D01*
X141858D01*
Y23060D01*
Y22260D01*
Y21460D01*
Y20660D01*
X140258D01*
Y21460D01*
Y22260D01*
Y23060D01*
Y23860D01*
X137058D01*
Y23060D01*
Y22260D01*
X138658D01*
Y21460D01*
Y20660D01*
X137058D01*
Y21460D01*
Y22260D01*
X135458D01*
Y23060D01*
Y23860D01*
Y24660D01*
Y25460D01*
X133858D01*
Y26260D01*
Y27060D01*
X132258D01*
Y27860D01*
Y28660D01*
Y29460D01*
Y30260D01*
X130658D01*
Y29460D01*
Y28660D01*
Y27860D01*
Y27060D01*
X132258D01*
Y26260D01*
Y25460D01*
X130658D01*
Y26260D01*
Y27060D01*
X129058D01*
Y26260D01*
Y25460D01*
X130658D01*
Y24660D01*
Y23860D01*
Y23060D01*
Y22260D01*
X132258D01*
Y23060D01*
Y23860D01*
X133858D01*
Y23060D01*
Y22260D01*
X135458D01*
Y21460D01*
Y20660D01*
X125858D01*
Y21460D01*
Y22260D01*
X127458D01*
Y23060D01*
Y23860D01*
Y24660D01*
Y25460D01*
X125858D01*
Y26260D01*
Y27060D01*
Y27860D01*
Y28660D01*
Y29460D01*
Y30260D01*
X129058D01*
Y31060D01*
Y31860D01*
X127458D01*
Y32660D01*
Y33460D01*
X125858D01*
Y34260D01*
Y35060D01*
X127458D01*
Y35860D01*
Y36660D01*
X129058D01*
Y37460D01*
Y38260D01*
X127458D01*
Y39060D01*
Y39860D01*
X125858D01*
Y40660D01*
Y41460D01*
Y42260D01*
Y43060D01*
X127458D01*
Y42260D01*
Y41460D01*
X129058D01*
Y42260D01*
Y43060D01*
Y43860D01*
Y44660D01*
Y45460D01*
Y46260D01*
X125858D01*
Y47060D01*
Y47860D01*
X132258D01*
Y47060D01*
D02*
G37*
G36*
X137058Y37460D02*
Y36660D01*
X135458D01*
Y37460D01*
Y38260D01*
X137058D01*
Y37460D01*
D02*
G37*
G36*
X165858Y34260D02*
Y33460D01*
X162658D01*
Y34260D01*
Y35060D01*
X165858D01*
Y34260D01*
D02*
G37*
G36*
X146658D02*
Y33460D01*
X145058D01*
Y34260D01*
Y35060D01*
X146658D01*
Y34260D01*
D02*
G37*
G36*
X153058Y32660D02*
Y31860D01*
X151458D01*
Y31060D01*
Y30260D01*
X153058D01*
Y29460D01*
Y28660D01*
Y27860D01*
Y27060D01*
X151458D01*
Y27860D01*
Y28660D01*
X149858D01*
Y29460D01*
Y30260D01*
Y31060D01*
Y31860D01*
X148258D01*
Y32660D01*
Y33460D01*
X153058D01*
Y32660D01*
D02*
G37*
G36*
X165858Y31060D02*
Y30260D01*
Y29460D01*
Y28660D01*
Y27860D01*
Y27060D01*
Y26260D01*
Y25460D01*
Y24660D01*
Y23860D01*
Y23060D01*
Y22260D01*
Y21460D01*
Y20660D01*
X154658D01*
Y21460D01*
Y22260D01*
Y23060D01*
Y23860D01*
Y24660D01*
Y25460D01*
Y26260D01*
Y27060D01*
Y27860D01*
Y28660D01*
Y29460D01*
Y30260D01*
Y31060D01*
Y31860D01*
X165858D01*
Y31060D01*
D02*
G37*
G36*
X146658Y29460D02*
Y28660D01*
X148258D01*
Y27860D01*
Y27060D01*
X149858D01*
Y26260D01*
Y25460D01*
X151458D01*
Y24660D01*
Y23860D01*
X153058D01*
Y23060D01*
Y22260D01*
Y21460D01*
Y20660D01*
X151458D01*
Y21460D01*
Y22260D01*
X149858D01*
Y23060D01*
Y23860D01*
Y24660D01*
Y25460D01*
X148258D01*
Y26260D01*
Y27060D01*
X146658D01*
Y27860D01*
Y28660D01*
X145058D01*
Y29460D01*
Y30260D01*
X146658D01*
Y29460D01*
D02*
G37*
G36*
X141151Y13297D02*
X139664D01*
Y11810D01*
X138176D01*
Y16250D01*
X141151D01*
Y13297D01*
D02*
G37*
G36*
X185503Y11810D02*
X186968D01*
Y10323D01*
X184016D01*
Y11810D01*
X181063D01*
Y8879D01*
X185503D01*
Y7392D01*
X186968D01*
Y4440D01*
X185503D01*
Y2953D01*
X178111D01*
Y11810D01*
X179598D01*
Y13297D01*
X185503D01*
Y11810D01*
D02*
G37*
G36*
X160374D02*
X161840D01*
Y10323D01*
X158887D01*
Y11810D01*
X155935D01*
Y8879D01*
X160374D01*
Y7392D01*
X161840D01*
Y4440D01*
X160374D01*
Y2953D01*
X152982D01*
Y11810D01*
X154470D01*
Y13297D01*
X160374D01*
Y11810D01*
D02*
G37*
G36*
X141151Y10323D02*
X139664D01*
X139685Y11810D01*
X141151D01*
Y10323D01*
D02*
G37*
G36*
X124880Y16250D02*
X126367D01*
Y11810D01*
X124880D01*
Y7371D01*
X121927D01*
Y11810D01*
X120462D01*
Y16250D01*
X121927D01*
Y17715D01*
X124880D01*
Y16250D01*
D02*
G37*
G36*
X226881Y14763D02*
X228346D01*
Y4440D01*
X226881D01*
Y2953D01*
X220976D01*
Y4440D01*
X219489D01*
Y7392D01*
X222442D01*
Y4440D01*
X225394D01*
Y14763D01*
X222442D01*
Y11810D01*
X219489D01*
Y14763D01*
X220976D01*
Y16250D01*
X226881D01*
Y14763D01*
D02*
G37*
G36*
X206192Y11810D02*
X207657D01*
Y4440D01*
X206192D01*
Y2953D01*
X200287D01*
Y4440D01*
X198800Y4440D01*
Y5927D01*
X201752Y5927D01*
Y4440D01*
X204705D01*
Y7371D01*
X198800Y7371D01*
Y11810D01*
X200287Y11810D01*
Y13297D01*
X206192D01*
Y11810D01*
D02*
G37*
G36*
X170719Y14762D02*
X172184D01*
Y4440D01*
X170719D01*
Y2953D01*
X164814D01*
Y4440D01*
X163327D01*
Y7392D01*
X166279D01*
Y4440D01*
X169232D01*
Y14762D01*
X166279D01*
Y11810D01*
X163327D01*
Y14762D01*
X164814D01*
Y16250D01*
X170719D01*
Y14762D01*
D02*
G37*
G36*
X216537Y11810D02*
X218002D01*
Y4440D01*
X216537D01*
Y2953D01*
X210632D01*
Y4440D01*
X209145D01*
Y11810D01*
X210632D01*
Y13297D01*
X216537D01*
Y11810D01*
D02*
G37*
G36*
X197313Y14762D02*
X194360D01*
Y4440D01*
X197313D01*
Y2953D01*
X188456D01*
Y4440D01*
X191408D01*
Y16250D01*
X197313D01*
Y14762D01*
D02*
G37*
G36*
X151495Y2953D02*
X148543D01*
Y11810D01*
X145590D01*
Y2953D01*
X142638D01*
Y11810D01*
X144125D01*
Y13297D01*
X151495D01*
Y2953D01*
D02*
G37*
G36*
X133759Y13297D02*
X136711D01*
Y11810D01*
X133759D01*
Y4440D01*
X132293D01*
Y2953D01*
X127854D01*
Y4440D01*
X130806D01*
Y11810D01*
X127854D01*
Y13297D01*
X130806D01*
Y16250D01*
X133759D01*
Y13297D01*
D02*
G37*
G36*
X124880Y2953D02*
X121927D01*
Y5905D01*
X124880D01*
Y2953D01*
D02*
G37*
%LPC*%
G36*
X164258Y59060D02*
X156258D01*
Y58260D01*
Y57460D01*
Y56660D01*
Y55860D01*
Y55060D01*
Y54260D01*
Y53460D01*
Y52660D01*
Y51860D01*
Y51060D01*
X164258D01*
Y51860D01*
Y52660D01*
Y53460D01*
Y54260D01*
Y55060D01*
Y55860D01*
Y56660D01*
Y57460D01*
Y58260D01*
Y59060D01*
D02*
G37*
%LPD*%
G36*
X162658Y56660D02*
Y55860D01*
Y55060D01*
Y54260D01*
Y53460D01*
Y52660D01*
X157858D01*
Y53460D01*
Y54260D01*
Y55060D01*
Y55860D01*
Y56660D01*
Y57460D01*
X162658D01*
Y56660D01*
D02*
G37*
%LPC*%
G36*
X141858Y59060D02*
X140258D01*
Y58260D01*
Y57460D01*
X141858D01*
Y58260D01*
Y59060D01*
D02*
G37*
G36*
X145058D02*
X143458D01*
Y58260D01*
Y57460D01*
Y56660D01*
Y55860D01*
X145058D01*
Y56660D01*
Y57460D01*
Y58260D01*
Y59060D01*
D02*
G37*
G36*
X135458D02*
X127458D01*
Y58260D01*
Y57460D01*
Y56660D01*
Y55860D01*
Y55060D01*
Y54260D01*
Y53460D01*
Y52660D01*
Y51860D01*
Y51060D01*
X135458D01*
Y51860D01*
Y52660D01*
Y53460D01*
Y54260D01*
Y55060D01*
Y55860D01*
Y56660D01*
Y57460D01*
Y58260D01*
Y59060D01*
D02*
G37*
%LPD*%
G36*
X133858Y56660D02*
Y55860D01*
Y55060D01*
Y54260D01*
Y53460D01*
Y52660D01*
X129058D01*
Y53460D01*
Y54260D01*
Y55060D01*
Y55860D01*
Y56660D01*
Y57460D01*
X133858D01*
Y56660D01*
D02*
G37*
%LPC*%
G36*
X130658Y39860D02*
X129058D01*
Y39060D01*
Y38260D01*
X130658D01*
Y39060D01*
Y39860D01*
D02*
G37*
G36*
X132258Y36660D02*
X130658D01*
Y35860D01*
Y35060D01*
X132258D01*
Y35860D01*
Y36660D01*
D02*
G37*
G36*
X130658Y33460D02*
X129058D01*
Y32660D01*
Y31860D01*
X130658D01*
Y32660D01*
Y33460D01*
D02*
G37*
G36*
X138658D02*
X133858D01*
Y32660D01*
Y31860D01*
Y31060D01*
Y30260D01*
Y29460D01*
Y28660D01*
X138658D01*
Y29460D01*
Y30260D01*
Y31060D01*
Y31860D01*
Y32660D01*
Y33460D01*
D02*
G37*
G36*
X145058Y27060D02*
X143458D01*
Y26260D01*
Y25460D01*
X145058D01*
Y26260D01*
Y27060D01*
D02*
G37*
G36*
X138658D02*
X137058D01*
Y26260D01*
Y25460D01*
X138658D01*
Y26260D01*
Y27060D01*
D02*
G37*
%LPD*%
G36*
X137058Y31060D02*
Y30260D01*
X135458D01*
Y31060D01*
Y31860D01*
X137058D01*
Y31060D01*
D02*
G37*
%LPC*%
G36*
X164258Y30260D02*
X156258D01*
Y29460D01*
Y28660D01*
Y27860D01*
Y27060D01*
Y26260D01*
Y25460D01*
Y24660D01*
Y23860D01*
Y23060D01*
Y22260D01*
X164258D01*
Y23060D01*
Y23860D01*
Y24660D01*
Y25460D01*
Y26260D01*
Y27060D01*
Y27860D01*
Y28660D01*
Y29460D01*
Y30260D01*
D02*
G37*
%LPD*%
G36*
X162658Y27860D02*
Y27060D01*
Y26260D01*
Y25460D01*
Y24660D01*
Y23860D01*
X157858D01*
Y24660D01*
Y25460D01*
Y26260D01*
Y27060D01*
Y27860D01*
Y28660D01*
X162658D01*
Y27860D01*
D02*
G37*
%LPC*%
G36*
X184016Y7392D02*
X181063D01*
Y4440D01*
X184016D01*
Y7392D01*
D02*
G37*
G36*
X158887D02*
X155935D01*
Y4440D01*
X158887D01*
Y7392D01*
D02*
G37*
G36*
X204705Y11810D02*
X201752D01*
Y8858D01*
X204705D01*
Y11810D01*
D02*
G37*
G36*
X215050D02*
X212097D01*
Y4440D01*
X215050D01*
Y11810D01*
D02*
G37*
%LPD*%
D11*
X24705Y164075D02*
Y164665D01*
X30413Y164075D02*
Y164665D01*
X152657Y164075D02*
Y164665D01*
X158366Y164075D02*
Y164665D01*
X127067Y164075D02*
Y164665D01*
X132776Y164075D02*
Y164665D01*
X75886Y164075D02*
Y164665D01*
X81594Y164075D02*
Y164665D01*
X50295Y164075D02*
Y164665D01*
X56004Y164075D02*
Y164665D01*
X101476Y164075D02*
Y164665D01*
X107185Y164075D02*
Y164665D01*
X178248Y164075D02*
Y164665D01*
X183957Y164075D02*
Y164665D01*
X203839Y164075D02*
Y164665D01*
X209547Y164075D02*
Y164665D01*
X154069Y83463D02*
X156693D01*
Y79528D01*
X154069D01*
X156693Y81495D02*
X155381D01*
X152757Y82151D02*
X152101D01*
Y81495D01*
X152757D01*
Y82151D01*
Y80184D02*
X152101D01*
Y79528D01*
X152757D01*
Y80184D01*
X142918Y83463D02*
X145542D01*
Y79528D01*
X142918D01*
X145542Y81495D02*
X144230D01*
X138982Y82807D02*
X139638Y83463D01*
X140950D01*
X141606Y82807D01*
Y82151D01*
X140950Y81495D01*
X139638D01*
X138982Y80840D01*
Y80184D01*
X139638Y79528D01*
X140950D01*
X141606Y80184D01*
X137670Y79528D02*
Y83463D01*
X135702D01*
X135046Y82807D01*
Y81495D01*
X135702Y80840D01*
X137670D01*
X133734Y82807D02*
X133079Y83463D01*
X131767D01*
X131111Y82807D01*
Y82151D01*
X131767Y81495D01*
X132422D01*
X131767D01*
X131111Y80840D01*
Y80184D01*
X131767Y79528D01*
X133079D01*
X133734Y80184D01*
X127175Y79528D02*
X129799D01*
X127175Y82151D01*
Y82807D01*
X127831Y83463D01*
X129143D01*
X129799Y82807D01*
X157677Y90681D02*
X155053D01*
X156365D01*
Y86745D01*
X153741Y89369D02*
X153085D01*
Y88713D01*
X153741D01*
Y89369D01*
Y87401D02*
X153085D01*
Y86745D01*
X153741D01*
Y87401D01*
X146526Y90681D02*
X143902D01*
X145214D01*
Y86745D01*
X140622D02*
X141934D01*
X142590Y87401D01*
Y88713D01*
X141934Y89369D01*
X140622D01*
X139966Y88713D01*
Y88057D01*
X142590D01*
X136687Y86745D02*
X137998D01*
X138654Y87401D01*
Y88713D01*
X137998Y89369D01*
X136687D01*
X136031Y88713D01*
Y88057D01*
X138654D01*
X134719Y86745D02*
Y89369D01*
X132751D01*
X132095Y88713D01*
Y86745D01*
X130783D02*
X128815D01*
X128159Y87401D01*
X128815Y88057D01*
X130127D01*
X130783Y88713D01*
X130127Y89369D01*
X128159D01*
X126847D02*
Y87401D01*
X126191Y86745D01*
X124223D01*
Y86089D01*
X124879Y85433D01*
X125535D01*
X124223Y86745D02*
Y89369D01*
D17*
X212162Y150599D02*
X211113D01*
X211638D01*
Y147450D01*
X212162D01*
X211113D01*
X207964Y150599D02*
X209014D01*
X209539Y150074D01*
Y147975D01*
X209014Y147450D01*
X207964D01*
X207440Y147975D01*
Y150074D01*
X207964Y150599D01*
X204291D02*
X206390D01*
Y149024D01*
X205341Y149549D01*
X204816D01*
X204291Y149024D01*
Y147975D01*
X204816Y147450D01*
X205865D01*
X206390Y147975D01*
X186813Y150869D02*
X185764D01*
X186289D01*
Y147720D01*
X186813D01*
X185764D01*
X182615Y150869D02*
X183665D01*
X184189Y150344D01*
Y148245D01*
X183665Y147720D01*
X182615D01*
X182090Y148245D01*
Y150344D01*
X182615Y150869D01*
X178942Y147720D02*
X181041D01*
X178942Y149819D01*
Y150344D01*
X179467Y150869D01*
X180516D01*
X181041Y150344D01*
X177892Y147720D02*
X176843D01*
X177368D01*
Y150869D01*
X177892Y150344D01*
X161951Y151085D02*
X160901D01*
X161426D01*
Y147936D01*
X161951D01*
X160901D01*
X157752Y151085D02*
X158802D01*
X159327Y150560D01*
Y148461D01*
X158802Y147936D01*
X157752D01*
X157228Y148461D01*
Y150560D01*
X157752Y151085D01*
X154079Y147936D02*
X156178D01*
X154079Y150036D01*
Y150560D01*
X154604Y151085D01*
X155653D01*
X156178Y150560D01*
X153030D02*
X152505Y151085D01*
X151455D01*
X150930Y150560D01*
Y148461D01*
X151455Y147936D01*
X152505D01*
X153030Y148461D01*
Y150560D01*
X135520Y150977D02*
X134471D01*
X134996D01*
Y147828D01*
X135520D01*
X134471D01*
X131322Y150977D02*
X132372D01*
X132896Y150452D01*
Y148353D01*
X132372Y147828D01*
X131322D01*
X130798Y148353D01*
Y150452D01*
X131322Y150977D01*
X127649D02*
X128698Y150452D01*
X129748Y149403D01*
Y148353D01*
X129223Y147828D01*
X128174D01*
X127649Y148353D01*
Y148878D01*
X128174Y149403D01*
X129748D01*
X109631Y150707D02*
X108581D01*
X109106D01*
Y147558D01*
X109631D01*
X108581D01*
X105433Y150707D02*
X106482D01*
X107007Y150182D01*
Y148083D01*
X106482Y147558D01*
X105433D01*
X104908Y148083D01*
Y150182D01*
X105433Y150707D01*
X103858Y150182D02*
X103333Y150707D01*
X102284D01*
X101759Y150182D01*
Y149657D01*
X102284Y149132D01*
X101759Y148608D01*
Y148083D01*
X102284Y147558D01*
X103333D01*
X103858Y148083D01*
Y148608D01*
X103333Y149132D01*
X103858Y149657D01*
Y150182D01*
X103333Y149132D02*
X102284D01*
X84390Y150761D02*
X83340D01*
X83865D01*
Y147612D01*
X84390D01*
X83340D01*
X80191Y150761D02*
X81241D01*
X81766Y150236D01*
Y148137D01*
X81241Y147612D01*
X80191D01*
X79667Y148137D01*
Y150236D01*
X80191Y150761D01*
X78617D02*
X76518D01*
Y150236D01*
X78617Y148137D01*
Y147612D01*
X59040Y150815D02*
X57991D01*
X58516D01*
Y147666D01*
X59040D01*
X57991D01*
X54842Y150815D02*
X55892D01*
X56416Y150290D01*
Y148191D01*
X55892Y147666D01*
X54842D01*
X54317Y148191D01*
Y150290D01*
X54842Y150815D01*
X53268Y147666D02*
X52218D01*
X52743D01*
Y150815D01*
X53268Y150290D01*
X49070Y147666D02*
Y150815D01*
X50644Y149241D01*
X48545D01*
X31968Y150785D02*
X30918D01*
X31443D01*
Y147637D01*
X31968D01*
X30918D01*
X27770Y150785D02*
X28819D01*
X29344Y150260D01*
Y148161D01*
X28819Y147637D01*
X27770D01*
X27245Y148161D01*
Y150260D01*
X27770Y150785D01*
X24096Y147637D02*
X26195D01*
X24096Y149736D01*
Y150260D01*
X24621Y150785D01*
X25670D01*
X26195Y150260D01*
X172442Y58334D02*
Y60433D01*
X175591D01*
Y58334D01*
X174016Y60433D02*
Y59384D01*
X172967Y55185D02*
X172442Y55710D01*
Y56760D01*
X172967Y57284D01*
X173492D01*
X174016Y56760D01*
Y55710D01*
X174541Y55185D01*
X175066D01*
X175591Y55710D01*
Y56760D01*
X175066Y57284D01*
X175591Y54136D02*
X172442D01*
Y52562D01*
X172967Y52037D01*
X174016D01*
X174541Y52562D01*
Y54136D01*
X172967Y50987D02*
X172442Y50463D01*
Y49413D01*
X172967Y48888D01*
X173492D01*
X174016Y49413D01*
Y49938D01*
Y49413D01*
X174541Y48888D01*
X175066D01*
X175591Y49413D01*
Y50463D01*
X175066Y50987D01*
X175591Y45740D02*
Y47839D01*
X173492Y45740D01*
X172967D01*
X172442Y46264D01*
Y47314D01*
X172967Y47839D01*
X172442Y41542D02*
Y40492D01*
Y41017D01*
X175591D01*
Y41542D01*
Y40492D01*
Y36819D02*
Y38918D01*
X173492Y36819D01*
X172967D01*
X172442Y37343D01*
Y38393D01*
X172967Y38918D01*
Y33670D02*
X172442Y34195D01*
Y35244D01*
X172967Y35769D01*
X175066D01*
X175591Y35244D01*
Y34195D01*
X175066Y33670D01*
X171392Y123425D02*
Y121326D01*
Y122376D01*
X174541D01*
Y118702D02*
Y119752D01*
X174016Y120277D01*
X172967D01*
X172442Y119752D01*
Y118702D01*
X172967Y118178D01*
X173492D01*
Y120277D01*
X174541Y115554D02*
Y116603D01*
X174016Y117128D01*
X172967D01*
X172442Y116603D01*
Y115554D01*
X172967Y115029D01*
X173492D01*
Y117128D01*
X174541Y113979D02*
X172442D01*
Y112405D01*
X172967Y111880D01*
X174541D01*
Y110831D02*
Y109256D01*
X174016Y108732D01*
X173492Y109256D01*
Y110306D01*
X172967Y110831D01*
X172442Y110306D01*
Y108732D01*
Y107682D02*
X174016D01*
X174541Y107158D01*
Y105583D01*
X175066D01*
X175591Y106108D01*
Y106633D01*
X174541Y105583D02*
X172442D01*
X171392Y101385D02*
Y100336D01*
Y100860D01*
X174541D01*
Y101385D01*
Y100336D01*
Y96662D02*
Y98761D01*
X172442Y96662D01*
X171917D01*
X171392Y97187D01*
Y98237D01*
X171917Y98761D01*
Y93514D02*
X171392Y94038D01*
Y95088D01*
X171917Y95613D01*
X174016D01*
X174541Y95088D01*
Y94038D01*
X174016Y93514D01*
X189240Y89828D02*
X189764Y90353D01*
X190814D01*
X191339Y89828D01*
Y87730D01*
X190814Y87205D01*
X189764D01*
X189240Y87730D01*
Y88779D01*
X190289D01*
X188190Y87205D02*
Y90353D01*
X186091Y87205D01*
Y90353D01*
X185041D02*
Y87205D01*
X183467D01*
X182942Y87730D01*
Y89828D01*
X183467Y90353D01*
X185041D01*
X191289Y100242D02*
X190764Y100767D01*
X189715D01*
X189190Y100242D01*
Y99717D01*
X189715Y99192D01*
X190240D01*
X189715D01*
X189190Y98668D01*
Y98143D01*
X189715Y97618D01*
X190764D01*
X191289Y98143D01*
X188140Y100767D02*
Y98668D01*
X187091Y97618D01*
X186041Y98668D01*
Y100767D01*
X184992Y100242D02*
X184467Y100767D01*
X183418D01*
X182893Y100242D01*
Y99717D01*
X183418Y99192D01*
X183942D01*
X183418D01*
X182893Y98668D01*
Y98143D01*
X183418Y97618D01*
X184467D01*
X184992Y98143D01*
X192323Y110038D02*
X191273D01*
X191798D01*
Y106890D01*
X192323D01*
X191273D01*
X188125Y110038D02*
X189174D01*
X189699Y109514D01*
Y107414D01*
X189174Y106890D01*
X188125D01*
X187600Y107414D01*
Y109514D01*
X188125Y110038D01*
X186550Y106890D02*
X185501D01*
X186026D01*
Y110038D01*
X186550Y109514D01*
X183927D02*
X183402Y110038D01*
X182352D01*
X181827Y109514D01*
Y108989D01*
X182352Y108464D01*
X181827Y107939D01*
Y107414D01*
X182352Y106890D01*
X183402D01*
X183927Y107414D01*
Y107939D01*
X183402Y108464D01*
X183927Y108989D01*
Y109514D01*
X183402Y108464D02*
X182352D01*
X192323Y120865D02*
X191273D01*
X191798D01*
Y117717D01*
X192323D01*
X191273D01*
X188125Y120865D02*
X189174D01*
X189699Y120340D01*
Y118241D01*
X189174Y117717D01*
X188125D01*
X187600Y118241D01*
Y120340D01*
X188125Y120865D01*
X186550Y117717D02*
X185501D01*
X186026D01*
Y120865D01*
X186550Y120340D01*
X183927Y118241D02*
X183402Y117717D01*
X182352D01*
X181827Y118241D01*
Y120340D01*
X182352Y120865D01*
X183402D01*
X183927Y120340D01*
Y119816D01*
X183402Y119291D01*
X181827D01*
X192323Y56889D02*
X191273D01*
X191798D01*
Y53740D01*
X192323D01*
X191273D01*
X188125Y56889D02*
X189174D01*
X189699Y56364D01*
Y54265D01*
X189174Y53740D01*
X188125D01*
X187600Y54265D01*
Y56364D01*
X188125Y56889D01*
X184451Y53740D02*
X186550D01*
X184451Y55839D01*
Y56364D01*
X184976Y56889D01*
X186026D01*
X186550Y56364D01*
X181303Y53740D02*
X183402D01*
X181303Y55839D01*
Y56364D01*
X181827Y56889D01*
X182877D01*
X183402Y56364D01*
X192323Y46062D02*
X191273D01*
X191798D01*
Y42913D01*
X192323D01*
X191273D01*
X188125Y46062D02*
X189174D01*
X189699Y45537D01*
Y43438D01*
X189174Y42913D01*
X188125D01*
X187600Y43438D01*
Y45537D01*
X188125Y46062D01*
X184451Y42913D02*
X186550D01*
X184451Y45012D01*
Y45537D01*
X184976Y46062D01*
X186026D01*
X186550Y45537D01*
X183402D02*
X182877Y46062D01*
X181827D01*
X181303Y45537D01*
Y45012D01*
X181827Y44488D01*
X182352D01*
X181827D01*
X181303Y43963D01*
Y43438D01*
X181827Y42913D01*
X182877D01*
X183402Y43438D01*
X191289Y36266D02*
X190764Y36790D01*
X189715D01*
X189190Y36266D01*
Y35741D01*
X189715Y35216D01*
X190240D01*
X189715D01*
X189190Y34691D01*
Y34166D01*
X189715Y33642D01*
X190764D01*
X191289Y34166D01*
X188140Y36790D02*
Y34691D01*
X187091Y33642D01*
X186041Y34691D01*
Y36790D01*
X184992Y36266D02*
X184467Y36790D01*
X183418D01*
X182893Y36266D01*
Y35741D01*
X183418Y35216D01*
X183942D01*
X183418D01*
X182893Y34691D01*
Y34166D01*
X183418Y33642D01*
X184467D01*
X184992Y34166D01*
X189240Y25852D02*
X189764Y26377D01*
X190814D01*
X191339Y25852D01*
Y23753D01*
X190814Y23228D01*
X189764D01*
X189240Y23753D01*
Y24803D01*
X190289D01*
X188190Y23228D02*
Y26377D01*
X186091Y23228D01*
Y26377D01*
X185041D02*
Y23228D01*
X183467D01*
X182942Y23753D01*
Y25852D01*
X183467Y26377D01*
X185041D01*
X83925Y39172D02*
X86024D01*
Y36024D01*
X83925D01*
X86024Y37598D02*
X84974D01*
X80776Y38647D02*
X81301Y39172D01*
X82350D01*
X82875Y38647D01*
Y38123D01*
X82350Y37598D01*
X81301D01*
X80776Y37073D01*
Y36548D01*
X81301Y36024D01*
X82350D01*
X82875Y36548D01*
X79726Y36024D02*
Y39172D01*
X78152D01*
X77627Y38647D01*
Y37598D01*
X78152Y37073D01*
X79726D01*
X73429Y39172D02*
Y37073D01*
X72380Y36024D01*
X71330Y37073D01*
Y39172D01*
X70281D02*
X69231D01*
X69756D01*
Y36024D01*
X70281D01*
X69231D01*
X67657D02*
Y39172D01*
X65558Y36024D01*
Y39172D01*
X60835Y38647D02*
Y38123D01*
X61360D01*
X60310D01*
X60835D01*
Y36548D01*
X60310Y36024D01*
X58211D02*
X57161D01*
X56637Y36548D01*
Y37598D01*
X57161Y38123D01*
X58211D01*
X58736Y37598D01*
Y36548D01*
X58211Y36024D01*
X52439Y39172D02*
X51389D01*
X51914D01*
Y36024D01*
X52439D01*
X51389D01*
X48241Y39172D02*
X49290D01*
X49815Y38647D01*
Y36548D01*
X49290Y36024D01*
X48241D01*
X47716Y36548D01*
Y38647D01*
X48241Y39172D01*
X44567Y36024D02*
X46666D01*
X44567Y38123D01*
Y38647D01*
X45092Y39172D01*
X46141D01*
X46666Y38647D01*
X41419Y39172D02*
X42468Y38647D01*
X43518Y37598D01*
Y36548D01*
X42993Y36024D01*
X41943D01*
X41419Y36548D01*
Y37073D01*
X41943Y37598D01*
X43518D01*
X83925Y41929D02*
X86024D01*
X83925Y44028D01*
Y44553D01*
X84449Y45078D01*
X85499D01*
X86024Y44553D01*
X81301Y41929D02*
Y45078D01*
X82875Y43503D01*
X80776D01*
X79726Y45078D02*
Y42979D01*
X78677Y41929D01*
X77627Y42979D01*
Y45078D01*
X73429Y43503D02*
X71330D01*
X70281Y41929D02*
X68706Y43503D01*
X70281Y45078D01*
X64508Y44553D02*
X63984Y45078D01*
X62934D01*
X62409Y44553D01*
Y44028D01*
X62934Y43503D01*
X63459D01*
X62934D01*
X62409Y42979D01*
Y42454D01*
X62934Y41929D01*
X63984D01*
X64508Y42454D01*
X61360Y41929D02*
Y42454D01*
X60835D01*
Y41929D01*
X61360D01*
X58736Y44553D02*
X58211Y45078D01*
X57161D01*
X56637Y44553D01*
Y44028D01*
X57161Y43503D01*
X57686D01*
X57161D01*
X56637Y42979D01*
Y42454D01*
X57161Y41929D01*
X58211D01*
X58736Y42454D01*
X55587Y45078D02*
Y42979D01*
X54538Y41929D01*
X53488Y42979D01*
Y45078D01*
X86024Y51048D02*
Y47900D01*
X84449D01*
X83925Y48425D01*
Y48949D01*
X84449Y49474D01*
X86024D01*
X84449D01*
X83925Y49999D01*
Y50524D01*
X84449Y51048D01*
X86024D01*
X82350Y49999D02*
X81301D01*
X80776Y49474D01*
Y47900D01*
X82350D01*
X82875Y48425D01*
X82350Y48949D01*
X80776D01*
X79202Y50524D02*
Y49999D01*
X79726D01*
X78677D01*
X79202D01*
Y48425D01*
X78677Y47900D01*
X76578Y50524D02*
Y49999D01*
X77103D01*
X76053D01*
X76578D01*
Y48425D01*
X76053Y47900D01*
X72904D02*
X73954D01*
X74479Y48425D01*
Y49474D01*
X73954Y49999D01*
X72904D01*
X72380Y49474D01*
Y48949D01*
X74479D01*
X71330Y49999D02*
Y47900D01*
Y48949D01*
X70805Y49474D01*
X70281Y49999D01*
X69756D01*
X68182D02*
Y48425D01*
X67657Y47900D01*
X66083D01*
Y47375D01*
X66607Y46850D01*
X67132D01*
X66083Y47900D02*
Y49999D01*
X61884Y47900D02*
Y51048D01*
X60835Y49999D01*
X59785Y51048D01*
Y47900D01*
X57161D02*
X58211D01*
X58736Y48425D01*
Y49474D01*
X58211Y49999D01*
X57161D01*
X56637Y49474D01*
Y48949D01*
X58736D01*
X55063Y49999D02*
X54013D01*
X53488Y49474D01*
Y47900D01*
X55063D01*
X55587Y48425D01*
X55063Y48949D01*
X53488D01*
X52439Y47900D02*
X50864D01*
X50340Y48425D01*
X50864Y48949D01*
X51914D01*
X52439Y49474D01*
X51914Y49999D01*
X50340D01*
X49290D02*
Y48425D01*
X48765Y47900D01*
X47191D01*
Y49999D01*
X46141D02*
Y47900D01*
Y48949D01*
X45617Y49474D01*
X45092Y49999D01*
X44567D01*
X41419Y47900D02*
X42468D01*
X42993Y48425D01*
Y49474D01*
X42468Y49999D01*
X41419D01*
X40894Y49474D01*
Y48949D01*
X42993D01*
X100657Y39632D02*
X101182Y40156D01*
X102231D01*
X102756Y39632D01*
Y37533D01*
X102231Y37008D01*
X101182D01*
X100657Y37533D01*
Y38582D01*
X101706D01*
X99607Y37008D02*
Y40156D01*
X97508Y37008D01*
Y40156D01*
X96459D02*
Y37008D01*
X94884D01*
X94360Y37533D01*
Y39632D01*
X94884Y40156D01*
X96459D01*
X102756Y49999D02*
Y47900D01*
X101706Y46850D01*
X100657Y47900D01*
Y49999D01*
X99607D02*
X98558D01*
X99083D01*
Y46850D01*
X99607D01*
X98558D01*
X96983D02*
Y49999D01*
X94884Y46850D01*
Y49999D01*
X158728Y117912D02*
X160827D01*
Y114764D01*
X158728D01*
X160827Y116338D02*
X159777D01*
X155579Y117388D02*
X156104Y117912D01*
X157153D01*
X157678Y117388D01*
Y116863D01*
X157153Y116338D01*
X156104D01*
X155579Y115813D01*
Y115288D01*
X156104Y114764D01*
X157153D01*
X157678Y115288D01*
X154530Y114764D02*
Y117912D01*
X152955D01*
X152430Y117388D01*
Y116338D01*
X152955Y115813D01*
X154530D01*
X151381Y117388D02*
X150856Y117912D01*
X149807D01*
X149282Y117388D01*
Y116863D01*
X149807Y116338D01*
X150331D01*
X149807D01*
X149282Y115813D01*
Y115288D01*
X149807Y114764D01*
X150856D01*
X151381Y115288D01*
X146133Y114764D02*
X148232D01*
X146133Y116863D01*
Y117388D01*
X146658Y117912D01*
X147708D01*
X148232Y117388D01*
X141935Y117912D02*
Y114764D01*
X140361D01*
X139836Y115288D01*
Y115813D01*
X140361Y116338D01*
X141935D01*
X140361D01*
X139836Y116863D01*
Y117388D01*
X140361Y117912D01*
X141935D01*
X138787Y116863D02*
Y114764D01*
Y115813D01*
X138262Y116338D01*
X137737Y116863D01*
X137212D01*
X134064Y114764D02*
X135113D01*
X135638Y115288D01*
Y116338D01*
X135113Y116863D01*
X134064D01*
X133539Y116338D01*
Y115813D01*
X135638D01*
X131965Y116863D02*
X130915D01*
X130390Y116338D01*
Y114764D01*
X131965D01*
X132490Y115288D01*
X131965Y115813D01*
X130390D01*
X129341Y114764D02*
Y117912D01*
Y115813D02*
X127767Y116863D01*
X129341Y115813D02*
X127767Y114764D01*
X125668D02*
X124618D01*
X124093Y115288D01*
Y116338D01*
X124618Y116863D01*
X125668D01*
X126192Y116338D01*
Y115288D01*
X125668Y114764D01*
X123044Y116863D02*
Y115288D01*
X122519Y114764D01*
X120945D01*
Y116863D01*
X119370Y117388D02*
Y116863D01*
X119895D01*
X118846D01*
X119370D01*
Y115288D01*
X118846Y114764D01*
X160827Y123883D02*
X158728D01*
X159777D01*
Y120735D01*
X156104D02*
X157153D01*
X157678Y121259D01*
Y122309D01*
X157153Y122834D01*
X156104D01*
X155579Y122309D01*
Y121784D01*
X157678D01*
X152955Y120735D02*
X154005D01*
X154530Y121259D01*
Y122309D01*
X154005Y122834D01*
X152955D01*
X152430Y122309D01*
Y121784D01*
X154530D01*
X151381Y120735D02*
Y122834D01*
X149807D01*
X149282Y122309D01*
Y120735D01*
X148232D02*
X146658D01*
X146133Y121259D01*
X146658Y121784D01*
X147708D01*
X148232Y122309D01*
X147708Y122834D01*
X146133D01*
X145084D02*
Y121259D01*
X144559Y120735D01*
X142985D01*
Y120210D01*
X143509Y119685D01*
X144034D01*
X142985Y120735D02*
Y122834D01*
X138262D02*
X137212D01*
X136688Y122309D01*
Y120735D01*
X138262D01*
X138787Y121259D01*
X138262Y121784D01*
X136688D01*
X135638Y120735D02*
Y122834D01*
X134064D01*
X133539Y122309D01*
Y120735D01*
X130390Y123883D02*
Y120735D01*
X131965D01*
X132490Y121259D01*
Y122309D01*
X131965Y122834D01*
X130390D01*
X207810Y135236D02*
Y133137D01*
Y134187D01*
X210958D01*
Y130513D02*
Y131563D01*
X210434Y132088D01*
X209384D01*
X208859Y131563D01*
Y130513D01*
X209384Y129989D01*
X209909D01*
Y132088D01*
X210958Y127365D02*
Y128414D01*
X210434Y128939D01*
X209384D01*
X208859Y128414D01*
Y127365D01*
X209384Y126840D01*
X209909D01*
Y128939D01*
X210958Y125791D02*
X208859D01*
Y124216D01*
X209384Y123691D01*
X210958D01*
Y122642D02*
Y121068D01*
X210434Y120543D01*
X209909Y121068D01*
Y122117D01*
X209384Y122642D01*
X208859Y122117D01*
Y120543D01*
Y119493D02*
X210434D01*
X210958Y118968D01*
Y117394D01*
X211483D01*
X212008Y117919D01*
Y118444D01*
X210958Y117394D02*
X208859D01*
X208334Y111097D02*
X207810Y111622D01*
Y112671D01*
X208334Y113196D01*
X208859D01*
X209384Y112671D01*
Y111622D01*
X209909Y111097D01*
X210434D01*
X210958Y111622D01*
Y112671D01*
X210434Y113196D01*
X210958Y110047D02*
X207810D01*
Y108473D01*
X208334Y107949D01*
X209384D01*
X209909Y108473D01*
Y110047D01*
X207810Y106899D02*
Y105849D01*
Y106374D01*
X210958D01*
Y106899D01*
Y105849D01*
X208859Y70145D02*
Y72244D01*
X212008D01*
Y70145D01*
X210434Y72244D02*
Y71195D01*
X209384Y66997D02*
X208859Y67521D01*
Y68571D01*
X209384Y69095D01*
X209909D01*
X210434Y68571D01*
Y67521D01*
X210958Y66997D01*
X211483D01*
X212008Y67521D01*
Y68571D01*
X211483Y69095D01*
X212008Y65947D02*
X208859D01*
Y64373D01*
X209384Y63848D01*
X210434D01*
X210958Y64373D01*
Y65947D01*
X209384Y62798D02*
X208859Y62274D01*
Y61224D01*
X209384Y60699D01*
X209909D01*
X210434Y61224D01*
Y61749D01*
Y61224D01*
X210958Y60699D01*
X211483D01*
X212008Y61224D01*
Y62274D01*
X211483Y62798D01*
X212008Y57551D02*
Y59650D01*
X209909Y57551D01*
X209384D01*
X208859Y58075D01*
Y59125D01*
X209384Y59650D01*
Y51253D02*
X208859Y51778D01*
Y52828D01*
X209384Y53353D01*
X209909D01*
X210434Y52828D01*
Y51778D01*
X210958Y51253D01*
X211483D01*
X212008Y51778D01*
Y52828D01*
X211483Y53353D01*
X212008Y50204D02*
X208859D01*
Y48630D01*
X209384Y48105D01*
X210434D01*
X210958Y48630D01*
Y50204D01*
X208859Y47055D02*
Y46006D01*
Y46531D01*
X212008D01*
Y47055D01*
Y46006D01*
X225657Y88844D02*
X226182Y89369D01*
X227231D01*
X227756Y88844D01*
Y86745D01*
X227231Y86221D01*
X226182D01*
X225657Y86745D01*
Y87795D01*
X226706D01*
X224607Y86221D02*
Y89369D01*
X222508Y86221D01*
Y89369D01*
X221459D02*
Y86221D01*
X219884D01*
X219360Y86745D01*
Y88844D01*
X219884Y89369D01*
X221459D01*
X227842Y99413D02*
X227318Y99938D01*
X226268D01*
X225743Y99413D01*
Y98888D01*
X226268Y98364D01*
X226793D01*
X226268D01*
X225743Y97839D01*
Y97314D01*
X226268Y96789D01*
X227318D01*
X227842Y97314D01*
X224694Y99938D02*
Y97839D01*
X223644Y96789D01*
X222595Y97839D01*
Y99938D01*
X221545Y99413D02*
X221020Y99938D01*
X219971D01*
X219446Y99413D01*
Y98888D01*
X219971Y98364D01*
X220496D01*
X219971D01*
X219446Y97839D01*
Y97314D01*
X219971Y96789D01*
X221020D01*
X221545Y97314D01*
X225787Y126575D02*
X224738D01*
X225263D01*
Y129723D01*
X225787Y129199D01*
X223164Y126575D02*
X222114D01*
X222639D01*
Y129723D01*
X223164Y129199D01*
X226772Y136417D02*
X225722D01*
X226247D01*
Y139566D01*
X226772Y139041D01*
X222049Y136417D02*
X224148D01*
X222049Y138516D01*
Y139041D01*
X222573Y139566D01*
X223623D01*
X224148Y139041D01*
X225787Y116732D02*
X224738D01*
X225263D01*
Y119881D01*
X225787Y119356D01*
X223164D02*
X222639Y119881D01*
X221589D01*
X221064Y119356D01*
Y118831D01*
X221589Y118307D01*
X222114D01*
X221589D01*
X221064Y117782D01*
Y117257D01*
X221589Y116732D01*
X222639D01*
X223164Y117257D01*
X219164Y106378D02*
X221264D01*
X219164Y108477D01*
Y109002D01*
X219689Y109527D01*
X220739D01*
X221264Y109002D01*
X218115D02*
X217590Y109527D01*
X216541D01*
X216016Y109002D01*
Y108477D01*
X216541Y107953D01*
X217066D01*
X216541D01*
X216016Y107428D01*
Y106903D01*
X216541Y106378D01*
X217590D01*
X218115Y106903D01*
X230709Y105905D02*
X229659D01*
X230184D01*
Y109054D01*
X230709Y108529D01*
X228085D02*
X227560Y109054D01*
X226511D01*
X225986Y108529D01*
Y106430D01*
X226511Y105905D01*
X227560D01*
X228085Y106430D01*
Y108529D01*
X228610Y42913D02*
X230709D01*
X228610Y45012D01*
Y45537D01*
X229134Y46062D01*
X230184D01*
X230709Y45537D01*
X225461Y46062D02*
X227560D01*
Y44488D01*
X226511Y45012D01*
X225986D01*
X225461Y44488D01*
Y43438D01*
X225986Y42913D01*
X227035D01*
X227560Y43438D01*
X218308Y42913D02*
Y46062D01*
X219882Y44488D01*
X217783D01*
X226772Y56889D02*
X225722D01*
X226247D01*
Y53740D01*
X226772D01*
X225722D01*
X222573Y56889D02*
X223623D01*
X224148Y56364D01*
Y54265D01*
X223623Y53740D01*
X222573D01*
X222049Y54265D01*
Y56364D01*
X222573Y56889D01*
X218900D02*
X220999D01*
Y55314D01*
X219950Y55839D01*
X219425D01*
X218900Y55314D01*
Y54265D01*
X219425Y53740D01*
X220475D01*
X220999Y54265D01*
X228740Y76574D02*
X227691D01*
X228215D01*
Y73425D01*
X228740D01*
X227691D01*
X224542Y76574D02*
X225592D01*
X226116Y76049D01*
Y73950D01*
X225592Y73425D01*
X224542D01*
X224017Y73950D01*
Y76049D01*
X224542Y76574D01*
X222968Y73425D02*
X221918D01*
X222443D01*
Y76574D01*
X222968Y76049D01*
X220344Y73950D02*
X219819Y73425D01*
X218770D01*
X218245Y73950D01*
Y76049D01*
X218770Y76574D01*
X219819D01*
X220344Y76049D01*
Y75524D01*
X219819Y74999D01*
X218245D01*
X228740Y66731D02*
X227691D01*
X228215D01*
Y63583D01*
X228740D01*
X227691D01*
X224542Y66731D02*
X225592D01*
X226116Y66207D01*
Y64107D01*
X225592Y63583D01*
X224542D01*
X224017Y64107D01*
Y66207D01*
X224542Y66731D01*
X222968Y63583D02*
X221918D01*
X222443D01*
Y66731D01*
X222968Y66207D01*
X220344D02*
X219819Y66731D01*
X218770D01*
X218245Y66207D01*
Y65682D01*
X218770Y65157D01*
X218245Y64632D01*
Y64107D01*
X218770Y63583D01*
X219819D01*
X220344Y64107D01*
Y64632D01*
X219819Y65157D01*
X220344Y65682D01*
Y66207D01*
X219819Y65157D02*
X218770D01*
X107481Y123425D02*
Y122376D01*
Y122900D01*
X110630D01*
Y123425D01*
Y122376D01*
X107481Y119227D02*
Y120277D01*
X108006Y120801D01*
X110105D01*
X110630Y120277D01*
Y119227D01*
X110105Y118702D01*
X108006D01*
X107481Y119227D01*
X110630Y117653D02*
Y116603D01*
Y117128D01*
X107481D01*
X108006Y117653D01*
X97639Y123425D02*
Y122376D01*
Y122900D01*
X100787D01*
Y123425D01*
Y122376D01*
X97639Y119227D02*
Y120277D01*
X98164Y120801D01*
X100263D01*
X100787Y120277D01*
Y119227D01*
X100263Y118702D01*
X98164D01*
X97639Y119227D01*
X98164Y117653D02*
X97639Y117128D01*
Y116078D01*
X98164Y115554D01*
X98688D01*
X99213Y116078D01*
Y116603D01*
Y116078D01*
X99738Y115554D01*
X100263D01*
X100787Y116078D01*
Y117128D01*
X100263Y117653D01*
X87796Y123425D02*
Y122376D01*
Y122900D01*
X90945D01*
Y123425D01*
Y122376D01*
X87796Y119227D02*
Y120277D01*
X88321Y120801D01*
X90420D01*
X90945Y120277D01*
Y119227D01*
X90420Y118702D01*
X88321D01*
X87796Y119227D01*
X90945Y116078D02*
X87796D01*
X89371Y117653D01*
Y115554D01*
X78366Y124979D02*
Y123930D01*
Y124455D01*
X81515D01*
Y124979D01*
Y123930D01*
X78366Y120781D02*
Y121831D01*
X78891Y122356D01*
X80990D01*
X81515Y121831D01*
Y120781D01*
X80990Y120257D01*
X78891D01*
X78366Y120781D01*
X81515Y119207D02*
Y118157D01*
Y118682D01*
X78366D01*
X78891Y119207D01*
X78366Y114484D02*
Y116583D01*
X79940D01*
X79416Y115534D01*
Y115009D01*
X79940Y114484D01*
X80990D01*
X81515Y115009D01*
Y116059D01*
X80990Y116583D01*
X67539Y124979D02*
Y123930D01*
Y124455D01*
X70688D01*
Y124979D01*
Y123930D01*
X67539Y120781D02*
Y121831D01*
X68064Y122356D01*
X70163D01*
X70688Y121831D01*
Y120781D01*
X70163Y120257D01*
X68064D01*
X67539Y120781D01*
X70688Y117108D02*
Y119207D01*
X68589Y117108D01*
X68064D01*
X67539Y117633D01*
Y118682D01*
X68064Y119207D01*
X70688Y113959D02*
Y116059D01*
X68589Y113959D01*
X68064D01*
X67539Y114484D01*
Y115534D01*
X68064Y116059D01*
X57697Y124979D02*
Y123930D01*
Y124455D01*
X60845D01*
Y124979D01*
Y123930D01*
X57697Y120781D02*
Y121831D01*
X58221Y122356D01*
X60321D01*
X60845Y121831D01*
Y120781D01*
X60321Y120257D01*
X58221D01*
X57697Y120781D01*
X60845Y117108D02*
Y119207D01*
X58746Y117108D01*
X58221D01*
X57697Y117633D01*
Y118682D01*
X58221Y119207D01*
Y116059D02*
X57697Y115534D01*
Y114484D01*
X58221Y113959D01*
X58746D01*
X59271Y114484D01*
Y115009D01*
Y114484D01*
X59796Y113959D01*
X60321D01*
X60845Y114484D01*
Y115534D01*
X60321Y116059D01*
X47442Y123425D02*
Y122376D01*
Y122900D01*
X50591D01*
Y123425D01*
Y122376D01*
X47442Y119227D02*
Y120277D01*
X47967Y120801D01*
X50066D01*
X50591Y120277D01*
Y119227D01*
X50066Y118702D01*
X47967D01*
X47442Y119227D01*
X50066Y117653D02*
X50591Y117128D01*
Y116078D01*
X50066Y115554D01*
X47967D01*
X47442Y116078D01*
Y117128D01*
X47967Y117653D01*
X48491D01*
X49016Y117128D01*
Y115554D01*
X38012Y124979D02*
Y123930D01*
Y124455D01*
X41160D01*
Y124979D01*
Y123930D01*
X38012Y120781D02*
Y121831D01*
X38536Y122356D01*
X40635D01*
X41160Y121831D01*
Y120781D01*
X40635Y120257D01*
X38536D01*
X38012Y120781D01*
X41160Y117108D02*
Y119207D01*
X39061Y117108D01*
X38536D01*
X38012Y117633D01*
Y118682D01*
X38536Y119207D01*
X38012Y113959D02*
X38536Y115009D01*
X39586Y116059D01*
X40635D01*
X41160Y115534D01*
Y114484D01*
X40635Y113959D01*
X40111D01*
X39586Y114484D01*
Y116059D01*
X28169Y124979D02*
Y123930D01*
Y124455D01*
X31318D01*
Y124979D01*
Y123930D01*
X28169Y120781D02*
Y121831D01*
X28694Y122356D01*
X30793D01*
X31318Y121831D01*
Y120781D01*
X30793Y120257D01*
X28694D01*
X28169Y120781D01*
X28694Y119207D02*
X28169Y118682D01*
Y117633D01*
X28694Y117108D01*
X29219D01*
X29743Y117633D01*
Y118157D01*
Y117633D01*
X30268Y117108D01*
X30793D01*
X31318Y117633D01*
Y118682D01*
X30793Y119207D01*
X28169Y113959D02*
Y116059D01*
X29743D01*
X29219Y115009D01*
Y114484D01*
X29743Y113959D01*
X30793D01*
X31318Y114484D01*
Y115534D01*
X30793Y116059D01*
X18327Y124979D02*
Y123930D01*
Y124455D01*
X21475D01*
Y124979D01*
Y123930D01*
X18327Y120781D02*
Y121831D01*
X18851Y122356D01*
X20950D01*
X21475Y121831D01*
Y120781D01*
X20950Y120257D01*
X18851D01*
X18327Y120781D01*
X21475Y117108D02*
Y119207D01*
X19376Y117108D01*
X18851D01*
X18327Y117633D01*
Y118682D01*
X18851Y119207D01*
X21475Y116059D02*
Y115009D01*
Y115534D01*
X18327D01*
X18851Y116059D01*
X7088Y123425D02*
Y122376D01*
Y122900D01*
X10236D01*
Y123425D01*
Y122376D01*
X7088Y119227D02*
Y120277D01*
X7612Y120801D01*
X9712D01*
X10236Y120277D01*
Y119227D01*
X9712Y118702D01*
X7612D01*
X7088Y119227D01*
X10236Y115554D02*
Y117653D01*
X8137Y115554D01*
X7612D01*
X7088Y116078D01*
Y117128D01*
X7612Y117653D01*
X7102Y90119D02*
Y89069D01*
Y89594D01*
X10250D01*
Y90119D01*
Y89069D01*
X7102Y85921D02*
Y86970D01*
X7626Y87495D01*
X9726D01*
X10250Y86970D01*
Y85921D01*
X9726Y85396D01*
X7626D01*
X7102Y85921D01*
X10250Y82248D02*
Y84347D01*
X8151Y82248D01*
X7626D01*
X7102Y82772D01*
Y83822D01*
X7626Y84347D01*
X7102Y81198D02*
Y79099D01*
X7626D01*
X9726Y81198D01*
X10250D01*
X17929Y90119D02*
Y89069D01*
Y89594D01*
X21077D01*
Y90119D01*
Y89069D01*
X17929Y85921D02*
Y86970D01*
X18453Y87495D01*
X20552D01*
X21077Y86970D01*
Y85921D01*
X20552Y85396D01*
X18453D01*
X17929Y85921D01*
X18453Y84347D02*
X17929Y83822D01*
Y82772D01*
X18453Y82248D01*
X18978D01*
X19503Y82772D01*
Y83297D01*
Y82772D01*
X20028Y82248D01*
X20552D01*
X21077Y82772D01*
Y83822D01*
X20552Y84347D01*
X18453Y81198D02*
X17929Y80673D01*
Y79624D01*
X18453Y79099D01*
X18978D01*
X19503Y79624D01*
Y80149D01*
Y79624D01*
X20028Y79099D01*
X20552D01*
X21077Y79624D01*
Y80673D01*
X20552Y81198D01*
X27771Y90119D02*
Y89069D01*
Y89594D01*
X30920D01*
Y90119D01*
Y89069D01*
X27771Y85921D02*
Y86970D01*
X28296Y87495D01*
X30395D01*
X30920Y86970D01*
Y85921D01*
X30395Y85396D01*
X28296D01*
X27771Y85921D01*
X30920Y84347D02*
Y83297D01*
Y83822D01*
X27771D01*
X28296Y84347D01*
X27771Y79624D02*
Y81723D01*
X29345D01*
X28821Y80673D01*
Y80149D01*
X29345Y79624D01*
X30395D01*
X30920Y80149D01*
Y81198D01*
X30395Y81723D01*
X37613Y90119D02*
Y89069D01*
Y89594D01*
X40762D01*
Y90119D01*
Y89069D01*
X37613Y85921D02*
Y86970D01*
X38138Y87495D01*
X40237D01*
X40762Y86970D01*
Y85921D01*
X40237Y85396D01*
X38138D01*
X37613Y85921D01*
X38138Y84347D02*
X37613Y83822D01*
Y82772D01*
X38138Y82248D01*
X38663D01*
X39188Y82772D01*
Y83297D01*
Y82772D01*
X39713Y82248D01*
X40237D01*
X40762Y82772D01*
Y83822D01*
X40237Y84347D01*
X40762Y79099D02*
Y81198D01*
X38663Y79099D01*
X38138D01*
X37613Y79624D01*
Y80673D01*
X38138Y81198D01*
X47456Y90119D02*
Y89069D01*
Y89594D01*
X50605D01*
Y90119D01*
Y89069D01*
X47456Y85921D02*
Y86970D01*
X47981Y87495D01*
X50080D01*
X50605Y86970D01*
Y85921D01*
X50080Y85396D01*
X47981D01*
X47456Y85921D01*
X50605Y84347D02*
Y83297D01*
Y83822D01*
X47456D01*
X47981Y84347D01*
X50605Y80149D02*
X47456D01*
X49030Y81723D01*
Y79624D01*
X57284Y87992D02*
Y86943D01*
Y87467D01*
X60433D01*
Y87992D01*
Y86943D01*
X57284Y83794D02*
Y84843D01*
X57809Y85368D01*
X59908D01*
X60433Y84843D01*
Y83794D01*
X59908Y83269D01*
X57809D01*
X57284Y83794D01*
X60433Y80645D02*
X57284D01*
X58859Y82220D01*
Y80121D01*
X68125Y90119D02*
Y89069D01*
Y89594D01*
X71274D01*
Y90119D01*
Y89069D01*
X68125Y85921D02*
Y86970D01*
X68650Y87495D01*
X70749D01*
X71274Y86970D01*
Y85921D01*
X70749Y85396D01*
X68650D01*
X68125Y85921D01*
X68650Y84347D02*
X68125Y83822D01*
Y82772D01*
X68650Y82248D01*
X69175D01*
X69700Y82772D01*
Y83297D01*
Y82772D01*
X70224Y82248D01*
X70749D01*
X71274Y82772D01*
Y83822D01*
X70749Y84347D01*
X68125Y79099D02*
X68650Y80149D01*
X69700Y81198D01*
X70749D01*
X71274Y80673D01*
Y79624D01*
X70749Y79099D01*
X70224D01*
X69700Y79624D01*
Y81198D01*
X77968Y90119D02*
Y89069D01*
Y89594D01*
X81116D01*
Y90119D01*
Y89069D01*
X77968Y85921D02*
Y86970D01*
X78493Y87495D01*
X80592D01*
X81116Y86970D01*
Y85921D01*
X80592Y85396D01*
X78493D01*
X77968Y85921D01*
X78493Y84347D02*
X77968Y83822D01*
Y82772D01*
X78493Y82248D01*
X79017D01*
X79542Y82772D01*
Y83297D01*
Y82772D01*
X80067Y82248D01*
X80592D01*
X81116Y82772D01*
Y83822D01*
X80592Y84347D01*
Y81198D02*
X81116Y80673D01*
Y79624D01*
X80592Y79099D01*
X78493D01*
X77968Y79624D01*
Y80673D01*
X78493Y81198D01*
X79017D01*
X79542Y80673D01*
Y79099D01*
X87810Y90119D02*
Y89069D01*
Y89594D01*
X90959D01*
Y90119D01*
Y89069D01*
X87810Y85921D02*
Y86970D01*
X88335Y87495D01*
X90434D01*
X90959Y86970D01*
Y85921D01*
X90434Y85396D01*
X88335D01*
X87810Y85921D01*
X88335Y84347D02*
X87810Y83822D01*
Y82772D01*
X88335Y82248D01*
X88860D01*
X89385Y82772D01*
Y83297D01*
Y82772D01*
X89909Y82248D01*
X90434D01*
X90959Y82772D01*
Y83822D01*
X90434Y84347D01*
X90959Y79624D02*
X87810D01*
X89385Y81198D01*
Y79099D01*
X97653Y90119D02*
Y89069D01*
Y89594D01*
X100802D01*
Y90119D01*
Y89069D01*
X97653Y85921D02*
Y86970D01*
X98178Y87495D01*
X100277D01*
X100802Y86970D01*
Y85921D01*
X100277Y85396D01*
X98178D01*
X97653Y85921D01*
X100802Y82248D02*
Y84347D01*
X98702Y82248D01*
X98178D01*
X97653Y82772D01*
Y83822D01*
X98178Y84347D01*
X97653Y79099D02*
Y81198D01*
X99227D01*
X98702Y80149D01*
Y79624D01*
X99227Y79099D01*
X100277D01*
X100802Y79624D01*
Y80673D01*
X100277Y81198D01*
X123425Y98687D02*
X122900Y99212D01*
X121851D01*
X121326Y98687D01*
Y98162D01*
X121851Y97637D01*
X122376D01*
X121851D01*
X121326Y97113D01*
Y96588D01*
X121851Y96063D01*
X122900D01*
X123425Y96588D01*
X120277Y99212D02*
Y97113D01*
X119227Y96063D01*
X118178Y97113D01*
Y99212D01*
X117128Y98687D02*
X116603Y99212D01*
X115554D01*
X115029Y98687D01*
Y98162D01*
X115554Y97637D01*
X116078D01*
X115554D01*
X115029Y97113D01*
Y96588D01*
X115554Y96063D01*
X116603D01*
X117128Y96588D01*
X149870Y99212D02*
X151969D01*
Y97637D01*
X150919Y98162D01*
X150394D01*
X149870Y97637D01*
Y96588D01*
X150394Y96063D01*
X151444D01*
X151969Y96588D01*
X148820Y99212D02*
Y97113D01*
X147770Y96063D01*
X146721Y97113D01*
Y99212D01*
X141995Y108529D02*
X142520Y109054D01*
X143570D01*
X144095Y108529D01*
Y106430D01*
X143570Y105905D01*
X142520D01*
X141995Y106430D01*
Y107480D01*
X143045D01*
X140946Y105905D02*
Y109054D01*
X138847Y105905D01*
Y109054D01*
X137797D02*
Y105905D01*
X136223D01*
X135698Y106430D01*
Y108529D01*
X136223Y109054D01*
X137797D01*
X227756Y35695D02*
X227231Y36219D01*
X226182D01*
X225657Y35695D01*
Y35170D01*
X226182Y34645D01*
X226706D01*
X226182D01*
X225657Y34120D01*
Y33596D01*
X226182Y33071D01*
X227231D01*
X227756Y33596D01*
X224607Y36219D02*
Y34120D01*
X223558Y33071D01*
X222508Y34120D01*
Y36219D01*
X221459Y35695D02*
X220934Y36219D01*
X219884D01*
X219360Y35695D01*
Y35170D01*
X219884Y34645D01*
X220409D01*
X219884D01*
X219360Y34120D01*
Y33596D01*
X219884Y33071D01*
X220934D01*
X221459Y33596D01*
X225657Y25852D02*
X226182Y26377D01*
X227231D01*
X227756Y25852D01*
Y23753D01*
X227231Y23228D01*
X226182D01*
X225657Y23753D01*
Y24803D01*
X226706D01*
X224607Y23228D02*
Y26377D01*
X222508Y23228D01*
Y26377D01*
X221459D02*
Y23228D01*
X219884D01*
X219360Y23753D01*
Y25852D01*
X219884Y26377D01*
X221459D01*
D18*
X3937Y78740D02*
X5906Y76772D01*
X3937Y78740D02*
Y126969D01*
X5906Y76772D02*
Y76772D01*
Y76772D02*
X13780D01*
X3937Y78740D02*
Y92520D01*
X5906Y76772D02*
X104331D01*
X23622Y184055D02*
Y201772D01*
Y184055D02*
X25591Y182087D01*
X184055D01*
X23622Y201772D02*
X133858D01*
X181102Y174213D02*
X184055Y177165D01*
X177165Y174213D02*
X181102D01*
X172608Y163749D02*
Y169655D01*
X177165Y174213D01*
X184055Y177165D02*
Y182087D01*
X172608Y143080D02*
Y163749D01*
X221457Y148622D02*
X221457Y148622D01*
X218504Y145669D02*
X221457Y148622D01*
X217520Y144685D02*
X218504Y145669D01*
X202756Y144685D02*
X217520D01*
X222441Y146654D02*
X227362D01*
X217520Y141732D02*
X222441Y146654D01*
X212598Y141732D02*
X217520D01*
X201772Y130906D02*
X212598Y141732D01*
X179134Y61024D02*
X196850D01*
X177165Y59055D02*
X179134Y61024D01*
X177165Y30512D02*
Y59055D01*
X179134Y124016D02*
X196851D01*
X177165Y122047D02*
X179134Y124016D01*
X177165Y93504D02*
Y122047D01*
X189961Y184055D02*
Y201772D01*
Y184055D02*
X191929Y182087D01*
X220472D01*
X233268Y156496D02*
Y185039D01*
X235236Y187008D01*
X252953D01*
X213583Y29528D02*
Y73819D01*
X219488Y79724D01*
X233268D01*
X221457Y142717D02*
X233268D01*
X213583Y134842D02*
X221457Y142717D01*
X213583Y92520D02*
Y134842D01*
X196851Y124016D02*
X198156Y125321D01*
Y168629D01*
X195866Y144685D02*
Y154528D01*
X177165Y144685D02*
X195866D01*
X178149Y154528D02*
X195866D01*
X221457Y148622D02*
Y154528D01*
X200787Y146653D02*
X202756Y144685D01*
X200787Y146653D02*
Y151575D01*
X203740Y154528D01*
X221457D01*
X175197Y146653D02*
X177165Y144685D01*
X175197Y146653D02*
Y151575D01*
X178149Y154528D01*
X170276Y144685D02*
Y154528D01*
X151575Y144685D02*
X170276D01*
X149606Y146653D02*
X151575Y144685D01*
X149606Y146653D02*
Y151575D01*
X152559Y154528D01*
X170276D01*
X144685Y144685D02*
Y154528D01*
X125984Y144685D02*
X144685D01*
X124016Y146653D02*
X125984Y144685D01*
X124016Y146653D02*
Y151575D01*
X126969Y154528D01*
X144685D01*
X119094Y144685D02*
Y154528D01*
X100394Y144685D02*
X119094D01*
X98425Y146653D02*
X100394Y144685D01*
X98425Y146653D02*
Y151575D01*
X101378Y154528D01*
X119094D01*
X93504Y144685D02*
Y154528D01*
X74803Y144685D02*
X93504D01*
X72834Y146653D02*
X74803Y144685D01*
X72834Y146653D02*
Y151575D01*
X75787Y154528D01*
X93504D01*
X67913Y144685D02*
Y154528D01*
X49213Y144685D02*
X67913D01*
X47244Y146653D02*
X49213Y144685D01*
X47244Y146653D02*
Y151575D01*
X50197Y154528D01*
X67913D01*
X24606D02*
X42323D01*
X21654Y151575D02*
X24606Y154528D01*
X21654Y146653D02*
Y151575D01*
Y146653D02*
X23622Y144685D01*
X42323D01*
Y154528D01*
X104331Y76772D02*
X164370D01*
Y92519D01*
X164370Y92520D02*
X164370Y92519D01*
X104331Y92520D02*
Y93504D01*
X114173Y103346D02*
Y126969D01*
X104331Y111220D02*
Y126969D01*
X94488D02*
X104331D01*
X94488Y76772D02*
Y126969D01*
X84646Y76772D02*
X94488D01*
X84646D02*
Y126969D01*
X74803D02*
X84646D01*
X74803Y76772D02*
Y126969D01*
X63976Y76772D02*
X74803D01*
X63976D02*
Y126969D01*
X54134D02*
X63976D01*
X54134Y76772D02*
Y126969D01*
X44291Y76772D02*
X54134D01*
X44291D02*
Y126969D01*
X34449D02*
X44291D01*
X34449Y76772D02*
Y126969D01*
X24606Y76772D02*
X34449D01*
X24606D02*
Y126969D01*
X13780D02*
X24606D01*
X13780Y76772D02*
Y126969D01*
X3937D02*
X114173D01*
X104331Y76772D02*
Y92520D01*
X233268Y30512D02*
X252953D01*
X233268D02*
Y79724D01*
X252953Y20669D02*
Y30512D01*
X233268Y156496D02*
X252953D01*
X177165Y50197D02*
X196850D01*
X177165Y39370D02*
X196850D01*
X177165Y113189D02*
X196850D01*
X177165Y102362D02*
X196850D01*
X37402Y33465D02*
X88583D01*
X37402D02*
Y49213D01*
X41339Y53150D01*
X88583D01*
X98425D01*
X88583Y33465D02*
Y53150D01*
Y33465D02*
X108268D01*
X88583Y53150D02*
X108268D01*
X88583Y43307D02*
X108268D01*
Y53150D02*
X118110D01*
X108268Y33465D02*
Y53150D01*
Y33465D02*
X118110D01*
Y53150D01*
X198156Y168629D02*
X204724Y175197D01*
X225394D01*
X229331Y179134D01*
Y182087D01*
X196850Y61024D02*
X201772Y65945D01*
Y130906D01*
X227362Y146654D02*
X233268D01*
X196850Y83661D02*
Y93504D01*
X177165D02*
X196850D01*
X177165Y83661D02*
Y95472D01*
Y83661D02*
X196850D01*
Y93504D02*
Y124016D01*
Y20669D02*
Y30512D01*
X177165D02*
X196850D01*
X177165Y20669D02*
Y33465D01*
Y20669D02*
X196850D01*
Y29528D02*
Y61024D01*
X189961Y201772D02*
X219488D01*
X252953Y155512D02*
Y187008D01*
X164370Y112205D02*
Y134842D01*
X172608Y143080D01*
X184055Y182087D02*
Y191929D01*
X233268Y83661D02*
Y93504D01*
X213583Y83661D02*
X233268D01*
X213583D02*
Y93504D01*
X233268D01*
X252953Y83661D02*
Y142717D01*
X233268D02*
X252953D01*
X233268Y83661D02*
Y142717D01*
X213583Y102362D02*
X233268D01*
X213583Y113189D02*
X233268D01*
X213583Y123032D02*
X233268D01*
X213583Y132874D02*
X233268D01*
X223425Y102362D02*
Y113189D01*
Y39370D02*
Y50197D01*
X213583Y69882D02*
X233268D01*
X213583Y60039D02*
X233268D01*
X213583Y50197D02*
X233268D01*
X213583Y39370D02*
X233268D01*
Y20669D02*
Y79724D01*
X252953D01*
Y20669D02*
Y79724D01*
X213583Y30512D02*
X233268D01*
X213583Y20669D02*
Y30512D01*
Y20669D02*
X233268D01*
X3937Y92520D02*
X164370Y92520D01*
X3937Y112205D02*
X3937Y92520D01*
X3937Y102362D02*
X164370D01*
X13780Y92520D02*
Y112205D01*
X24606Y92520D02*
Y112205D01*
X3937D02*
X164370D01*
X34449Y92520D02*
Y112205D01*
X44291Y92520D02*
Y112205D01*
X54134Y92520D02*
Y112205D01*
X63976Y92520D02*
Y112205D01*
X74803Y92520D02*
Y112205D01*
X84646Y92520D02*
Y112205D01*
X94488Y92520D02*
Y112205D01*
X104331Y92520D02*
Y112205D01*
X114173Y102362D02*
Y112205D01*
X133858Y92520D02*
Y102362D01*
X164370Y92520D02*
Y112205D01*
X133858Y191929D02*
X184055D01*
X133858D02*
Y201772D01*
X184055D01*
Y191929D02*
Y201772D01*
X229331Y182087D02*
Y201772D01*
X219488Y182087D02*
X229331D01*
X219488D02*
Y201772D01*
X216535D02*
X229331D01*
X233268Y146654D02*
X252953D01*
X233268D02*
Y159449D01*
X252953Y146654D02*
Y156496D01*
Y83661D02*
Y93504D01*
X233268D02*
X252953D01*
X233268Y83661D02*
Y93504D01*
Y83661D02*
X252953D01*
X233268Y20669D02*
X252953D01*
X233268D02*
Y30512D01*
X109236Y3953D02*
Y7888D01*
X107268D01*
X106612Y7232D01*
Y5921D01*
X107268Y5265D01*
X109236D01*
X105300Y6577D02*
Y3953D01*
Y5265D01*
X104645Y5921D01*
X103989Y6577D01*
X103333D01*
X100709Y3953D02*
X99397D01*
X98741Y4609D01*
Y5921D01*
X99397Y6577D01*
X100709D01*
X101365Y5921D01*
Y4609D01*
X100709Y3953D01*
X96773Y7232D02*
Y6577D01*
X97429D01*
X96117D01*
X96773D01*
Y4609D01*
X96117Y3953D01*
X93493D02*
X92181D01*
X91525Y4609D01*
Y5921D01*
X92181Y6577D01*
X93493D01*
X94149Y5921D01*
Y4609D01*
X93493Y3953D01*
X87590Y7232D02*
X88246Y7888D01*
X89557D01*
X90214Y7232D01*
Y4609D01*
X89557Y3953D01*
X88246D01*
X87590Y4609D01*
X85622Y3953D02*
X84310D01*
X83654Y4609D01*
Y5921D01*
X84310Y6577D01*
X85622D01*
X86278Y5921D01*
Y4609D01*
X85622Y3953D01*
X82342D02*
Y6577D01*
X80374D01*
X79718Y5921D01*
Y3953D01*
X77750Y7232D02*
Y6577D01*
X78406D01*
X77094D01*
X77750D01*
Y4609D01*
X77094Y3953D01*
X75126Y6577D02*
Y3953D01*
Y5265D01*
X74471Y5921D01*
X73815Y6577D01*
X73159D01*
X70535Y3953D02*
X69223D01*
X68567Y4609D01*
Y5921D01*
X69223Y6577D01*
X70535D01*
X71191Y5921D01*
Y4609D01*
X70535Y3953D01*
X67255D02*
X65943D01*
X66599D01*
Y7888D01*
X67255D01*
X63975Y3953D02*
X62663D01*
X63319D01*
Y7888D01*
X63975D01*
X58728Y3953D02*
X60040D01*
X60695Y4609D01*
Y5921D01*
X60040Y6577D01*
X58728D01*
X58072Y5921D01*
Y5265D01*
X60695D01*
X56760Y6577D02*
Y3953D01*
Y5265D01*
X56104Y5921D01*
X55448Y6577D01*
X54792D01*
X48888Y7888D02*
Y5265D01*
X47576Y3953D01*
X46264Y5265D01*
Y7888D01*
X44952Y3953D02*
X43641D01*
X44297D01*
Y7888D01*
X44952Y7232D01*
X41673Y3953D02*
Y4609D01*
X41017D01*
Y3953D01*
X41673D01*
X38393D02*
X37081D01*
X37737D01*
Y7888D01*
X38393Y7232D01*
X6812Y100502D02*
X10811D01*
Y94504D01*
X6812D01*
X10811Y97503D02*
X8812D01*
X17639Y100502D02*
X21638D01*
Y94504D01*
X17639D01*
X21638Y97503D02*
X19638D01*
X27482Y100502D02*
X31480D01*
Y94504D01*
X27482D01*
X31480Y97503D02*
X29481D01*
X37324Y100502D02*
X41323D01*
Y94504D01*
X37324D01*
X41323Y97503D02*
X39323D01*
X47167Y100502D02*
X51165D01*
Y94504D01*
X47167D01*
X51165Y97503D02*
X49166D01*
X57009Y100502D02*
X61008D01*
Y94504D01*
X57009D01*
X61008Y97503D02*
X59009D01*
X66852Y100502D02*
X70850D01*
Y94504D01*
X66852D01*
X70850Y97503D02*
X68851D01*
X77679Y100502D02*
X81677D01*
Y94504D01*
X77679D01*
X81677Y97503D02*
X79678D01*
X87521Y100502D02*
X91520D01*
Y94504D01*
X87521D01*
X91520Y97503D02*
X89520D01*
X97364Y100502D02*
X101362D01*
Y94504D01*
X97364D01*
X101362Y97503D02*
X99363D01*
X111205Y110345D02*
X107206D01*
X109205D01*
Y104347D01*
X101362Y110345D02*
X97364D01*
X99363D01*
Y104347D01*
X91520Y110345D02*
X87521D01*
X89520D01*
Y104347D01*
X81677Y110345D02*
X77678D01*
X79678D01*
Y104347D01*
X70850Y110345D02*
X66852D01*
X68851D01*
Y104347D01*
X61008Y110345D02*
X57009D01*
X59009D01*
Y104347D01*
X51165Y110345D02*
X47167D01*
X49166D01*
Y104347D01*
X37324Y110345D02*
X41323D01*
Y104347D01*
X37324D01*
X41323Y107345D02*
X39323D01*
X27482Y110345D02*
X31480D01*
Y104347D01*
X27482D01*
X31480Y107345D02*
X29481D01*
X17639Y110345D02*
X21638D01*
Y104347D01*
X17639D01*
X21638Y107345D02*
X19638D01*
X6812Y110345D02*
X10811D01*
Y104347D01*
X6812D01*
X10811Y107345D02*
X8812D01*
X0Y10300D02*
X50Y9290D01*
X198Y8291D01*
X444Y7310D01*
X784Y6358D01*
X1216Y5445D01*
X1736Y4578D01*
X2338Y3766D01*
X3017Y3017D01*
X3766Y2338D01*
X4578Y1736D01*
X5445Y1216D01*
X6358Y784D01*
X7310Y444D01*
X8291Y198D01*
X9290Y50D01*
X10300Y0D01*
X245605D02*
X246615Y50D01*
X247615Y198D01*
X248595Y444D01*
X249547Y784D01*
X250461Y1216D01*
X251328Y1736D01*
X252140Y2338D01*
X252889Y3017D01*
X253568Y3766D01*
X254170Y4578D01*
X254689Y5445D01*
X255121Y6358D01*
X255462Y7310D01*
X255708Y8291D01*
X255856Y9290D01*
X255906Y10300D01*
Y194485D02*
X255856Y195495D01*
X255708Y196494D01*
X255462Y197475D01*
X255121Y198427D01*
X254689Y199340D01*
X254170Y200207D01*
X253568Y201019D01*
X252889Y201768D01*
X252140Y202447D01*
X251328Y203049D01*
X250461Y203569D01*
X249547Y204001D01*
X248595Y204342D01*
X247615Y204587D01*
X246615Y204735D01*
X245605Y204785D01*
X10300D02*
X9290Y204735D01*
X8291Y204587D01*
X7310Y204342D01*
X6358Y204001D01*
X5445Y203569D01*
X4578Y203049D01*
X3766Y202447D01*
X3017Y201768D01*
X2338Y201019D01*
X1736Y200207D01*
X1216Y199340D01*
X784Y198427D01*
X444Y197475D01*
X198Y196494D01*
X50Y195495D01*
X0Y194485D01*
Y10300D02*
Y91535D01*
X10300Y0D02*
X245606D01*
X255906Y10300D02*
Y194485D01*
X10300Y204785D02*
X245606D01*
X0Y91535D02*
Y194485D01*
D19*
X197Y19685D02*
Y62992D01*
M02*
