G04*
G04 #@! TF.GenerationSoftware,Altium Limited,Altium Designer,21.3.2 (30)*
G04*
G04 Layer_Color=65535*
%FSLAX25Y25*%
%MOIN*%
G70*
G04*
G04 #@! TF.SameCoordinates,4FB7CEAD-E32D-458C-9978-29DB153300B6*
G04*
G04*
G04 #@! TF.FilePolarity,Positive*
G04*
G01*
G75*
%ADD10C,0.00984*%
%ADD11C,0.00787*%
%ADD12C,0.00394*%
%ADD13C,0.01968*%
%ADD14C,0.06024*%
%ADD15C,0.00500*%
%ADD16C,0.00472*%
%ADD17C,0.00591*%
%ADD18C,0.01000*%
%ADD19C,0.00394*%
G36*
X213669Y62584D02*
Y61784D01*
Y60984D01*
Y60184D01*
Y59384D01*
Y58584D01*
Y57784D01*
Y56984D01*
Y56184D01*
Y55384D01*
Y54584D01*
Y53784D01*
Y52984D01*
Y52184D01*
Y51384D01*
Y50584D01*
Y49784D01*
Y48984D01*
Y48184D01*
X212869D01*
Y47384D01*
Y46584D01*
Y45784D01*
Y44984D01*
Y44184D01*
X212069D01*
Y43384D01*
Y42584D01*
Y41784D01*
X211269D01*
Y40984D01*
Y40184D01*
Y39384D01*
Y38584D01*
X210469D01*
Y37784D01*
Y36984D01*
Y36184D01*
X209669D01*
Y35384D01*
Y34584D01*
Y33784D01*
X210469D01*
Y32984D01*
Y32184D01*
X209669D01*
Y31384D01*
X208869D01*
Y30584D01*
Y29784D01*
X208069D01*
Y28984D01*
X207269D01*
Y28184D01*
Y27384D01*
X206469D01*
Y26584D01*
X205669D01*
Y25784D01*
X204869D01*
Y24984D01*
X205669D01*
Y24184D01*
X204069D01*
Y23384D01*
X203269D01*
Y22584D01*
X202469D01*
Y21784D01*
X200869D01*
Y22584D01*
X199269D01*
Y23384D01*
Y24184D01*
X196869D01*
Y24984D01*
X196069D01*
Y25784D01*
X195269D01*
Y24984D01*
Y24184D01*
Y23384D01*
Y22584D01*
X196869D01*
Y23384D01*
X197669D01*
Y22584D01*
X198469D01*
Y21784D01*
X195269D01*
Y20984D01*
X196069D01*
Y20184D01*
X196869D01*
Y19384D01*
Y18584D01*
Y17784D01*
Y16984D01*
X197669D01*
Y16184D01*
Y15384D01*
X198469D01*
Y14584D01*
X197669D01*
Y13784D01*
X198469D01*
Y12984D01*
Y12184D01*
X199269D01*
Y11384D01*
Y10584D01*
X200069D01*
Y9784D01*
Y8984D01*
X200869D01*
Y8184D01*
X201669D01*
Y7384D01*
X200869D01*
Y8184D01*
X200069D01*
Y7384D01*
X200869D01*
Y6584D01*
X201669D01*
Y5784D01*
Y4984D01*
Y4184D01*
X202469D01*
Y3384D01*
X203269D01*
Y2584D01*
Y1784D01*
X204069D01*
Y984D01*
X199269D01*
Y1784D01*
Y2584D01*
X198469D01*
Y3384D01*
X197669D01*
Y4184D01*
Y4984D01*
Y5784D01*
X196869D01*
Y6584D01*
X196069D01*
Y7384D01*
X195269D01*
Y6584D01*
X196069D01*
Y5784D01*
Y4984D01*
Y4184D01*
X196869D01*
Y3384D01*
X197669D01*
Y2584D01*
X198469D01*
Y1784D01*
Y984D01*
X188069D01*
Y1784D01*
Y2584D01*
Y3384D01*
Y4184D01*
X187269D01*
Y3384D01*
Y2584D01*
X186469D01*
Y1784D01*
X187269D01*
Y984D01*
X175269D01*
Y1784D01*
Y2584D01*
X174469D01*
Y1784D01*
Y984D01*
X171269D01*
Y1784D01*
X172069D01*
Y2584D01*
Y3384D01*
X172869D01*
Y4184D01*
X172069D01*
Y4984D01*
X172869D01*
Y5784D01*
Y6584D01*
Y7384D01*
Y8184D01*
X173669D01*
Y8984D01*
X171269D01*
Y8184D01*
X169669D01*
Y7384D01*
X167269D01*
Y6584D01*
X164869D01*
Y5784D01*
X163269D01*
Y6584D01*
X162469D01*
Y5784D01*
X161669D01*
Y4984D01*
X162469D01*
Y4184D01*
X160869D01*
Y4984D01*
X156069D01*
Y5784D01*
X154469D01*
Y6584D01*
X152869D01*
Y7384D01*
X151269D01*
Y8184D01*
X150469D01*
Y8984D01*
X149669D01*
Y9784D01*
X148869D01*
Y10584D01*
Y11384D01*
X148069D01*
Y12184D01*
Y12984D01*
Y13784D01*
Y14584D01*
X148869D01*
Y15384D01*
Y16184D01*
X149669D01*
Y15384D01*
Y14584D01*
X151269D01*
Y15384D01*
X150469D01*
Y16184D01*
X149669D01*
Y16984D01*
X150469D01*
Y16184D01*
X151269D01*
Y16984D01*
X150469D01*
Y17784D01*
X151269D01*
Y16984D01*
X152069D01*
Y17784D01*
X151269D01*
Y18584D01*
X152069D01*
Y17784D01*
X152869D01*
Y18584D01*
X152069D01*
Y19384D01*
X152869D01*
Y20184D01*
Y20984D01*
X153669D01*
Y21784D01*
X154469D01*
Y22584D01*
Y23384D01*
X155269D01*
Y22584D01*
Y21784D01*
X156069D01*
Y20984D01*
X156869D01*
Y21784D01*
X156069D01*
Y22584D01*
Y23384D01*
Y24184D01*
Y24984D01*
Y25784D01*
Y26584D01*
Y27384D01*
X156869D01*
Y26584D01*
X157669D01*
Y27384D01*
Y28184D01*
Y28984D01*
X156869D01*
Y29784D01*
Y30584D01*
X157669D01*
Y29784D01*
X158469D01*
Y30584D01*
Y31384D01*
X157669D01*
Y32184D01*
Y32984D01*
Y33784D01*
X158469D01*
Y34584D01*
X159269D01*
Y33784D01*
Y32984D01*
Y32184D01*
X158469D01*
Y31384D01*
X159269D01*
Y30584D01*
Y29784D01*
Y28984D01*
Y28184D01*
X160069D01*
Y27384D01*
Y26584D01*
Y25784D01*
X160869D01*
Y26584D01*
Y27384D01*
Y28184D01*
Y28984D01*
X160069D01*
Y29784D01*
Y30584D01*
Y31384D01*
Y32184D01*
Y32984D01*
Y33784D01*
Y34584D01*
Y35384D01*
X158469D01*
Y36184D01*
X159269D01*
Y36984D01*
X158469D01*
Y37784D01*
X159269D01*
Y38584D01*
X160069D01*
Y39384D01*
X160869D01*
Y40184D01*
X157669D01*
Y40984D01*
X156869D01*
Y41784D01*
Y42584D01*
Y43384D01*
X156069D01*
Y44184D01*
Y44984D01*
Y45784D01*
Y46584D01*
Y47384D01*
Y48184D01*
X156869D01*
Y47384D01*
X157669D01*
Y48184D01*
Y48984D01*
Y49784D01*
Y50584D01*
Y51384D01*
X158469D01*
Y52184D01*
X159269D01*
Y52984D01*
X160069D01*
Y53784D01*
X160869D01*
Y52984D01*
Y52184D01*
X161669D01*
Y52984D01*
Y53784D01*
X162469D01*
Y54584D01*
Y55384D01*
X163269D01*
Y56184D01*
X164069D01*
Y56984D01*
X164869D01*
Y57784D01*
X167269D01*
Y58584D01*
X169669D01*
Y57784D01*
X168869D01*
Y56984D01*
X168069D01*
Y56184D01*
Y55384D01*
X168869D01*
Y56184D01*
X169669D01*
Y56984D01*
X170469D01*
Y57784D01*
X172869D01*
Y56984D01*
X173669D01*
Y56184D01*
X172869D01*
Y56984D01*
X172069D01*
Y56184D01*
X172869D01*
Y55384D01*
X173669D01*
Y54584D01*
X174469D01*
Y53784D01*
X176069D01*
Y54584D01*
X174469D01*
Y55384D01*
Y56184D01*
Y56984D01*
X173669D01*
Y57784D01*
Y58584D01*
X172069D01*
Y59384D01*
X171269D01*
Y58584D01*
X169669D01*
Y59384D01*
Y60184D01*
X171269D01*
Y60984D01*
X172069D01*
Y60184D01*
Y59384D01*
X172869D01*
Y60184D01*
Y60984D01*
X172069D01*
Y61784D01*
X173669D01*
Y60984D01*
X175269D01*
Y61784D01*
X174469D01*
Y62584D01*
X176069D01*
Y61784D01*
X177669D01*
Y60984D01*
Y60184D01*
Y59384D01*
Y58584D01*
Y57784D01*
Y56984D01*
Y56184D01*
Y55384D01*
X176869D01*
Y54584D01*
X177669D01*
Y53784D01*
Y52984D01*
Y52184D01*
Y51384D01*
Y50584D01*
Y49784D01*
X180069D01*
Y48984D01*
Y48184D01*
X180869D01*
Y48984D01*
Y49784D01*
X183269D01*
Y48984D01*
X182469D01*
Y48184D01*
Y47384D01*
X181669D01*
Y46584D01*
Y45784D01*
Y44984D01*
X182469D01*
Y45784D01*
Y46584D01*
X183269D01*
Y47384D01*
Y48184D01*
X184069D01*
Y48984D01*
Y49784D01*
X196069D01*
Y48984D01*
Y48184D01*
Y47384D01*
X195269D01*
Y46584D01*
Y45784D01*
Y44984D01*
Y44184D01*
X194469D01*
Y43384D01*
Y42584D01*
X193669D01*
Y41784D01*
Y40984D01*
X192869D01*
Y40184D01*
Y39384D01*
X193669D01*
Y38584D01*
X194469D01*
Y39384D01*
Y40184D01*
Y40984D01*
X195269D01*
Y41784D01*
Y42584D01*
Y43384D01*
X196069D01*
Y44184D01*
Y44984D01*
X196869D01*
Y45784D01*
Y46584D01*
X197669D01*
Y47384D01*
Y48184D01*
X198469D01*
Y48984D01*
X199269D01*
Y49784D01*
Y50584D01*
X200069D01*
Y51384D01*
X200869D01*
Y52184D01*
Y52984D01*
X201669D01*
Y53784D01*
X202469D01*
Y54584D01*
X203269D01*
Y55384D01*
X204069D01*
Y56184D01*
Y56984D01*
X204869D01*
Y57784D01*
X205669D01*
Y58584D01*
X206469D01*
Y59384D01*
X208069D01*
Y58584D01*
X208869D01*
Y59384D01*
X208069D01*
Y60184D01*
X208869D01*
Y59384D01*
X209669D01*
Y60184D01*
X208869D01*
Y60984D01*
X209669D01*
Y60184D01*
X210469D01*
Y60984D01*
X209669D01*
Y61784D01*
X210469D01*
Y60984D01*
X211269D01*
Y61784D01*
X212069D01*
Y62584D01*
X212869D01*
Y63384D01*
X213669D01*
Y62584D01*
D02*
G37*
G36*
X156069Y4184D02*
X160069D01*
Y3384D01*
X161669D01*
Y2584D01*
Y1784D01*
X160069D01*
Y984D01*
X157669D01*
Y1784D01*
X156069D01*
Y2584D01*
X155269D01*
Y3384D01*
X154469D01*
Y4184D01*
Y4984D01*
X156069D01*
Y4184D01*
D02*
G37*
G36*
X172236Y123031D02*
X173228D01*
Y121062D01*
X171259D01*
Y123031D01*
X169291D01*
Y116149D01*
X171259D01*
Y118117D01*
X173228D01*
Y116149D01*
X172236D01*
Y115157D01*
X168300D01*
Y116149D01*
X167323D01*
Y123031D01*
X168300D01*
Y124022D01*
X172236D01*
Y123031D01*
D02*
G37*
G36*
X199822Y121062D02*
X200813D01*
Y115157D01*
X195885Y115157D01*
Y116149D01*
X194908D01*
Y118117D01*
X195885D01*
Y119109D01*
X198845Y119109D01*
Y121062D01*
X196877D01*
Y120071D01*
X194908Y120071D01*
Y121062D01*
X195885D01*
Y122054D01*
X199822Y122054D01*
Y121062D01*
D02*
G37*
G36*
X191948Y116149D02*
X193917D01*
Y115157D01*
X188012D01*
Y116149D01*
X189980D01*
Y123031D01*
X188012D01*
Y124022D01*
X191948D01*
Y116149D01*
D02*
G37*
G36*
X186029Y121062D02*
X187020D01*
Y118103D01*
X183084D01*
Y116149D01*
X185052D01*
Y117140D01*
X187020D01*
Y116149D01*
X186029D01*
Y115157D01*
X182092D01*
Y116149D01*
X181115D01*
Y121062D01*
X182092D01*
Y122054D01*
X186029D01*
Y121062D01*
D02*
G37*
G36*
X179133D02*
X180124D01*
Y116149D01*
X179133D01*
Y115157D01*
X175196D01*
Y116149D01*
X174219D01*
Y121062D01*
X175196D01*
Y122054D01*
X179133D01*
Y121062D01*
D02*
G37*
G36*
X189995Y109251D02*
X189003D01*
Y110243D01*
X188012D01*
Y112211D01*
X189995D01*
Y109251D01*
D02*
G37*
G36*
X172236Y111220D02*
X173228D01*
Y109251D01*
X171259D01*
Y111220D01*
X169291D01*
Y104338D01*
X171259D01*
Y106306D01*
X173228D01*
Y104338D01*
X172236D01*
Y103347D01*
X168300D01*
Y104338D01*
X167323D01*
Y111220D01*
X168300D01*
Y112211D01*
X172236D01*
Y111220D01*
D02*
G37*
G36*
X189003Y108260D02*
X188012D01*
Y109251D01*
X188989D01*
X189003Y108260D01*
D02*
G37*
G36*
X200828Y112211D02*
X201804D01*
Y109251D01*
X200828D01*
Y106292D01*
X198859D01*
Y109251D01*
X197868D01*
Y112211D01*
X198859D01*
Y113188D01*
X200828D01*
Y112211D01*
D02*
G37*
G36*
Y103347D02*
X198859D01*
Y105315D01*
X200828D01*
Y103347D01*
D02*
G37*
G36*
X194908Y110243D02*
X196877Y110243D01*
Y109251D01*
X194908Y109251D01*
Y104338D01*
X196877Y104338D01*
Y103347D01*
X193917Y103347D01*
Y104338D01*
X192940D01*
Y109251D01*
X190972D01*
Y110243D01*
X192940D01*
Y112211D01*
X194908D01*
Y110243D01*
D02*
G37*
G36*
X186029Y109251D02*
X187020D01*
Y103347D01*
X185052D01*
Y109251D01*
X183084D01*
Y103347D01*
X181115D01*
Y110243D01*
X186029D01*
Y109251D01*
D02*
G37*
G36*
X179133D02*
X180124D01*
Y103347D01*
X175196D01*
Y104338D01*
X174219D01*
Y106306D01*
X175196D01*
Y107298D01*
X178156D01*
Y109251D01*
X176188D01*
Y108260D01*
X174219D01*
Y109251D01*
X175196D01*
Y110243D01*
X179133D01*
Y109251D01*
D02*
G37*
%LPC*%
G36*
X208069Y57784D02*
X207269D01*
Y56984D01*
X208069D01*
Y57784D01*
D02*
G37*
G36*
X207269Y56984D02*
X206469D01*
Y56184D01*
X207269D01*
Y56984D01*
D02*
G37*
G36*
X206469Y55384D02*
X205669D01*
Y54584D01*
X206469D01*
Y55384D01*
D02*
G37*
G36*
X205669Y53784D02*
X204869D01*
Y52984D01*
X205669D01*
Y53784D01*
D02*
G37*
G36*
X204869Y52984D02*
X204069D01*
Y52184D01*
Y51384D01*
X204869D01*
Y52184D01*
Y52984D01*
D02*
G37*
G36*
X204069Y50584D02*
X203269D01*
Y49784D01*
Y48984D01*
X204069D01*
Y49784D01*
Y50584D01*
D02*
G37*
G36*
X203269Y48984D02*
X202469D01*
Y48184D01*
Y47384D01*
X203269D01*
Y48184D01*
Y48984D01*
D02*
G37*
G36*
X202469Y46584D02*
X201669D01*
Y45784D01*
Y44984D01*
X202469D01*
Y45784D01*
Y46584D01*
D02*
G37*
G36*
X180069Y47384D02*
X179269D01*
Y46584D01*
Y45784D01*
Y44984D01*
X180069D01*
Y45784D01*
Y46584D01*
Y47384D01*
D02*
G37*
G36*
X205669Y44184D02*
X203269D01*
Y43384D01*
X202469D01*
Y42584D01*
X204869D01*
Y43384D01*
X205669D01*
Y44184D01*
D02*
G37*
G36*
X201669D02*
X200869D01*
Y43384D01*
Y42584D01*
X201669D01*
Y43384D01*
Y44184D01*
D02*
G37*
G36*
X181669Y44984D02*
X180869D01*
Y44184D01*
X180069D01*
Y43384D01*
Y42584D01*
Y41784D01*
Y40984D01*
X180869D01*
Y41784D01*
Y42584D01*
Y43384D01*
X181669D01*
Y44184D01*
Y44984D01*
D02*
G37*
G36*
X204869Y41784D02*
X203269D01*
Y40984D01*
X202469D01*
Y40184D01*
Y39384D01*
X203269D01*
Y40184D01*
X204069D01*
Y40984D01*
X204869D01*
Y41784D01*
D02*
G37*
G36*
X200869D02*
X200069D01*
Y40984D01*
Y40184D01*
Y39384D01*
X200869D01*
Y40184D01*
Y40984D01*
Y41784D01*
D02*
G37*
G36*
X172069Y40184D02*
X170469D01*
Y39384D01*
X172069D01*
Y40184D01*
D02*
G37*
G36*
X168869Y40984D02*
X168069D01*
Y40184D01*
Y39384D01*
X168869D01*
Y40184D01*
Y40984D01*
D02*
G37*
G36*
X167269Y40184D02*
X165669D01*
Y39384D01*
X167269D01*
Y40184D01*
D02*
G37*
G36*
X164869Y40984D02*
X160869D01*
Y40184D01*
X163269D01*
Y39384D01*
X164869D01*
Y40184D01*
Y40984D01*
D02*
G37*
G36*
X202469Y39384D02*
X201669D01*
Y38584D01*
X202469D01*
Y39384D01*
D02*
G37*
G36*
X192869D02*
X192069D01*
Y38584D01*
X192869D01*
Y39384D01*
D02*
G37*
G36*
X176869D02*
X176069D01*
Y38584D01*
X176869D01*
Y39384D01*
D02*
G37*
G36*
X170469D02*
X169669D01*
Y38584D01*
X170469D01*
Y39384D01*
D02*
G37*
G36*
X191269D02*
X190469D01*
Y38584D01*
Y37784D01*
X191269D01*
Y38584D01*
Y39384D01*
D02*
G37*
G36*
X177669Y40984D02*
X172069D01*
Y40184D01*
X176869D01*
Y39384D01*
X177669D01*
Y38584D01*
Y37784D01*
X178469D01*
Y38584D01*
X179269D01*
Y39384D01*
X178469D01*
Y40184D01*
X177669D01*
Y40984D01*
D02*
G37*
G36*
X188869Y38584D02*
X188069D01*
Y37784D01*
X185669D01*
Y36984D01*
X190469D01*
Y37784D01*
X188869D01*
Y38584D01*
D02*
G37*
G36*
X180069Y40184D02*
X179269D01*
Y39384D01*
X180069D01*
Y38584D01*
X180869D01*
Y37784D01*
X181669D01*
Y36984D01*
X183269D01*
Y37784D01*
X181669D01*
Y38584D01*
X180869D01*
Y39384D01*
X180069D01*
Y40184D01*
D02*
G37*
G36*
X202469Y37784D02*
X200869D01*
Y36984D01*
X201669D01*
Y36184D01*
X202469D01*
Y36984D01*
Y37784D01*
D02*
G37*
G36*
X200069Y38584D02*
X199269D01*
Y37784D01*
Y36984D01*
Y36184D01*
X198469D01*
Y36984D01*
X197669D01*
Y36184D01*
Y35384D01*
X198469D01*
Y34584D01*
Y33784D01*
X199269D01*
Y34584D01*
Y35384D01*
X200069D01*
Y36184D01*
Y36984D01*
Y37784D01*
Y38584D01*
D02*
G37*
G36*
X193669Y37784D02*
X192869D01*
Y36984D01*
Y36184D01*
X193669D01*
Y36984D01*
Y37784D01*
D02*
G37*
G36*
X172069Y36984D02*
X169669D01*
Y36184D01*
X172069D01*
Y36984D01*
D02*
G37*
G36*
X173669Y36184D02*
X172869D01*
Y35384D01*
X173669D01*
Y36184D01*
D02*
G37*
G36*
X201669D02*
X200869D01*
Y35384D01*
Y34584D01*
X201669D01*
Y35384D01*
Y36184D01*
D02*
G37*
G36*
X196869Y35384D02*
X196069D01*
Y34584D01*
X196869D01*
Y35384D01*
D02*
G37*
G36*
X180069Y37784D02*
X179269D01*
Y36984D01*
Y36184D01*
Y35384D01*
Y34584D01*
X182469D01*
Y35384D01*
X181669D01*
Y36184D01*
X180869D01*
Y35384D01*
X180069D01*
Y36184D01*
Y36984D01*
Y37784D01*
D02*
G37*
G36*
X160869D02*
X160069D01*
Y36984D01*
X160869D01*
Y36184D01*
X161669D01*
Y35384D01*
Y34584D01*
X162469D01*
Y35384D01*
Y36184D01*
X161669D01*
Y36984D01*
X160869D01*
Y37784D01*
D02*
G37*
G36*
X176069Y35384D02*
X174469D01*
Y34584D01*
X176069D01*
Y33784D01*
X177669D01*
Y34584D01*
X176069D01*
Y35384D01*
D02*
G37*
G36*
X169669Y36184D02*
X168869D01*
Y35384D01*
Y34584D01*
X169669D01*
Y33784D01*
X173669D01*
Y34584D01*
X169669D01*
Y35384D01*
Y36184D01*
D02*
G37*
G36*
X209669Y33784D02*
X208869D01*
Y32984D01*
X209669D01*
Y33784D01*
D02*
G37*
G36*
X176069D02*
X174469D01*
Y32984D01*
X176069D01*
Y33784D01*
D02*
G37*
G36*
X187269Y32984D02*
X186469D01*
Y32184D01*
X187269D01*
Y32984D01*
D02*
G37*
G36*
X173669D02*
X172869D01*
Y32184D01*
X173669D01*
Y32984D01*
D02*
G37*
G36*
X197669Y33784D02*
X196869D01*
Y32984D01*
Y32184D01*
Y31384D01*
X197669D01*
Y32184D01*
Y32984D01*
Y33784D01*
D02*
G37*
G36*
X171269Y31384D02*
X170469D01*
Y30584D01*
X171269D01*
Y31384D01*
D02*
G37*
G36*
X168869Y32984D02*
X160869D01*
Y32184D01*
Y31384D01*
Y30584D01*
Y29784D01*
X161669D01*
Y30584D01*
Y31384D01*
Y32184D01*
X168069D01*
Y31384D01*
Y30584D01*
X168869D01*
Y31384D01*
Y32184D01*
Y32984D01*
D02*
G37*
G36*
X170469Y30584D02*
X169669D01*
Y29784D01*
X170469D01*
Y30584D01*
D02*
G37*
G36*
X168069D02*
X167269D01*
Y29784D01*
X168069D01*
Y30584D01*
D02*
G37*
G36*
X185669Y35384D02*
X184069D01*
Y34584D01*
X184869D01*
Y33784D01*
Y32984D01*
Y32184D01*
X185669D01*
Y31384D01*
Y30584D01*
Y29784D01*
Y28984D01*
X186469D01*
Y29784D01*
Y30584D01*
Y31384D01*
Y32184D01*
X185669D01*
Y32984D01*
Y33784D01*
X187269D01*
Y34584D01*
X185669D01*
Y35384D01*
D02*
G37*
G36*
X169669Y29784D02*
X168869D01*
Y28984D01*
X169669D01*
Y29784D01*
D02*
G37*
G36*
X204869Y31384D02*
X204069D01*
Y30584D01*
Y29784D01*
Y28984D01*
Y28184D01*
X205669D01*
Y28984D01*
X204869D01*
Y29784D01*
Y30584D01*
Y31384D01*
D02*
G37*
G36*
X168869Y28984D02*
X168069D01*
Y28184D01*
X168869D01*
Y28984D01*
D02*
G37*
G36*
X167269Y29784D02*
X166469D01*
Y28984D01*
Y28184D01*
X167269D01*
Y28984D01*
Y29784D01*
D02*
G37*
G36*
X166469Y28184D02*
X165669D01*
Y27384D01*
X166469D01*
Y28184D01*
D02*
G37*
G36*
X204069Y27384D02*
X203269D01*
Y26584D01*
X204069D01*
Y27384D01*
D02*
G37*
G36*
X197669D02*
X194469D01*
Y26584D01*
X197669D01*
Y27384D01*
D02*
G37*
G36*
X168069D02*
X167269D01*
Y26584D01*
X168069D01*
Y27384D01*
D02*
G37*
G36*
X165669D02*
X164869D01*
Y26584D01*
Y25784D01*
X165669D01*
Y26584D01*
Y27384D01*
D02*
G37*
G36*
X167269Y25784D02*
X166469D01*
Y24984D01*
X167269D01*
Y25784D01*
D02*
G37*
G36*
X172069Y32184D02*
X171269D01*
Y31384D01*
X172069D01*
Y30584D01*
X173669D01*
Y29784D01*
X174469D01*
Y28984D01*
Y28184D01*
X175269D01*
Y27384D01*
Y26584D01*
Y25784D01*
Y24984D01*
Y24184D01*
X176069D01*
Y24984D01*
Y25784D01*
Y26584D01*
Y27384D01*
Y28184D01*
X175269D01*
Y28984D01*
Y29784D01*
X174469D01*
Y30584D01*
X173669D01*
Y31384D01*
X172069D01*
Y32184D01*
D02*
G37*
G36*
X185669Y24984D02*
X184869D01*
Y24184D01*
Y23384D01*
X185669D01*
Y24184D01*
Y24984D01*
D02*
G37*
G36*
X164869D02*
X164069D01*
Y24184D01*
Y23384D01*
X164869D01*
Y24184D01*
Y24984D01*
D02*
G37*
G36*
X159269Y27384D02*
X158469D01*
Y26584D01*
Y25784D01*
Y24984D01*
X159269D01*
Y24184D01*
Y23384D01*
X160069D01*
Y24184D01*
Y24984D01*
Y25784D01*
X159269D01*
Y26584D01*
Y27384D01*
D02*
G37*
G36*
X157669Y23384D02*
X156869D01*
Y22584D01*
Y21784D01*
X157669D01*
Y22584D01*
Y23384D01*
D02*
G37*
G36*
X158469Y24984D02*
X157669D01*
Y24184D01*
Y23384D01*
X158469D01*
Y22584D01*
Y21784D01*
X162469D01*
Y20984D01*
X164069D01*
Y21784D01*
Y22584D01*
X163269D01*
Y21784D01*
X162469D01*
Y22584D01*
X159269D01*
Y23384D01*
X158469D01*
Y24184D01*
Y24984D01*
D02*
G37*
G36*
X195269Y20984D02*
X193669D01*
Y20184D01*
X195269D01*
Y20984D01*
D02*
G37*
G36*
X182469D02*
X180869D01*
Y20184D01*
X182469D01*
Y19384D01*
X183269D01*
Y20184D01*
X182469D01*
Y20984D01*
D02*
G37*
G36*
X160069Y20184D02*
X158469D01*
Y19384D01*
X160069D01*
Y20184D01*
D02*
G37*
G36*
X156069D02*
X155269D01*
Y19384D01*
X156069D01*
Y20184D01*
D02*
G37*
G36*
X174469Y19384D02*
X171269D01*
Y18584D01*
X174469D01*
Y19384D01*
D02*
G37*
G36*
X166469Y23384D02*
X165669D01*
Y22584D01*
Y21784D01*
Y20984D01*
Y20184D01*
Y19384D01*
Y18584D01*
X168069D01*
Y19384D01*
X166469D01*
Y20184D01*
Y20984D01*
Y21784D01*
Y22584D01*
Y23384D01*
D02*
G37*
G36*
X154469Y19384D02*
X153669D01*
Y18584D01*
X154469D01*
Y19384D01*
D02*
G37*
G36*
X194469D02*
X192069D01*
Y18584D01*
X193669D01*
Y17784D01*
X194469D01*
Y18584D01*
Y19384D01*
D02*
G37*
G36*
X193669Y17784D02*
X192869D01*
Y16984D01*
X193669D01*
Y17784D01*
D02*
G37*
G36*
X161669Y19384D02*
X160869D01*
Y18584D01*
X161669D01*
Y17784D01*
X162469D01*
Y16984D01*
X163269D01*
Y17784D01*
X162469D01*
Y18584D01*
X161669D01*
Y19384D01*
D02*
G37*
G36*
X189669Y17784D02*
X188869D01*
Y16984D01*
Y16184D01*
X189669D01*
Y16984D01*
Y17784D01*
D02*
G37*
G36*
X188869Y16184D02*
X188069D01*
Y15384D01*
X186469D01*
Y14584D01*
X188869D01*
Y15384D01*
Y16184D01*
D02*
G37*
G36*
X163269Y15384D02*
X162469D01*
Y14584D01*
X163269D01*
Y15384D01*
D02*
G37*
G36*
X156069D02*
X153669D01*
Y14584D01*
X156069D01*
Y15384D01*
D02*
G37*
G36*
X176069Y23384D02*
X175269D01*
Y22584D01*
Y21784D01*
Y20984D01*
Y20184D01*
Y19384D01*
X177669D01*
Y18584D01*
X178469D01*
Y17784D01*
Y16984D01*
Y16184D01*
Y15384D01*
Y14584D01*
Y13784D01*
X179269D01*
Y14584D01*
Y15384D01*
Y16184D01*
Y16984D01*
Y17784D01*
Y18584D01*
X178469D01*
Y19384D01*
X179269D01*
Y20184D01*
X176069D01*
Y20984D01*
Y21784D01*
Y22584D01*
Y23384D01*
D02*
G37*
G36*
X196069Y14584D02*
X195269D01*
Y13784D01*
Y12984D01*
X196069D01*
Y13784D01*
Y14584D01*
D02*
G37*
G36*
X187269Y13784D02*
X186469D01*
Y12984D01*
X187269D01*
Y13784D01*
D02*
G37*
G36*
X161669D02*
X160869D01*
Y12984D01*
X161669D01*
Y13784D01*
D02*
G37*
G36*
X157669Y14584D02*
X156869D01*
Y13784D01*
X157669D01*
Y12984D01*
X159269D01*
Y13784D01*
X157669D01*
Y14584D01*
D02*
G37*
G36*
X186469Y12984D02*
X184869D01*
Y12184D01*
X186469D01*
Y12984D01*
D02*
G37*
G36*
X184869Y12184D02*
X183269D01*
Y11384D01*
X184869D01*
Y12184D01*
D02*
G37*
G36*
X151269D02*
X149669D01*
Y11384D01*
X151269D01*
Y12184D01*
D02*
G37*
G36*
X183269Y11384D02*
X180069D01*
Y10584D01*
X181669D01*
Y9784D01*
X182469D01*
Y10584D01*
X183269D01*
Y11384D01*
D02*
G37*
G36*
X167269Y10584D02*
X166469D01*
Y9784D01*
X167269D01*
Y10584D01*
D02*
G37*
G36*
X157669D02*
X156069D01*
Y9784D01*
X157669D01*
Y10584D01*
D02*
G37*
G36*
X196869Y12184D02*
X196069D01*
Y11384D01*
Y10584D01*
Y9784D01*
Y8984D01*
X196869D01*
Y9784D01*
Y10584D01*
Y11384D01*
Y12184D01*
D02*
G37*
G36*
X168069Y11384D02*
X167269D01*
Y10584D01*
X168069D01*
Y9784D01*
X168869D01*
Y8984D01*
X169669D01*
Y9784D01*
X168869D01*
Y10584D01*
X168069D01*
Y11384D01*
D02*
G37*
G36*
X166469Y9784D02*
X165669D01*
Y8984D01*
X166469D01*
Y9784D01*
D02*
G37*
G36*
X193669Y15384D02*
X192869D01*
Y14584D01*
Y13784D01*
Y12984D01*
Y12184D01*
Y11384D01*
X193669D01*
Y10584D01*
Y9784D01*
Y8984D01*
X194469D01*
Y8184D01*
X195269D01*
Y8984D01*
X194469D01*
Y9784D01*
Y10584D01*
Y11384D01*
X193669D01*
Y12184D01*
X194469D01*
Y12984D01*
X193669D01*
Y13784D01*
Y14584D01*
Y15384D01*
D02*
G37*
G36*
X179269Y10584D02*
X176869D01*
Y9784D01*
X179269D01*
Y8984D01*
X178469D01*
Y8184D01*
X180069D01*
Y8984D01*
X180869D01*
Y9784D01*
X179269D01*
Y10584D01*
D02*
G37*
G36*
X165669Y8984D02*
X164869D01*
Y8184D01*
X165669D01*
Y8984D01*
D02*
G37*
G36*
X185669Y8184D02*
X184869D01*
Y7384D01*
X185669D01*
Y8184D01*
D02*
G37*
G36*
X176069Y9784D02*
X173669D01*
Y8984D01*
X174469D01*
Y8184D01*
Y7384D01*
X175269D01*
Y8184D01*
X176069D01*
Y8984D01*
Y9784D01*
D02*
G37*
G36*
X164869Y8184D02*
X164069D01*
Y7384D01*
X164869D01*
Y8184D01*
D02*
G37*
G36*
X164069Y7384D02*
X163269D01*
Y6584D01*
X164069D01*
Y7384D01*
D02*
G37*
G36*
X187269Y11384D02*
X185669D01*
Y10584D01*
Y9784D01*
X186469D01*
Y8984D01*
X185669D01*
Y8184D01*
X186469D01*
Y7384D01*
Y6584D01*
Y5784D01*
X187269D01*
Y6584D01*
Y7384D01*
Y8184D01*
Y8984D01*
Y9784D01*
Y10584D01*
Y11384D01*
D02*
G37*
G36*
X184869Y7384D02*
X184069D01*
Y6584D01*
X183269D01*
Y5784D01*
X184869D01*
Y6584D01*
Y7384D01*
D02*
G37*
G36*
X183269Y5784D02*
X182469D01*
Y4984D01*
X183269D01*
Y5784D01*
D02*
G37*
G36*
X182469Y4984D02*
X181669D01*
Y4184D01*
X182469D01*
Y4984D01*
D02*
G37*
G36*
X199269Y5784D02*
X198469D01*
Y4984D01*
Y4184D01*
X199269D01*
Y3384D01*
X200069D01*
Y4184D01*
X199269D01*
Y4984D01*
Y5784D01*
D02*
G37*
G36*
X180869Y4184D02*
X180069D01*
Y3384D01*
X180869D01*
Y4184D01*
D02*
G37*
G36*
X180069Y3384D02*
X178469D01*
Y2584D01*
X180069D01*
Y3384D01*
D02*
G37*
G36*
X176069Y5784D02*
X175269D01*
Y4984D01*
Y4184D01*
X176069D01*
Y3384D01*
X176869D01*
Y2584D01*
X177669D01*
Y3384D01*
X176869D01*
Y4184D01*
X176069D01*
Y4984D01*
Y5784D01*
D02*
G37*
G36*
X198845Y118117D02*
X196877D01*
Y116149D01*
X198845D01*
Y118117D01*
D02*
G37*
G36*
X185052Y121062D02*
X183084D01*
Y119094D01*
X185052D01*
Y121062D01*
D02*
G37*
G36*
X178156D02*
X176188D01*
Y116149D01*
X178156D01*
Y121062D01*
D02*
G37*
G36*
Y106306D02*
X176188D01*
Y104338D01*
X178156D01*
Y106306D01*
D02*
G37*
%LPD*%
D10*
X21752Y46457D02*
X21014Y46883D01*
Y46031D01*
X21752Y46457D01*
X135335Y1988D02*
X134597Y2414D01*
Y1562D01*
X135335Y1988D01*
X216968Y181043D02*
X216230Y181470D01*
Y180617D01*
X216968Y181043D01*
X191378Y181043D02*
X190640Y181469D01*
Y180617D01*
X191378Y181043D01*
X165787D02*
X165049Y181469D01*
Y180617D01*
X165787Y181043D01*
X43799Y56693D02*
X43061Y57119D01*
Y56267D01*
X43799Y56693D01*
X69587Y10023D02*
X68848Y10449D01*
Y9597D01*
X69587Y10023D01*
X33957Y41732D02*
X33219Y42158D01*
Y41306D01*
X33957Y41732D01*
X28051Y16535D02*
X27313Y16962D01*
Y16109D01*
X28051Y16535D01*
X40000Y77854D02*
X39262Y78281D01*
Y77428D01*
X40000Y77854D01*
X37835Y181043D02*
X37096Y181469D01*
Y180617D01*
X37835Y181043D01*
X63425D02*
X62687Y181469D01*
Y180617D01*
X63425Y181043D01*
X89016D02*
X88278Y181469D01*
Y180617D01*
X89016Y181043D01*
X114606D02*
X113868Y181469D01*
Y180617D01*
X114606Y181043D01*
X140197D02*
X139459Y181469D01*
Y180617D01*
X140197Y181043D01*
D11*
X226378Y31339D02*
X225590D01*
X226378D01*
X17126Y26575D02*
Y28740D01*
X11220Y26575D02*
X17126D01*
X11220Y56102D02*
X17126D01*
Y53937D02*
Y56102D01*
X69921Y57776D02*
Y58366D01*
X63937Y64055D02*
X67028D01*
X63937Y52087D02*
Y54626D01*
Y61516D02*
Y64055D01*
Y52087D02*
X67028D01*
X111516Y118701D02*
Y119488D01*
X106988Y118701D02*
Y119488D01*
X127953Y14764D02*
Y38386D01*
Y14764D02*
X141732D01*
X127953Y38386D02*
X141732D01*
Y14764D02*
Y38386D01*
X82382Y57677D02*
Y58465D01*
X86909Y57677D02*
Y58465D01*
X82382Y45866D02*
Y46654D01*
X86909Y45866D02*
Y46654D01*
X11516Y119193D02*
X12106D01*
X11516Y124902D02*
X12106D01*
X11516Y108366D02*
X12106D01*
X11516Y114075D02*
X12106D01*
X225787Y139961D02*
Y178937D01*
X203150Y139961D02*
X225787D01*
X203150D02*
Y178937D01*
X225787D01*
X23898Y201850D02*
X183898D01*
X23898Y181850D02*
X183898D01*
Y201850D01*
X23898Y181850D02*
Y201850D01*
X225492Y44980D02*
Y45571D01*
X231201Y44980D02*
Y45571D01*
X91142Y37697D02*
X91929D01*
X91142Y33169D02*
X91929D01*
X97146Y118701D02*
Y119488D01*
X101673Y118701D02*
Y119488D01*
X112795Y62303D02*
X113583D01*
X112795Y57776D02*
X113583D01*
X108189Y53386D02*
X118189D01*
Y33386D02*
Y53386D01*
X108189Y33386D02*
X118189D01*
X108189D02*
Y53386D01*
X225492Y30906D02*
Y31496D01*
X231201Y30906D02*
Y31496D01*
X96161Y45866D02*
Y46654D01*
X100689Y45866D02*
Y46654D01*
X110925Y24213D02*
Y25000D01*
X115453Y24213D02*
Y25000D01*
X99114Y24213D02*
Y25000D01*
X103642Y24213D02*
Y25000D01*
X87303Y24213D02*
Y25000D01*
X91831Y24213D02*
Y25000D01*
X63937Y36339D02*
X67028D01*
X63937Y45768D02*
Y48307D01*
Y36339D02*
Y38878D01*
Y48307D02*
X67028D01*
X69921Y42028D02*
Y42618D01*
X72441Y8169D02*
X73228D01*
X72441Y3642D02*
X73228D01*
X46850Y58760D02*
X47638D01*
X46850Y63287D02*
X47638D01*
X29134Y58760D02*
X29921D01*
X29134Y63287D02*
X29921D01*
X96161Y57677D02*
Y58465D01*
X100689Y57677D02*
Y58465D01*
X253032Y146575D02*
Y186575D01*
X233032Y146575D02*
Y186575D01*
Y146575D02*
X253032D01*
X233032Y186575D02*
X253032D01*
X189724Y201850D02*
X229724D01*
X189724Y181850D02*
X229724D01*
Y201850D01*
X189724Y181850D02*
Y201850D01*
X5413Y181594D02*
X7874Y179134D01*
X17717Y145669D02*
X21949D01*
X16732Y144685D02*
X17717Y145669D01*
X16732Y140748D02*
Y144685D01*
X6890Y140748D02*
Y144685D01*
X5709Y145866D02*
X6890Y144685D01*
X1772Y145866D02*
X5709D01*
X1654Y140650D02*
X22112D01*
X21924Y177879D02*
X22112Y140650D01*
X16732Y183071D02*
X21924Y177879D01*
X6890Y183071D02*
X16732D01*
X1467Y177649D02*
X6890Y183071D01*
X1467Y177649D02*
X1654Y140650D01*
X18012Y156201D02*
X19685Y154528D01*
X21850D01*
X18012Y156201D02*
Y162697D01*
X19685Y164370D01*
X21850D01*
X7874Y179134D02*
X15502D01*
X17963Y181594D01*
X18209D01*
X19685Y180118D01*
X200197Y139961D02*
Y178937D01*
X177559Y139961D02*
X200197D01*
X177559D02*
Y178937D01*
X200197D01*
X174606Y139961D02*
Y178937D01*
X151969Y139961D02*
X174606D01*
X151969D02*
Y178937D01*
X174606D01*
X49803Y43465D02*
Y46063D01*
X46594Y43465D02*
X49803D01*
Y52362D02*
Y54961D01*
X46594D02*
X49803D01*
X79724Y16142D02*
Y27165D01*
X65945Y16142D02*
Y27165D01*
X52264Y25591D02*
Y26181D01*
X57972Y25591D02*
Y26181D01*
X35138Y4035D02*
X35728D01*
X35138Y9744D02*
X35728D01*
X111221Y9252D02*
Y10433D01*
X115158Y9252D02*
Y10433D01*
X111221Y9252D02*
X115158D01*
X99410D02*
Y10433D01*
X103347Y9252D02*
Y10433D01*
X99410Y9252D02*
X103347D01*
X87598D02*
Y10433D01*
X91535Y9252D02*
Y10433D01*
X87598Y9252D02*
X91535D01*
X26969Y52362D02*
Y54961D01*
X30177D01*
X26969Y43465D02*
Y46063D01*
Y43465D02*
X30177D01*
X26969Y19094D02*
X28543D01*
X26969D02*
Y20669D01*
Y34449D02*
Y36024D01*
X28543D01*
X42323D02*
X43898D01*
Y34449D02*
Y36024D01*
X42323Y19094D02*
X43898D01*
Y20669D01*
X52264Y9547D02*
Y10138D01*
X57972Y9547D02*
Y10138D01*
X233189Y20118D02*
X253189D01*
X233189D02*
Y80118D01*
X253189D01*
Y20118D02*
Y80118D01*
X233032Y83268D02*
X253032D01*
X233032D02*
Y143268D01*
X253032D01*
Y83268D02*
Y143268D01*
X26673Y109941D02*
Y110532D01*
X32382Y109941D02*
Y110532D01*
X36417Y89469D02*
Y115256D01*
X87598D01*
Y89469D02*
Y115256D01*
X36417Y89469D02*
X87598D01*
X46654Y139961D02*
Y178937D01*
X24016Y139961D02*
X46654D01*
X24016D02*
Y178937D01*
X46654D01*
X132579Y56693D02*
Y57480D01*
X137106Y56693D02*
Y57480D01*
X49606Y178937D02*
X72244D01*
X49606Y139961D02*
Y178937D01*
Y139961D02*
X72244D01*
Y178937D01*
X75197D02*
X97835D01*
X75197Y139961D02*
Y178937D01*
Y139961D02*
X97835D01*
Y178937D01*
X100787D02*
X123425D01*
X100787Y139961D02*
Y178937D01*
Y139961D02*
X123425D01*
Y178937D01*
X126378D02*
X149016D01*
X126378Y139961D02*
Y178937D01*
Y139961D02*
X149016D01*
Y178937D01*
D12*
X117744Y118705D02*
D03*
Y97051D02*
D03*
X109028Y84051D02*
D03*
D13*
X40453Y92716D02*
X39961Y93569D01*
X38976D01*
X38484Y92716D01*
X38976Y91864D01*
X39961D01*
X40453Y92716D01*
D14*
X139528Y121890D02*
D03*
Y111890D02*
D03*
Y101890D02*
D03*
Y91890D02*
D03*
Y81890D02*
D03*
D15*
X144528Y66890D02*
Y136890D01*
X1772D02*
X144528D01*
X1772Y66890D02*
X144528D01*
X1772D02*
Y136890D01*
X220472Y2205D02*
Y28465D01*
X149606Y2205D02*
X220472D01*
X149606D02*
Y28465D01*
X220472Y124488D02*
Y125827D01*
X149606D02*
X220472D01*
X149606Y124488D02*
Y125827D01*
D16*
X4134Y141929D02*
Y144291D01*
X2953Y143110D02*
X5315D01*
X18209D02*
X20571D01*
X19390Y141929D02*
Y144291D01*
D17*
X185237Y181693D02*
Y183792D01*
Y182743D01*
X188386D01*
Y184842D02*
X185237D01*
X188386Y186941D01*
X185237D01*
Y187990D02*
X185762D01*
X186811Y189040D01*
X185762Y190089D01*
X185237D01*
X186811Y189040D02*
X188386D01*
X185237Y191139D02*
Y192188D01*
Y191664D01*
X188386D01*
Y191139D01*
Y192188D01*
Y195862D02*
Y193763D01*
X186287Y195862D01*
X185762D01*
X185237Y195337D01*
Y194287D01*
X185762Y193763D01*
Y199010D02*
X185237Y198485D01*
Y197436D01*
X185762Y196911D01*
X187861D01*
X188386Y197436D01*
Y198485D01*
X187861Y199010D01*
X228544Y159186D02*
Y157087D01*
X231693D01*
Y159186D01*
X230119Y157087D02*
Y158136D01*
X229069Y162334D02*
X228544Y161810D01*
Y160760D01*
X229069Y160235D01*
X229594D01*
X230119Y160760D01*
Y161810D01*
X230643Y162334D01*
X231168D01*
X231693Y161810D01*
Y160760D01*
X231168Y160235D01*
X231693Y163384D02*
X228544D01*
Y164958D01*
X229069Y165483D01*
X230119D01*
X230643Y164958D01*
Y163384D01*
X228544Y166532D02*
Y167582D01*
Y167057D01*
X231693D01*
Y166532D01*
Y167582D01*
Y171255D02*
Y169156D01*
X229594Y171255D01*
X229069D01*
X228544Y170730D01*
Y169681D01*
X229069Y169156D01*
Y174404D02*
X228544Y173879D01*
Y172830D01*
X229069Y172305D01*
X231168D01*
X231693Y172830D01*
Y173879D01*
X231168Y174404D01*
X93110Y42062D02*
X89961D01*
Y43636D01*
X90486Y44161D01*
X91535D01*
X92060Y43636D01*
Y42062D01*
Y43111D02*
X93110Y44161D01*
Y47309D02*
Y45210D01*
X91011Y47309D01*
X90486D01*
X89961Y46785D01*
Y45735D01*
X90486Y45210D01*
Y48359D02*
X89961Y48884D01*
Y49933D01*
X90486Y50458D01*
X92585D01*
X93110Y49933D01*
Y48884D01*
X92585Y48359D01*
X90486D01*
X93110Y54135D02*
X89961D01*
Y55709D01*
X90486Y56234D01*
X91535D01*
X92060Y55709D01*
Y54135D01*
Y55185D02*
X93110Y56234D01*
Y57284D02*
Y58333D01*
Y57809D01*
X89961D01*
X90486Y57284D01*
X92585Y59908D02*
X93110Y60432D01*
Y61482D01*
X92585Y62007D01*
X90486D01*
X89961Y61482D01*
Y60432D01*
X90486Y59908D01*
X91011D01*
X91535Y60432D01*
Y62007D01*
X20604Y121522D02*
X20079Y120998D01*
Y119948D01*
X20604Y119423D01*
X22703D01*
X23228Y119948D01*
Y120998D01*
X22703Y121522D01*
X20604Y122572D02*
X20079Y123097D01*
Y124146D01*
X20604Y124671D01*
X21129D01*
X21654Y124146D01*
X22178Y124671D01*
X22703D01*
X23228Y124146D01*
Y123097D01*
X22703Y122572D01*
X22178D01*
X21654Y123097D01*
X21129Y122572D01*
X20604D01*
X21654Y123097D02*
Y124146D01*
X20604Y110696D02*
X20079Y110171D01*
Y109121D01*
X20604Y108597D01*
X22703D01*
X23228Y109121D01*
Y110171D01*
X22703Y110696D01*
X20079Y111745D02*
Y113844D01*
X20604D01*
X22703Y111745D01*
X23228D01*
X110826Y104332D02*
X107678D01*
Y105906D01*
X108202Y106431D01*
X109252D01*
X109777Y105906D01*
Y104332D01*
Y105382D02*
X110826Y106431D01*
Y107481D02*
Y108530D01*
Y108005D01*
X107678D01*
X108202Y107481D01*
Y110104D02*
X107678Y110629D01*
Y111679D01*
X108202Y112204D01*
X108727D01*
X109252Y111679D01*
X109777Y112204D01*
X110301D01*
X110826Y111679D01*
Y110629D01*
X110301Y110104D01*
X109777D01*
X109252Y110629D01*
X108727Y110104D01*
X108202D01*
X109252Y110629D02*
Y111679D01*
X100984Y104332D02*
X97835D01*
Y105906D01*
X98360Y106431D01*
X99409D01*
X99934Y105906D01*
Y104332D01*
Y105382D02*
X100984Y106431D01*
Y107481D02*
Y108530D01*
Y108005D01*
X97835D01*
X98360Y107481D01*
X97835Y110104D02*
Y112204D01*
X98360D01*
X100459Y110104D01*
X100984D01*
X45670Y13124D02*
X48294D01*
X48818Y13649D01*
Y14698D01*
X48294Y15223D01*
X45670D01*
Y18372D02*
Y16273D01*
X47244D01*
X46719Y17322D01*
Y17847D01*
X47244Y18372D01*
X48294D01*
X48818Y17847D01*
Y16798D01*
X48294Y16273D01*
X82087Y12140D02*
X84711D01*
X85236Y12665D01*
Y13714D01*
X84711Y14239D01*
X82087D01*
X85236Y16863D02*
X82087D01*
X83661Y15289D01*
Y17388D01*
X224804Y119948D02*
X227428D01*
X227952Y120473D01*
Y121522D01*
X227428Y122047D01*
X224804D01*
X227952Y123097D02*
Y124146D01*
Y123621D01*
X224804D01*
X225328Y123097D01*
X105905Y54135D02*
X102756D01*
Y55709D01*
X103281Y56234D01*
X104331D01*
X104856Y55709D01*
Y54135D01*
Y55185D02*
X105905Y56234D01*
Y57284D02*
Y58333D01*
Y57809D01*
X102756D01*
X103281Y57284D01*
X102756Y62007D02*
X103281Y60957D01*
X104331Y59908D01*
X105380D01*
X105905Y60432D01*
Y61482D01*
X105380Y62007D01*
X104856D01*
X104331Y61482D01*
Y59908D01*
X105905Y42324D02*
X102756D01*
Y43898D01*
X103281Y44423D01*
X104331D01*
X104856Y43898D01*
Y42324D01*
Y43374D02*
X105905Y44423D01*
Y45473D02*
Y46522D01*
Y45998D01*
X102756D01*
X103281Y45473D01*
X102756Y50196D02*
Y48096D01*
X104331D01*
X103806Y49146D01*
Y49671D01*
X104331Y50196D01*
X105380D01*
X105905Y49671D01*
Y48621D01*
X105380Y48096D01*
X120669Y20671D02*
X117520D01*
Y22245D01*
X118045Y22770D01*
X119095D01*
X119619Y22245D01*
Y20671D01*
Y21720D02*
X120669Y22770D01*
Y23819D02*
Y24869D01*
Y24344D01*
X117520D01*
X118045Y23819D01*
X120669Y28017D02*
X117520D01*
X119095Y26443D01*
Y28542D01*
X113779Y86615D02*
X110630D01*
Y88190D01*
X111155Y88714D01*
X112205D01*
X112730Y88190D01*
Y86615D01*
Y87665D02*
X113779Y88714D01*
Y89764D02*
Y90814D01*
Y90289D01*
X110630D01*
X111155Y89764D01*
Y92388D02*
X110630Y92913D01*
Y93962D01*
X111155Y94487D01*
X111680D01*
X112205Y93962D01*
Y93437D01*
Y93962D01*
X112730Y94487D01*
X113254D01*
X113779Y93962D01*
Y92913D01*
X113254Y92388D01*
X144291Y52167D02*
X141142D01*
Y53741D01*
X141667Y54266D01*
X142717D01*
X143241Y53741D01*
Y52167D01*
Y53216D02*
X144291Y54266D01*
Y55315D02*
Y56365D01*
Y55840D01*
X141142D01*
X141667Y55315D01*
Y57939D02*
X141142Y58464D01*
Y59513D01*
X141667Y60038D01*
X143766D01*
X144291Y59513D01*
Y58464D01*
X143766Y57939D01*
X141667D01*
X123621Y57415D02*
X120473D01*
Y58990D01*
X120998Y59515D01*
X122047D01*
X122572Y58990D01*
Y57415D01*
Y58465D02*
X123621Y59515D01*
X123097Y60564D02*
X123621Y61089D01*
Y62138D01*
X123097Y62663D01*
X120998D01*
X120473Y62138D01*
Y61089D01*
X120998Y60564D01*
X121522D01*
X122047Y61089D01*
Y62663D01*
X133464Y109581D02*
X130315D01*
Y111155D01*
X130840Y111680D01*
X131890D01*
X132414Y111155D01*
Y109581D01*
Y110630D02*
X133464Y111680D01*
X130840Y112730D02*
X130315Y113254D01*
Y114304D01*
X130840Y114829D01*
X131365D01*
X131890Y114304D01*
X132414Y114829D01*
X132939D01*
X133464Y114304D01*
Y113254D01*
X132939Y112730D01*
X132414D01*
X131890Y113254D01*
X131365Y112730D01*
X130840D01*
X131890Y113254D02*
Y114304D01*
X133464Y87927D02*
X130315D01*
Y89502D01*
X130840Y90026D01*
X131890D01*
X132414Y89502D01*
Y87927D01*
Y88977D02*
X133464Y90026D01*
X130315Y91076D02*
Y93175D01*
X130840D01*
X132939Y91076D01*
X133464D01*
X56692Y58400D02*
X53544D01*
Y59974D01*
X54069Y60499D01*
X55118D01*
X55643Y59974D01*
Y58400D01*
Y59449D02*
X56692Y60499D01*
X53544Y63648D02*
X54069Y62598D01*
X55118Y61548D01*
X56168D01*
X56692Y62073D01*
Y63123D01*
X56168Y63648D01*
X55643D01*
X55118Y63123D01*
Y61548D01*
X38976Y58400D02*
X35827D01*
Y59974D01*
X36352Y60499D01*
X37402D01*
X37926Y59974D01*
Y58400D01*
Y59449D02*
X38976Y60499D01*
X35827Y63648D02*
Y61548D01*
X37402D01*
X36877Y62598D01*
Y63123D01*
X37402Y63648D01*
X38451D01*
X38976Y63123D01*
Y62073D01*
X38451Y61548D01*
X101968Y32809D02*
X98819D01*
Y34384D01*
X99344Y34908D01*
X100394D01*
X100918Y34384D01*
Y32809D01*
Y33859D02*
X101968Y34908D01*
Y37532D02*
X98819D01*
X100394Y35958D01*
Y38057D01*
X83267Y3282D02*
X80119D01*
Y4856D01*
X80643Y5381D01*
X81693D01*
X82218Y4856D01*
Y3282D01*
Y4331D02*
X83267Y5381D01*
X80643Y6430D02*
X80119Y6955D01*
Y8005D01*
X80643Y8529D01*
X81168D01*
X81693Y8005D01*
Y7480D01*
Y8005D01*
X82218Y8529D01*
X82742D01*
X83267Y8005D01*
Y6955D01*
X82742Y6430D01*
X108858Y21982D02*
X105709D01*
Y23557D01*
X106234Y24081D01*
X107283D01*
X107808Y23557D01*
Y21982D01*
Y23032D02*
X108858Y24081D01*
Y27230D02*
Y25131D01*
X106759Y27230D01*
X106234D01*
X105709Y26705D01*
Y25656D01*
X106234Y25131D01*
X97047Y22507D02*
X93898D01*
Y24081D01*
X94423Y24606D01*
X95472D01*
X95997Y24081D01*
Y22507D01*
Y23557D02*
X97047Y24606D01*
Y25656D02*
Y26705D01*
Y26181D01*
X93898D01*
X94423Y25656D01*
X78805Y37861D02*
X76706D01*
X76182Y37336D01*
Y36287D01*
X76706Y35762D01*
X78805D01*
X79330Y36287D01*
Y37336D01*
X78281Y36812D02*
X79330Y37861D01*
Y37336D02*
X78805Y37861D01*
X79330Y40485D02*
X76182D01*
X77756Y38911D01*
Y41010D01*
X78805Y53609D02*
X76706D01*
X76182Y53084D01*
Y52035D01*
X76706Y51510D01*
X78805D01*
X79330Y52035D01*
Y53084D01*
X78281Y52560D02*
X79330Y53609D01*
Y53084D02*
X78805Y53609D01*
X76706Y54659D02*
X76182Y55183D01*
Y56233D01*
X76706Y56758D01*
X77231D01*
X77756Y56233D01*
Y55708D01*
Y56233D01*
X78281Y56758D01*
X78805D01*
X79330Y56233D01*
Y55183D01*
X78805Y54659D01*
X39372Y45552D02*
X37273D01*
X36748Y45028D01*
Y43978D01*
X37273Y43453D01*
X39372D01*
X39896Y43978D01*
Y45028D01*
X38847Y44503D02*
X39896Y45552D01*
Y45028D02*
X39372Y45552D01*
X39896Y48701D02*
Y46602D01*
X37797Y48701D01*
X37273D01*
X36748Y48176D01*
Y47127D01*
X37273Y46602D01*
X56800Y45769D02*
X54701D01*
X54176Y45244D01*
Y44194D01*
X54701Y43670D01*
X56800D01*
X57325Y44194D01*
Y45244D01*
X56275Y44719D02*
X57325Y45769D01*
Y45244D02*
X56800Y45769D01*
X57325Y46818D02*
Y47868D01*
Y47343D01*
X54176D01*
X54701Y46818D01*
X123621Y38715D02*
X120473D01*
Y40289D01*
X120998Y40814D01*
X122047D01*
X122572Y40289D01*
Y38715D01*
X120473Y43962D02*
X120998Y42913D01*
X122047Y41863D01*
X123097D01*
X123621Y42388D01*
Y43438D01*
X123097Y43962D01*
X122572D01*
X122047Y43438D01*
Y41863D01*
X228741Y65553D02*
Y63454D01*
X231889D01*
Y65553D01*
X230315Y63454D02*
Y64504D01*
X229265Y68702D02*
X228741Y68177D01*
Y67128D01*
X229265Y66603D01*
X229790D01*
X230315Y67128D01*
Y68177D01*
X230840Y68702D01*
X231364D01*
X231889Y68177D01*
Y67128D01*
X231364Y66603D01*
X231889Y69751D02*
X228741D01*
Y71326D01*
X229265Y71850D01*
X230315D01*
X230840Y71326D01*
Y69751D01*
X229265Y74999D02*
X228741Y74474D01*
Y73425D01*
X229265Y72900D01*
X229790D01*
X230315Y73425D01*
Y74474D01*
X230840Y74999D01*
X231364D01*
X231889Y74474D01*
Y73425D01*
X231364Y72900D01*
X231889Y76048D02*
X228741D01*
Y77623D01*
X229265Y78148D01*
X230315D01*
X230840Y77623D01*
Y76048D01*
X228741Y79197D02*
Y80247D01*
Y79722D01*
X231889D01*
Y79197D01*
Y80247D01*
X228741Y126446D02*
Y128545D01*
Y127496D01*
X231889D01*
Y129595D02*
X228741D01*
X231889Y131694D01*
X228741D01*
Y132744D02*
X229265D01*
X230315Y133793D01*
X229265Y134843D01*
X228741D01*
X230315Y133793D02*
X231889D01*
X229265Y137991D02*
X228741Y137466D01*
Y136417D01*
X229265Y135892D01*
X229790D01*
X230315Y136417D01*
Y137466D01*
X230840Y137991D01*
X231364D01*
X231889Y137466D01*
Y136417D01*
X231364Y135892D01*
X231889Y139041D02*
X228741D01*
Y140615D01*
X229265Y141140D01*
X230315D01*
X230840Y140615D01*
Y139041D01*
X228741Y142189D02*
Y143239D01*
Y142714D01*
X231889D01*
Y142189D01*
Y143239D01*
X19672Y188600D02*
X19147Y188075D01*
Y187025D01*
X19672Y186500D01*
X21771D01*
X22296Y187025D01*
Y188075D01*
X21771Y188600D01*
X20721D01*
Y187550D01*
X22296Y189649D02*
X19147D01*
Y191223D01*
X19672Y191748D01*
X20721D01*
X21246Y191223D01*
Y189649D01*
X19147Y192798D02*
Y193847D01*
Y193322D01*
X22296D01*
Y192798D01*
Y193847D01*
X19147Y196996D02*
Y195946D01*
X19672Y195421D01*
X21771D01*
X22296Y195946D01*
Y196996D01*
X21771Y197520D01*
X19672D01*
X19147Y196996D01*
X117520Y2102D02*
X120669D01*
Y4201D01*
X117520Y7349D02*
Y5250D01*
X120669D01*
Y7349D01*
X119095Y5250D02*
Y6300D01*
X117520Y8399D02*
X120669D01*
Y9973D01*
X120144Y10498D01*
X118045D01*
X117520Y9973D01*
Y8399D01*
X118045Y11547D02*
X117520Y12072D01*
Y13122D01*
X118045Y13646D01*
X118570D01*
X119095Y13122D01*
Y12597D01*
Y13122D01*
X119619Y13646D01*
X120144D01*
X120669Y13122D01*
Y12072D01*
X120144Y11547D01*
X105709Y2102D02*
X108858D01*
Y4201D01*
X105709Y7349D02*
Y5250D01*
X108858D01*
Y7349D01*
X107283Y5250D02*
Y6300D01*
X105709Y8399D02*
X108858D01*
Y9973D01*
X108333Y10498D01*
X106234D01*
X105709Y9973D01*
Y8399D01*
X108858Y13646D02*
Y11547D01*
X106759Y13646D01*
X106234D01*
X105709Y13122D01*
Y12072D01*
X106234Y11547D01*
X93898Y2626D02*
X97047D01*
Y4725D01*
X93898Y7874D02*
Y5775D01*
X97047D01*
Y7874D01*
X95472Y5775D02*
Y6825D01*
X93898Y8924D02*
X97047D01*
Y10498D01*
X96522Y11023D01*
X94423D01*
X93898Y10498D01*
Y8924D01*
X97047Y12072D02*
Y13122D01*
Y12597D01*
X93898D01*
X94423Y12072D01*
X227297Y19849D02*
X226772Y19324D01*
Y18275D01*
X227297Y17750D01*
X229396D01*
X229921Y18275D01*
Y19324D01*
X229396Y19849D01*
X226772Y22998D02*
X227297Y21948D01*
X228346Y20899D01*
X229396D01*
X229921Y21424D01*
Y22473D01*
X229396Y22998D01*
X228871D01*
X228346Y22473D01*
Y20899D01*
X227297Y55578D02*
X226772Y55053D01*
Y54003D01*
X227297Y53478D01*
X229396D01*
X229921Y54003D01*
Y55053D01*
X229396Y55578D01*
X226772Y58726D02*
Y56627D01*
X228346D01*
X227822Y57677D01*
Y58201D01*
X228346Y58726D01*
X229396D01*
X229921Y58201D01*
Y57152D01*
X229396Y56627D01*
X28478Y120538D02*
X27953Y120013D01*
Y118964D01*
X28478Y118439D01*
X30577D01*
X31102Y118964D01*
Y120013D01*
X30577Y120538D01*
X31102Y123162D02*
X27953D01*
X29528Y121588D01*
Y123687D01*
X43442Y5121D02*
X42917Y4596D01*
Y3547D01*
X43442Y3022D01*
X45541D01*
X46066Y3547D01*
Y4596D01*
X45541Y5121D01*
X43442Y6171D02*
X42917Y6695D01*
Y7745D01*
X43442Y8270D01*
X43967D01*
X44491Y7745D01*
Y7220D01*
Y7745D01*
X45016Y8270D01*
X45541D01*
X46066Y7745D01*
Y6695D01*
X45541Y6171D01*
X60870Y21646D02*
X60346Y21122D01*
Y20072D01*
X60870Y19547D01*
X62969D01*
X63494Y20072D01*
Y21122D01*
X62969Y21646D01*
X63494Y24795D02*
Y22696D01*
X61395Y24795D01*
X60870D01*
X60346Y24270D01*
Y23221D01*
X60870Y22696D01*
X61179Y5977D02*
X60654Y5452D01*
Y4402D01*
X61179Y3878D01*
X63278D01*
X63802Y4402D01*
Y5452D01*
X63278Y5977D01*
X63802Y7026D02*
Y8076D01*
Y7551D01*
X60654D01*
X61179Y7026D01*
D18*
X149622Y130921D02*
Y134857D01*
X151590D01*
X152246Y134201D01*
Y132889D01*
X151590Y132233D01*
X149622D01*
X153558Y133545D02*
Y130921D01*
Y132233D01*
X154214Y132889D01*
X154870Y133545D01*
X155526D01*
X158150Y130921D02*
X159461D01*
X160117Y131577D01*
Y132889D01*
X159461Y133545D01*
X158150D01*
X157493Y132889D01*
Y131577D01*
X158150Y130921D01*
X162085Y134201D02*
Y133545D01*
X161429D01*
X162741D01*
X162085D01*
Y131577D01*
X162741Y130921D01*
X165365D02*
X166677D01*
X167333Y131577D01*
Y132889D01*
X166677Y133545D01*
X165365D01*
X164709Y132889D01*
Y131577D01*
X165365Y130921D01*
X171269Y134201D02*
X170613Y134857D01*
X169301D01*
X168645Y134201D01*
Y131577D01*
X169301Y130921D01*
X170613D01*
X171269Y131577D01*
X173237Y130921D02*
X174548D01*
X175204Y131577D01*
Y132889D01*
X174548Y133545D01*
X173237D01*
X172581Y132889D01*
Y131577D01*
X173237Y130921D01*
X176516D02*
Y133545D01*
X178484D01*
X179140Y132889D01*
Y130921D01*
X181108Y134201D02*
Y133545D01*
X180452D01*
X181764D01*
X181108D01*
Y131577D01*
X181764Y130921D01*
X183732Y133545D02*
Y130921D01*
Y132233D01*
X184388Y132889D01*
X185044Y133545D01*
X185700D01*
X188323Y130921D02*
X189635D01*
X190291Y131577D01*
Y132889D01*
X189635Y133545D01*
X188323D01*
X187668Y132889D01*
Y131577D01*
X188323Y130921D01*
X191603D02*
X192915D01*
X192259D01*
Y134857D01*
X191603D01*
X194883Y130921D02*
X196195D01*
X195539D01*
Y134857D01*
X194883D01*
X200131Y130921D02*
X198819D01*
X198163Y131577D01*
Y132889D01*
X198819Y133545D01*
X200131D01*
X200787Y132889D01*
Y132233D01*
X198163D01*
X202099Y133545D02*
Y130921D01*
Y132233D01*
X202754Y132889D01*
X203411Y133545D01*
X204066D01*
X209970Y134857D02*
Y132233D01*
X211282Y130921D01*
X212594Y132233D01*
Y134857D01*
X213906Y130921D02*
X215218D01*
X214562D01*
Y134857D01*
X213906Y134201D01*
X217186Y130921D02*
Y131577D01*
X217842D01*
Y130921D01*
X217186D01*
X220465D02*
X221777D01*
X221121D01*
Y134857D01*
X220465Y134201D01*
X132843Y23950D02*
X131843Y22950D01*
Y20951D01*
X132843Y19951D01*
X133843D01*
X134843Y20951D01*
Y22950D01*
X135842Y23950D01*
X136842D01*
X137842Y22950D01*
Y20951D01*
X136842Y19951D01*
X131843Y25949D02*
X137842D01*
X135842Y27948D01*
X137842Y29948D01*
X131843D01*
X137842Y31947D02*
Y33947D01*
Y32947D01*
X131843D01*
X132843Y31947D01*
X59009Y97364D02*
X64007D01*
X65007Y98364D01*
Y100363D01*
X64007Y101363D01*
X59009D01*
Y107361D02*
X60009Y105361D01*
X62008Y103362D01*
X64007D01*
X65007Y104362D01*
Y106361D01*
X64007Y107361D01*
X63008D01*
X62008Y106361D01*
Y103362D01*
X4875Y77679D02*
X9873D01*
X10873Y78679D01*
Y80678D01*
X9873Y81678D01*
X4875D01*
X10873Y87676D02*
Y83677D01*
X6874Y87676D01*
X5875D01*
X4875Y86676D01*
Y84676D01*
X5875Y83677D01*
X0Y10300D02*
X50Y9290D01*
X198Y8291D01*
X444Y7310D01*
X784Y6358D01*
X1216Y5445D01*
X1736Y4578D01*
X2338Y3766D01*
X3017Y3017D01*
X3766Y2338D01*
X4578Y1736D01*
X5445Y1216D01*
X6358Y784D01*
X7310Y444D01*
X8291Y198D01*
X9290Y50D01*
X10300Y0D01*
X245605D02*
X246615Y50D01*
X247615Y198D01*
X248595Y444D01*
X249547Y784D01*
X250461Y1216D01*
X251328Y1736D01*
X252140Y2338D01*
X252889Y3017D01*
X253568Y3766D01*
X254170Y4578D01*
X254689Y5445D01*
X255121Y6358D01*
X255462Y7310D01*
X255708Y8291D01*
X255856Y9290D01*
X255906Y10300D01*
Y194485D02*
X255856Y195495D01*
X255708Y196494D01*
X255462Y197475D01*
X255121Y198427D01*
X254689Y199340D01*
X254170Y200207D01*
X253568Y201019D01*
X252889Y201768D01*
X252140Y202447D01*
X251328Y203049D01*
X250461Y203569D01*
X249547Y204001D01*
X248595Y204342D01*
X247615Y204587D01*
X246615Y204735D01*
X245605Y204785D01*
X10300D02*
X9290Y204735D01*
X8291Y204587D01*
X7310Y204342D01*
X6358Y204001D01*
X5445Y203569D01*
X4578Y203049D01*
X3766Y202447D01*
X3017Y201768D01*
X2338Y201019D01*
X1736Y200207D01*
X1216Y199340D01*
X784Y198427D01*
X444Y197475D01*
X198Y196494D01*
X50Y195495D01*
X0Y194485D01*
Y10300D02*
Y91535D01*
X10300Y0D02*
X245606D01*
X255906Y10300D02*
Y194485D01*
X10300Y204785D02*
X245606D01*
X0Y91535D02*
Y194485D01*
D19*
X19292Y156661D02*
X20866Y157711D01*
X19292D02*
X20866Y156661D01*
X19292Y158235D02*
Y159285D01*
Y158760D01*
X20866D01*
X19554Y159810D02*
X19292Y160072D01*
Y160597D01*
X19554Y160859D01*
X19817D01*
X20079Y160597D01*
Y160334D01*
Y160597D01*
X20341Y160859D01*
X20604D01*
X20866Y160597D01*
Y160072D01*
X20604Y159810D01*
X19554Y161384D02*
X19292Y161646D01*
Y162171D01*
X19554Y162434D01*
X20604D01*
X20866Y162171D01*
Y161646D01*
X20604Y161384D01*
X19554D01*
X12860Y180578D02*
X13123Y180315D01*
X13648D01*
X13910Y180578D01*
Y181627D01*
X13648Y181889D01*
X13123D01*
X12860Y181627D01*
Y181102D01*
X13385D01*
X12336Y181889D02*
Y180315D01*
X11286Y181889D01*
Y180315D01*
X10762D02*
Y181889D01*
X9974D01*
X9712Y181627D01*
Y180578D01*
X9974Y180315D01*
X10762D01*
X197Y19685D02*
Y62992D01*
M02*
