G04*
G04 #@! TF.GenerationSoftware,Altium Limited,Altium Designer,21.3.2 (30)*
G04*
G04 Layer_Physical_Order=1*
G04 Layer_Color=255*
%FSLAX25Y25*%
%MOIN*%
G70*
G04*
G04 #@! TF.SameCoordinates,4FB7CEAD-E32D-458C-9978-29DB153300B6*
G04*
G04*
G04 #@! TF.FilePolarity,Positive*
G04*
G01*
G75*
%ADD11C,0.00787*%
%ADD14C,0.06024*%
%ADD18C,0.01000*%
%ADD19C,0.00394*%
%ADD20R,0.07480X0.07087*%
%ADD21R,0.05315X0.01575*%
%ADD22R,0.05512X0.03937*%
%ADD23R,0.05315X0.03347*%
%ADD24R,0.06299X0.08583*%
%ADD25R,0.06299X0.08661*%
%ADD26R,0.03740X0.05512*%
%ADD27R,0.07874X0.03543*%
%ADD28R,0.03543X0.01575*%
%ADD29R,0.05512X0.03740*%
%ADD30R,0.03347X0.05315*%
%ADD31R,0.03543X0.03150*%
%ADD32R,0.02425X0.06721*%
G04:AMPARAMS|DCode=33|XSize=67.21mil|YSize=24.25mil|CornerRadius=12.12mil|HoleSize=0mil|Usage=FLASHONLY|Rotation=90.000|XOffset=0mil|YOffset=0mil|HoleType=Round|Shape=RoundedRectangle|*
%AMROUNDEDRECTD33*
21,1,0.06721,0.00000,0,0,90.0*
21,1,0.04296,0.02425,0,0,90.0*
1,1,0.02425,0.00000,0.02148*
1,1,0.02425,0.00000,-0.02148*
1,1,0.02425,0.00000,-0.02148*
1,1,0.02425,0.00000,0.02148*
%
%ADD33ROUNDEDRECTD33*%
%ADD34R,0.04724X0.04331*%
%ADD35O,0.00787X0.03150*%
%ADD36O,0.03150X0.00787*%
%ADD37R,0.10551X0.10551*%
G04:AMPARAMS|DCode=38|XSize=78.74mil|YSize=23.62mil|CornerRadius=2.01mil|HoleSize=0mil|Usage=FLASHONLY|Rotation=90.000|XOffset=0mil|YOffset=0mil|HoleType=Round|Shape=RoundedRectangle|*
%AMROUNDEDRECTD38*
21,1,0.07874,0.01961,0,0,90.0*
21,1,0.07472,0.02362,0,0,90.0*
1,1,0.00402,0.00980,0.03736*
1,1,0.00402,0.00980,-0.03736*
1,1,0.00402,-0.00980,-0.03736*
1,1,0.00402,-0.00980,0.03736*
%
%ADD38ROUNDEDRECTD38*%
%ADD39R,0.07480X0.06201*%
%ADD40R,0.07480X0.06201*%
%ADD65R,0.19685X0.19685*%
%ADD66O,0.07480X0.04724*%
%ADD67O,0.04921X0.04134*%
%ADD68C,0.05906*%
G04:AMPARAMS|DCode=69|XSize=137.8mil|YSize=137.8mil|CornerRadius=17.22mil|HoleSize=0mil|Usage=FLASHONLY|Rotation=90.000|XOffset=0mil|YOffset=0mil|HoleType=Round|Shape=RoundedRectangle|*
%AMROUNDEDRECTD69*
21,1,0.13780,0.10335,0,0,90.0*
21,1,0.10335,0.13780,0,0,90.0*
1,1,0.03445,0.05167,0.05167*
1,1,0.03445,0.05167,-0.05167*
1,1,0.03445,-0.05167,-0.05167*
1,1,0.03445,-0.05167,0.05167*
%
%ADD69ROUNDEDRECTD69*%
%ADD70R,0.05906X0.05906*%
%ADD71R,0.05906X0.05906*%
%ADD72C,0.13780*%
%ADD73C,0.02953*%
%ADD74C,0.01968*%
G36*
X246811Y203922D02*
X248588Y203568D01*
X250262Y202875D01*
X251768Y201868D01*
X253049Y200587D01*
X254056Y199081D01*
X254749Y197407D01*
X255103Y195630D01*
X255103Y194724D01*
X255103Y10000D01*
X255103Y9094D01*
X254749Y7317D01*
X254056Y5644D01*
X253049Y4137D01*
X251768Y2856D01*
X250262Y1850D01*
X248588Y1156D01*
X246811Y803D01*
X245905Y803D01*
X224342D01*
Y19151D01*
X224804Y19342D01*
X227123Y17023D01*
X227123Y17023D01*
X227514Y16762D01*
X227975Y16671D01*
X240775D01*
X240775Y16671D01*
X241236Y16762D01*
X241626Y17023D01*
X244826Y20223D01*
X244826Y20223D01*
X245087Y20614D01*
X245179Y21075D01*
Y21166D01*
X247189D01*
Y25118D01*
Y29071D01*
X245179D01*
Y32132D01*
X245679Y32339D01*
X245893Y32125D01*
X246745Y31633D01*
X247697Y31378D01*
X248681D01*
X249633Y31633D01*
X250485Y32125D01*
X251182Y32822D01*
X251674Y33675D01*
X251929Y34626D01*
Y35611D01*
X251674Y36562D01*
X251182Y37415D01*
X250485Y38111D01*
X249633Y38603D01*
X248681Y38858D01*
X247697D01*
X247385Y38775D01*
X247126Y39223D01*
X247674Y39771D01*
X250375D01*
X250375Y39770D01*
X250836Y39862D01*
X251226Y40123D01*
X254226Y43123D01*
X254487Y43514D01*
X254579Y43975D01*
Y166232D01*
X254579Y166232D01*
X254487Y166692D01*
X254226Y167083D01*
X254226Y167083D01*
X251393Y169916D01*
X251517Y170131D01*
X251772Y171082D01*
Y172067D01*
X251517Y173018D01*
X251025Y173871D01*
X250328Y174568D01*
X249475Y175060D01*
X248524Y175315D01*
X247539D01*
X246588Y175060D01*
X245735Y174568D01*
X245541Y174373D01*
X245079Y174565D01*
Y178585D01*
X245541Y178776D01*
X245735Y178582D01*
X246588Y178089D01*
X247539Y177835D01*
X248524D01*
X249475Y178089D01*
X250328Y178582D01*
X251025Y179278D01*
X251517Y180131D01*
X251772Y181082D01*
Y182067D01*
X251517Y183018D01*
X251025Y183871D01*
X250328Y184568D01*
X249475Y185060D01*
X248524Y185315D01*
X247539D01*
X246588Y185060D01*
X245735Y184568D01*
X245541Y184373D01*
X245079Y184565D01*
Y185075D01*
X245079Y185075D01*
X244987Y185536D01*
X244726Y185926D01*
X243738Y186915D01*
X243850Y187475D01*
X243869Y187491D01*
X245307Y187205D01*
X246819D01*
X248302Y187500D01*
X249699Y188078D01*
X250957Y188919D01*
X252026Y189988D01*
X252866Y191245D01*
X253445Y192642D01*
X253740Y194126D01*
Y195638D01*
X253445Y197121D01*
X252866Y198518D01*
X252026Y199776D01*
X250957Y200845D01*
X249699Y201685D01*
X248302Y202264D01*
X246819Y202559D01*
X245307D01*
X243824Y202264D01*
X242426Y201685D01*
X241169Y200845D01*
X240100Y199776D01*
X239260Y198518D01*
X238897Y197643D01*
X238407Y197546D01*
X234026Y201926D01*
X233636Y202187D01*
X233175Y202279D01*
X233175Y202279D01*
X174675D01*
X174214Y202187D01*
X173823Y201926D01*
X173562Y201536D01*
X173471Y201075D01*
Y196845D01*
X173350Y196765D01*
X172850Y197032D01*
Y197371D01*
X172581Y198376D01*
X172061Y199277D01*
X171325Y200013D01*
X170423Y200534D01*
X169898Y200675D01*
Y196850D01*
X168898D01*
Y195850D01*
X165073D01*
X165214Y195325D01*
X165735Y194423D01*
X165817Y194341D01*
X165626Y193879D01*
X162170D01*
X161978Y194341D01*
X162061Y194423D01*
X162581Y195325D01*
X162722Y195850D01*
X158898D01*
X155073D01*
X155214Y195325D01*
X155735Y194423D01*
X155817Y194341D01*
X155626Y193879D01*
X152170D01*
X151978Y194341D01*
X152061Y194423D01*
X152581Y195325D01*
X152722Y195850D01*
X148898D01*
X145073D01*
X145214Y195325D01*
X145735Y194423D01*
X145817Y194341D01*
X145626Y193879D01*
X142170D01*
X141978Y194341D01*
X142061Y194423D01*
X142581Y195325D01*
X142722Y195850D01*
X138898D01*
X135073D01*
X135214Y195325D01*
X135735Y194423D01*
X135817Y194341D01*
X135626Y193879D01*
X131869D01*
X131677Y194341D01*
X131890Y194554D01*
X132383Y195407D01*
X132638Y196358D01*
Y197343D01*
X132383Y198294D01*
X131890Y199147D01*
X131194Y199843D01*
X130341Y200336D01*
X129390Y200591D01*
X128405D01*
X127454Y200336D01*
X126601Y199843D01*
X125905Y199147D01*
X125412Y198294D01*
X125157Y197343D01*
Y196358D01*
X125412Y195407D01*
X125905Y194554D01*
X126118Y194341D01*
X125926Y193879D01*
X124722D01*
X124722Y193879D01*
X124261Y193787D01*
X123871Y193526D01*
X123871Y193526D01*
X120556Y190212D01*
X120341Y190336D01*
X119390Y190591D01*
X118405D01*
X117454Y190336D01*
X116601Y189843D01*
X115905Y189147D01*
X115412Y188294D01*
X115157Y187343D01*
Y186702D01*
X114657Y186495D01*
X114279Y186874D01*
Y190975D01*
X114187Y191436D01*
X113926Y191826D01*
X113926Y191826D01*
X113026Y192726D01*
X112636Y192987D01*
X112175Y193079D01*
X112175Y193079D01*
X110846D01*
X110712Y193579D01*
X111194Y193858D01*
X111890Y194554D01*
X112383Y195407D01*
X112638Y196358D01*
Y197343D01*
X112383Y198294D01*
X111890Y199147D01*
X111194Y199843D01*
X110341Y200336D01*
X109390Y200591D01*
X108405D01*
X107454Y200336D01*
X106601Y199843D01*
X105905Y199147D01*
X105412Y198294D01*
X105157Y197343D01*
Y196358D01*
X105412Y195407D01*
X105905Y194554D01*
X106601Y193858D01*
X107083Y193579D01*
X106949Y193079D01*
X100846D01*
X100712Y193579D01*
X101194Y193858D01*
X101891Y194554D01*
X102383Y195407D01*
X102638Y196358D01*
Y197343D01*
X102383Y198294D01*
X101891Y199147D01*
X101194Y199843D01*
X100341Y200336D01*
X99390Y200591D01*
X98405D01*
X97454Y200336D01*
X96601Y199843D01*
X95905Y199147D01*
X95412Y198294D01*
X95157Y197343D01*
Y196358D01*
X95412Y195407D01*
X95905Y194554D01*
X96601Y193858D01*
X97083Y193579D01*
X96949Y193079D01*
X90846D01*
X90712Y193579D01*
X91194Y193858D01*
X91891Y194554D01*
X92383Y195407D01*
X92638Y196358D01*
Y197343D01*
X92383Y198294D01*
X91891Y199147D01*
X91194Y199843D01*
X90341Y200336D01*
X89390Y200591D01*
X88405D01*
X87454Y200336D01*
X86601Y199843D01*
X85905Y199147D01*
X85412Y198294D01*
X85157Y197343D01*
Y196358D01*
X85412Y195407D01*
X85905Y194554D01*
X86601Y193858D01*
X87084Y193579D01*
X86949Y193079D01*
X80846D01*
X80712Y193579D01*
X81194Y193858D01*
X81890Y194554D01*
X82383Y195407D01*
X82638Y196358D01*
Y197343D01*
X82383Y198294D01*
X81890Y199147D01*
X81194Y199843D01*
X80341Y200336D01*
X79390Y200591D01*
X78405D01*
X77454Y200336D01*
X76601Y199843D01*
X75905Y199147D01*
X75412Y198294D01*
X75157Y197343D01*
Y196358D01*
X75412Y195407D01*
X75905Y194554D01*
X76601Y193858D01*
X77083Y193579D01*
X76950Y193079D01*
X70846D01*
X70712Y193579D01*
X71194Y193858D01*
X71890Y194554D01*
X72383Y195407D01*
X72638Y196358D01*
Y197343D01*
X72383Y198294D01*
X71890Y199147D01*
X71194Y199843D01*
X70341Y200336D01*
X69390Y200591D01*
X68405D01*
X67454Y200336D01*
X66601Y199843D01*
X65905Y199147D01*
X65412Y198294D01*
X65157Y197343D01*
Y196358D01*
X65412Y195407D01*
X65905Y194554D01*
X66601Y193858D01*
X67084Y193579D01*
X66949Y193079D01*
X64372D01*
X62259Y195192D01*
X62383Y195407D01*
X62638Y196358D01*
Y197343D01*
X62383Y198294D01*
X61891Y199147D01*
X61194Y199843D01*
X60341Y200336D01*
X59390Y200591D01*
X58405D01*
X57454Y200336D01*
X56601Y199843D01*
X55905Y199147D01*
X55412Y198294D01*
X55157Y197343D01*
Y196358D01*
X55412Y195407D01*
X55905Y194554D01*
X56601Y193858D01*
X57454Y193365D01*
X58405Y193110D01*
X59390D01*
X60341Y193365D01*
X60556Y193489D01*
X63022Y191023D01*
X63412Y190762D01*
X63873Y190671D01*
X67034D01*
X67168Y190171D01*
X66601Y189843D01*
X65905Y189147D01*
X65412Y188294D01*
X65157Y187343D01*
Y186358D01*
X65412Y185407D01*
X65905Y184554D01*
X66601Y183858D01*
X67454Y183365D01*
X68405Y183110D01*
X69390D01*
X70341Y183365D01*
X71194Y183858D01*
X71890Y184554D01*
X72383Y185407D01*
X72638Y186358D01*
Y187343D01*
X72383Y188294D01*
X71890Y189147D01*
X71194Y189843D01*
X70627Y190171D01*
X70761Y190671D01*
X77034D01*
X77168Y190171D01*
X76601Y189843D01*
X75905Y189147D01*
X75412Y188294D01*
X75157Y187343D01*
Y186358D01*
X75412Y185407D01*
X75905Y184554D01*
X76601Y183858D01*
X77454Y183365D01*
X78405Y183110D01*
X79390D01*
X80341Y183365D01*
X81194Y183858D01*
X81890Y184554D01*
X82383Y185407D01*
X82638Y186358D01*
Y187343D01*
X82383Y188294D01*
X81890Y189147D01*
X81194Y189843D01*
X80627Y190171D01*
X80761Y190671D01*
X87034D01*
X87168Y190171D01*
X86601Y189843D01*
X85905Y189147D01*
X85412Y188294D01*
X85157Y187343D01*
Y186358D01*
X85412Y185407D01*
X85905Y184554D01*
X86601Y183858D01*
X87454Y183365D01*
X88405Y183110D01*
X89390D01*
X90341Y183365D01*
X91194Y183858D01*
X91891Y184554D01*
X92383Y185407D01*
X92638Y186358D01*
Y187343D01*
X92383Y188294D01*
X91891Y189147D01*
X91194Y189843D01*
X90627Y190171D01*
X90761Y190671D01*
X97034D01*
X97168Y190171D01*
X96601Y189843D01*
X95905Y189147D01*
X95412Y188294D01*
X95157Y187343D01*
Y186358D01*
X95412Y185407D01*
X95905Y184554D01*
X96601Y183858D01*
X97454Y183365D01*
X98405Y183110D01*
X99390D01*
X100341Y183365D01*
X101194Y183858D01*
X101891Y184554D01*
X102383Y185407D01*
X102638Y186358D01*
Y187343D01*
X102383Y188294D01*
X101891Y189147D01*
X101194Y189843D01*
X100627Y190171D01*
X100761Y190671D01*
X107034D01*
X107168Y190171D01*
X106601Y189843D01*
X105905Y189147D01*
X105412Y188294D01*
X105157Y187343D01*
Y186358D01*
X105412Y185407D01*
X105905Y184554D01*
X106601Y183858D01*
X107454Y183365D01*
X108405Y183110D01*
X109390D01*
X110341Y183365D01*
X111194Y183858D01*
X111890Y184554D01*
X112162Y185024D01*
X112657Y185089D01*
X115923Y181823D01*
X116314Y181562D01*
X116775Y181471D01*
X116775Y181471D01*
X217476D01*
X225671Y173276D01*
Y163109D01*
X225192Y162964D01*
X225037Y163195D01*
X224219Y164014D01*
X223256Y164657D01*
X222187Y165100D01*
X221051Y165326D01*
X220488Y165354D01*
Y168291D01*
X216535D01*
X212583D01*
Y165354D01*
X194898D01*
Y168291D01*
X190945D01*
X186992D01*
Y165354D01*
X169307D01*
Y168291D01*
X165354D01*
X161402D01*
Y165354D01*
X143717D01*
Y168291D01*
X139764D01*
X135811D01*
Y165354D01*
X118126D01*
Y168291D01*
X114173D01*
X110221D01*
Y165354D01*
X92535D01*
Y168291D01*
X88583D01*
X84630D01*
Y165354D01*
X66945D01*
Y168291D01*
X62992D01*
X59039D01*
Y165354D01*
X41354Y165354D01*
Y168291D01*
X37402D01*
X33449D01*
Y165354D01*
X20131D01*
X19693Y165854D01*
X19724Y166093D01*
Y170260D01*
X11811D01*
X3898D01*
Y166093D01*
X3929Y165854D01*
X3491Y165354D01*
X803D01*
Y194724D01*
Y195630D01*
X1156Y197407D01*
X1850Y199081D01*
X2856Y200587D01*
X4137Y201868D01*
X5644Y202875D01*
X7317Y203568D01*
X9094Y203922D01*
X10000Y203922D01*
X245905Y203922D01*
X246811Y203922D01*
D02*
G37*
G36*
X236771Y195776D02*
Y190975D01*
X236771Y190975D01*
X236862Y190514D01*
X237123Y190123D01*
X242671Y184576D01*
Y102235D01*
X242209Y102044D01*
X240126Y104126D01*
X239761Y104370D01*
X239723Y104530D01*
X239690Y104906D01*
X240328Y105275D01*
X241024Y105971D01*
X241517Y106824D01*
X241772Y107775D01*
Y108760D01*
X241517Y109711D01*
X241024Y110564D01*
X240328Y111261D01*
X239475Y111753D01*
X238524Y112008D01*
X237539D01*
X236588Y111753D01*
X235735Y111261D01*
X235039Y110564D01*
X234546Y109711D01*
X234291Y108760D01*
Y107775D01*
X234546Y106824D01*
X235039Y105971D01*
X235735Y105275D01*
X236248Y104979D01*
X236114Y104479D01*
X224954D01*
X224493Y104387D01*
X224102Y104126D01*
X224102Y104126D01*
X223903Y103927D01*
X223441Y104119D01*
Y104268D01*
X223228D01*
Y105302D01*
X223636Y105383D01*
X224026Y105645D01*
X225326Y106945D01*
X225326Y106945D01*
X225587Y107335D01*
X225679Y107796D01*
X225679Y107796D01*
Y112423D01*
X225757Y112456D01*
X226394Y113093D01*
X226739Y113925D01*
Y114825D01*
X226394Y115657D01*
X225757Y116294D01*
X224925Y116639D01*
X224025D01*
X223644Y116481D01*
X223228Y116759D01*
Y118937D01*
Y124055D01*
X214779D01*
Y134276D01*
X227726Y147223D01*
X227987Y147614D01*
X228079Y148075D01*
X228079Y148075D01*
Y173775D01*
X228003Y174159D01*
X228185Y174336D01*
X228415Y174454D01*
X229271Y173598D01*
Y169132D01*
X229271Y169132D01*
X229362Y168671D01*
X229623Y168280D01*
X234670Y163233D01*
X234546Y163018D01*
X234291Y162067D01*
Y161082D01*
X234546Y160131D01*
X235039Y159278D01*
X235735Y158582D01*
X236588Y158089D01*
X237539Y157835D01*
X238524D01*
X239475Y158089D01*
X240328Y158582D01*
X241024Y159278D01*
X241517Y160131D01*
X241772Y161082D01*
Y162067D01*
X241517Y163018D01*
X241024Y163871D01*
X240328Y164568D01*
X239475Y165060D01*
X238524Y165315D01*
X237539D01*
X236588Y165060D01*
X236373Y164936D01*
X231679Y169630D01*
Y174097D01*
X231679Y174097D01*
X231673Y174126D01*
X231825Y174311D01*
X232657Y174656D01*
X233294Y175293D01*
X233639Y176125D01*
Y177025D01*
X233294Y177857D01*
X232657Y178494D01*
X231825Y178839D01*
X230925D01*
X230093Y178494D01*
X229456Y177857D01*
X229324Y177539D01*
X228834Y177442D01*
X223782Y182493D01*
X224041Y182941D01*
X224204Y182898D01*
X225245D01*
X226250Y183167D01*
X227151Y183687D01*
X227887Y184423D01*
X228408Y185325D01*
X228549Y185850D01*
X224724D01*
Y186850D01*
X223724D01*
Y190675D01*
X223199Y190534D01*
X222297Y190013D01*
X221561Y189277D01*
X221041Y188376D01*
X220772Y187371D01*
Y186330D01*
X220815Y186167D01*
X220367Y185908D01*
X218573Y187702D01*
X218324Y187869D01*
X218210Y188294D01*
X217717Y189147D01*
X217021Y189843D01*
X216168Y190336D01*
X215929Y190400D01*
Y193301D01*
X216168Y193365D01*
X217021Y193858D01*
X217717Y194554D01*
X218210Y195407D01*
X218465Y196358D01*
Y197343D01*
X218210Y198294D01*
X217717Y199147D01*
X217494Y199371D01*
X217701Y199871D01*
X220772D01*
Y197850D01*
X224724D01*
X228677D01*
Y199871D01*
X232676D01*
X236771Y195776D01*
D02*
G37*
G36*
X191955Y199371D02*
X191732Y199147D01*
X191239Y198294D01*
X190984Y197343D01*
Y196358D01*
X191239Y195407D01*
X191732Y194554D01*
X192428Y193858D01*
X193281Y193365D01*
X193520Y193301D01*
Y190400D01*
X193281Y190336D01*
X192428Y189843D01*
X191732Y189147D01*
X191239Y188294D01*
X190984Y187343D01*
Y186358D01*
X191239Y185407D01*
X191732Y184554D01*
X191945Y184341D01*
X191753Y183879D01*
X181869D01*
X181677Y184341D01*
X181890Y184554D01*
X182383Y185407D01*
X182638Y186358D01*
Y187343D01*
X182383Y188294D01*
X181890Y189147D01*
X181194Y189843D01*
X180341Y190336D01*
X179390Y190591D01*
X178405D01*
X177454Y190336D01*
X176601Y189843D01*
X175905Y189147D01*
X175412Y188294D01*
X175157Y187343D01*
Y186358D01*
X175412Y185407D01*
X175905Y184554D01*
X176118Y184341D01*
X175926Y183879D01*
X171869D01*
X171677Y184341D01*
X171890Y184554D01*
X172383Y185407D01*
X172638Y186358D01*
Y187343D01*
X172383Y188294D01*
X171890Y189147D01*
X171194Y189843D01*
X170341Y190336D01*
X169390Y190591D01*
X168405D01*
X167454Y190336D01*
X166601Y189843D01*
X165905Y189147D01*
X165412Y188294D01*
X165157Y187343D01*
Y186358D01*
X165412Y185407D01*
X165905Y184554D01*
X166118Y184341D01*
X165926Y183879D01*
X161869D01*
X161678Y184341D01*
X161890Y184554D01*
X162383Y185407D01*
X162638Y186358D01*
Y187343D01*
X162383Y188294D01*
X161890Y189147D01*
X161194Y189843D01*
X160341Y190336D01*
X159390Y190591D01*
X158405D01*
X157454Y190336D01*
X156601Y189843D01*
X155905Y189147D01*
X155412Y188294D01*
X155157Y187343D01*
Y186358D01*
X155412Y185407D01*
X155905Y184554D01*
X156118Y184341D01*
X155926Y183879D01*
X151869D01*
X151678Y184341D01*
X151891Y184554D01*
X152383Y185407D01*
X152638Y186358D01*
Y187343D01*
X152383Y188294D01*
X151891Y189147D01*
X151194Y189843D01*
X150341Y190336D01*
X149390Y190591D01*
X148405D01*
X147454Y190336D01*
X146601Y189843D01*
X145905Y189147D01*
X145412Y188294D01*
X145157Y187343D01*
Y186358D01*
X145412Y185407D01*
X145905Y184554D01*
X146118Y184341D01*
X145926Y183879D01*
X141869D01*
X141677Y184341D01*
X141891Y184554D01*
X142383Y185407D01*
X142638Y186358D01*
Y187343D01*
X142383Y188294D01*
X141891Y189147D01*
X141194Y189843D01*
X140341Y190336D01*
X139390Y190591D01*
X138405D01*
X137454Y190336D01*
X136601Y189843D01*
X135905Y189147D01*
X135412Y188294D01*
X135157Y187343D01*
Y186358D01*
X135412Y185407D01*
X135905Y184554D01*
X136118Y184341D01*
X135926Y183879D01*
X131869D01*
X131677Y184341D01*
X131890Y184554D01*
X132383Y185407D01*
X132638Y186358D01*
Y187343D01*
X132383Y188294D01*
X131890Y189147D01*
X131194Y189843D01*
X130341Y190336D01*
X129390Y190591D01*
X128405D01*
X127454Y190336D01*
X126601Y189843D01*
X125905Y189147D01*
X125412Y188294D01*
X125157Y187343D01*
Y186358D01*
X125412Y185407D01*
X125905Y184554D01*
X126118Y184341D01*
X125926Y183879D01*
X121869D01*
X121677Y184341D01*
X121890Y184554D01*
X122383Y185407D01*
X122638Y186358D01*
Y187343D01*
X122383Y188294D01*
X122259Y188509D01*
X125221Y191471D01*
X171375D01*
X171375Y191471D01*
X171836Y191562D01*
X172226Y191823D01*
X174483Y194080D01*
X174945Y193888D01*
Y192898D01*
X177898D01*
Y196850D01*
X178898D01*
Y197850D01*
X182850D01*
Y199871D01*
X191748D01*
X191955Y199371D01*
D02*
G37*
G36*
X219939Y164181D02*
X220835Y163810D01*
X221641Y163271D01*
X222326Y162586D01*
X222865Y161780D01*
X223236Y160884D01*
X223425Y159933D01*
Y158964D01*
X223236Y158013D01*
X222865Y157118D01*
X222326Y156312D01*
X221641Y155626D01*
X220835Y155088D01*
X219939Y154717D01*
X218989Y154528D01*
X218504D01*
X32480Y154527D01*
X31516Y154480D01*
X29623Y154104D01*
X27841Y153365D01*
X26236Y152293D01*
X24872Y150929D01*
X23800Y149325D01*
X23062Y147542D01*
X22685Y145650D01*
X22638Y144685D01*
X22638D01*
X22638Y144297D01*
X22487Y143537D01*
X22190Y142820D01*
X21759Y142175D01*
X21211Y141627D01*
X20566Y141196D01*
X19849Y140899D01*
X19192Y140769D01*
X18701Y140748D01*
X18701Y140748D01*
X18701Y140748D01*
X4921D01*
Y146824D01*
X5400Y146969D01*
X5683Y146545D01*
X6782Y145446D01*
X8074Y144583D01*
X9510Y143988D01*
X10811Y143729D01*
Y151575D01*
Y159420D01*
X9510Y159161D01*
X8074Y158567D01*
X6782Y157703D01*
X5683Y156604D01*
X5400Y156181D01*
X4921Y156326D01*
Y163695D01*
X5362Y163930D01*
X5664Y163728D01*
X6644Y163533D01*
X16978D01*
X17958Y163728D01*
X18788Y164283D01*
X18846Y164370D01*
X218989D01*
X219939Y164181D01*
D02*
G37*
G36*
X249032Y147622D02*
X250971D01*
Y141271D01*
X250509Y141080D01*
X250328Y141261D01*
X249475Y141753D01*
X248524Y142008D01*
X247539D01*
X246588Y141753D01*
X245735Y141261D01*
X245541Y141067D01*
X245079Y141258D01*
Y147622D01*
X247032D01*
Y151575D01*
X249032D01*
Y147622D01*
D02*
G37*
G36*
X4003Y165354D02*
X4266Y164719D01*
X4354Y164262D01*
X4331Y164229D01*
X4301Y164204D01*
X4245Y164100D01*
X4180Y164002D01*
X4172Y163963D01*
X4153Y163927D01*
X4141Y163810D01*
X4118Y163695D01*
Y156326D01*
X4126Y156287D01*
X4122Y156247D01*
X4157Y156134D01*
X4180Y156019D01*
X4202Y155986D01*
X4213Y155948D01*
X4288Y155856D01*
X4354Y155758D01*
X4387Y155736D01*
X4412Y155705D01*
X4516Y155650D01*
X4614Y155584D01*
X4653Y155577D01*
X4688Y155558D01*
X4810Y155521D01*
Y154734D01*
X4429Y153814D01*
X4134Y152331D01*
Y150819D01*
X4429Y149335D01*
X4810Y148416D01*
Y147629D01*
X4688Y147592D01*
X4653Y147573D01*
X4614Y147565D01*
X4516Y147500D01*
X4412Y147444D01*
X4387Y147413D01*
X4354Y147391D01*
X4288Y147293D01*
X4213Y147202D01*
X4202Y147164D01*
X4180Y147131D01*
X4157Y147015D01*
X4122Y146902D01*
X4126Y146863D01*
X4118Y146824D01*
Y140748D01*
X4180Y140441D01*
X4354Y140180D01*
X4614Y140006D01*
X4810Y139967D01*
Y139817D01*
X19207Y139766D01*
X19685Y139764D01*
X19685Y139764D01*
X19685Y139764D01*
X19685Y139764D01*
X20071Y139783D01*
X20177Y139804D01*
X20828Y139933D01*
X21541Y140229D01*
X22183Y140657D01*
X22729Y141203D01*
X23157Y141845D01*
X23453Y142558D01*
X23582Y143208D01*
X23587Y143233D01*
X23587Y143233D01*
X23603Y143315D01*
X23622Y143700D01*
X23622Y143700D01*
X23622Y143701D01*
X23622Y143701D01*
X23622Y144162D01*
X23622Y144670D01*
X24000Y146572D01*
X24742Y148363D01*
X25819Y149975D01*
X27190Y151346D01*
X28802Y152423D01*
X30593Y153165D01*
X32495Y153543D01*
X33465Y153543D01*
X35788D01*
X35859Y153355D01*
X35874Y153043D01*
X35105Y152599D01*
X34409Y151903D01*
X33916Y151050D01*
X33661Y150099D01*
Y149114D01*
X33916Y148163D01*
X34409Y147310D01*
X35105Y146614D01*
X35958Y146121D01*
X36909Y145866D01*
X37894D01*
X38845Y146121D01*
X39698Y146614D01*
X40394Y147310D01*
X40887Y148163D01*
X41142Y149114D01*
Y150099D01*
X40887Y151050D01*
X40394Y151903D01*
X39698Y152599D01*
X38929Y153043D01*
X38945Y153355D01*
X39015Y153543D01*
X61378D01*
X61449Y153355D01*
X61465Y153043D01*
X60696Y152599D01*
X59999Y151903D01*
X59507Y151050D01*
X59252Y150099D01*
Y149114D01*
X59507Y148163D01*
X59999Y147310D01*
X60696Y146614D01*
X61549Y146121D01*
X61788Y146057D01*
Y136175D01*
X61788Y136175D01*
X61880Y135714D01*
X62141Y135323D01*
X61786Y134973D01*
X60994Y135430D01*
X60028Y135689D01*
X59027D01*
X58061Y135430D01*
X57195Y134930D01*
X56488Y134223D01*
X55987Y133356D01*
X55728Y132390D01*
Y131390D01*
X55987Y130423D01*
X56138Y130162D01*
X55962Y129898D01*
X55871Y129437D01*
X55871Y129437D01*
Y125727D01*
X55488Y125413D01*
X54222D01*
X54014Y125913D01*
X54494Y126392D01*
X54839Y127225D01*
Y128125D01*
X54494Y128957D01*
X53857Y129594D01*
X53300Y129825D01*
X53055Y130401D01*
X53068Y130423D01*
X53327Y131390D01*
Y132390D01*
X53068Y133356D01*
X52568Y134223D01*
X51860Y134930D01*
X50994Y135430D01*
X50028Y135689D01*
X49027D01*
X48061Y135430D01*
X47195Y134930D01*
X46488Y134223D01*
X45987Y133356D01*
X45728Y132390D01*
Y131390D01*
X45987Y130423D01*
X46488Y129557D01*
X47195Y128850D01*
X48061Y128349D01*
X49027Y128091D01*
X50028D01*
X50311Y127649D01*
Y127225D01*
X50656Y126392D01*
X51048Y126000D01*
X51022Y125793D01*
X50488Y125413D01*
X48528D01*
X48142Y125336D01*
X47815Y125118D01*
X47597Y124791D01*
X47520Y124405D01*
Y116933D01*
X47597Y116547D01*
X47815Y116220D01*
X48142Y116002D01*
X48304Y115970D01*
Y110760D01*
X48226Y110728D01*
X47589Y110091D01*
X47244Y109259D01*
Y108359D01*
X47589Y107527D01*
X48226Y106890D01*
X49057Y106545D01*
X49958D01*
X50790Y106890D01*
X50909Y107008D01*
X51371Y106817D01*
Y96274D01*
X48656Y93559D01*
X48395Y93169D01*
X48304Y92708D01*
X48304Y92708D01*
Y88754D01*
X48142Y88722D01*
X47815Y88504D01*
X47597Y88177D01*
X47520Y87791D01*
Y80319D01*
X47597Y79933D01*
X47815Y79606D01*
X48142Y79388D01*
X48528Y79311D01*
X50488D01*
X50874Y79388D01*
X51371Y79119D01*
Y77475D01*
X51371Y77475D01*
X51462Y77014D01*
X51723Y76623D01*
X53023Y75323D01*
X53023Y75323D01*
X53414Y75062D01*
X53875Y74971D01*
X53875Y74971D01*
X56528D01*
X56735Y74471D01*
X56488Y74223D01*
X55987Y73356D01*
X55728Y72390D01*
Y71390D01*
X55987Y70423D01*
X56488Y69557D01*
X57195Y68850D01*
X58061Y68349D01*
X59027Y68091D01*
X60028D01*
X60994Y68349D01*
X61860Y68850D01*
X62568Y69557D01*
X63068Y70423D01*
X63327Y71390D01*
Y72390D01*
X63068Y73356D01*
X62568Y74223D01*
X62320Y74471D01*
X62527Y74971D01*
X66528D01*
X66736Y74471D01*
X66487Y74223D01*
X65987Y73356D01*
X65728Y72390D01*
Y71390D01*
X65987Y70423D01*
X66487Y69557D01*
X67195Y68850D01*
X68061Y68349D01*
X69027Y68091D01*
X70028D01*
X70994Y68349D01*
X71229Y68485D01*
X72891Y66823D01*
X73282Y66562D01*
X73743Y66471D01*
X73743Y66471D01*
X91975D01*
X91975Y66471D01*
X92436Y66562D01*
X92826Y66823D01*
X93609Y67606D01*
X94071Y67414D01*
Y64974D01*
X89741Y60644D01*
X89279Y60835D01*
Y63675D01*
X89187Y64136D01*
X88926Y64526D01*
X88926Y64526D01*
X88026Y65426D01*
X87636Y65687D01*
X87175Y65779D01*
X87175Y65779D01*
X67675D01*
X67214Y65687D01*
X66823Y65426D01*
X66562Y65036D01*
X66471Y64575D01*
Y61190D01*
X66142Y60827D01*
X61118D01*
Y62235D01*
X61027Y62696D01*
X60766Y63087D01*
X60766Y63087D01*
X55326Y68526D01*
X54936Y68787D01*
X54475Y68879D01*
X54475Y68879D01*
X52543D01*
X52352Y69341D01*
X52568Y69557D01*
X53068Y70423D01*
X53327Y71390D01*
Y72390D01*
X53068Y73356D01*
X52568Y74223D01*
X51860Y74930D01*
X50994Y75430D01*
X50028Y75689D01*
X49027D01*
X48061Y75430D01*
X47195Y74930D01*
X46488Y74223D01*
X45987Y73356D01*
X45728Y72390D01*
Y71390D01*
X45987Y70423D01*
X46488Y69557D01*
X46703Y69341D01*
X46512Y68879D01*
X42543D01*
X42352Y69341D01*
X42568Y69557D01*
X43068Y70423D01*
X43327Y71390D01*
Y72390D01*
X43068Y73356D01*
X42932Y73591D01*
X45359Y76018D01*
X45359Y76019D01*
X45620Y76409D01*
X45712Y76870D01*
X45712Y76870D01*
Y79356D01*
X45874Y79388D01*
X46201Y79606D01*
X46419Y79933D01*
X46496Y80319D01*
Y87791D01*
X46419Y88177D01*
X46201Y88504D01*
X45874Y88722D01*
X45488Y88799D01*
X43527D01*
X43142Y88722D01*
X42815Y88504D01*
X42597Y88177D01*
X42520Y87791D01*
Y80319D01*
X42597Y79933D01*
X42815Y79606D01*
X43142Y79388D01*
X43304Y79356D01*
Y77369D01*
X41229Y75294D01*
X40994Y75430D01*
X40028Y75689D01*
X39027D01*
X38061Y75430D01*
X37195Y74930D01*
X36979Y74714D01*
X36479Y74921D01*
Y78676D01*
X37446Y79643D01*
X37815Y79606D01*
X38142Y79388D01*
X38528Y79311D01*
X40488D01*
X40874Y79388D01*
X41201Y79606D01*
X41419Y79933D01*
X41496Y80319D01*
Y87791D01*
X41419Y88177D01*
X41201Y88504D01*
X40874Y88722D01*
X40712Y88754D01*
Y115970D01*
X40874Y116002D01*
X41201Y116220D01*
X41419Y116547D01*
X41496Y116933D01*
Y124405D01*
X41419Y124791D01*
X41201Y125118D01*
X40874Y125336D01*
X40488Y125413D01*
X38528D01*
X38142Y125336D01*
X37815Y125118D01*
X37597Y124791D01*
X37520Y124405D01*
Y116933D01*
X37597Y116547D01*
X37815Y116220D01*
X37851Y115857D01*
X37076Y115082D01*
X33071D01*
Y116535D01*
X25984D01*
Y115082D01*
X24278D01*
X24278Y115082D01*
X23817Y114991D01*
X23426Y114729D01*
X18785Y110088D01*
X18465Y110220D01*
X12583D01*
Y108879D01*
X10827D01*
Y114764D01*
X9373D01*
Y118504D01*
X10827D01*
Y125591D01*
X9895D01*
X9688Y126091D01*
X10379Y126782D01*
X10379Y126782D01*
X10640Y127172D01*
X10732Y127633D01*
X10732Y127633D01*
Y128279D01*
X10994Y128349D01*
X11860Y128850D01*
X12568Y129557D01*
X13068Y130423D01*
X13327Y131390D01*
Y132390D01*
X13068Y133356D01*
X12568Y134223D01*
X11860Y134930D01*
X10994Y135430D01*
X10028Y135689D01*
X9027D01*
X8061Y135430D01*
X7195Y134930D01*
X6487Y134223D01*
X5987Y133356D01*
X5728Y132390D01*
Y131390D01*
X5987Y130423D01*
X6487Y129557D01*
X7195Y128850D01*
X7917Y128433D01*
X8040Y127998D01*
X8031Y127840D01*
X7318Y127126D01*
X7057Y126736D01*
X6965Y126275D01*
X6965Y126275D01*
Y125591D01*
X5512D01*
Y118504D01*
X6965D01*
Y114764D01*
X5512D01*
Y107677D01*
X6965D01*
Y107675D01*
X7057Y107214D01*
X7318Y106823D01*
X7708Y106562D01*
X8169Y106471D01*
X18075D01*
X18075Y106471D01*
X18536Y106562D01*
X18926Y106823D01*
X24777Y112674D01*
X25984D01*
Y111221D01*
X33071D01*
Y112674D01*
X37575D01*
X37575Y112674D01*
X37804Y112719D01*
X38304Y112389D01*
Y88754D01*
X38142Y88722D01*
X37815Y88504D01*
X37597Y88177D01*
X37520Y87791D01*
Y82938D01*
X37375Y82479D01*
X36914Y82387D01*
X36523Y82126D01*
X34423Y80026D01*
X34162Y79636D01*
X34071Y79175D01*
X34071Y79175D01*
Y69575D01*
X34071Y69575D01*
X34162Y69114D01*
X34423Y68723D01*
X34943Y68204D01*
X34752Y67742D01*
X30657D01*
X30591Y68242D01*
X30994Y68349D01*
X31860Y68850D01*
X32568Y69557D01*
X33068Y70423D01*
X33327Y71390D01*
Y72390D01*
X33068Y73356D01*
X32568Y74223D01*
X31860Y74930D01*
X30994Y75430D01*
X30028Y75689D01*
X29027D01*
X28061Y75430D01*
X27195Y74930D01*
X26487Y74223D01*
X25987Y73356D01*
X25728Y72390D01*
Y71390D01*
X25987Y70423D01*
X26487Y69557D01*
X27195Y68850D01*
X28061Y68349D01*
X28464Y68242D01*
X28398Y67742D01*
X21238D01*
X21237Y67742D01*
X20777Y67650D01*
X20386Y67389D01*
X20386Y67389D01*
X13223Y60226D01*
X12962Y59836D01*
X12871Y59375D01*
X12871Y59375D01*
Y51782D01*
X12371Y51372D01*
X12334Y51379D01*
X12334Y51379D01*
X10610D01*
X10449Y51575D01*
Y56631D01*
X10509Y56776D01*
X5906D01*
Y57776D01*
X4906D01*
Y61167D01*
X4528D01*
X3650Y61051D01*
X2832Y60712D01*
X2130Y60174D01*
X1591Y59471D01*
X1303Y58776D01*
X803Y58875D01*
Y165354D01*
X4003D01*
D02*
G37*
G36*
X203620Y132171D02*
X203311Y131425D01*
Y130525D01*
X203656Y129692D01*
X204292Y129056D01*
X205124Y128711D01*
X206025D01*
X206103Y128743D01*
X209071Y125776D01*
Y118035D01*
X208609Y117844D01*
X199306Y127146D01*
X199339Y127225D01*
Y128125D01*
X198994Y128957D01*
X198357Y129594D01*
X197525Y129939D01*
X196625D01*
X195792Y129594D01*
X195156Y128957D01*
X194811Y128125D01*
Y127225D01*
X195156Y126392D01*
X195792Y125756D01*
X196625Y125411D01*
X197525D01*
X197603Y125443D01*
X207371Y115676D01*
Y97295D01*
X206879Y97275D01*
X206879Y97275D01*
X206787Y97736D01*
X206526Y98126D01*
X206526Y98126D01*
X178606Y126046D01*
X178639Y126125D01*
Y127025D01*
X178294Y127857D01*
X177657Y128494D01*
X176825Y128839D01*
X175925D01*
X175092Y128494D01*
X174456Y127857D01*
X174111Y127025D01*
Y126125D01*
X174456Y125293D01*
X175092Y124656D01*
X175925Y124311D01*
X176825D01*
X176903Y124343D01*
X204471Y96776D01*
Y51975D01*
X204471Y51975D01*
X204562Y51514D01*
X204823Y51123D01*
X210302Y45645D01*
X210302Y45645D01*
X210693Y45383D01*
X211154Y45292D01*
X213780D01*
Y42872D01*
X213280Y42772D01*
X212757Y43294D01*
X211925Y43639D01*
X211024D01*
X210192Y43294D01*
X209556Y42657D01*
X209211Y41825D01*
Y40925D01*
X209556Y40093D01*
X210192Y39456D01*
X211024Y39111D01*
X211925D01*
X212757Y39456D01*
X213280Y39978D01*
X213780Y39816D01*
Y34268D01*
X213567D01*
Y32496D01*
X218504D01*
Y30496D01*
X213567D01*
Y29579D01*
X211974D01*
X204205Y37347D01*
X203814Y37609D01*
X203354Y37700D01*
X203354Y37700D01*
X173039D01*
Y38325D01*
X172694Y39157D01*
X172057Y39794D01*
X171666Y39956D01*
X171549Y40546D01*
X172226Y41223D01*
X172226Y41223D01*
X172487Y41614D01*
X172579Y42075D01*
X172579Y42075D01*
Y71823D01*
X172657Y71856D01*
X173294Y72492D01*
X173639Y73325D01*
Y74225D01*
X173294Y75057D01*
X172657Y75694D01*
X171825Y76039D01*
X170924D01*
X170092Y75694D01*
X169456Y75057D01*
X169111Y74225D01*
Y73325D01*
X169456Y72492D01*
X170092Y71856D01*
X170171Y71823D01*
Y56030D01*
X169671Y55931D01*
X169494Y56357D01*
X168857Y56994D01*
X168025Y57339D01*
X167124D01*
X166579Y57113D01*
X166079Y57434D01*
Y90196D01*
X166079Y90196D01*
X165987Y90657D01*
X165726Y91048D01*
X165726Y91048D01*
X164426Y92348D01*
X164036Y92609D01*
X163575Y92700D01*
X163575Y92700D01*
X156299D01*
Y98937D01*
Y103937D01*
Y108937D01*
Y113937D01*
Y118937D01*
Y124055D01*
X148079D01*
Y128976D01*
X151774Y132671D01*
X203416D01*
X203620Y132171D01*
D02*
G37*
G36*
X241171Y95410D02*
Y91372D01*
X240709Y91181D01*
X240459Y91431D01*
X239557Y91951D01*
X239032Y92092D01*
Y88268D01*
Y84444D01*
X239557Y84584D01*
X240459Y85105D01*
X240709Y85355D01*
X241171Y85163D01*
Y78079D01*
X240709Y77888D01*
X240486Y78111D01*
X239633Y78604D01*
X238681Y78858D01*
X237697D01*
X236745Y78604D01*
X235893Y78111D01*
X235196Y77415D01*
X234704Y76562D01*
X234449Y75611D01*
Y74626D01*
X234704Y73675D01*
X235196Y72822D01*
X235893Y72125D01*
X236745Y71633D01*
X237697Y71378D01*
X238681D01*
X239633Y71633D01*
X240486Y72125D01*
X240709Y72348D01*
X241171Y72157D01*
Y68079D01*
X240709Y67888D01*
X240486Y68111D01*
X239633Y68603D01*
X238681Y68858D01*
X237697D01*
X236745Y68603D01*
X235893Y68111D01*
X235196Y67415D01*
X234704Y66562D01*
X234449Y65611D01*
Y64626D01*
X234704Y63675D01*
X235196Y62822D01*
X235893Y62125D01*
X236745Y61633D01*
X237697Y61378D01*
X238681D01*
X239633Y61633D01*
X240486Y62125D01*
X240709Y62349D01*
X241171Y62157D01*
Y58079D01*
X240709Y57888D01*
X240486Y58111D01*
X239633Y58604D01*
X238681Y58858D01*
X237697D01*
X236745Y58604D01*
X235893Y58111D01*
X235196Y57415D01*
X234704Y56562D01*
X234449Y55611D01*
Y54626D01*
X234704Y53675D01*
X235196Y52822D01*
X235893Y52125D01*
X236745Y51633D01*
X237697Y51378D01*
X238681D01*
X239633Y51633D01*
X240486Y52125D01*
X240709Y52349D01*
X241171Y52157D01*
Y48079D01*
X240709Y47888D01*
X240486Y48111D01*
X239633Y48603D01*
X238681Y48858D01*
X237697D01*
X236745Y48603D01*
X235893Y48111D01*
X235196Y47415D01*
X234704Y46562D01*
X234449Y45611D01*
Y44626D01*
X234704Y43675D01*
X235196Y42822D01*
X235893Y42125D01*
X236745Y41633D01*
X237697Y41378D01*
X238681D01*
X239633Y41633D01*
X240486Y42125D01*
X240709Y42349D01*
X241171Y42157D01*
Y38079D01*
X240709Y37888D01*
X240486Y38111D01*
X239633Y38603D01*
X238681Y38858D01*
X237697D01*
X236745Y38603D01*
X235893Y38111D01*
X235196Y37415D01*
X234704Y36562D01*
X234640Y36322D01*
X234224D01*
X234224Y36322D01*
X233763Y36231D01*
X233372Y35970D01*
X232352Y34949D01*
X231890Y35141D01*
Y37500D01*
X225979D01*
Y38764D01*
X227347D01*
Y41634D01*
Y44504D01*
X225979D01*
Y45650D01*
X226074Y45745D01*
X228347D01*
X228807Y45836D01*
X229198Y46097D01*
X229307Y46260D01*
X231890D01*
Y51575D01*
X229479D01*
Y88012D01*
X236373Y94907D01*
X236588Y94783D01*
X237539Y94528D01*
X238524D01*
X239475Y94783D01*
X240328Y95275D01*
X240671Y95617D01*
X241171Y95410D01*
D02*
G37*
G36*
X249032Y84315D02*
X251984D01*
X252171Y83892D01*
Y76641D01*
X251674Y76562D01*
X251182Y77415D01*
X250485Y78111D01*
X249633Y78604D01*
X248681Y78858D01*
X247697D01*
X246745Y78604D01*
X245893Y78111D01*
X245579Y77798D01*
X245079Y78005D01*
Y84315D01*
X247032D01*
Y88268D01*
X249032D01*
Y84315D01*
D02*
G37*
G36*
X62530Y124455D02*
X62520Y124405D01*
Y116933D01*
X62597Y116547D01*
X62815Y116220D01*
X63142Y116002D01*
X63304Y115970D01*
Y114442D01*
X63304Y114442D01*
X63395Y113981D01*
X63656Y113590D01*
X80423Y96823D01*
X80814Y96562D01*
X81275Y96471D01*
X81275Y96471D01*
X98622D01*
Y93701D01*
Y90551D01*
Y87031D01*
X97127D01*
X96666Y86939D01*
X96275Y86678D01*
X96275Y86678D01*
X94423Y84826D01*
X94162Y84436D01*
X94071Y83975D01*
X94071Y83975D01*
Y77235D01*
X93609Y77044D01*
X90526Y80126D01*
X90136Y80387D01*
X89675Y80479D01*
X89675Y80479D01*
X86712D01*
Y83055D01*
X84508D01*
X82303D01*
Y80479D01*
X81496D01*
Y87791D01*
X81419Y88177D01*
X81201Y88504D01*
X80874Y88722D01*
X80488Y88799D01*
X79099D01*
X78744Y89299D01*
X78779Y89475D01*
X78779Y89475D01*
Y95275D01*
X78779Y95275D01*
X78687Y95736D01*
X78426Y96126D01*
X78426Y96126D01*
X59089Y115463D01*
X59281Y115925D01*
X60488D01*
X60874Y116002D01*
X61201Y116220D01*
X61419Y116547D01*
X61496Y116933D01*
Y124405D01*
X61493Y124417D01*
X61990Y124623D01*
X62069Y124702D01*
X62530Y124455D01*
D02*
G37*
G36*
X22124Y65270D02*
X22306Y64809D01*
X20523Y63026D01*
X20262Y62636D01*
X20171Y62175D01*
X20171Y62175D01*
Y52948D01*
X19722Y52727D01*
X19657Y52777D01*
X18911Y53086D01*
X18717Y53112D01*
Y50098D01*
X16717D01*
Y53112D01*
X16522Y53086D01*
X15776Y52777D01*
X15728Y52740D01*
X15279Y52961D01*
Y58876D01*
X21715Y65312D01*
X22124Y65270D01*
D02*
G37*
G36*
X112523Y56455D02*
X112721Y56227D01*
X112923Y55923D01*
X114223Y54623D01*
X114223Y54623D01*
X114614Y54362D01*
X115075Y54271D01*
X115075Y54271D01*
X125175D01*
X125175Y54271D01*
X125636Y54362D01*
X126026Y54623D01*
X127274Y55871D01*
X131185D01*
Y54839D01*
X134842D01*
Y52839D01*
X131185D01*
Y52626D01*
X123145D01*
X123145Y52626D01*
X122684Y52534D01*
X122293Y52273D01*
X117276Y47256D01*
X116828Y47515D01*
X116929Y47893D01*
Y48878D01*
X116674Y49829D01*
X116182Y50682D01*
X115486Y51379D01*
X114633Y51871D01*
X113681Y52126D01*
X112697D01*
X112131Y51974D01*
X111631Y52358D01*
Y56135D01*
X111957Y56468D01*
X112523Y56455D01*
D02*
G37*
G36*
X106713Y49581D02*
Y46612D01*
X106213Y46278D01*
X105825Y46439D01*
X104924D01*
X104093Y46094D01*
X103456Y45457D01*
X103111Y44625D01*
Y43725D01*
X103456Y42893D01*
X104093Y42256D01*
X104924Y41911D01*
X105825D01*
X105903Y41943D01*
X106471Y41376D01*
Y29575D01*
X106471Y29575D01*
X106562Y29114D01*
X106823Y28723D01*
X108544Y27003D01*
X108544Y27003D01*
X108935Y26742D01*
X109395Y26650D01*
X109744Y26327D01*
Y25394D01*
X116634D01*
Y30315D01*
X109744D01*
Y29862D01*
X109282Y29671D01*
X108879Y30074D01*
Y34088D01*
X109236Y34433D01*
X112189D01*
Y38386D01*
X113189D01*
Y39386D01*
X117142D01*
Y41975D01*
X117275Y42002D01*
X117666Y42263D01*
X124483Y49080D01*
X130906D01*
Y39587D01*
X138780D01*
X138780Y39587D01*
X139092Y39456D01*
X139093Y39456D01*
X139925Y39111D01*
X140825D01*
X141657Y39456D01*
X142294Y40093D01*
X142639Y40925D01*
Y41825D01*
X142294Y42657D01*
X141657Y43294D01*
X140825Y43639D01*
X139925D01*
X139280Y43371D01*
X138780Y43634D01*
Y47414D01*
X139242Y47605D01*
X141202Y45645D01*
X141202Y45645D01*
X141593Y45383D01*
X142054Y45292D01*
X146850D01*
Y43937D01*
Y38937D01*
Y34268D01*
X146638D01*
Y32700D01*
X138375D01*
X137914Y32609D01*
X137523Y32348D01*
X116800Y11625D01*
X116339Y11816D01*
Y16929D01*
X114393D01*
Y18898D01*
X116634D01*
Y23819D01*
X109744D01*
Y18898D01*
X111985D01*
Y16929D01*
X110039D01*
Y11024D01*
X115546D01*
X115737Y10562D01*
X114189Y9013D01*
Y6709D01*
X116551D01*
Y7969D01*
X138874Y30292D01*
X146638D01*
Y28724D01*
X150575D01*
Y31496D01*
X151575D01*
Y32496D01*
X156512D01*
Y34268D01*
X156299D01*
Y35292D01*
X169396D01*
X169396Y35292D01*
X169396Y35292D01*
X202855D01*
X209874Y28273D01*
X209682Y27811D01*
X147039D01*
X146732Y27750D01*
X146472Y27576D01*
X146298Y27315D01*
X146237Y27008D01*
Y803D01*
X72959Y803D01*
X72768Y1265D01*
X73686Y2183D01*
X73872Y2461D01*
X78543D01*
Y9351D01*
X77287D01*
Y10576D01*
X77426Y10715D01*
X77426Y10716D01*
X77687Y11106D01*
X77779Y11567D01*
X77779Y11567D01*
Y13179D01*
X78017Y13337D01*
X78458Y13999D01*
X78614Y14779D01*
Y19075D01*
X78458Y19855D01*
X78409Y19930D01*
X78645Y20371D01*
X81675D01*
X81675Y20371D01*
X82136Y20462D01*
X82526Y20723D01*
X84474Y22671D01*
X86122D01*
Y18898D01*
X88363D01*
Y16929D01*
X86417D01*
Y11024D01*
X92717D01*
Y16929D01*
X90771D01*
Y18898D01*
X93012D01*
Y22671D01*
X97933D01*
Y18898D01*
X100174D01*
Y16929D01*
X98228D01*
Y11024D01*
X104528D01*
Y16929D01*
X102582D01*
Y18898D01*
X104823D01*
Y23819D01*
X102761D01*
X102491Y24314D01*
X102582Y24775D01*
Y25394D01*
X104823D01*
Y30315D01*
X100912D01*
X100645Y30815D01*
X100682Y30871D01*
X102275D01*
X102275Y30871D01*
X102736Y30962D01*
X103126Y31223D01*
X105426Y33523D01*
X105687Y33914D01*
X105779Y34375D01*
Y37575D01*
X105687Y38036D01*
X105426Y38426D01*
X103826Y40026D01*
X103436Y40287D01*
X102975Y40379D01*
X102975Y40379D01*
X102299D01*
X101870Y40551D01*
Y45472D01*
X98529D01*
X98337Y45934D01*
X99277Y46874D01*
X99277Y46874D01*
X99393Y47047D01*
X101870D01*
Y51969D01*
X101870D01*
Y52362D01*
X101870D01*
Y53619D01*
X102676D01*
X106713Y49581D01*
D02*
G37*
G36*
X242771Y30114D02*
Y21574D01*
X240276Y19079D01*
X228474D01*
X225979Y21574D01*
Y24689D01*
X227346D01*
Y27559D01*
X228346D01*
Y28559D01*
X232102D01*
Y29271D01*
X236311D01*
X236357Y29202D01*
X236201Y28534D01*
X235762Y28281D01*
X235026Y27545D01*
X234506Y26644D01*
X234365Y26118D01*
X238189D01*
X242013D01*
X241872Y26644D01*
X241352Y27545D01*
X240616Y28281D01*
X240177Y28534D01*
X240021Y29202D01*
X240067Y29271D01*
X240775D01*
X240775Y29270D01*
X241236Y29362D01*
X241626Y29623D01*
X242309Y30306D01*
X242771Y30114D01*
D02*
G37*
G36*
X67339Y29500D02*
X67211Y29309D01*
X67056Y28528D01*
Y24529D01*
X66994Y24479D01*
X66994Y24479D01*
X64526D01*
X64494Y24557D01*
X63857Y25194D01*
X63025Y25539D01*
X62125D01*
X61292Y25194D01*
X60656Y24557D01*
X60311Y23725D01*
Y22825D01*
X60656Y21993D01*
X61292Y21356D01*
X62125Y21011D01*
X63025D01*
X63857Y21356D01*
X64494Y21993D01*
X64526Y22071D01*
X66496D01*
X67211Y21355D01*
X67095Y21075D01*
X67095D01*
Y12779D01*
X67890D01*
Y11567D01*
X67901Y11515D01*
X67895Y11463D01*
X68046Y9719D01*
X67708Y9351D01*
X67126D01*
Y7110D01*
X62940D01*
X62636Y7313D01*
X62175Y7405D01*
X62175Y7405D01*
X58662D01*
Y8858D01*
X52779D01*
Y10614D01*
X54118D01*
Y13484D01*
X55118D01*
Y14484D01*
X58874D01*
Y16354D01*
X56322D01*
Y19374D01*
X58874D01*
Y21244D01*
X55118D01*
Y22244D01*
X54118D01*
Y25114D01*
X51362D01*
Y23448D01*
X50275D01*
X49814Y23357D01*
X49423Y23096D01*
X49423Y23096D01*
X48507Y22179D01*
X47388D01*
X47197Y22641D01*
X51182Y26626D01*
X51575Y26870D01*
Y26870D01*
X51575Y26870D01*
X58662D01*
Y27732D01*
X59162Y27939D01*
X59492Y27608D01*
X60325Y27264D01*
X61225D01*
X62057Y27608D01*
X62694Y28245D01*
X63039Y29077D01*
Y29978D01*
X63054Y30000D01*
X67071D01*
X67339Y29500D01*
D02*
G37*
G36*
X11591Y45602D02*
X11591Y45602D01*
X11683Y45141D01*
X11944Y44750D01*
X12620Y44074D01*
X12620Y44074D01*
X12992Y43825D01*
Y42323D01*
Y38008D01*
X12779D01*
Y37220D01*
X12992D01*
Y37205D01*
X16437D01*
Y35220D01*
X12779D01*
Y34433D01*
X14298D01*
X14564Y33933D01*
X14417Y33579D01*
X17717D01*
Y32579D01*
X18717D01*
Y29565D01*
X18911Y29591D01*
X19657Y29900D01*
X19722Y29950D01*
X20171Y29729D01*
Y24935D01*
X19709Y24744D01*
X11226Y33226D01*
X10836Y33487D01*
X10646Y33525D01*
Y35811D01*
X5906D01*
Y37811D01*
X10646D01*
Y41323D01*
Y44866D01*
X5906D01*
Y46866D01*
X10646D01*
Y48971D01*
X11591D01*
Y45602D01*
D02*
G37*
G36*
X26023Y15023D02*
X26023Y15023D01*
X26414Y14762D01*
X26875Y14671D01*
X35517D01*
X35978Y14762D01*
X36369Y15023D01*
X36630Y15414D01*
X36631Y15419D01*
X36882Y15577D01*
X37382Y15301D01*
Y14088D01*
X37273Y13925D01*
X37181Y13464D01*
X37273Y13003D01*
X37534Y12612D01*
X37871Y12276D01*
Y10433D01*
X36417D01*
Y3347D01*
X41732D01*
Y10433D01*
X40279D01*
Y12775D01*
X40187Y13236D01*
X39926Y13626D01*
X39926Y13626D01*
X39389Y14163D01*
Y16930D01*
X39889Y17197D01*
X39894Y17195D01*
X40354Y17103D01*
X40815Y17195D01*
X41206Y17456D01*
X41467Y17846D01*
X41559Y18307D01*
Y19468D01*
X41945Y19785D01*
X42017Y19771D01*
X49005D01*
X49005Y19771D01*
X49466Y19862D01*
X49857Y20123D01*
X50774Y21040D01*
X51362D01*
Y19374D01*
X53914D01*
Y16354D01*
X51362D01*
Y14495D01*
X51123Y14336D01*
X51123Y14336D01*
X50723Y13936D01*
X50462Y13545D01*
X50371Y13084D01*
X50371Y13084D01*
Y3375D01*
X50371Y3375D01*
X50462Y2914D01*
X50723Y2523D01*
X51982Y1265D01*
X51790Y803D01*
X19685D01*
X9094D01*
X7317Y1156D01*
X5644Y1850D01*
X4137Y2856D01*
X2856Y4137D01*
X1850Y5644D01*
X1156Y7317D01*
X803Y9094D01*
Y10000D01*
Y23802D01*
X1303Y23901D01*
X1591Y23206D01*
X2130Y22504D01*
X2832Y21965D01*
X3650Y21626D01*
X4528Y21510D01*
X4906D01*
Y24902D01*
X5906D01*
Y25902D01*
X10509D01*
X10448Y26047D01*
Y29945D01*
X10910Y30136D01*
X26023Y15023D01*
D02*
G37*
%LPC*%
G36*
X159898Y200675D02*
Y197850D01*
X162722D01*
X162581Y198376D01*
X162061Y199277D01*
X161325Y200013D01*
X160423Y200534D01*
X159898Y200675D01*
D02*
G37*
G36*
X139898D02*
Y197850D01*
X142722D01*
X142581Y198376D01*
X142061Y199277D01*
X141325Y200013D01*
X140423Y200534D01*
X139898Y200675D01*
D02*
G37*
G36*
X149898D02*
Y197850D01*
X152722D01*
X152581Y198376D01*
X152061Y199277D01*
X151325Y200013D01*
X150423Y200534D01*
X149898Y200675D01*
D02*
G37*
G36*
X167898D02*
X167372Y200534D01*
X166471Y200013D01*
X165735Y199277D01*
X165214Y198376D01*
X165073Y197850D01*
X167898D01*
Y200675D01*
D02*
G37*
G36*
X157898D02*
X157372Y200534D01*
X156471Y200013D01*
X155735Y199277D01*
X155214Y198376D01*
X155073Y197850D01*
X157898D01*
Y200675D01*
D02*
G37*
G36*
X137898D02*
X137372Y200534D01*
X136471Y200013D01*
X135735Y199277D01*
X135214Y198376D01*
X135073Y197850D01*
X137898D01*
Y200675D01*
D02*
G37*
G36*
X147898D02*
X147372Y200534D01*
X146471Y200013D01*
X145735Y199277D01*
X145214Y198376D01*
X145073Y197850D01*
X147898D01*
Y200675D01*
D02*
G37*
G36*
X119390Y200591D02*
X118405D01*
X117454Y200336D01*
X116601Y199843D01*
X115905Y199147D01*
X115412Y198294D01*
X115157Y197343D01*
Y196358D01*
X115412Y195407D01*
X115905Y194554D01*
X116601Y193858D01*
X117454Y193365D01*
X118405Y193110D01*
X119390D01*
X120341Y193365D01*
X121194Y193858D01*
X121890Y194554D01*
X122383Y195407D01*
X122638Y196358D01*
Y197343D01*
X122383Y198294D01*
X121890Y199147D01*
X121194Y199843D01*
X120341Y200336D01*
X119390Y200591D01*
D02*
G37*
G36*
X49390D02*
X48405D01*
X47454Y200336D01*
X46601Y199843D01*
X45905Y199147D01*
X45412Y198294D01*
X45158Y197343D01*
Y196358D01*
X45412Y195407D01*
X45905Y194554D01*
X46601Y193858D01*
X47454Y193365D01*
X48405Y193110D01*
X49390D01*
X50341Y193365D01*
X51194Y193858D01*
X51890Y194554D01*
X52383Y195407D01*
X52638Y196358D01*
Y197343D01*
X52383Y198294D01*
X51890Y199147D01*
X51194Y199843D01*
X50341Y200336D01*
X49390Y200591D01*
D02*
G37*
G36*
X39390D02*
X38405D01*
X37454Y200336D01*
X36601Y199843D01*
X35905Y199147D01*
X35412Y198294D01*
X35157Y197343D01*
Y196358D01*
X35412Y195407D01*
X35905Y194554D01*
X36601Y193858D01*
X37454Y193365D01*
X38405Y193110D01*
X39390D01*
X40341Y193365D01*
X41194Y193858D01*
X41890Y194554D01*
X42383Y195407D01*
X42638Y196358D01*
Y197343D01*
X42383Y198294D01*
X41890Y199147D01*
X41194Y199843D01*
X40341Y200336D01*
X39390Y200591D01*
D02*
G37*
G36*
X29390D02*
X28405D01*
X27454Y200336D01*
X26601Y199843D01*
X25905Y199147D01*
X25412Y198294D01*
X25157Y197343D01*
Y196358D01*
X25412Y195407D01*
X25905Y194554D01*
X26601Y193858D01*
X27454Y193365D01*
X28405Y193110D01*
X29390D01*
X30341Y193365D01*
X31194Y193858D01*
X31890Y194554D01*
X32383Y195407D01*
X32638Y196358D01*
Y197343D01*
X32383Y198294D01*
X31890Y199147D01*
X31194Y199843D01*
X30341Y200336D01*
X29390Y200591D01*
D02*
G37*
G36*
X10599Y202559D02*
X9087D01*
X7603Y202264D01*
X6206Y201685D01*
X4949Y200845D01*
X3879Y199776D01*
X3039Y198518D01*
X2461Y197121D01*
X2165Y195638D01*
Y194126D01*
X2461Y192642D01*
X3039Y191245D01*
X3879Y189988D01*
X4949Y188919D01*
X6206Y188078D01*
X7603Y187500D01*
X9087Y187205D01*
X10599D01*
X12082Y187500D01*
X13479Y188078D01*
X14737Y188919D01*
X15806Y189988D01*
X16646Y191245D01*
X17225Y192642D01*
X17520Y194126D01*
Y195638D01*
X17225Y197121D01*
X16646Y198518D01*
X15806Y199776D01*
X14737Y200845D01*
X13479Y201685D01*
X12082Y202264D01*
X10599Y202559D01*
D02*
G37*
G36*
X59390Y190591D02*
X58405D01*
X57454Y190336D01*
X56601Y189843D01*
X55905Y189147D01*
X55412Y188294D01*
X55157Y187343D01*
Y186358D01*
X55412Y185407D01*
X55905Y184554D01*
X56601Y183858D01*
X57454Y183365D01*
X58405Y183110D01*
X59390D01*
X60341Y183365D01*
X61194Y183858D01*
X61891Y184554D01*
X62383Y185407D01*
X62638Y186358D01*
Y187343D01*
X62383Y188294D01*
X61891Y189147D01*
X61194Y189843D01*
X60341Y190336D01*
X59390Y190591D01*
D02*
G37*
G36*
X49390D02*
X48405D01*
X47454Y190336D01*
X46601Y189843D01*
X45905Y189147D01*
X45412Y188294D01*
X45158Y187343D01*
Y186358D01*
X45412Y185407D01*
X45905Y184554D01*
X46601Y183858D01*
X47454Y183365D01*
X48405Y183110D01*
X49390D01*
X50341Y183365D01*
X51194Y183858D01*
X51890Y184554D01*
X52383Y185407D01*
X52638Y186358D01*
Y187343D01*
X52383Y188294D01*
X51890Y189147D01*
X51194Y189843D01*
X50341Y190336D01*
X49390Y190591D01*
D02*
G37*
G36*
X39390D02*
X38405D01*
X37454Y190336D01*
X36601Y189843D01*
X35905Y189147D01*
X35412Y188294D01*
X35157Y187343D01*
Y186358D01*
X35412Y185407D01*
X35905Y184554D01*
X36601Y183858D01*
X37454Y183365D01*
X38405Y183110D01*
X39390D01*
X40341Y183365D01*
X41194Y183858D01*
X41890Y184554D01*
X42383Y185407D01*
X42638Y186358D01*
Y187343D01*
X42383Y188294D01*
X41890Y189147D01*
X41194Y189843D01*
X40341Y190336D01*
X39390Y190591D01*
D02*
G37*
G36*
X29390D02*
X28405D01*
X27454Y190336D01*
X26601Y189843D01*
X25905Y189147D01*
X25412Y188294D01*
X25157Y187343D01*
Y186358D01*
X25412Y185407D01*
X25905Y184554D01*
X26601Y183858D01*
X27454Y183365D01*
X28405Y183110D01*
X29390D01*
X30341Y183365D01*
X31194Y183858D01*
X31890Y184554D01*
X32383Y185407D01*
X32638Y186358D01*
Y187343D01*
X32383Y188294D01*
X31890Y189147D01*
X31194Y189843D01*
X30341Y190336D01*
X29390Y190591D01*
D02*
G37*
G36*
X16978Y179173D02*
X12811D01*
Y172260D01*
X19724D01*
Y176427D01*
X19631Y177138D01*
X19356Y177800D01*
X18920Y178369D01*
X18351Y178805D01*
X17689Y179079D01*
X16978Y179173D01*
D02*
G37*
G36*
X10811D02*
X6644D01*
X5933Y179079D01*
X5271Y178805D01*
X4702Y178369D01*
X4266Y177800D01*
X3991Y177138D01*
X3898Y176427D01*
Y172260D01*
X10811D01*
Y179173D01*
D02*
G37*
G36*
X66945Y173244D02*
X63992D01*
Y170291D01*
X66945D01*
Y173244D01*
D02*
G37*
G36*
X41354D02*
X38402D01*
Y170291D01*
X41354D01*
Y173244D01*
D02*
G37*
G36*
X220488D02*
X217535D01*
Y170291D01*
X220488D01*
Y173244D01*
D02*
G37*
G36*
X194898D02*
X191945D01*
Y170291D01*
X194898D01*
Y173244D01*
D02*
G37*
G36*
X169307D02*
X166354D01*
Y170291D01*
X169307D01*
Y173244D01*
D02*
G37*
G36*
X143717D02*
X140764D01*
Y170291D01*
X143717D01*
Y173244D01*
D02*
G37*
G36*
X118126D02*
X115173D01*
Y170291D01*
X118126D01*
Y173244D01*
D02*
G37*
G36*
X92535D02*
X89583D01*
Y170291D01*
X92535D01*
Y173244D01*
D02*
G37*
G36*
X61992D02*
X59039D01*
Y170291D01*
X61992D01*
Y173244D01*
D02*
G37*
G36*
X36402D02*
X33449D01*
Y170291D01*
X36402D01*
Y173244D01*
D02*
G37*
G36*
X215535D02*
X212583D01*
Y170291D01*
X215535D01*
Y173244D01*
D02*
G37*
G36*
X189945D02*
X186992D01*
Y170291D01*
X189945D01*
Y173244D01*
D02*
G37*
G36*
X164354D02*
X161402D01*
Y170291D01*
X164354D01*
Y173244D01*
D02*
G37*
G36*
X138764D02*
X135811D01*
Y170291D01*
X138764D01*
Y173244D01*
D02*
G37*
G36*
X113173D02*
X110221D01*
Y170291D01*
X113173D01*
Y173244D01*
D02*
G37*
G36*
X87583D02*
X84630D01*
Y170291D01*
X87583D01*
Y173244D01*
D02*
G37*
G36*
X252142Y29071D02*
X249189D01*
Y26118D01*
X252142D01*
Y29071D01*
D02*
G37*
G36*
Y24118D02*
X249189D01*
Y21166D01*
X252142D01*
Y24118D01*
D02*
G37*
G36*
X246819Y17520D02*
X245307D01*
X243824Y17225D01*
X242426Y16646D01*
X241169Y15806D01*
X240100Y14737D01*
X239260Y13479D01*
X238681Y12082D01*
X238386Y10599D01*
Y9087D01*
X238681Y7603D01*
X239260Y6206D01*
X240100Y4949D01*
X241169Y3879D01*
X242426Y3039D01*
X243824Y2461D01*
X245307Y2165D01*
X246819D01*
X248302Y2461D01*
X249699Y3039D01*
X250957Y3879D01*
X252026Y4949D01*
X252866Y6206D01*
X253445Y7603D01*
X253740Y9087D01*
Y10599D01*
X253445Y12082D01*
X252866Y13479D01*
X252026Y14737D01*
X250957Y15806D01*
X249699Y16646D01*
X248302Y17225D01*
X246819Y17520D01*
D02*
G37*
G36*
X228677Y195850D02*
X225724D01*
Y192898D01*
X228677D01*
Y195850D01*
D02*
G37*
G36*
X223724D02*
X220772D01*
Y192898D01*
X223724D01*
Y195850D01*
D02*
G37*
G36*
X225724Y190675D02*
Y187850D01*
X228549D01*
X228408Y188376D01*
X227887Y189277D01*
X227151Y190013D01*
X226250Y190534D01*
X225724Y190675D01*
D02*
G37*
G36*
X238524Y185315D02*
X237539D01*
X236588Y185060D01*
X235735Y184568D01*
X235039Y183871D01*
X234546Y183018D01*
X234291Y182067D01*
Y181082D01*
X234546Y180131D01*
X235039Y179278D01*
X235735Y178582D01*
X236588Y178089D01*
X237539Y177835D01*
X238524D01*
X239475Y178089D01*
X240328Y178582D01*
X241024Y179278D01*
X241517Y180131D01*
X241772Y181082D01*
Y182067D01*
X241517Y183018D01*
X241024Y183871D01*
X240328Y184568D01*
X239475Y185060D01*
X238524Y185315D01*
D02*
G37*
G36*
Y175315D02*
X237539D01*
X236588Y175060D01*
X235735Y174568D01*
X235039Y173871D01*
X234546Y173018D01*
X234291Y172067D01*
Y171082D01*
X234546Y170131D01*
X235039Y169278D01*
X235735Y168582D01*
X236588Y168089D01*
X237539Y167835D01*
X238524D01*
X239475Y168089D01*
X240328Y168582D01*
X241024Y169278D01*
X241517Y170131D01*
X241772Y171082D01*
Y172067D01*
X241517Y173018D01*
X241024Y173871D01*
X240328Y174568D01*
X239475Y175060D01*
X238524Y175315D01*
D02*
G37*
G36*
X239032Y155399D02*
Y152575D01*
X241856D01*
X241715Y153101D01*
X241195Y154002D01*
X240459Y154738D01*
X239557Y155258D01*
X239032Y155399D01*
D02*
G37*
G36*
X237032D02*
X236506Y155258D01*
X235605Y154738D01*
X234869Y154002D01*
X234348Y153101D01*
X234207Y152575D01*
X237032D01*
Y155399D01*
D02*
G37*
G36*
X241856Y150575D02*
X239032D01*
Y147751D01*
X239557Y147891D01*
X240459Y148412D01*
X241195Y149148D01*
X241715Y150049D01*
X241856Y150575D01*
D02*
G37*
G36*
X237032D02*
X234207D01*
X234348Y150049D01*
X234869Y149148D01*
X235605Y148412D01*
X236506Y147891D01*
X237032Y147751D01*
Y150575D01*
D02*
G37*
G36*
X238524Y142008D02*
X237539D01*
X236588Y141753D01*
X235735Y141261D01*
X235039Y140564D01*
X234546Y139711D01*
X234291Y138760D01*
Y137775D01*
X234546Y136824D01*
X235039Y135971D01*
X235735Y135275D01*
X236588Y134783D01*
X237539Y134528D01*
X238524D01*
X239475Y134783D01*
X240328Y135275D01*
X241024Y135971D01*
X241517Y136824D01*
X241772Y137775D01*
Y138760D01*
X241517Y139711D01*
X241024Y140564D01*
X240328Y141261D01*
X239475Y141753D01*
X238524Y142008D01*
D02*
G37*
G36*
Y132008D02*
X237539D01*
X236588Y131753D01*
X235735Y131261D01*
X235039Y130564D01*
X234546Y129711D01*
X234291Y128760D01*
Y127775D01*
X234546Y126824D01*
X235039Y125971D01*
X235735Y125275D01*
X236588Y124783D01*
X237539Y124528D01*
X238524D01*
X239475Y124783D01*
X240328Y125275D01*
X241024Y125971D01*
X241517Y126824D01*
X241772Y127775D01*
Y128760D01*
X241517Y129711D01*
X241024Y130564D01*
X240328Y131261D01*
X239475Y131753D01*
X238524Y132008D01*
D02*
G37*
G36*
Y122008D02*
X237539D01*
X236588Y121753D01*
X235735Y121261D01*
X235039Y120564D01*
X234546Y119711D01*
X234291Y118760D01*
Y117775D01*
X234546Y116824D01*
X235039Y115971D01*
X235735Y115275D01*
X236588Y114783D01*
X237539Y114528D01*
X238524D01*
X239475Y114783D01*
X240328Y115275D01*
X241024Y115971D01*
X241517Y116824D01*
X241772Y117775D01*
Y118760D01*
X241517Y119711D01*
X241024Y120564D01*
X240328Y121261D01*
X239475Y121753D01*
X238524Y122008D01*
D02*
G37*
G36*
X182850Y195850D02*
X179898D01*
Y192898D01*
X182850D01*
Y195850D01*
D02*
G37*
G36*
X63992Y163273D02*
Y160449D01*
X66816D01*
X66676Y160975D01*
X66155Y161876D01*
X65419Y162612D01*
X64518Y163132D01*
X63992Y163273D01*
D02*
G37*
G36*
X38402D02*
Y160449D01*
X41226D01*
X41085Y160975D01*
X40565Y161876D01*
X39829Y162612D01*
X38927Y163132D01*
X38402Y163273D01*
D02*
G37*
G36*
X217535D02*
Y160449D01*
X220360D01*
X220219Y160975D01*
X219698Y161876D01*
X218962Y162612D01*
X218061Y163132D01*
X217535Y163273D01*
D02*
G37*
G36*
X191945D02*
Y160449D01*
X194769D01*
X194628Y160975D01*
X194108Y161876D01*
X193372Y162612D01*
X192471Y163132D01*
X191945Y163273D01*
D02*
G37*
G36*
X166354D02*
Y160449D01*
X169179D01*
X169038Y160975D01*
X168517Y161876D01*
X167781Y162612D01*
X166880Y163132D01*
X166354Y163273D01*
D02*
G37*
G36*
X140764D02*
Y160449D01*
X143588D01*
X143447Y160975D01*
X142927Y161876D01*
X142191Y162612D01*
X141289Y163132D01*
X140764Y163273D01*
D02*
G37*
G36*
X115173D02*
Y160449D01*
X117997D01*
X117857Y160975D01*
X117336Y161876D01*
X116600Y162612D01*
X115699Y163132D01*
X115173Y163273D01*
D02*
G37*
G36*
X89583D02*
Y160449D01*
X92407D01*
X92266Y160975D01*
X91746Y161876D01*
X91010Y162612D01*
X90108Y163132D01*
X89583Y163273D01*
D02*
G37*
G36*
X61992D02*
X61466Y163132D01*
X60565Y162612D01*
X59829Y161876D01*
X59309Y160975D01*
X59168Y160449D01*
X61992D01*
Y163273D01*
D02*
G37*
G36*
X36402D02*
X35876Y163132D01*
X34975Y162612D01*
X34239Y161876D01*
X33718Y160975D01*
X33577Y160449D01*
X36402D01*
Y163273D01*
D02*
G37*
G36*
X215535D02*
X215010Y163132D01*
X214108Y162612D01*
X213372Y161876D01*
X212852Y160975D01*
X212711Y160449D01*
X215535D01*
Y163273D01*
D02*
G37*
G36*
X189945D02*
X189419Y163132D01*
X188518Y162612D01*
X187782Y161876D01*
X187261Y160975D01*
X187121Y160449D01*
X189945D01*
Y163273D01*
D02*
G37*
G36*
X164354D02*
X163829Y163132D01*
X162927Y162612D01*
X162191Y161876D01*
X161671Y160975D01*
X161530Y160449D01*
X164354D01*
Y163273D01*
D02*
G37*
G36*
X138764D02*
X138238Y163132D01*
X137337Y162612D01*
X136601Y161876D01*
X136080Y160975D01*
X135940Y160449D01*
X138764D01*
Y163273D01*
D02*
G37*
G36*
X113173D02*
X112647Y163132D01*
X111746Y162612D01*
X111010Y161876D01*
X110490Y160975D01*
X110349Y160449D01*
X113173D01*
Y163273D01*
D02*
G37*
G36*
X87583D02*
X87057Y163132D01*
X86156Y162612D01*
X85420Y161876D01*
X84899Y160975D01*
X84758Y160449D01*
X87583D01*
Y163273D01*
D02*
G37*
G36*
X220360Y158449D02*
X217535D01*
Y155625D01*
X218061Y155765D01*
X218962Y156286D01*
X219698Y157022D01*
X220219Y157923D01*
X220360Y158449D01*
D02*
G37*
G36*
X194769D02*
X191945D01*
Y155625D01*
X192471Y155765D01*
X193372Y156286D01*
X194108Y157022D01*
X194628Y157923D01*
X194769Y158449D01*
D02*
G37*
G36*
X169179D02*
X166354D01*
Y155625D01*
X166880Y155765D01*
X167781Y156286D01*
X168517Y157022D01*
X169038Y157923D01*
X169179Y158449D01*
D02*
G37*
G36*
X143588D02*
X140764D01*
Y155625D01*
X141289Y155765D01*
X142191Y156286D01*
X142927Y157022D01*
X143447Y157923D01*
X143588Y158449D01*
D02*
G37*
G36*
X117997D02*
X115173D01*
Y155625D01*
X115699Y155765D01*
X116600Y156286D01*
X117336Y157022D01*
X117857Y157923D01*
X117997Y158449D01*
D02*
G37*
G36*
X92407D02*
X89583D01*
Y155625D01*
X90108Y155765D01*
X91010Y156286D01*
X91746Y157022D01*
X92266Y157923D01*
X92407Y158449D01*
D02*
G37*
G36*
X66816D02*
X63992D01*
Y155625D01*
X64518Y155765D01*
X65419Y156286D01*
X66155Y157022D01*
X66676Y157923D01*
X66816Y158449D01*
D02*
G37*
G36*
X41226D02*
X38402D01*
Y155625D01*
X38927Y155765D01*
X39829Y156286D01*
X40565Y157022D01*
X41085Y157923D01*
X41226Y158449D01*
D02*
G37*
G36*
X215535D02*
X212711D01*
X212852Y157923D01*
X213372Y157022D01*
X214108Y156286D01*
X215010Y155765D01*
X215535Y155625D01*
Y158449D01*
D02*
G37*
G36*
X189945D02*
X187121D01*
X187261Y157923D01*
X187782Y157022D01*
X188518Y156286D01*
X189419Y155765D01*
X189945Y155625D01*
Y158449D01*
D02*
G37*
G36*
X164354D02*
X161530D01*
X161671Y157923D01*
X162191Y157022D01*
X162927Y156286D01*
X163829Y155765D01*
X164354Y155625D01*
Y158449D01*
D02*
G37*
G36*
X138764D02*
X135940D01*
X136080Y157923D01*
X136601Y157022D01*
X137337Y156286D01*
X138238Y155765D01*
X138764Y155625D01*
Y158449D01*
D02*
G37*
G36*
X113173D02*
X110349D01*
X110490Y157923D01*
X111010Y157022D01*
X111746Y156286D01*
X112647Y155765D01*
X113173Y155625D01*
Y158449D01*
D02*
G37*
G36*
X87583D02*
X84758D01*
X84899Y157923D01*
X85420Y157022D01*
X86156Y156286D01*
X87057Y155765D01*
X87583Y155625D01*
Y158449D01*
D02*
G37*
G36*
X61992D02*
X59168D01*
X59309Y157923D01*
X59829Y157022D01*
X60565Y156286D01*
X61466Y155765D01*
X61992Y155625D01*
Y158449D01*
D02*
G37*
G36*
X36402D02*
X33577D01*
X33718Y157923D01*
X34239Y157022D01*
X34975Y156286D01*
X35876Y155765D01*
X36402Y155625D01*
Y158449D01*
D02*
G37*
G36*
X12811Y159420D02*
Y152575D01*
X19656D01*
X19398Y153876D01*
X18803Y155312D01*
X17939Y156604D01*
X16840Y157703D01*
X15548Y158567D01*
X14112Y159161D01*
X12811Y159420D01*
D02*
G37*
G36*
X19656Y150575D02*
X12811D01*
Y143729D01*
X14112Y143988D01*
X15548Y144583D01*
X16840Y145446D01*
X17939Y146545D01*
X18803Y147838D01*
X19398Y149273D01*
X19656Y150575D01*
D02*
G37*
G36*
X20528Y135775D02*
Y132890D01*
X23413D01*
X23266Y133438D01*
X22738Y134353D01*
X21991Y135100D01*
X21076Y135628D01*
X20528Y135775D01*
D02*
G37*
G36*
X18528D02*
X17979Y135628D01*
X17064Y135100D01*
X16317Y134353D01*
X15789Y133438D01*
X15642Y132890D01*
X18528D01*
Y135775D01*
D02*
G37*
G36*
X40028Y135689D02*
X39027D01*
X38061Y135430D01*
X37195Y134930D01*
X36487Y134223D01*
X35987Y133356D01*
X35728Y132390D01*
Y131390D01*
X35987Y130423D01*
X36487Y129557D01*
X37195Y128850D01*
X38061Y128349D01*
X39027Y128091D01*
X40028D01*
X40994Y128349D01*
X41860Y128850D01*
X42568Y129557D01*
X43068Y130423D01*
X43327Y131390D01*
Y132390D01*
X43068Y133356D01*
X42568Y134223D01*
X41860Y134930D01*
X40994Y135430D01*
X40028Y135689D01*
D02*
G37*
G36*
X27380Y139484D02*
X26479D01*
X25647Y139139D01*
X25010Y138503D01*
X24666Y137671D01*
Y136770D01*
X25010Y135938D01*
X25647Y135301D01*
X26479Y134956D01*
X26514D01*
X26721Y134456D01*
X26487Y134223D01*
X25987Y133356D01*
X25728Y132390D01*
Y131390D01*
X25987Y130423D01*
X26487Y129557D01*
X27195Y128850D01*
X28061Y128349D01*
X29027Y128091D01*
X30028D01*
X30994Y128349D01*
X31860Y128850D01*
X32568Y129557D01*
X33068Y130423D01*
X33327Y131390D01*
Y132390D01*
X33068Y133356D01*
X32568Y134223D01*
X31860Y134930D01*
X30994Y135430D01*
X30028Y135689D01*
X29253D01*
X28949Y136135D01*
X28943Y136166D01*
X29193Y136770D01*
Y137671D01*
X28848Y138503D01*
X28212Y139139D01*
X27380Y139484D01*
D02*
G37*
G36*
X18528Y130890D02*
X15642D01*
X15789Y130341D01*
X16317Y129427D01*
X17064Y128680D01*
X17979Y128151D01*
X18528Y128004D01*
Y130890D01*
D02*
G37*
G36*
X23774D02*
X20528D01*
Y128004D01*
X21076Y128151D01*
X21149Y128193D01*
X21658Y127910D01*
X21956Y127192D01*
X22592Y126556D01*
X23425Y126211D01*
X24325D01*
X25157Y126556D01*
X25794Y127192D01*
X26139Y128024D01*
Y128925D01*
X25794Y129757D01*
X25157Y130394D01*
X24325Y130739D01*
X23890D01*
X23774Y130890D01*
D02*
G37*
G36*
X18323Y125803D02*
X16453D01*
Y123047D01*
X18323D01*
Y125803D01*
D02*
G37*
G36*
X14453D02*
X12583D01*
Y123047D01*
X14453D01*
Y125803D01*
D02*
G37*
G36*
X45508Y125626D02*
Y121669D01*
X46712D01*
Y124405D01*
X46619Y124874D01*
X46354Y125271D01*
X45957Y125537D01*
X45508Y125626D01*
D02*
G37*
G36*
X43508D02*
X43059Y125537D01*
X42662Y125271D01*
X42396Y124874D01*
X42303Y124405D01*
Y121669D01*
X43508D01*
Y125626D01*
D02*
G37*
G36*
X18323Y121047D02*
X16453D01*
Y118291D01*
X18323D01*
Y121047D01*
D02*
G37*
G36*
X14453D02*
X12583D01*
Y118291D01*
X14453D01*
Y121047D01*
D02*
G37*
G36*
X46712Y119669D02*
X45508D01*
Y115713D01*
X45957Y115802D01*
X46354Y116067D01*
X46619Y116464D01*
X46712Y116933D01*
Y119669D01*
D02*
G37*
G36*
X43508D02*
X42303D01*
Y116933D01*
X42396Y116464D01*
X42662Y116067D01*
X43059Y115802D01*
X43508Y115713D01*
Y119669D01*
D02*
G37*
G36*
X18323Y114976D02*
X16453D01*
Y112220D01*
X18323D01*
Y114976D01*
D02*
G37*
G36*
X14453D02*
X12583D01*
Y112220D01*
X14453D01*
Y114976D01*
D02*
G37*
G36*
X33283Y109465D02*
X30528D01*
Y107595D01*
X33283D01*
Y109465D01*
D02*
G37*
G36*
X28528D02*
X25772D01*
Y107595D01*
X28528D01*
Y109465D01*
D02*
G37*
G36*
X33283Y105595D02*
X30528D01*
Y103725D01*
X33283D01*
Y105595D01*
D02*
G37*
G36*
X28528D02*
X25772D01*
Y103725D01*
X28528D01*
Y105595D01*
D02*
G37*
G36*
X15725Y81239D02*
X14825D01*
X13993Y80894D01*
X13356Y80257D01*
X13011Y79425D01*
Y78525D01*
X13356Y77693D01*
X13993Y77056D01*
X14825Y76711D01*
X15725D01*
X16557Y77056D01*
X17194Y77693D01*
X17539Y78525D01*
Y79425D01*
X17194Y80257D01*
X16557Y80894D01*
X15725Y81239D01*
D02*
G37*
G36*
X10528Y75775D02*
Y72890D01*
X13413D01*
X13266Y73438D01*
X12738Y74353D01*
X11991Y75100D01*
X11076Y75628D01*
X10528Y75775D01*
D02*
G37*
G36*
X8528D02*
X7979Y75628D01*
X7064Y75100D01*
X6317Y74353D01*
X5789Y73438D01*
X5642Y72890D01*
X8528D01*
Y75775D01*
D02*
G37*
G36*
X20028Y75689D02*
X19027D01*
X18061Y75430D01*
X17195Y74930D01*
X16488Y74223D01*
X15987Y73356D01*
X15728Y72390D01*
Y71390D01*
X15987Y70423D01*
X16488Y69557D01*
X17195Y68850D01*
X18061Y68349D01*
X19027Y68091D01*
X20028D01*
X20994Y68349D01*
X21860Y68850D01*
X22568Y69557D01*
X23068Y70423D01*
X23327Y71390D01*
Y72390D01*
X23068Y73356D01*
X22568Y74223D01*
X21860Y74930D01*
X20994Y75430D01*
X20028Y75689D01*
D02*
G37*
G36*
X13413Y70890D02*
X10528D01*
Y68004D01*
X11076Y68151D01*
X11991Y68679D01*
X12738Y69427D01*
X13266Y70341D01*
X13413Y70890D01*
D02*
G37*
G36*
X8528D02*
X5642D01*
X5789Y70341D01*
X6317Y69427D01*
X7064Y68679D01*
X7979Y68151D01*
X8528Y68004D01*
Y70890D01*
D02*
G37*
G36*
X7283Y61167D02*
X6906D01*
Y58776D01*
X10509D01*
X10220Y59471D01*
X9681Y60174D01*
X8979Y60712D01*
X8161Y61051D01*
X7283Y61167D01*
D02*
G37*
G36*
X199819Y71866D02*
X189976D01*
Y62024D01*
X199819D01*
Y71866D01*
D02*
G37*
G36*
X187976D02*
X178134D01*
Y62024D01*
X187976D01*
Y71866D01*
D02*
G37*
G36*
X199819Y60024D02*
X189976D01*
Y50181D01*
X199819D01*
Y60024D01*
D02*
G37*
G36*
X187976D02*
X178134D01*
Y50181D01*
X187976D01*
Y60024D01*
D02*
G37*
G36*
X237032Y92092D02*
X236506Y91951D01*
X235605Y91431D01*
X234869Y90695D01*
X234348Y89793D01*
X234207Y89268D01*
X237032D01*
Y92092D01*
D02*
G37*
G36*
Y87268D02*
X234207D01*
X234348Y86742D01*
X234869Y85841D01*
X235605Y85105D01*
X236506Y84584D01*
X237032Y84444D01*
Y87268D01*
D02*
G37*
G36*
X232102Y44504D02*
X229347D01*
Y42634D01*
X232102D01*
Y44504D01*
D02*
G37*
G36*
Y40634D02*
X229347D01*
Y38764D01*
X232102D01*
Y40634D01*
D02*
G37*
G36*
X85508Y89012D02*
Y85055D01*
X86712D01*
Y87791D01*
X86619Y88260D01*
X86354Y88657D01*
X85957Y88923D01*
X85508Y89012D01*
D02*
G37*
G36*
X83508D02*
X83059Y88923D01*
X82662Y88657D01*
X82396Y88260D01*
X82303Y87791D01*
Y85055D01*
X83508D01*
Y89012D01*
D02*
G37*
G36*
X117142Y37386D02*
X114189D01*
Y34433D01*
X117142D01*
Y37386D01*
D02*
G37*
G36*
X156512Y30496D02*
X152575D01*
Y28724D01*
X156512D01*
Y30496D01*
D02*
G37*
G36*
X138992Y13815D02*
X135843D01*
Y9484D01*
X138992D01*
Y13815D01*
D02*
G37*
G36*
X133843D02*
X130693D01*
Y9484D01*
X133843D01*
Y13815D01*
D02*
G37*
G36*
X112189Y8874D02*
X109827D01*
Y6913D01*
X104740D01*
Y8874D01*
X102378D01*
Y5709D01*
Y2543D01*
X104740D01*
Y4504D01*
X109827D01*
Y2543D01*
X112189D01*
Y5709D01*
Y8874D01*
D02*
G37*
G36*
X100378D02*
X98016D01*
Y6913D01*
X92929D01*
Y8874D01*
X90567D01*
Y5709D01*
Y2543D01*
X92929D01*
Y4504D01*
X98016D01*
Y2543D01*
X100378D01*
Y5709D01*
Y8874D01*
D02*
G37*
G36*
X88567D02*
X86205D01*
Y6709D01*
X88567D01*
Y8874D01*
D02*
G37*
G36*
X138992Y7484D02*
X135843D01*
Y3153D01*
X138992D01*
Y7484D01*
D02*
G37*
G36*
X133843D02*
X130693D01*
Y3153D01*
X133843D01*
Y7484D01*
D02*
G37*
G36*
X116551Y4709D02*
X114189D01*
Y2543D01*
X116551D01*
Y4709D01*
D02*
G37*
G36*
X88567D02*
X86205D01*
Y2543D01*
X88567D01*
Y4709D01*
D02*
G37*
G36*
X232102Y26559D02*
X229346D01*
Y24689D01*
X232102D01*
Y26559D01*
D02*
G37*
G36*
X242013Y24118D02*
X239189D01*
Y21294D01*
X239715Y21435D01*
X240616Y21955D01*
X241352Y22691D01*
X241872Y23593D01*
X242013Y24118D01*
D02*
G37*
G36*
X237189D02*
X234365D01*
X234506Y23593D01*
X235026Y22691D01*
X235762Y21955D01*
X236663Y21435D01*
X237189Y21294D01*
Y24118D01*
D02*
G37*
G36*
X58874Y25114D02*
X56118D01*
Y23244D01*
X58874D01*
Y25114D01*
D02*
G37*
G36*
Y12484D02*
X56118D01*
Y10614D01*
X58874D01*
Y12484D01*
D02*
G37*
G36*
X16717Y31579D02*
X14417D01*
X14644Y31032D01*
X15135Y30391D01*
X15776Y29900D01*
X16522Y29591D01*
X16717Y29565D01*
Y31579D01*
D02*
G37*
G36*
X10509Y23902D02*
X6906D01*
Y21510D01*
X7283D01*
X8161Y21626D01*
X8979Y21965D01*
X9681Y22504D01*
X10220Y23206D01*
X10509Y23902D01*
D02*
G37*
G36*
X34661Y10646D02*
X32791D01*
Y7890D01*
X34661D01*
Y10646D01*
D02*
G37*
G36*
X30791D02*
X28921D01*
Y7890D01*
X30791D01*
Y10646D01*
D02*
G37*
G36*
X34661Y5890D02*
X32791D01*
Y3134D01*
X34661D01*
Y5890D01*
D02*
G37*
G36*
X30791D02*
X28921D01*
Y3134D01*
X30791D01*
Y5890D01*
D02*
G37*
G36*
X10599Y17520D02*
X9087D01*
X7603Y17225D01*
X6206Y16646D01*
X4949Y15806D01*
X3879Y14737D01*
X3039Y13479D01*
X2461Y12082D01*
X2165Y10599D01*
Y9087D01*
X2461Y7603D01*
X3039Y6206D01*
X3879Y4949D01*
X4949Y3879D01*
X6206Y3039D01*
X7603Y2461D01*
X9087Y2165D01*
X10599D01*
X12082Y2461D01*
X13479Y3039D01*
X14737Y3879D01*
X15806Y4949D01*
X16646Y6206D01*
X17225Y7603D01*
X17520Y9087D01*
Y10599D01*
X17225Y12082D01*
X16646Y13479D01*
X15806Y14737D01*
X14737Y15806D01*
X13479Y16646D01*
X12082Y17225D01*
X10599Y17520D01*
D02*
G37*
%LPD*%
D11*
X62251Y31205D02*
X68205D01*
X68436Y30974D01*
X61999Y30953D02*
X62251Y31205D01*
X68436Y30974D02*
X69083Y30327D01*
X60775Y29528D02*
X61999Y30953D01*
X69083Y26392D02*
X69094Y26380D01*
X69083Y26392D02*
Y30327D01*
X76075Y33075D02*
X83875Y25275D01*
X66175Y33075D02*
X76075D01*
X61175Y38075D02*
X66175Y33075D01*
X29475Y38075D02*
X61175D01*
X1375Y32375D02*
Y49714D01*
X12795Y45602D02*
Y49714D01*
X12334Y50175D02*
X12795Y49714D01*
X1375D02*
X1836Y50175D01*
X12334D01*
X12795Y45602D02*
X13472Y44925D01*
X14075Y59375D02*
X21237Y66537D01*
X14075Y48753D02*
Y59375D01*
Y48753D02*
X14173Y48655D01*
X13472Y44925D02*
X13712D01*
X14173Y44464D01*
Y44291D02*
Y44464D01*
Y46850D02*
Y48655D01*
Y46850D02*
X14567Y46457D01*
X14173Y44291D02*
X14567Y43898D01*
X16437D01*
X14567Y46457D02*
X16437D01*
X16077Y36580D02*
X16437Y36220D01*
X228275Y46949D02*
X228347D01*
X225575D02*
X228275D01*
Y88511D01*
X225575Y33169D02*
X228346D01*
X225001D02*
X225575D01*
X95245Y37364D02*
X101475Y35875D01*
X94784Y37475D02*
X95245Y37364D01*
X94784Y35876D02*
Y37475D01*
Y35433D02*
Y35876D01*
X65403Y57303D02*
Y58071D01*
X64075Y55975D02*
X65403Y57303D01*
X69294Y20975D02*
X69894Y21575D01*
X69094Y20775D02*
X69294Y20975D01*
X59914Y58071D02*
Y62235D01*
X37375Y81275D02*
X39508D01*
X67235Y85836D02*
X69508D01*
X74508Y88075D02*
X76175D01*
X220675Y30475D02*
Y31496D01*
X112587Y5709D02*
X138375Y31496D01*
X101378Y5709D02*
X112587D01*
X89567D02*
X101378D01*
X35433Y27559D02*
X42017Y20975D01*
X106475Y82875D02*
Y85827D01*
X169396Y36496D02*
X203354D01*
X151575D02*
X169396D01*
X50492Y55460D02*
Y57575D01*
X134843Y41375D02*
X140375D01*
X83675Y37375D02*
X88287D01*
X118266Y95276D02*
Y96784D01*
X213575Y82896D02*
Y134775D01*
Y82296D02*
Y82896D01*
X116437Y60335D02*
X134775D01*
Y86845D01*
X81175Y49508D02*
X84646D01*
X78275D02*
X81175D01*
X78167Y61319D02*
X81175D01*
X57928Y29528D02*
X60775D01*
X55118D02*
X57928D01*
X224775Y46149D02*
X225575Y46949D01*
X224775Y33969D02*
Y46149D01*
Y33969D02*
X225575Y33169D01*
X228275Y88511D02*
X238032Y98268D01*
X39508Y81275D02*
Y84055D01*
X35275Y79175D02*
X37375Y81275D01*
X35275Y69575D02*
Y79175D01*
Y69575D02*
X37175Y67675D01*
X54475D01*
X59914Y62235D01*
Y58071D02*
X62598D01*
X62575Y23275D02*
X66994D01*
X69294Y20975D01*
X69094Y16927D02*
X69294Y20975D01*
X69094Y11567D02*
Y16927D01*
Y11567D02*
X69587Y5906D01*
X71975Y88675D02*
X75175Y91875D01*
X71975Y79875D02*
Y88675D01*
X71175Y79075D02*
X71975Y79875D01*
X60408Y79075D02*
X71175D01*
X59508Y79975D02*
X60408Y79075D01*
X59508Y79975D02*
Y84055D01*
X199406Y149606D02*
X216535D01*
X185975Y136175D02*
X199406Y149606D01*
X147975Y136175D02*
X185975D01*
X144858Y133058D02*
X147975Y136175D01*
X144858Y116112D02*
Y133058D01*
X135467Y106722D02*
X144858Y116112D01*
X135467Y103767D02*
Y106722D01*
X126976Y95276D02*
X135467Y103767D01*
X125197Y95276D02*
X126976D01*
X129175Y88976D02*
X130676Y87475D01*
X125197Y88976D02*
X129175D01*
X139764Y149606D02*
X143721Y145650D01*
Y129921D02*
Y145650D01*
X141575Y127775D02*
X143721Y129921D01*
X140575Y127775D02*
X141575D01*
X138375Y125575D02*
X140575Y127775D01*
X138375Y112675D02*
Y125575D01*
X122675Y96975D02*
X138375Y112675D01*
X122675Y85827D02*
Y96975D01*
Y85827D02*
X125197D01*
X125020Y116929D02*
X125197D01*
X114858Y127092D02*
X125020Y116929D01*
X114858Y127092D02*
Y136535D01*
X114173Y149606D02*
X114858Y136535D01*
X128675Y113780D02*
X129475Y114580D01*
X125197Y113780D02*
X128675D01*
X129380Y107480D02*
X132475Y110575D01*
X125197Y107480D02*
X129380D01*
X218504Y31496D02*
X220675D01*
Y30475D02*
X240775D01*
X242375Y32075D01*
Y100175D01*
X239275Y103275D02*
X242375Y100175D01*
X224954Y103275D02*
X239275D01*
X223175Y101496D02*
X224954Y103275D01*
X218504Y101496D02*
X223175D01*
X138375Y31496D02*
X151575D01*
X26875Y15875D02*
X35517D01*
X10375Y32375D02*
X26875Y15875D01*
X1375Y32375D02*
X10375D01*
X213775Y56496D02*
X218504D01*
X210275Y59996D02*
X213775Y56496D01*
X210275Y59996D02*
Y126275D01*
X205575Y130975D02*
X210275Y126275D01*
X197075Y127675D02*
X208575Y116175D01*
Y58675D02*
Y116175D01*
Y58675D02*
X215754Y51496D01*
X218504D01*
X211154Y46496D02*
X218504D01*
X205675Y51975D02*
X211154Y46496D01*
X205675Y51975D02*
Y97275D01*
X176375Y126575D02*
X205675Y97275D01*
X164875Y45118D02*
Y90196D01*
X163575Y91496D02*
X164875Y90196D01*
X151575Y91496D02*
X163575D01*
X218504D02*
X224375D01*
X227175Y94296D01*
X218504Y61496D02*
X223954D01*
X224275Y61175D01*
X105375Y44175D02*
X107675Y41875D01*
Y29575D02*
Y41875D01*
X145675Y106475D02*
X145696Y106496D01*
X151575D01*
X218504Y71496D02*
X224396D01*
X139354Y101496D02*
X151575D01*
X138975Y101875D02*
X139354Y101496D01*
X224354Y86496D02*
X224375Y86475D01*
X218504Y86496D02*
X224354D01*
X105576Y88976D02*
X107480D01*
X103775Y87175D02*
X105576Y88976D01*
X103775Y84275D02*
Y87175D01*
X102175Y82675D02*
X103775Y84275D01*
X248032Y171575D02*
X253375Y166232D01*
Y43975D02*
Y166232D01*
X250375Y40975D02*
X253375Y43975D01*
X247175Y40975D02*
X250375D01*
X243975Y37775D02*
X247175Y40975D01*
X243975Y21075D02*
Y37775D01*
X240775Y17875D02*
X243975Y21075D01*
X227975Y17875D02*
X240775D01*
X224775Y21075D02*
X227975Y17875D01*
X224775Y21075D02*
Y27575D01*
X223975Y28375D02*
X224775Y27575D01*
X211475Y28375D02*
X223975D01*
X203354Y36496D02*
X211475Y28375D01*
X107480Y92126D02*
X109575D01*
X111175Y90526D01*
Y79475D02*
Y90526D01*
Y79475D02*
X113775Y76875D01*
Y56775D02*
Y76875D01*
Y56775D02*
X115075Y55475D01*
X125175D01*
X126775Y57075D01*
X138875D01*
X169396Y36496D02*
X170775Y37875D01*
X151575Y41496D02*
X155596D01*
X156475Y42375D01*
Y48275D01*
X157475Y49275D01*
X114108Y80512D02*
X115245Y79375D01*
X114108Y80512D02*
Y92843D01*
X111675Y95276D02*
X114108Y92843D01*
X107480Y95276D02*
X111675D01*
X167575Y42075D02*
Y55075D01*
X165575Y40075D02*
X167575Y42075D01*
X164175Y40075D02*
X165575D01*
X161275Y42975D02*
X164175Y40075D01*
X161275Y42975D02*
Y72796D01*
X157575Y76496D02*
X161275Y72796D01*
X151575Y76496D02*
X157575D01*
X171375Y42075D02*
Y73775D01*
X167175Y37875D02*
X171375Y42075D01*
X163975Y37875D02*
X167175D01*
X159875Y41975D02*
X163975Y37875D01*
X159875Y41975D02*
Y67975D01*
X156354Y71496D02*
X159875Y67975D01*
X151575Y71496D02*
X156354D01*
X146296Y96496D02*
X151575D01*
X144975Y95175D02*
X146296Y96496D01*
X144975Y87975D02*
Y95175D01*
X55475Y49513D02*
Y52475D01*
X51181Y49213D02*
X55475Y49513D01*
X211596Y41496D02*
X218504D01*
X211475Y41375D02*
X211596Y41496D01*
X88287Y35433D02*
Y37375D01*
X118266Y95276D02*
X118898D01*
X111675Y103375D02*
X118266Y96784D01*
X98575Y103375D02*
X111675D01*
X49508Y108809D02*
Y120669D01*
X54508Y101842D02*
Y120669D01*
Y101842D02*
X58875Y97475D01*
X85575Y100675D02*
X87375Y98875D01*
X113775D01*
X116382Y96267D01*
Y92126D02*
Y96267D01*
Y92126D02*
X118898D01*
X117875Y113780D02*
X118898D01*
X110475Y112775D02*
X117875Y113780D01*
X108475Y110775D02*
X110475Y112775D01*
X95675Y110775D02*
X108475D01*
X93675Y112775D02*
X95675Y110775D01*
X93675Y112775D02*
Y120375D01*
X84875Y129175D02*
X93675Y120375D01*
X84875Y129175D02*
Y135875D01*
X83375Y137375D02*
X84875Y135875D01*
X75975Y137375D02*
X83375D01*
X74508Y135908D02*
X75975Y137375D01*
X74508Y120669D02*
Y135908D01*
X118130Y110630D02*
X118898D01*
X116675Y109175D02*
X118130Y110630D01*
X92075Y109175D02*
X116675D01*
X91112Y110137D02*
X92075Y109175D01*
X91112Y110137D02*
Y121283D01*
X86654Y125742D02*
X91112Y121283D01*
X80475Y125742D02*
X86654D01*
X79508Y124775D02*
X80475Y125742D01*
X79508Y120669D02*
Y124775D01*
X134775Y60335D02*
X134842D01*
X134775Y86845D02*
X136605Y88675D01*
Y104875D01*
X140984Y105584D01*
X146875Y111475D01*
Y129475D01*
X151275Y133875D01*
X210875D01*
X212375Y132375D01*
Y84096D02*
Y132375D01*
Y84096D02*
X213575Y82896D01*
X218504Y81496D01*
X214375D02*
X218504D01*
X213575Y82296D02*
X214375Y81496D01*
X213575Y134775D02*
X226875Y148075D01*
Y173775D01*
X217975Y182675D02*
X226875Y173775D01*
X116775Y182675D02*
X217975D01*
X113075Y186375D02*
X116775Y182675D01*
X113075Y186375D02*
Y190975D01*
X112175Y191875D02*
X113075Y190975D01*
X63873Y191875D02*
X112175D01*
X58898Y196850D02*
X63873Y191875D01*
X98425Y47725D02*
Y49508D01*
X96775Y46075D02*
X98425Y47725D01*
X93875Y46075D02*
X96775D01*
X24775Y53175D02*
X26475D01*
X23075Y51475D02*
X24775Y53175D01*
X23075Y40975D02*
Y51475D01*
Y40975D02*
X24775Y39275D01*
X93268Y43012D02*
X98425D01*
X91505Y44775D02*
X93268Y43012D01*
X91505Y44775D02*
Y53605D01*
X95175Y57275D01*
X104375D01*
X109055Y52595D01*
Y46372D02*
Y52595D01*
Y46372D02*
X111175Y44252D01*
X115975D01*
X123145Y51422D01*
X143075D01*
X151575Y51496D01*
X98425Y54823D02*
X103175D01*
X107918Y50080D01*
Y44772D02*
Y50080D01*
Y44772D02*
X109575Y43114D01*
X116814D01*
X123984Y50284D01*
X138265D01*
X142054Y46496D01*
X151575D01*
X58123Y42323D02*
X62598D01*
X57375Y41575D02*
X58123Y42323D01*
X71260Y61811D02*
X78167Y61319D01*
X76305Y47538D02*
X78275Y49508D01*
X76305Y37005D02*
Y47538D01*
Y37005D02*
X79175Y34134D01*
Y33875D02*
Y34134D01*
X47275Y33675D02*
X47475Y33875D01*
X45675Y33675D02*
X47275D01*
X74375Y35075D02*
X76305Y37005D01*
X68475Y35075D02*
X74375D01*
X67575Y35975D02*
X68475Y35075D01*
X67575Y35975D02*
Y43675D01*
X58775Y52475D02*
X67575Y43675D01*
X58775Y52475D02*
Y58712D01*
X50950Y66537D02*
X58775Y58712D01*
X21237Y66537D02*
X50950D01*
X218504Y106496D02*
X223175D01*
X224475Y107796D01*
Y114375D01*
X113846Y115846D02*
X113875Y115875D01*
X109252Y115846D02*
X113846D01*
X62992Y136175D02*
Y149606D01*
Y136175D02*
X63721Y135446D01*
Y129075D02*
Y135446D01*
Y129075D02*
X67575Y125221D01*
Y115175D02*
Y125221D01*
Y115175D02*
X77005Y105745D01*
X121245D01*
X122575Y107075D01*
Y110630D01*
X125197D01*
X64508Y114442D02*
Y120669D01*
Y114442D02*
X81275Y97675D01*
X112775D01*
X115245Y95205D01*
Y87175D02*
Y95205D01*
Y87175D02*
X116593Y85827D01*
X118898D01*
X125197Y92126D02*
X133826D01*
X118898Y88976D02*
X121475D01*
Y101075D01*
X125075Y104675D01*
X60475Y126542D02*
X60708D01*
X59508Y125575D02*
X60475Y126542D01*
X59508Y120669D02*
Y125575D01*
X99410Y115846D02*
X103446D01*
X104075Y116475D01*
X225675Y98375D02*
X230175D01*
X223796Y96496D02*
X225675Y98375D01*
X218504Y96496D02*
X223796D01*
X116437Y60039D02*
Y60335D01*
X69508Y120669D02*
Y125142D01*
X64858Y129792D02*
X69508Y125142D01*
X64858Y129792D02*
Y135658D01*
X73083Y143883D01*
X105013D01*
X113721Y135175D01*
Y121583D02*
Y135175D01*
Y121583D02*
X118375Y116929D01*
X118898D01*
X22675Y24806D02*
X22875Y24606D01*
X22675Y24806D02*
Y39575D01*
X21375Y40875D02*
X22675Y39575D01*
X21375Y40875D02*
Y62175D01*
X23775Y64575D01*
X35175D01*
X36016Y63734D01*
Y59975D02*
Y63734D01*
Y59975D02*
X38416Y57575D01*
X50492D01*
Y61024D01*
X39026D02*
X43996D01*
X38475Y61575D02*
X39026Y61024D01*
X28775Y46075D02*
X30472D01*
X31075Y45472D01*
X33465D01*
X83875Y25275D02*
X92975D01*
X99775Y32075D01*
X102275D01*
X104575Y34375D01*
Y37575D01*
X102975Y39175D02*
X104575Y37575D01*
X95075Y39175D02*
X102975D01*
X90367Y43882D02*
X95075Y39175D01*
X90367Y43882D02*
Y56711D01*
X94975Y61319D01*
X98425D01*
X89230Y41430D02*
X94784Y35876D01*
X89230Y41430D02*
Y58430D01*
X95275Y64475D01*
Y83975D01*
X97127Y85827D01*
X101181D01*
X109941Y56960D02*
Y60039D01*
Y56960D02*
X110427Y56474D01*
Y51148D02*
Y56474D01*
Y51148D02*
X113189Y48386D01*
X107675Y29575D02*
X109395Y27854D01*
X113189D01*
X27362Y39175D02*
X29062Y40875D01*
X35975D01*
X40075Y44975D01*
Y50575D01*
X37697Y52953D02*
X40075Y50575D01*
X33465Y52953D02*
X37697D01*
X144475Y58375D02*
Y76075D01*
Y58375D02*
X146354Y56496D01*
X151575D01*
X69508Y84055D02*
Y85836D01*
X67235D02*
Y100168D01*
X106475Y85827D02*
X107480D01*
X74508Y84055D02*
Y88075D01*
X76175D02*
X77575Y89475D01*
Y95275D01*
X57075Y115775D02*
X77575Y95275D01*
X57075Y115775D02*
Y129437D01*
X59528Y131890D01*
X26280Y57370D02*
Y61024D01*
Y57370D02*
X30697Y52953D01*
X33465D01*
X94784Y33071D02*
Y35433D01*
X89567Y27854D02*
X94784Y33071D01*
X25591Y49213D02*
X37037D01*
X16437Y41339D02*
X19211D01*
X21375Y39175D01*
Y23275D02*
Y39175D01*
Y23275D02*
X27375Y17275D01*
X137475Y80815D02*
X143635D01*
X146875Y77575D01*
Y66496D02*
Y77575D01*
Y66496D02*
X151575D01*
X218504Y76496D02*
X223096D01*
X225875Y79275D01*
X243875Y49432D02*
X248189Y45118D01*
X243875Y49432D02*
Y185075D01*
X237975Y190975D02*
X243875Y185075D01*
X237975Y190975D02*
Y196275D01*
X233175Y201075D02*
X237975Y196275D01*
X174675Y201075D02*
X233175D01*
X174675Y195975D02*
Y201075D01*
X171375Y192675D02*
X174675Y195975D01*
X124722Y192675D02*
X171375D01*
X118898Y186850D02*
X124722Y192675D01*
X52665Y29528D02*
X55118D01*
X67975Y46063D02*
X71260D01*
X64075Y49963D02*
X67975Y46063D01*
X64075Y49963D02*
Y55975D01*
X62598Y58071D02*
X65403D01*
X84646Y54823D02*
X88075D01*
Y63675D01*
X87175Y64575D02*
X88075Y63675D01*
X67675Y64575D02*
X87175D01*
X67675Y59075D02*
Y64575D01*
Y59075D02*
X73375D01*
X75167Y57282D01*
Y38583D02*
Y57282D01*
X71260Y38583D02*
X75167D01*
X101378Y24775D02*
Y27854D01*
X100478Y23875D02*
X101378Y24775D01*
X83975Y23875D02*
X100478D01*
X81675Y21575D02*
X83975Y23875D01*
X69894Y21575D02*
X81675D01*
X69094Y16927D02*
Y20775D01*
X134843Y41375D02*
Y44665D01*
X230475Y169132D02*
X238032Y161575D01*
X230475Y169132D02*
Y174097D01*
X217722Y186850D02*
X230475Y174097D01*
X214724Y186850D02*
X217722D01*
X89802Y107480D02*
X118898D01*
X84508Y112775D02*
X89802Y107480D01*
X84508Y112775D02*
Y120669D01*
X79838Y43012D02*
X84646D01*
X78675Y44175D02*
X79838Y43012D01*
X66575Y54375D02*
X66619Y54331D01*
X71260D01*
X32776Y57575D02*
Y61024D01*
Y57575D02*
X35820D01*
X40442Y52953D01*
X43307D01*
X52575Y95775D02*
Y127675D01*
X49508Y92708D02*
X52575Y95775D01*
X49508Y84055D02*
Y92708D01*
X222754Y66496D02*
X224375Y64875D01*
X218504Y66496D02*
X222754D01*
X51975Y13484D02*
X55118D01*
X51575Y13084D02*
X51975Y13484D01*
X51575Y3375D02*
Y13084D01*
Y3375D02*
X53575Y1375D01*
X71175D01*
X72835Y3035D01*
Y16927D01*
X44508Y76870D02*
Y84055D01*
X39528Y71890D02*
X44508Y76870D01*
X35433Y24527D02*
Y27559D01*
X69528Y71890D02*
X73743Y67675D01*
X91975D01*
X93721Y69421D01*
Y75229D01*
X89675Y79275D02*
X93721Y75229D01*
X79508Y79275D02*
X89675D01*
X79508D02*
Y84055D01*
X64508D02*
Y88942D01*
X64175Y89275D02*
X64508Y88942D01*
X53575Y89275D02*
X64175D01*
X52575Y88275D02*
X53575Y89275D01*
X52575Y77475D02*
Y88275D01*
Y77475D02*
X53875Y76175D01*
X75243D01*
X79528Y71890D01*
X29528Y113878D02*
X37575D01*
X39508Y115811D01*
Y120669D01*
X43307Y48275D02*
X50492Y55460D01*
X43307Y45472D02*
Y48275D01*
X83943Y77475D02*
X89528Y71890D01*
X56208Y77475D02*
X83943D01*
X54508Y79175D02*
X56208Y77475D01*
X54508Y79175D02*
Y84055D01*
X50275Y22244D02*
X55118D01*
X49005Y20975D02*
X50275Y22244D01*
X42017Y20975D02*
X49005D01*
X24278Y113878D02*
X29528D01*
X18075Y107675D02*
X24278Y113878D01*
X8169Y107675D02*
X18075D01*
X8169D02*
Y111220D01*
X248032Y98268D02*
X252175Y102411D01*
Y157432D01*
X248032Y161575D02*
X252175Y157432D01*
X81175Y49508D02*
Y61319D01*
X84646D01*
X101181Y85827D02*
Y88976D01*
Y92126D01*
Y95276D01*
X214724Y186850D02*
Y196850D01*
X221675Y36496D02*
X225001Y33169D01*
X218504Y36496D02*
X221675D01*
X234224Y35118D02*
X238189D01*
X232275Y33169D02*
X234224Y35118D01*
X228346Y33169D02*
X232275D01*
X9528Y127633D02*
Y131890D01*
X8169Y126275D02*
X9528Y127633D01*
X8169Y122047D02*
Y126275D01*
Y111220D02*
Y122047D01*
X39508Y84055D02*
Y115811D01*
X62470Y5906D02*
X69587D01*
X62175Y6201D02*
X62470Y5906D01*
X55118Y6201D02*
X62175D01*
X55118Y13484D02*
Y22244D01*
X38386Y13464D02*
X39075Y12775D01*
Y6890D02*
Y12775D01*
X89567Y13976D02*
Y21358D01*
X101378Y13976D02*
Y21358D01*
X113189Y13976D02*
Y21358D01*
X204724Y186850D02*
Y196850D01*
X194724Y186850D02*
Y196850D01*
X76575Y11567D02*
Y16927D01*
X76083Y11075D02*
X76575Y11567D01*
X76083Y5906D02*
Y11075D01*
X99528Y127093D02*
Y131890D01*
X99410Y126975D02*
X99528Y127093D01*
X99410Y122342D02*
Y126975D01*
X109528Y127250D02*
Y131890D01*
X109252Y126975D02*
X109528Y127250D01*
X109252Y122343D02*
Y126975D01*
D14*
X9528Y131890D02*
D03*
X19528D02*
D03*
X29528D02*
D03*
X39528D02*
D03*
X49528D02*
D03*
X59528D02*
D03*
X69528D02*
D03*
X109528D02*
D03*
X9528Y71890D02*
D03*
X79528D02*
D03*
Y131890D02*
D03*
X139528D02*
D03*
X129528D02*
D03*
X119528D02*
D03*
X99528D02*
D03*
X89528D02*
D03*
X19528Y71890D02*
D03*
X29528D02*
D03*
X39528D02*
D03*
X49528D02*
D03*
X59528D02*
D03*
X69528D02*
D03*
X89528D02*
D03*
X99528D02*
D03*
X109528D02*
D03*
X119528D02*
D03*
X129528D02*
D03*
X139528D02*
D03*
D18*
X0Y10300D02*
X50Y9290D01*
X198Y8291D01*
X444Y7310D01*
X784Y6358D01*
X1216Y5445D01*
X1736Y4578D01*
X2338Y3766D01*
X3017Y3017D01*
X3766Y2338D01*
X4578Y1736D01*
X5445Y1216D01*
X6358Y784D01*
X7310Y444D01*
X8291Y198D01*
X9290Y50D01*
X10300Y0D01*
X245605D02*
X246615Y50D01*
X247615Y198D01*
X248595Y444D01*
X249547Y784D01*
X250461Y1216D01*
X251328Y1736D01*
X252140Y2338D01*
X252889Y3017D01*
X253568Y3766D01*
X254170Y4578D01*
X254689Y5445D01*
X255121Y6358D01*
X255462Y7310D01*
X255708Y8291D01*
X255856Y9290D01*
X255906Y10300D01*
Y194485D02*
X255856Y195495D01*
X255708Y196494D01*
X255462Y197475D01*
X255121Y198427D01*
X254689Y199340D01*
X254170Y200207D01*
X253568Y201019D01*
X252889Y201768D01*
X252140Y202447D01*
X251328Y203049D01*
X250461Y203569D01*
X249547Y204001D01*
X248595Y204342D01*
X247615Y204587D01*
X246615Y204735D01*
X245605Y204785D01*
X10300D02*
X9290Y204735D01*
X8291Y204587D01*
X7310Y204342D01*
X6358Y204001D01*
X5445Y203569D01*
X4578Y203049D01*
X3766Y202447D01*
X3017Y201768D01*
X2338Y201019D01*
X1736Y200207D01*
X1216Y199340D01*
X784Y198427D01*
X444Y197475D01*
X198Y196494D01*
X50Y195495D01*
X0Y194485D01*
Y10300D02*
Y91535D01*
X10300Y0D02*
X245606D01*
X255906Y10300D02*
Y194485D01*
X10300Y204785D02*
X245606D01*
X0Y91535D02*
Y194485D01*
D19*
X36417Y16775D02*
Y19488D01*
X35517Y15875D02*
X36417Y16775D01*
X24775Y29343D02*
Y39275D01*
Y29343D02*
X25575Y28543D01*
X27362D01*
X45675Y24606D02*
Y33675D01*
X43504Y24606D02*
X45675D01*
X22875D02*
X27362D01*
Y30512D02*
X29575D01*
Y33275D01*
X29475Y33375D02*
X29575Y33275D01*
X29475Y33375D02*
Y38075D01*
X27362Y32480D02*
Y39175D01*
X27375Y17275D02*
X34449D01*
Y19488D01*
X45775Y22638D02*
X52665Y29528D01*
X43504Y22638D02*
X45775D01*
X32480Y21575D02*
X35433Y24527D01*
X32480Y19488D02*
Y21575D01*
X38386Y13464D02*
Y19488D01*
X40354D01*
X197Y19685D02*
Y62992D01*
D20*
X5906Y36811D02*
D03*
Y45866D02*
D03*
D21*
X16437Y46457D02*
D03*
Y43898D02*
D03*
Y36220D02*
D03*
Y41339D02*
D03*
Y38780D02*
D03*
D22*
X62598Y58071D02*
D03*
X71260Y61811D02*
D03*
Y54331D02*
D03*
Y38583D02*
D03*
Y46063D02*
D03*
X62598Y42323D02*
D03*
D23*
X109252Y122343D02*
D03*
Y115846D02*
D03*
X84646Y54823D02*
D03*
Y61319D02*
D03*
Y43012D02*
D03*
Y49508D02*
D03*
X99410Y115846D02*
D03*
Y122342D02*
D03*
X98425Y43012D02*
D03*
Y49508D02*
D03*
X113189Y21358D02*
D03*
Y27854D02*
D03*
X101378Y21358D02*
D03*
Y27854D02*
D03*
X89567Y21358D02*
D03*
Y27854D02*
D03*
X98425Y54823D02*
D03*
Y61319D02*
D03*
X134842Y53839D02*
D03*
Y60335D02*
D03*
D24*
X134843Y44665D02*
D03*
D25*
Y8484D02*
D03*
D26*
X15453Y122047D02*
D03*
X8169D02*
D03*
X15453Y111220D02*
D03*
X8169D02*
D03*
X39075Y6890D02*
D03*
X31791D02*
D03*
D27*
X218504Y31496D02*
D03*
Y36496D02*
D03*
Y41496D02*
D03*
Y46496D02*
D03*
Y51496D02*
D03*
Y56496D02*
D03*
Y61496D02*
D03*
Y66496D02*
D03*
Y71496D02*
D03*
Y76496D02*
D03*
Y81496D02*
D03*
Y86496D02*
D03*
Y91496D02*
D03*
Y96496D02*
D03*
Y101496D02*
D03*
Y106496D02*
D03*
Y111496D02*
D03*
Y116496D02*
D03*
Y121496D02*
D03*
X151575D02*
D03*
Y116496D02*
D03*
Y111496D02*
D03*
Y106496D02*
D03*
Y101496D02*
D03*
Y96496D02*
D03*
Y91496D02*
D03*
Y86496D02*
D03*
Y81496D02*
D03*
Y76496D02*
D03*
Y71496D02*
D03*
Y66496D02*
D03*
Y61496D02*
D03*
Y56496D02*
D03*
Y51496D02*
D03*
Y46496D02*
D03*
Y41496D02*
D03*
Y36496D02*
D03*
Y31496D02*
D03*
D28*
X118898Y116929D02*
D03*
Y113780D02*
D03*
Y110630D02*
D03*
Y107480D02*
D03*
X125197Y116929D02*
D03*
Y113780D02*
D03*
Y110630D02*
D03*
Y107480D02*
D03*
X118898Y95276D02*
D03*
Y92126D02*
D03*
Y88976D02*
D03*
Y85827D02*
D03*
X125197Y95276D02*
D03*
Y92126D02*
D03*
Y88976D02*
D03*
Y85827D02*
D03*
X107480D02*
D03*
Y88976D02*
D03*
Y92126D02*
D03*
Y95276D02*
D03*
X101181Y85827D02*
D03*
Y88976D02*
D03*
Y92126D02*
D03*
Y95276D02*
D03*
D29*
X228347Y41634D02*
D03*
Y48917D02*
D03*
X228346Y27559D02*
D03*
Y34843D02*
D03*
X55118Y22244D02*
D03*
Y29528D02*
D03*
Y6201D02*
D03*
Y13484D02*
D03*
X29528Y106595D02*
D03*
Y113878D02*
D03*
D30*
X88287Y35433D02*
D03*
X94784D02*
D03*
X109941Y60039D02*
D03*
X116437D02*
D03*
X69587Y5906D02*
D03*
X76083D02*
D03*
X50492Y61024D02*
D03*
X43996D02*
D03*
X32776D02*
D03*
X26280D02*
D03*
D31*
X51181Y49213D02*
D03*
X43307Y45472D02*
D03*
Y52953D02*
D03*
X25591Y49213D02*
D03*
X33465Y52953D02*
D03*
Y45472D02*
D03*
D32*
X69094Y16927D02*
D03*
D33*
X72835D02*
D03*
X76575D02*
D03*
Y26380D02*
D03*
X69094D02*
D03*
D34*
X113189Y5709D02*
D03*
Y13976D02*
D03*
X101378Y5709D02*
D03*
Y13976D02*
D03*
X89567Y5709D02*
D03*
Y13976D02*
D03*
D35*
X30512Y19488D02*
D03*
X32480D02*
D03*
X34449D02*
D03*
X36417D02*
D03*
X38386D02*
D03*
X40354D02*
D03*
Y35630D02*
D03*
X38386D02*
D03*
X36417D02*
D03*
X34449D02*
D03*
X32480D02*
D03*
X30512D02*
D03*
D36*
X43504Y22638D02*
D03*
Y24606D02*
D03*
Y26575D02*
D03*
Y28543D02*
D03*
Y30512D02*
D03*
Y32480D02*
D03*
X27362D02*
D03*
Y30512D02*
D03*
Y28543D02*
D03*
Y26575D02*
D03*
Y24606D02*
D03*
Y22638D02*
D03*
D37*
X35433Y27559D02*
D03*
D38*
X39508Y84055D02*
D03*
X44508D02*
D03*
X49508D02*
D03*
X54508D02*
D03*
X59508D02*
D03*
X64508D02*
D03*
X69508D02*
D03*
X74508D02*
D03*
X79508D02*
D03*
X84508D02*
D03*
Y120669D02*
D03*
X79508D02*
D03*
X74508D02*
D03*
X69508D02*
D03*
X64508D02*
D03*
X59508D02*
D03*
X54508D02*
D03*
X49508D02*
D03*
X44508D02*
D03*
X39508D02*
D03*
D39*
X5906Y54675D02*
D03*
D40*
X5905Y28002D02*
D03*
D65*
X188976Y61024D02*
D03*
D66*
X5906Y57776D02*
D03*
Y24902D02*
D03*
D67*
X17717Y32579D02*
D03*
Y50098D02*
D03*
D68*
X248032Y161575D02*
D03*
X238032D02*
D03*
Y171575D02*
D03*
X248032D02*
D03*
Y181575D02*
D03*
X238032D02*
D03*
X214724Y186850D02*
D03*
X204724D02*
D03*
X194724Y196850D02*
D03*
X158898Y186850D02*
D03*
X148898D02*
D03*
X128898Y196850D02*
D03*
X118898D02*
D03*
Y186850D02*
D03*
X108898D02*
D03*
Y196850D02*
D03*
X98898D02*
D03*
Y186850D02*
D03*
X88898Y196850D02*
D03*
X78898Y186850D02*
D03*
Y196850D02*
D03*
X68898D02*
D03*
X58898Y186850D02*
D03*
X48898D02*
D03*
X38898Y196850D02*
D03*
X28898D02*
D03*
X248189Y35118D02*
D03*
X238189Y45118D02*
D03*
X248189Y55118D02*
D03*
Y65118D02*
D03*
Y75118D02*
D03*
X248032Y98268D02*
D03*
X238032D02*
D03*
X248032Y108268D02*
D03*
X238032D02*
D03*
X248032Y118268D02*
D03*
X238032Y128268D02*
D03*
Y138268D02*
D03*
X113189Y48386D02*
D03*
X37402Y159449D02*
D03*
X216535D02*
D03*
Y149606D02*
D03*
X28898Y186850D02*
D03*
X38898D02*
D03*
X48898Y196850D02*
D03*
X58898D02*
D03*
X68898Y186850D02*
D03*
X88898D02*
D03*
X128898D02*
D03*
X138898D02*
D03*
Y196850D02*
D03*
X148898D02*
D03*
X158898D02*
D03*
X168898Y186850D02*
D03*
Y196850D02*
D03*
X178898Y186850D02*
D03*
X238032Y151575D02*
D03*
X194724Y186850D02*
D03*
X204724Y196850D02*
D03*
X214724D02*
D03*
X224724Y186850D02*
D03*
X190945Y159449D02*
D03*
Y149606D02*
D03*
X165354Y159449D02*
D03*
Y149606D02*
D03*
X238189Y25118D02*
D03*
Y35118D02*
D03*
X248189Y45118D02*
D03*
X238189Y55118D02*
D03*
Y65118D02*
D03*
Y75118D02*
D03*
X238032Y88268D02*
D03*
Y118268D02*
D03*
X248032Y128268D02*
D03*
Y138268D02*
D03*
X37402Y149606D02*
D03*
X62992D02*
D03*
Y159449D02*
D03*
X88583Y149606D02*
D03*
Y159449D02*
D03*
X114173Y149606D02*
D03*
Y159449D02*
D03*
X139764Y149606D02*
D03*
Y159449D02*
D03*
D69*
X11811Y171260D02*
D03*
D70*
X216535Y169291D02*
D03*
X113189Y38386D02*
D03*
X248032Y151575D02*
D03*
X190945Y169291D02*
D03*
X165354D02*
D03*
X248189Y25118D02*
D03*
X248032Y88268D02*
D03*
X37402Y169291D02*
D03*
X62992D02*
D03*
X88583D02*
D03*
X114173D02*
D03*
X139764D02*
D03*
D71*
X178898Y196850D02*
D03*
X224724D02*
D03*
D72*
X11811Y151575D02*
D03*
X246063Y9843D02*
D03*
Y194882D02*
D03*
X9843D02*
D03*
Y9843D02*
D03*
D73*
X61680Y19028D02*
D03*
X119095Y52165D02*
D03*
X252953Y179134D02*
D03*
Y37402D02*
D03*
X247047Y143701D02*
D03*
X241142Y167323D02*
D03*
Y143701D02*
D03*
X235236Y13780D02*
D03*
X232283Y7874D02*
D03*
X229331Y13780D02*
D03*
X226378Y7874D02*
D03*
X223425Y167323D02*
D03*
X202756Y173228D02*
D03*
Y90551D02*
D03*
X199803Y167323D02*
D03*
Y96457D02*
D03*
X196850Y90551D02*
D03*
X193897Y96457D02*
D03*
X190945Y90551D02*
D03*
X187992Y96457D02*
D03*
X179134Y173228D02*
D03*
X182087Y96457D02*
D03*
X179134Y90551D02*
D03*
X173228Y173228D02*
D03*
X176181Y96457D02*
D03*
X173228Y90551D02*
D03*
X176181Y72835D02*
D03*
Y49213D02*
D03*
X170275Y96457D02*
D03*
X164370D02*
D03*
X155512Y173228D02*
D03*
X158465Y96457D02*
D03*
X149606Y173228D02*
D03*
X143701Y19685D02*
D03*
Y7874D02*
D03*
X140748Y25591D02*
D03*
X137795Y19685D02*
D03*
X140748Y13780D02*
D03*
X131890Y19685D02*
D03*
X128937Y37402D02*
D03*
Y13780D02*
D03*
X125984Y7874D02*
D03*
X123031Y37402D02*
D03*
Y25591D02*
D03*
X120079Y19685D02*
D03*
Y7874D02*
D03*
X108268Y173228D02*
D03*
X96457Y90551D02*
D03*
X90551D02*
D03*
X84646Y7874D02*
D03*
X78740Y173228D02*
D03*
X81693Y13780D02*
D03*
X69882Y179134D02*
D03*
X63976Y13780D02*
D03*
X55118Y149606D02*
D03*
X52165Y143701D02*
D03*
X49213Y102362D02*
D03*
X43307Y173228D02*
D03*
Y114173D02*
D03*
Y102362D02*
D03*
X46260Y96457D02*
D03*
Y13780D02*
D03*
X43307Y7874D02*
D03*
X28543Y96457D02*
D03*
Y84646D02*
D03*
X25591Y7874D02*
D03*
X19685Y196850D02*
D03*
X22638Y120079D02*
D03*
Y108268D02*
D03*
X19685Y102362D02*
D03*
X22638Y96457D02*
D03*
Y13780D02*
D03*
X19685Y7874D02*
D03*
X13780Y185039D02*
D03*
Y19685D02*
D03*
X7874Y185039D02*
D03*
Y19685D02*
D03*
X60775Y29528D02*
D03*
X101475Y35875D02*
D03*
X62575Y23275D02*
D03*
X75175Y91875D02*
D03*
X130676Y87475D02*
D03*
X129475Y114580D02*
D03*
X132475Y110575D02*
D03*
X69675Y89975D02*
D03*
X205575Y130975D02*
D03*
X197075Y127675D02*
D03*
X176375Y126575D02*
D03*
X164875Y45118D02*
D03*
X227175Y94296D02*
D03*
X224275Y61175D02*
D03*
X26929Y137220D02*
D03*
X145675Y106475D02*
D03*
X224396Y71496D02*
D03*
X138975Y101875D02*
D03*
X23875Y128475D02*
D03*
X198975Y194275D02*
D03*
X224375Y86475D02*
D03*
X102175Y82675D02*
D03*
X141675Y125375D02*
D03*
X195175Y137775D02*
D03*
X138875Y57075D02*
D03*
X170775Y37875D02*
D03*
X157475Y49275D02*
D03*
X115245Y79375D02*
D03*
X167575Y55075D02*
D03*
X171375Y73775D02*
D03*
X144975Y87975D02*
D03*
X55475Y52475D02*
D03*
X211475Y41375D02*
D03*
X83675Y37375D02*
D03*
X98575Y103375D02*
D03*
X49508Y108809D02*
D03*
X58875Y97475D02*
D03*
X85575Y100675D02*
D03*
X93875Y46075D02*
D03*
X26475Y53175D02*
D03*
X57375Y41575D02*
D03*
X79175Y33875D02*
D03*
X47475D02*
D03*
X224475Y114375D02*
D03*
X113875Y115875D02*
D03*
X133826Y92126D02*
D03*
X154775Y145075D02*
D03*
X125075Y104675D02*
D03*
X60708Y126542D02*
D03*
X104075Y116475D02*
D03*
X230175Y98375D02*
D03*
X38475Y61575D02*
D03*
X28775Y46075D02*
D03*
X105375Y44175D02*
D03*
X15275Y78975D02*
D03*
X144475Y76075D02*
D03*
X67235Y100168D02*
D03*
X106475Y82875D02*
D03*
X37037Y49213D02*
D03*
X137475Y80815D02*
D03*
X225875Y79275D02*
D03*
X140375Y41375D02*
D03*
X78675Y44175D02*
D03*
X66575Y54375D02*
D03*
X52575Y127675D02*
D03*
X208975Y191075D02*
D03*
X224375Y64875D02*
D03*
X231375Y176575D02*
D03*
D74*
X33268Y25394D02*
D03*
Y29724D02*
D03*
X37598Y25394D02*
D03*
Y29724D02*
D03*
M02*
