G04*
G04 #@! TF.GenerationSoftware,Altium Limited,Altium Designer,21.3.2 (30)*
G04*
G04 Layer_Physical_Order=4*
G04 Layer_Color=16711680*
%FSLAX25Y25*%
%MOIN*%
G70*
G04*
G04 #@! TF.SameCoordinates,4FB7CEAD-E32D-458C-9978-29DB153300B6*
G04*
G04*
G04 #@! TF.FilePolarity,Positive*
G04*
G01*
G75*
%ADD11C,0.00787*%
%ADD14C,0.06024*%
%ADD18C,0.01000*%
%ADD19C,0.00394*%
%ADD29R,0.05512X0.03740*%
%ADD66O,0.07480X0.04724*%
%ADD67O,0.04921X0.04134*%
%ADD68C,0.05906*%
G04:AMPARAMS|DCode=69|XSize=137.8mil|YSize=137.8mil|CornerRadius=17.22mil|HoleSize=0mil|Usage=FLASHONLY|Rotation=90.000|XOffset=0mil|YOffset=0mil|HoleType=Round|Shape=RoundedRectangle|*
%AMROUNDEDRECTD69*
21,1,0.13780,0.10335,0,0,90.0*
21,1,0.10335,0.13780,0,0,90.0*
1,1,0.03445,0.05167,0.05167*
1,1,0.03445,0.05167,-0.05167*
1,1,0.03445,-0.05167,-0.05167*
1,1,0.03445,-0.05167,0.05167*
%
%ADD69ROUNDEDRECTD69*%
%ADD70R,0.05906X0.05906*%
%ADD71R,0.05906X0.05906*%
%ADD72C,0.13780*%
%ADD73C,0.02953*%
%ADD74C,0.01968*%
G36*
X246811Y203922D02*
X248588Y203568D01*
X250262Y202875D01*
X251768Y201868D01*
X253049Y200587D01*
X254056Y199081D01*
X254749Y197407D01*
X255103Y195630D01*
X255103Y194724D01*
X255103Y10000D01*
X255103Y9094D01*
X254749Y7317D01*
X254056Y5644D01*
X253049Y4137D01*
X251768Y2856D01*
X250262Y1850D01*
X248588Y1156D01*
X246811Y803D01*
X245905Y803D01*
X224342D01*
Y27008D01*
X224281Y27315D01*
X224107Y27576D01*
X223847Y27750D01*
X223539Y27811D01*
X147039D01*
X146732Y27750D01*
X146472Y27576D01*
X146298Y27315D01*
X146237Y27008D01*
Y803D01*
X19685Y803D01*
X9094D01*
X7317Y1156D01*
X5644Y1850D01*
X4137Y2856D01*
X2856Y4137D01*
X1850Y5644D01*
X1156Y7317D01*
X803Y9094D01*
Y10000D01*
Y23802D01*
X1303Y23901D01*
X1591Y23206D01*
X2130Y22504D01*
X2832Y21965D01*
X3650Y21626D01*
X4528Y21510D01*
X4906D01*
Y24902D01*
Y28293D01*
X4528D01*
X3650Y28177D01*
X2832Y27839D01*
X2130Y27299D01*
X1591Y26597D01*
X1303Y25902D01*
X803Y26001D01*
Y56676D01*
X1303Y56775D01*
X1591Y56080D01*
X2130Y55378D01*
X2832Y54839D01*
X3650Y54500D01*
X4528Y54384D01*
X4906D01*
Y57776D01*
Y61167D01*
X4528D01*
X3650Y61051D01*
X2832Y60712D01*
X2130Y60174D01*
X1591Y59471D01*
X1303Y58776D01*
X803Y58875D01*
Y164854D01*
X803Y165354D01*
X855D01*
X4003D01*
X4266Y164719D01*
X4702Y164151D01*
X4810Y164068D01*
Y154734D01*
X4429Y153814D01*
X4134Y152331D01*
Y150819D01*
X4429Y149335D01*
X4810Y148416D01*
Y139817D01*
X19207Y139766D01*
X19685Y139764D01*
X19685Y139764D01*
X19685Y139764D01*
X19685Y139764D01*
X20071Y139783D01*
X20177Y139804D01*
X20828Y139933D01*
X21541Y140229D01*
X22183Y140657D01*
X22729Y141203D01*
X23157Y141845D01*
X23453Y142558D01*
X23582Y143208D01*
X23587Y143233D01*
X23587Y143233D01*
X23603Y143315D01*
X23622Y143700D01*
X23622Y143700D01*
X23622Y143701D01*
X23622Y143701D01*
X23622Y144162D01*
X23622Y144670D01*
X24000Y146572D01*
X24742Y148363D01*
X25819Y149975D01*
X27190Y151346D01*
X28802Y152423D01*
X30593Y153165D01*
X32495Y153543D01*
X33465Y153543D01*
X35788D01*
X35859Y153355D01*
X35874Y153043D01*
X35105Y152599D01*
X34409Y151903D01*
X33916Y151050D01*
X33661Y150099D01*
Y149114D01*
X33916Y148163D01*
X34409Y147310D01*
X35105Y146614D01*
X35958Y146121D01*
X36909Y145866D01*
X37894D01*
X38845Y146121D01*
X39698Y146614D01*
X40394Y147310D01*
X40887Y148163D01*
X41142Y149114D01*
Y150099D01*
X40887Y151050D01*
X40394Y151903D01*
X39698Y152599D01*
X38929Y153043D01*
X38945Y153355D01*
X39015Y153543D01*
X61378D01*
X61449Y153355D01*
X61465Y153043D01*
X60696Y152599D01*
X59999Y151903D01*
X59507Y151050D01*
X59252Y150099D01*
Y149114D01*
X59507Y148163D01*
X59999Y147310D01*
X60696Y146614D01*
X61549Y146121D01*
X62500Y145866D01*
X63485D01*
X64436Y146121D01*
X65289Y146614D01*
X65985Y147310D01*
X66478Y148163D01*
X66732Y149114D01*
Y150099D01*
X66478Y151050D01*
X65985Y151903D01*
X65289Y152599D01*
X64520Y153043D01*
X64535Y153355D01*
X64606Y153543D01*
X86969Y153543D01*
X87040Y153355D01*
X87055Y153043D01*
X86286Y152599D01*
X85590Y151903D01*
X85097Y151050D01*
X84842Y150099D01*
Y149114D01*
X85097Y148163D01*
X85221Y147948D01*
X84423Y147150D01*
X84162Y146759D01*
X84071Y146299D01*
X84071Y146299D01*
Y129575D01*
X84071Y129575D01*
X84162Y129114D01*
X84423Y128723D01*
X87623Y125523D01*
X87623Y125523D01*
X88014Y125262D01*
X88475Y125171D01*
X117181D01*
X127243Y115108D01*
X127211Y115030D01*
Y114349D01*
X126711Y114142D01*
X126527Y114326D01*
X126136Y114587D01*
X125675Y114679D01*
X125675Y114679D01*
X116280D01*
X116002Y115095D01*
X116139Y115425D01*
Y116325D01*
X115794Y117157D01*
X115157Y117794D01*
X114325Y118139D01*
X113425D01*
X112592Y117794D01*
X111956Y117157D01*
X111611Y116325D01*
Y115425D01*
X111748Y115095D01*
X111470Y114679D01*
X107574D01*
X106306Y115946D01*
X106339Y116024D01*
Y116925D01*
X105994Y117757D01*
X105357Y118394D01*
X104525Y118739D01*
X103624D01*
X102793Y118394D01*
X102156Y117757D01*
X101811Y116925D01*
Y116024D01*
X102156Y115192D01*
X102793Y114556D01*
X103624Y114211D01*
X104525D01*
X104603Y114243D01*
X105706Y113141D01*
X105514Y112679D01*
X80674D01*
X76062Y117290D01*
Y129376D01*
X76562Y129482D01*
X77195Y128850D01*
X78061Y128349D01*
X79027Y128091D01*
X80028D01*
X80994Y128349D01*
X81860Y128850D01*
X82568Y129557D01*
X83068Y130423D01*
X83327Y131390D01*
Y132390D01*
X83068Y133356D01*
X82568Y134223D01*
X81860Y134930D01*
X80994Y135430D01*
X80028Y135689D01*
X79027D01*
X78061Y135430D01*
X77195Y134930D01*
X76487Y134223D01*
X76436Y134133D01*
X76359Y134111D01*
X75868Y134151D01*
X75709Y134388D01*
X72026Y138072D01*
X71636Y138333D01*
X71175Y138425D01*
X71175Y138424D01*
X28881D01*
X28848Y138503D01*
X28212Y139139D01*
X27380Y139484D01*
X26479D01*
X25647Y139139D01*
X25010Y138503D01*
X24666Y137671D01*
Y136770D01*
X25010Y135938D01*
X25647Y135301D01*
X26479Y134956D01*
X26514D01*
X26721Y134456D01*
X26487Y134223D01*
X25987Y133356D01*
X25728Y132390D01*
Y131390D01*
X25987Y130423D01*
X26487Y129557D01*
X27195Y128850D01*
X28061Y128349D01*
X29027Y128091D01*
X30028D01*
X30994Y128349D01*
X31860Y128850D01*
X32568Y129557D01*
X33068Y130423D01*
X33327Y131390D01*
Y132390D01*
X33068Y133356D01*
X32568Y134223D01*
X31860Y134930D01*
X30994Y135430D01*
X30674Y135516D01*
X30739Y136016D01*
X38316D01*
X38382Y135516D01*
X38061Y135430D01*
X37195Y134930D01*
X36487Y134223D01*
X35987Y133356D01*
X35728Y132390D01*
Y131390D01*
X35987Y130423D01*
X36487Y129557D01*
X37195Y128850D01*
X38061Y128349D01*
X39027Y128091D01*
X40028D01*
X40994Y128349D01*
X41860Y128850D01*
X42568Y129557D01*
X43068Y130423D01*
X43327Y131390D01*
Y132390D01*
X43068Y133356D01*
X42568Y134223D01*
X41860Y134930D01*
X40994Y135430D01*
X40674Y135516D01*
X40739Y136016D01*
X48316D01*
X48382Y135516D01*
X48061Y135430D01*
X47195Y134930D01*
X46488Y134223D01*
X45987Y133356D01*
X45728Y132390D01*
Y131390D01*
X45987Y130423D01*
X46488Y129557D01*
X47195Y128850D01*
X48061Y128349D01*
X49027Y128091D01*
X50028D01*
X50311Y127649D01*
Y127225D01*
X50656Y126392D01*
X51293Y125756D01*
X52125Y125411D01*
X53025D01*
X53857Y125756D01*
X54494Y126392D01*
X54839Y127225D01*
Y128125D01*
X54494Y128957D01*
X53857Y129594D01*
X53300Y129825D01*
X53055Y130401D01*
X53068Y130423D01*
X53327Y131390D01*
Y132390D01*
X53068Y133356D01*
X52568Y134223D01*
X51860Y134930D01*
X50994Y135430D01*
X50674Y135516D01*
X50739Y136016D01*
X58316D01*
X58382Y135516D01*
X58061Y135430D01*
X57195Y134930D01*
X56488Y134223D01*
X55987Y133356D01*
X55728Y132390D01*
Y131390D01*
X55987Y130423D01*
X56488Y129557D01*
X57195Y128850D01*
X58061Y128349D01*
X58492Y128234D01*
X58562Y128137D01*
X58719Y127656D01*
X58444Y126992D01*
Y126092D01*
X58789Y125259D01*
X59425Y124623D01*
X60258Y124278D01*
X61158D01*
X61236Y124310D01*
X78135Y107411D01*
X77944Y106949D01*
X51503D01*
X51312Y107411D01*
X51427Y107527D01*
X51772Y108359D01*
Y109259D01*
X51427Y110091D01*
X50790Y110728D01*
X49958Y111073D01*
X49057D01*
X48226Y110728D01*
X47589Y110091D01*
X47244Y109259D01*
Y108359D01*
X47589Y107527D01*
X47392Y107040D01*
X47051Y107002D01*
X26106Y127946D01*
X26139Y128024D01*
Y128925D01*
X25794Y129757D01*
X25157Y130394D01*
X24325Y130739D01*
X23890D01*
X23774Y130890D01*
X20528D01*
Y128004D01*
X21076Y128151D01*
X21149Y128193D01*
X21658Y127910D01*
X21956Y127192D01*
X22592Y126556D01*
X23425Y126211D01*
X24325D01*
X24403Y126243D01*
X45753Y104894D01*
X46144Y104632D01*
X46605Y104541D01*
X96157D01*
X96435Y104125D01*
X96311Y103825D01*
Y102925D01*
X96656Y102093D01*
X97293Y101456D01*
X98124Y101111D01*
X99025D01*
X99857Y101456D01*
X100494Y102093D01*
X100839Y102925D01*
Y103825D01*
X100714Y104125D01*
X100992Y104541D01*
X103245D01*
X106762Y101023D01*
X107153Y100762D01*
X107614Y100671D01*
X107614Y100671D01*
X137023D01*
X137056Y100593D01*
X137692Y99956D01*
X138524Y99611D01*
X139425D01*
X140257Y99956D01*
X140894Y100593D01*
X141239Y101425D01*
Y102325D01*
X140894Y103157D01*
X140257Y103794D01*
X139425Y104139D01*
X138524D01*
X137692Y103794D01*
X137056Y103157D01*
X137023Y103079D01*
X127334D01*
X127071Y103579D01*
X127339Y104225D01*
Y105125D01*
X127436Y105271D01*
X143723D01*
X143756Y105192D01*
X144393Y104556D01*
X145224Y104211D01*
X146125D01*
X146957Y104556D01*
X147594Y105192D01*
X147939Y106025D01*
Y106925D01*
X147671Y107571D01*
X147934Y108071D01*
X207576D01*
X225323Y90323D01*
X225323Y90323D01*
X225714Y90062D01*
X226175Y89971D01*
X226175Y89971D01*
X227775D01*
X227775Y89971D01*
X228236Y90062D01*
X228626Y90323D01*
X231026Y92723D01*
X231026Y92723D01*
X231287Y93114D01*
X231379Y93575D01*
Y96423D01*
X231457Y96456D01*
X232094Y97092D01*
X232171Y97277D01*
X232671Y97178D01*
Y81474D01*
X224924Y73727D01*
X224846Y73760D01*
X223946D01*
X223114Y73415D01*
X222477Y72778D01*
X222132Y71946D01*
Y71046D01*
X222450Y70279D01*
X222258Y69779D01*
X164775D01*
X164775Y69779D01*
X164314Y69687D01*
X163923Y69426D01*
X158376Y63879D01*
X139241D01*
X132932Y70188D01*
X133068Y70423D01*
X133327Y71390D01*
Y72390D01*
X133068Y73356D01*
X132568Y74223D01*
X131860Y74930D01*
X130994Y75430D01*
X130028Y75689D01*
X129027D01*
X128061Y75430D01*
X127195Y74930D01*
X126488Y74223D01*
X125987Y73356D01*
X125728Y72390D01*
Y71390D01*
X125987Y70423D01*
X126488Y69557D01*
X127195Y68850D01*
X128061Y68349D01*
X129027Y68091D01*
X130028D01*
X130994Y68349D01*
X131229Y68485D01*
X137891Y61823D01*
X137891Y61823D01*
X138282Y61562D01*
X138743Y61471D01*
X138743Y61471D01*
X158875D01*
X158875Y61471D01*
X159336Y61562D01*
X159726Y61823D01*
X165274Y67371D01*
X223178D01*
X223277Y66871D01*
X223093Y66794D01*
X222456Y66157D01*
X222111Y65325D01*
Y64425D01*
X222456Y63592D01*
X222973Y63075D01*
X222356Y62457D01*
X222011Y61625D01*
Y60725D01*
X222356Y59892D01*
X222992Y59256D01*
X223825Y58911D01*
X224725D01*
X225557Y59256D01*
X226194Y59892D01*
X226539Y60725D01*
Y61625D01*
X226194Y62457D01*
X225676Y62975D01*
X226294Y63592D01*
X226639Y64425D01*
Y65325D01*
X226294Y66157D01*
X225657Y66794D01*
X225424Y66890D01*
X225475Y67410D01*
X225736Y67462D01*
X226126Y67723D01*
X233949Y75546D01*
X234449Y75339D01*
Y74626D01*
X234704Y73675D01*
X235196Y72822D01*
X235893Y72125D01*
X236745Y71633D01*
X237697Y71378D01*
X238681D01*
X239633Y71633D01*
X240486Y72125D01*
X241182Y72822D01*
X241674Y73675D01*
X241929Y74626D01*
Y75611D01*
X241674Y76562D01*
X241182Y77415D01*
X240486Y78111D01*
X239633Y78604D01*
X238681Y78858D01*
X237968D01*
X237761Y79358D01*
X243617Y85214D01*
X244079Y85022D01*
Y84315D01*
X247032D01*
Y88268D01*
Y92221D01*
X245079D01*
Y95278D01*
X245541Y95469D01*
X245735Y95275D01*
X246588Y94783D01*
X247539Y94528D01*
X248524D01*
X249475Y94783D01*
X250328Y95275D01*
X251025Y95971D01*
X251517Y96824D01*
X251772Y97775D01*
Y98760D01*
X251517Y99711D01*
X251025Y100564D01*
X250328Y101261D01*
X249475Y101753D01*
X248524Y102008D01*
X247539D01*
X246588Y101753D01*
X245735Y101261D01*
X245541Y101067D01*
X245079Y101258D01*
Y105278D01*
X245541Y105469D01*
X245735Y105275D01*
X246588Y104782D01*
X247539Y104528D01*
X248524D01*
X249475Y104782D01*
X250328Y105275D01*
X251025Y105971D01*
X251517Y106824D01*
X251772Y107775D01*
Y108760D01*
X251517Y109711D01*
X251025Y110564D01*
X250328Y111261D01*
X249475Y111753D01*
X248524Y112008D01*
X247539D01*
X246588Y111753D01*
X245735Y111261D01*
X245541Y111066D01*
X245079Y111258D01*
Y115278D01*
X245541Y115469D01*
X245735Y115275D01*
X246588Y114783D01*
X247539Y114528D01*
X248524D01*
X249475Y114783D01*
X250328Y115275D01*
X251025Y115971D01*
X251517Y116824D01*
X251772Y117775D01*
Y118760D01*
X251517Y119711D01*
X251025Y120564D01*
X250328Y121261D01*
X249475Y121753D01*
X248524Y122008D01*
X247539D01*
X246588Y121753D01*
X245735Y121261D01*
X245541Y121066D01*
X245079Y121258D01*
Y123612D01*
X246373Y124907D01*
X246588Y124783D01*
X247539Y124528D01*
X248524D01*
X249475Y124783D01*
X250328Y125275D01*
X251025Y125971D01*
X251517Y126824D01*
X251772Y127775D01*
Y128760D01*
X251517Y129711D01*
X251025Y130564D01*
X250328Y131261D01*
X249475Y131753D01*
X248524Y132008D01*
X247539D01*
X246588Y131753D01*
X245735Y131261D01*
X245039Y130564D01*
X244546Y129711D01*
X244291Y128760D01*
Y127775D01*
X244546Y126824D01*
X244670Y126610D01*
X243023Y124962D01*
X242762Y124572D01*
X242671Y124111D01*
X242671Y124111D01*
Y87840D01*
X242459Y87684D01*
X242457Y87685D01*
X241984Y87956D01*
Y88788D01*
X241715Y89793D01*
X241195Y90695D01*
X240459Y91431D01*
X239557Y91951D01*
X239032Y92092D01*
Y88268D01*
X237032D01*
Y92092D01*
X236506Y91951D01*
X235605Y91431D01*
X235541Y91367D01*
X235079Y91559D01*
Y95278D01*
X235541Y95469D01*
X235735Y95275D01*
X236588Y94783D01*
X237539Y94528D01*
X238524D01*
X239475Y94783D01*
X240328Y95275D01*
X241024Y95971D01*
X241517Y96824D01*
X241772Y97775D01*
Y98760D01*
X241517Y99711D01*
X241024Y100564D01*
X240328Y101261D01*
X239475Y101753D01*
X238524Y102008D01*
X237539D01*
X236588Y101753D01*
X235735Y101261D01*
X235541Y101067D01*
X235079Y101258D01*
Y105278D01*
X235541Y105469D01*
X235735Y105275D01*
X236588Y104782D01*
X237539Y104528D01*
X238524D01*
X239475Y104782D01*
X240328Y105275D01*
X241024Y105971D01*
X241517Y106824D01*
X241772Y107775D01*
Y108760D01*
X241517Y109711D01*
X241024Y110564D01*
X240328Y111261D01*
X239475Y111753D01*
X238524Y112008D01*
X237539D01*
X236588Y111753D01*
X235735Y111261D01*
X235541Y111066D01*
X235079Y111258D01*
Y115278D01*
X235541Y115469D01*
X235735Y115275D01*
X236588Y114783D01*
X237539Y114528D01*
X238524D01*
X239475Y114783D01*
X240328Y115275D01*
X241024Y115971D01*
X241517Y116824D01*
X241772Y117775D01*
Y118760D01*
X241517Y119711D01*
X241024Y120564D01*
X240328Y121261D01*
X239475Y121753D01*
X238524Y122008D01*
X237539D01*
X236588Y121753D01*
X235735Y121261D01*
X235541Y121066D01*
X235079Y121258D01*
Y125278D01*
X235541Y125469D01*
X235735Y125275D01*
X236588Y124783D01*
X237539Y124528D01*
X238524D01*
X239475Y124783D01*
X240328Y125275D01*
X241024Y125971D01*
X241517Y126824D01*
X241772Y127775D01*
Y128760D01*
X241517Y129711D01*
X241024Y130564D01*
X240328Y131261D01*
X239475Y131753D01*
X238524Y132008D01*
X237539D01*
X236588Y131753D01*
X235735Y131261D01*
X235541Y131067D01*
X235079Y131258D01*
Y135278D01*
X235541Y135469D01*
X235735Y135275D01*
X236588Y134783D01*
X237539Y134528D01*
X238524D01*
X239475Y134783D01*
X240328Y135275D01*
X241024Y135971D01*
X241517Y136824D01*
X241772Y137775D01*
Y138760D01*
X241517Y139711D01*
X241024Y140564D01*
X240328Y141261D01*
X239475Y141753D01*
X238524Y142008D01*
X237539D01*
X236588Y141753D01*
X235735Y141261D01*
X235541Y141067D01*
X235079Y141258D01*
Y148284D01*
X235541Y148475D01*
X235605Y148412D01*
X236506Y147891D01*
X237032Y147751D01*
Y151575D01*
Y155399D01*
X236506Y155258D01*
X235605Y154738D01*
X235541Y154674D01*
X235079Y154866D01*
Y158585D01*
X235541Y158776D01*
X235735Y158582D01*
X236588Y158089D01*
X237539Y157835D01*
X238524D01*
X239475Y158089D01*
X240328Y158582D01*
X241024Y159278D01*
X241517Y160131D01*
X241772Y161082D01*
Y162067D01*
X241517Y163018D01*
X241024Y163871D01*
X240328Y164568D01*
X239475Y165060D01*
X238524Y165315D01*
X237539D01*
X236588Y165060D01*
X235735Y164568D01*
X235541Y164374D01*
X235079Y164565D01*
Y168585D01*
X235541Y168776D01*
X235735Y168582D01*
X236588Y168089D01*
X237539Y167835D01*
X238524D01*
X239475Y168089D01*
X240328Y168582D01*
X241024Y169278D01*
X241517Y170131D01*
X241772Y171082D01*
Y172067D01*
X241517Y173018D01*
X241024Y173871D01*
X240328Y174568D01*
X239475Y175060D01*
X238524Y175315D01*
X237539D01*
X236588Y175060D01*
X235735Y174568D01*
X235541Y174373D01*
X235079Y174565D01*
Y178585D01*
X235541Y178776D01*
X235735Y178582D01*
X236588Y178089D01*
X237539Y177835D01*
X238524D01*
X239475Y178089D01*
X240328Y178582D01*
X241024Y179278D01*
X241517Y180131D01*
X241772Y181082D01*
Y182067D01*
X241517Y183018D01*
X241024Y183871D01*
X240328Y184568D01*
X239475Y185060D01*
X238524Y185315D01*
X237539D01*
X236588Y185060D01*
X235735Y184568D01*
X235541Y184373D01*
X235079Y184565D01*
Y196275D01*
X235079Y196275D01*
X234987Y196736D01*
X234726Y197126D01*
X234726Y197126D01*
X229726Y202126D01*
X229336Y202387D01*
X228875Y202479D01*
X228875Y202479D01*
X193175D01*
X193175Y202479D01*
X192714Y202387D01*
X192323Y202126D01*
X192323Y202126D01*
X184076Y193879D01*
X182850D01*
Y195850D01*
X178898D01*
X174945D01*
Y193879D01*
X172170D01*
X171978Y194341D01*
X172061Y194423D01*
X172581Y195325D01*
X172722Y195850D01*
X168898D01*
X165073D01*
X165214Y195325D01*
X165735Y194423D01*
X165817Y194341D01*
X165626Y193879D01*
X162170D01*
X161978Y194341D01*
X162061Y194423D01*
X162581Y195325D01*
X162722Y195850D01*
X158898D01*
X155073D01*
X155214Y195325D01*
X155735Y194423D01*
X155817Y194341D01*
X155626Y193879D01*
X152170D01*
X151978Y194341D01*
X152061Y194423D01*
X152581Y195325D01*
X152722Y195850D01*
X148898D01*
X145073D01*
X145214Y195325D01*
X145735Y194423D01*
X145817Y194341D01*
X145626Y193879D01*
X142170D01*
X141978Y194341D01*
X142061Y194423D01*
X142581Y195325D01*
X142722Y195850D01*
X138898D01*
X135073D01*
X135214Y195325D01*
X135735Y194423D01*
X135817Y194341D01*
X135626Y193879D01*
X131869D01*
X131677Y194341D01*
X131890Y194554D01*
X132383Y195407D01*
X132638Y196358D01*
Y197343D01*
X132383Y198294D01*
X131890Y199147D01*
X131194Y199843D01*
X130341Y200336D01*
X129390Y200591D01*
X128405D01*
X127454Y200336D01*
X126601Y199843D01*
X125905Y199147D01*
X125412Y198294D01*
X125157Y197343D01*
Y196358D01*
X125412Y195407D01*
X125905Y194554D01*
X126118Y194341D01*
X125926Y193879D01*
X121869D01*
X121677Y194341D01*
X121890Y194554D01*
X122383Y195407D01*
X122638Y196358D01*
Y197343D01*
X122383Y198294D01*
X121890Y199147D01*
X121194Y199843D01*
X120341Y200336D01*
X119390Y200591D01*
X118405D01*
X117454Y200336D01*
X116601Y199843D01*
X115905Y199147D01*
X115412Y198294D01*
X115157Y197343D01*
Y196358D01*
X115412Y195407D01*
X115905Y194554D01*
X116118Y194341D01*
X115926Y193879D01*
X111869D01*
X111678Y194341D01*
X111890Y194554D01*
X112383Y195407D01*
X112638Y196358D01*
Y197343D01*
X112383Y198294D01*
X111890Y199147D01*
X111194Y199843D01*
X110341Y200336D01*
X109390Y200591D01*
X108405D01*
X107454Y200336D01*
X106601Y199843D01*
X105905Y199147D01*
X105412Y198294D01*
X105157Y197343D01*
Y196358D01*
X105412Y195407D01*
X105905Y194554D01*
X106118Y194341D01*
X105926Y193879D01*
X101869D01*
X101678Y194341D01*
X101891Y194554D01*
X102383Y195407D01*
X102638Y196358D01*
Y197343D01*
X102383Y198294D01*
X101891Y199147D01*
X101194Y199843D01*
X100341Y200336D01*
X99390Y200591D01*
X98405D01*
X97454Y200336D01*
X96601Y199843D01*
X95905Y199147D01*
X95412Y198294D01*
X95157Y197343D01*
Y196358D01*
X95412Y195407D01*
X95905Y194554D01*
X96118Y194341D01*
X95926Y193879D01*
X91869D01*
X91677Y194341D01*
X91891Y194554D01*
X92383Y195407D01*
X92638Y196358D01*
Y197343D01*
X92383Y198294D01*
X91891Y199147D01*
X91194Y199843D01*
X90341Y200336D01*
X89390Y200591D01*
X88405D01*
X87454Y200336D01*
X86601Y199843D01*
X85905Y199147D01*
X85412Y198294D01*
X85157Y197343D01*
Y196358D01*
X85412Y195407D01*
X85905Y194554D01*
X86118Y194341D01*
X85926Y193879D01*
X81869D01*
X81678Y194341D01*
X81890Y194554D01*
X82383Y195407D01*
X82638Y196358D01*
Y197343D01*
X82383Y198294D01*
X81890Y199147D01*
X81194Y199843D01*
X80341Y200336D01*
X79390Y200591D01*
X78405D01*
X77454Y200336D01*
X76601Y199843D01*
X75905Y199147D01*
X75412Y198294D01*
X75157Y197343D01*
Y196358D01*
X75412Y195407D01*
X75905Y194554D01*
X76118Y194341D01*
X75926Y193879D01*
X71869D01*
X71678Y194341D01*
X71890Y194554D01*
X72383Y195407D01*
X72638Y196358D01*
Y197343D01*
X72383Y198294D01*
X71890Y199147D01*
X71194Y199843D01*
X70341Y200336D01*
X69390Y200591D01*
X68405D01*
X67454Y200336D01*
X66601Y199843D01*
X65905Y199147D01*
X65412Y198294D01*
X65157Y197343D01*
Y196358D01*
X65412Y195407D01*
X65905Y194554D01*
X66118Y194341D01*
X65926Y193879D01*
X61869D01*
X61677Y194341D01*
X61891Y194554D01*
X62383Y195407D01*
X62638Y196358D01*
Y197343D01*
X62383Y198294D01*
X61891Y199147D01*
X61194Y199843D01*
X60341Y200336D01*
X59390Y200591D01*
X58405D01*
X57454Y200336D01*
X56601Y199843D01*
X55905Y199147D01*
X55412Y198294D01*
X55157Y197343D01*
Y196358D01*
X55412Y195407D01*
X55905Y194554D01*
X56118Y194341D01*
X55926Y193879D01*
X51869D01*
X51678Y194341D01*
X51890Y194554D01*
X52383Y195407D01*
X52638Y196358D01*
Y197343D01*
X52383Y198294D01*
X51890Y199147D01*
X51194Y199843D01*
X50341Y200336D01*
X49390Y200591D01*
X48405D01*
X47454Y200336D01*
X46601Y199843D01*
X45905Y199147D01*
X45412Y198294D01*
X45158Y197343D01*
Y196358D01*
X45412Y195407D01*
X45905Y194554D01*
X46118Y194341D01*
X45926Y193879D01*
X44722D01*
X44722Y193879D01*
X44261Y193787D01*
X43870Y193526D01*
X43870Y193526D01*
X40556Y190212D01*
X40341Y190336D01*
X39390Y190591D01*
X38405D01*
X37454Y190336D01*
X36601Y189843D01*
X35905Y189147D01*
X35412Y188294D01*
X35157Y187343D01*
Y186358D01*
X35412Y185407D01*
X35905Y184554D01*
X36601Y183858D01*
X37454Y183365D01*
X38405Y183110D01*
X39390D01*
X40341Y183365D01*
X41194Y183858D01*
X41890Y184554D01*
X42383Y185407D01*
X42638Y186358D01*
Y187343D01*
X42383Y188294D01*
X42259Y188509D01*
X45221Y191471D01*
X61161D01*
X61353Y191009D01*
X60556Y190212D01*
X60341Y190336D01*
X59390Y190591D01*
X58405D01*
X57454Y190336D01*
X56601Y189843D01*
X55905Y189147D01*
X55412Y188294D01*
X55157Y187343D01*
Y186358D01*
X55412Y185407D01*
X55905Y184554D01*
X56601Y183858D01*
X57454Y183365D01*
X58405Y183110D01*
X59390D01*
X60341Y183365D01*
X61194Y183858D01*
X61891Y184554D01*
X62383Y185407D01*
X62638Y186358D01*
Y187343D01*
X62383Y188294D01*
X62259Y188509D01*
X63621Y189871D01*
X65921D01*
X66128Y189371D01*
X65905Y189147D01*
X65412Y188294D01*
X65157Y187343D01*
Y186358D01*
X65412Y185407D01*
X65905Y184554D01*
X66601Y183858D01*
X67454Y183365D01*
X68405Y183110D01*
X69390D01*
X70341Y183365D01*
X70556Y183489D01*
X74222Y179823D01*
X74222Y179823D01*
X74612Y179562D01*
X75073Y179471D01*
X75073Y179471D01*
X220976D01*
X225971Y174476D01*
Y162698D01*
X225471Y162547D01*
X225037Y163195D01*
X224219Y164014D01*
X223256Y164657D01*
X222187Y165100D01*
X221051Y165326D01*
X220488Y165354D01*
Y168291D01*
X216535D01*
X212583D01*
Y165354D01*
X210449D01*
Y167012D01*
X206693D01*
X202937D01*
Y165354D01*
X194898D01*
Y168291D01*
X190945D01*
X186992D01*
Y165354D01*
X184858D01*
Y167012D01*
X181102D01*
X177347D01*
Y165354D01*
X169307D01*
Y168291D01*
X165354D01*
X161402D01*
Y165354D01*
X159268D01*
Y167012D01*
X155512D01*
X151756D01*
Y165354D01*
X143717D01*
Y168291D01*
X139764D01*
X135811D01*
Y165354D01*
X133677D01*
Y167012D01*
X129921D01*
X126165D01*
Y165354D01*
X118126D01*
Y168291D01*
X114173D01*
X110221D01*
Y165354D01*
X108087D01*
Y167012D01*
X104331D01*
X100575D01*
Y165354D01*
X92535D01*
Y168291D01*
X88583D01*
X84630D01*
Y165354D01*
X82496D01*
Y167012D01*
X78740D01*
X74984D01*
Y165354D01*
X66945D01*
Y168291D01*
X62992D01*
X59039D01*
Y165354D01*
X56906D01*
Y167012D01*
X53150D01*
X49394D01*
Y165354D01*
X41354D01*
Y168291D01*
X37402D01*
X33449D01*
Y165354D01*
X31315D01*
Y167012D01*
X27559D01*
X23803D01*
Y165354D01*
X20131D01*
X19693Y165854D01*
X19724Y166093D01*
Y170260D01*
X11811D01*
X3898D01*
Y166093D01*
X3929Y165854D01*
X3669Y165558D01*
X3253Y165354D01*
X2889Y165354D01*
X803Y165354D01*
X803Y165854D01*
Y194724D01*
Y195630D01*
X1156Y197407D01*
X1850Y199081D01*
X2856Y200587D01*
X4137Y201868D01*
X5644Y202875D01*
X7317Y203568D01*
X9094Y203922D01*
X10000Y203922D01*
X245905Y203922D01*
X246811Y203922D01*
D02*
G37*
G36*
X220772Y197850D02*
X224724D01*
X228677D01*
Y199116D01*
X229139Y199307D01*
X232671Y195776D01*
Y179030D01*
X232171Y178695D01*
X231825Y178839D01*
X230925D01*
X230846Y178806D01*
X226690Y182963D01*
X226755Y183459D01*
X227151Y183687D01*
X227887Y184423D01*
X228408Y185325D01*
X228549Y185850D01*
X224724D01*
X220900D01*
X221041Y185325D01*
X221561Y184423D01*
X221644Y184341D01*
X221452Y183879D01*
X217696D01*
X217504Y184341D01*
X217717Y184554D01*
X218210Y185407D01*
X218465Y186358D01*
Y187343D01*
X218210Y188294D01*
X217717Y189147D01*
X217021Y189843D01*
X216168Y190336D01*
X215217Y190591D01*
X214232D01*
X213281Y190336D01*
X212428Y189843D01*
X211732Y189147D01*
X211239Y188294D01*
X210984Y187343D01*
Y186358D01*
X211239Y185407D01*
X211732Y184554D01*
X211945Y184341D01*
X211753Y183879D01*
X207696D01*
X207504Y184341D01*
X207717Y184554D01*
X208210Y185407D01*
X208465Y186358D01*
Y187343D01*
X208210Y188294D01*
X208107Y188471D01*
X208437Y188847D01*
X208524Y188811D01*
X209425D01*
X210257Y189156D01*
X210894Y189793D01*
X211239Y190624D01*
Y191525D01*
X210894Y192357D01*
X210257Y192994D01*
X209425Y193339D01*
X208524D01*
X207693Y192994D01*
X207056Y192357D01*
X207023Y192279D01*
X200888D01*
X200680Y192779D01*
X200894Y192992D01*
X201239Y193825D01*
Y194408D01*
X201706Y194546D01*
X201739Y194547D01*
X202428Y193858D01*
X203281Y193365D01*
X204232Y193110D01*
X205217D01*
X206168Y193365D01*
X207021Y193858D01*
X207717Y194554D01*
X208210Y195407D01*
X208465Y196358D01*
Y197343D01*
X208210Y198294D01*
X207717Y199147D01*
X207294Y199571D01*
X207501Y200071D01*
X211948D01*
X212155Y199571D01*
X211732Y199147D01*
X211239Y198294D01*
X210984Y197343D01*
Y196358D01*
X211239Y195407D01*
X211732Y194554D01*
X212428Y193858D01*
X213281Y193365D01*
X214232Y193110D01*
X215217D01*
X216168Y193365D01*
X217021Y193858D01*
X217717Y194554D01*
X218210Y195407D01*
X218465Y196358D01*
Y197343D01*
X218210Y198294D01*
X217717Y199147D01*
X217294Y199571D01*
X217501Y200071D01*
X220772D01*
Y197850D01*
D02*
G37*
G36*
X219939Y164181D02*
X220835Y163810D01*
X221641Y163271D01*
X222326Y162586D01*
X222865Y161780D01*
X223236Y160884D01*
X223425Y159933D01*
Y158964D01*
X223236Y158013D01*
X222865Y157118D01*
X222326Y156312D01*
X221641Y155626D01*
X220835Y155088D01*
X219939Y154717D01*
X218989Y154528D01*
X218504D01*
X32480Y154527D01*
X31516Y154480D01*
X29623Y154104D01*
X27841Y153365D01*
X26236Y152293D01*
X24872Y150929D01*
X23800Y149325D01*
X23062Y147542D01*
X22685Y145650D01*
X22638Y144685D01*
X22638D01*
X22638Y144297D01*
X22487Y143537D01*
X22190Y142820D01*
X21759Y142175D01*
X21211Y141627D01*
X20566Y141196D01*
X19849Y140899D01*
X19192Y140769D01*
X18701Y140748D01*
X18701Y140748D01*
X18701Y140748D01*
X7874D01*
Y144130D01*
X8374Y144459D01*
X9510Y143988D01*
X10811Y143729D01*
Y151575D01*
Y159420D01*
X9510Y159161D01*
X8374Y158691D01*
X7874Y159020D01*
Y163533D01*
X16978D01*
X17958Y163728D01*
X18788Y164283D01*
X18846Y164370D01*
X218989D01*
X219939Y164181D01*
D02*
G37*
%LPC*%
G36*
X169898Y200675D02*
Y197850D01*
X172722D01*
X172581Y198376D01*
X172061Y199277D01*
X171325Y200013D01*
X170423Y200534D01*
X169898Y200675D01*
D02*
G37*
G36*
X182850Y200803D02*
X179898D01*
Y197850D01*
X182850D01*
Y200803D01*
D02*
G37*
G36*
X159898Y200675D02*
Y197850D01*
X162722D01*
X162581Y198376D01*
X162061Y199277D01*
X161325Y200013D01*
X160423Y200534D01*
X159898Y200675D01*
D02*
G37*
G36*
X139898D02*
Y197850D01*
X142722D01*
X142581Y198376D01*
X142061Y199277D01*
X141325Y200013D01*
X140423Y200534D01*
X139898Y200675D01*
D02*
G37*
G36*
X149898D02*
Y197850D01*
X152722D01*
X152581Y198376D01*
X152061Y199277D01*
X151325Y200013D01*
X150423Y200534D01*
X149898Y200675D01*
D02*
G37*
G36*
X167898D02*
X167372Y200534D01*
X166471Y200013D01*
X165735Y199277D01*
X165214Y198376D01*
X165073Y197850D01*
X167898D01*
Y200675D01*
D02*
G37*
G36*
X157898D02*
X157372Y200534D01*
X156471Y200013D01*
X155735Y199277D01*
X155214Y198376D01*
X155073Y197850D01*
X157898D01*
Y200675D01*
D02*
G37*
G36*
X137898D02*
X137372Y200534D01*
X136471Y200013D01*
X135735Y199277D01*
X135214Y198376D01*
X135073Y197850D01*
X137898D01*
Y200675D01*
D02*
G37*
G36*
X147898D02*
X147372Y200534D01*
X146471Y200013D01*
X145735Y199277D01*
X145214Y198376D01*
X145073Y197850D01*
X147898D01*
Y200675D01*
D02*
G37*
G36*
X177898Y200803D02*
X174945D01*
Y197850D01*
X177898D01*
Y200803D01*
D02*
G37*
G36*
X39390Y200591D02*
X38405D01*
X37454Y200336D01*
X36601Y199843D01*
X35905Y199147D01*
X35412Y198294D01*
X35157Y197343D01*
Y196358D01*
X35412Y195407D01*
X35905Y194554D01*
X36601Y193858D01*
X37454Y193365D01*
X38405Y193110D01*
X39390D01*
X40341Y193365D01*
X41194Y193858D01*
X41890Y194554D01*
X42383Y195407D01*
X42638Y196358D01*
Y197343D01*
X42383Y198294D01*
X41890Y199147D01*
X41194Y199843D01*
X40341Y200336D01*
X39390Y200591D01*
D02*
G37*
G36*
X29390D02*
X28405D01*
X27454Y200336D01*
X26601Y199843D01*
X25905Y199147D01*
X25412Y198294D01*
X25157Y197343D01*
Y196358D01*
X25412Y195407D01*
X25905Y194554D01*
X26601Y193858D01*
X27454Y193365D01*
X28405Y193110D01*
X29390D01*
X30341Y193365D01*
X31194Y193858D01*
X31890Y194554D01*
X32383Y195407D01*
X32638Y196358D01*
Y197343D01*
X32383Y198294D01*
X31890Y199147D01*
X31194Y199843D01*
X30341Y200336D01*
X29390Y200591D01*
D02*
G37*
G36*
X246819Y202559D02*
X245307D01*
X243824Y202264D01*
X242426Y201685D01*
X241169Y200845D01*
X240100Y199776D01*
X239260Y198518D01*
X238681Y197121D01*
X238386Y195638D01*
Y194126D01*
X238681Y192642D01*
X239260Y191245D01*
X240100Y189988D01*
X241169Y188919D01*
X242426Y188078D01*
X243824Y187500D01*
X245307Y187205D01*
X246819D01*
X248302Y187500D01*
X249699Y188078D01*
X250957Y188919D01*
X252026Y189988D01*
X252866Y191245D01*
X253445Y192642D01*
X253740Y194126D01*
Y195638D01*
X253445Y197121D01*
X252866Y198518D01*
X252026Y199776D01*
X250957Y200845D01*
X249699Y201685D01*
X248302Y202264D01*
X246819Y202559D01*
D02*
G37*
G36*
X10599D02*
X9087D01*
X7603Y202264D01*
X6206Y201685D01*
X4949Y200845D01*
X3879Y199776D01*
X3039Y198518D01*
X2461Y197121D01*
X2165Y195638D01*
Y194126D01*
X2461Y192642D01*
X3039Y191245D01*
X3879Y189988D01*
X4949Y188919D01*
X6206Y188078D01*
X7603Y187500D01*
X9087Y187205D01*
X10599D01*
X12082Y187500D01*
X13479Y188078D01*
X14737Y188919D01*
X15806Y189988D01*
X16646Y191245D01*
X17225Y192642D01*
X17520Y194126D01*
Y195638D01*
X17225Y197121D01*
X16646Y198518D01*
X15806Y199776D01*
X14737Y200845D01*
X13479Y201685D01*
X12082Y202264D01*
X10599Y202559D01*
D02*
G37*
G36*
X49390Y190591D02*
X48405D01*
X47454Y190336D01*
X46601Y189843D01*
X45905Y189147D01*
X45412Y188294D01*
X45158Y187343D01*
Y186358D01*
X45412Y185407D01*
X45905Y184554D01*
X46601Y183858D01*
X47454Y183365D01*
X48405Y183110D01*
X49390D01*
X50341Y183365D01*
X51194Y183858D01*
X51890Y184554D01*
X52383Y185407D01*
X52638Y186358D01*
Y187343D01*
X52383Y188294D01*
X51890Y189147D01*
X51194Y189843D01*
X50341Y190336D01*
X49390Y190591D01*
D02*
G37*
G36*
X29390D02*
X28405D01*
X27454Y190336D01*
X26601Y189843D01*
X25905Y189147D01*
X25412Y188294D01*
X25157Y187343D01*
Y186358D01*
X25412Y185407D01*
X25905Y184554D01*
X26601Y183858D01*
X27454Y183365D01*
X28405Y183110D01*
X29390D01*
X30341Y183365D01*
X31194Y183858D01*
X31890Y184554D01*
X32383Y185407D01*
X32638Y186358D01*
Y187343D01*
X32383Y188294D01*
X31890Y189147D01*
X31194Y189843D01*
X30341Y190336D01*
X29390Y190591D01*
D02*
G37*
G36*
X248524Y185315D02*
X247539D01*
X246588Y185060D01*
X245735Y184568D01*
X245039Y183871D01*
X244546Y183018D01*
X244291Y182067D01*
Y181082D01*
X244546Y180131D01*
X245039Y179278D01*
X245735Y178582D01*
X246588Y178089D01*
X247539Y177835D01*
X248524D01*
X249475Y178089D01*
X250328Y178582D01*
X251025Y179278D01*
X251517Y180131D01*
X251772Y181082D01*
Y182067D01*
X251517Y183018D01*
X251025Y183871D01*
X250328Y184568D01*
X249475Y185060D01*
X248524Y185315D01*
D02*
G37*
G36*
X16978Y179173D02*
X12811D01*
Y172260D01*
X19724D01*
Y176427D01*
X19631Y177138D01*
X19356Y177800D01*
X18920Y178369D01*
X18351Y178805D01*
X17689Y179079D01*
X16978Y179173D01*
D02*
G37*
G36*
X10811D02*
X6644D01*
X5933Y179079D01*
X5271Y178805D01*
X4702Y178369D01*
X4266Y177800D01*
X3991Y177138D01*
X3898Y176427D01*
Y172260D01*
X10811D01*
Y179173D01*
D02*
G37*
G36*
X66945Y173244D02*
X63992D01*
Y170291D01*
X66945D01*
Y173244D01*
D02*
G37*
G36*
X41354D02*
X38402D01*
Y170291D01*
X41354D01*
Y173244D01*
D02*
G37*
G36*
X220488D02*
X217535D01*
Y170291D01*
X220488D01*
Y173244D01*
D02*
G37*
G36*
X194898D02*
X191945D01*
Y170291D01*
X194898D01*
Y173244D01*
D02*
G37*
G36*
X169307D02*
X166354D01*
Y170291D01*
X169307D01*
Y173244D01*
D02*
G37*
G36*
X143717D02*
X140764D01*
Y170291D01*
X143717D01*
Y173244D01*
D02*
G37*
G36*
X118126D02*
X115173D01*
Y170291D01*
X118126D01*
Y173244D01*
D02*
G37*
G36*
X92535D02*
X89583D01*
Y170291D01*
X92535D01*
Y173244D01*
D02*
G37*
G36*
X61992D02*
X59039D01*
Y170291D01*
X61992D01*
Y173244D01*
D02*
G37*
G36*
X36402D02*
X33449D01*
Y170291D01*
X36402D01*
Y173244D01*
D02*
G37*
G36*
X215535D02*
X212583D01*
Y170291D01*
X215535D01*
Y173244D01*
D02*
G37*
G36*
X189945D02*
X186992D01*
Y170291D01*
X189945D01*
Y173244D01*
D02*
G37*
G36*
X164354D02*
X161402D01*
Y170291D01*
X164354D01*
Y173244D01*
D02*
G37*
G36*
X138764D02*
X135811D01*
Y170291D01*
X138764D01*
Y173244D01*
D02*
G37*
G36*
X113173D02*
X110221D01*
Y170291D01*
X113173D01*
Y173244D01*
D02*
G37*
G36*
X87583D02*
X84630D01*
Y170291D01*
X87583D01*
Y173244D01*
D02*
G37*
G36*
X210449Y170882D02*
X207693D01*
Y169012D01*
X210449D01*
Y170882D01*
D02*
G37*
G36*
X184858D02*
X182102D01*
Y169012D01*
X184858D01*
Y170882D01*
D02*
G37*
G36*
X159268D02*
X156512D01*
Y169012D01*
X159268D01*
Y170882D01*
D02*
G37*
G36*
X133677D02*
X130921D01*
Y169012D01*
X133677D01*
Y170882D01*
D02*
G37*
G36*
X108087D02*
X105331D01*
Y169012D01*
X108087D01*
Y170882D01*
D02*
G37*
G36*
X82496D02*
X79740D01*
Y169012D01*
X82496D01*
Y170882D01*
D02*
G37*
G36*
X56906D02*
X54150D01*
Y169012D01*
X56906D01*
Y170882D01*
D02*
G37*
G36*
X31315D02*
X28559D01*
Y169012D01*
X31315D01*
Y170882D01*
D02*
G37*
G36*
X205693D02*
X202937D01*
Y169012D01*
X205693D01*
Y170882D01*
D02*
G37*
G36*
X180102D02*
X177347D01*
Y169012D01*
X180102D01*
Y170882D01*
D02*
G37*
G36*
X154512D02*
X151756D01*
Y169012D01*
X154512D01*
Y170882D01*
D02*
G37*
G36*
X128921D02*
X126165D01*
Y169012D01*
X128921D01*
Y170882D01*
D02*
G37*
G36*
X103331D02*
X100575D01*
Y169012D01*
X103331D01*
Y170882D01*
D02*
G37*
G36*
X77740D02*
X74984D01*
Y169012D01*
X77740D01*
Y170882D01*
D02*
G37*
G36*
X52150D02*
X49394D01*
Y169012D01*
X52150D01*
Y170882D01*
D02*
G37*
G36*
X26559D02*
X23803D01*
Y169012D01*
X26559D01*
Y170882D01*
D02*
G37*
G36*
X248524Y175315D02*
X247539D01*
X246588Y175060D01*
X245735Y174568D01*
X245039Y173871D01*
X244546Y173018D01*
X244291Y172067D01*
Y171082D01*
X244546Y170131D01*
X245039Y169278D01*
X245735Y168582D01*
X246588Y168089D01*
X247539Y167835D01*
X248524D01*
X249475Y168089D01*
X250328Y168582D01*
X251025Y169278D01*
X251517Y170131D01*
X251772Y171082D01*
Y172067D01*
X251517Y173018D01*
X251025Y173871D01*
X250328Y174568D01*
X249475Y175060D01*
X248524Y175315D01*
D02*
G37*
G36*
Y165315D02*
X247539D01*
X246588Y165060D01*
X245735Y164568D01*
X245039Y163871D01*
X244546Y163018D01*
X244291Y162067D01*
Y161082D01*
X244546Y160131D01*
X245039Y159278D01*
X245735Y158582D01*
X246588Y158089D01*
X247539Y157835D01*
X248524D01*
X249475Y158089D01*
X250328Y158582D01*
X251025Y159278D01*
X251517Y160131D01*
X251772Y161082D01*
Y162067D01*
X251517Y163018D01*
X251025Y163871D01*
X250328Y164568D01*
X249475Y165060D01*
X248524Y165315D01*
D02*
G37*
G36*
X251984Y155527D02*
X249032D01*
Y152575D01*
X251984D01*
Y155527D01*
D02*
G37*
G36*
X239032Y155399D02*
Y152575D01*
X241856D01*
X241715Y153101D01*
X241195Y154002D01*
X240459Y154738D01*
X239557Y155258D01*
X239032Y155399D01*
D02*
G37*
G36*
X247032Y155527D02*
X244079D01*
Y152575D01*
X247032D01*
Y155527D01*
D02*
G37*
G36*
X241856Y150575D02*
X239032D01*
Y147751D01*
X239557Y147891D01*
X240459Y148412D01*
X241195Y149148D01*
X241715Y150049D01*
X241856Y150575D01*
D02*
G37*
G36*
X251984D02*
X249032D01*
Y147622D01*
X251984D01*
Y150575D01*
D02*
G37*
G36*
X247032D02*
X244079D01*
Y147622D01*
X247032D01*
Y150575D01*
D02*
G37*
G36*
X248524Y142008D02*
X247539D01*
X246588Y141753D01*
X245735Y141261D01*
X245039Y140564D01*
X244546Y139711D01*
X244291Y138760D01*
Y137775D01*
X244546Y136824D01*
X245039Y135971D01*
X245735Y135275D01*
X246588Y134783D01*
X247539Y134528D01*
X248524D01*
X249475Y134783D01*
X250328Y135275D01*
X251025Y135971D01*
X251517Y136824D01*
X251772Y137775D01*
Y138760D01*
X251517Y139711D01*
X251025Y140564D01*
X250328Y141261D01*
X249475Y141753D01*
X248524Y142008D01*
D02*
G37*
G36*
X20528Y135775D02*
Y132890D01*
X23413D01*
X23266Y133438D01*
X22738Y134353D01*
X21991Y135100D01*
X21076Y135628D01*
X20528Y135775D01*
D02*
G37*
G36*
X18528D02*
X17979Y135628D01*
X17064Y135100D01*
X16317Y134353D01*
X15789Y133438D01*
X15642Y132890D01*
X18528D01*
Y135775D01*
D02*
G37*
G36*
X10028Y135689D02*
X9027D01*
X8061Y135430D01*
X7195Y134930D01*
X6487Y134223D01*
X5987Y133356D01*
X5728Y132390D01*
Y131390D01*
X5987Y130423D01*
X6487Y129557D01*
X7195Y128850D01*
X8061Y128349D01*
X9027Y128091D01*
X10028D01*
X10994Y128349D01*
X11860Y128850D01*
X12568Y129557D01*
X13068Y130423D01*
X13327Y131390D01*
Y132390D01*
X13068Y133356D01*
X12568Y134223D01*
X11860Y134930D01*
X10994Y135430D01*
X10028Y135689D01*
D02*
G37*
G36*
X18528Y130890D02*
X15642D01*
X15789Y130341D01*
X16317Y129427D01*
X17064Y128680D01*
X17979Y128151D01*
X18528Y128004D01*
Y130890D01*
D02*
G37*
G36*
X86025Y102939D02*
X85124D01*
X84293Y102594D01*
X83656Y101957D01*
X83311Y101125D01*
Y100224D01*
X83656Y99392D01*
X84293Y98756D01*
X85124Y98411D01*
X86025D01*
X86857Y98756D01*
X87494Y99392D01*
X87839Y100224D01*
Y101125D01*
X87494Y101957D01*
X86857Y102594D01*
X86025Y102939D01*
D02*
G37*
G36*
X67685Y102431D02*
X66784D01*
X65952Y102087D01*
X65316Y101450D01*
X64971Y100618D01*
Y99717D01*
X65316Y98885D01*
X65952Y98248D01*
X66784Y97904D01*
X67685D01*
X68517Y98248D01*
X69154Y98885D01*
X69498Y99717D01*
Y100618D01*
X69154Y101450D01*
X68517Y102087D01*
X67685Y102431D01*
D02*
G37*
G36*
X59325Y99739D02*
X58425D01*
X57592Y99394D01*
X56956Y98757D01*
X56611Y97925D01*
Y97025D01*
X56956Y96193D01*
X57592Y95556D01*
X58425Y95211D01*
X59325D01*
X60157Y95556D01*
X60794Y96193D01*
X61139Y97025D01*
Y97925D01*
X60794Y98757D01*
X60157Y99394D01*
X59325Y99739D01*
D02*
G37*
G36*
X134276Y94390D02*
X133376D01*
X132544Y94045D01*
X131907Y93408D01*
X131562Y92576D01*
Y91676D01*
X131907Y90844D01*
X132544Y90207D01*
X133376Y89862D01*
X134276D01*
X135108Y90207D01*
X135745Y90844D01*
X136090Y91676D01*
Y92576D01*
X135745Y93408D01*
X135108Y94045D01*
X134276Y94390D01*
D02*
G37*
G36*
X75625Y94139D02*
X74725D01*
X73892Y93794D01*
X73256Y93157D01*
X72911Y92325D01*
Y91425D01*
X73256Y90592D01*
X73892Y89956D01*
X74725Y89611D01*
X75625D01*
X76457Y89956D01*
X77094Y90592D01*
X77439Y91425D01*
Y92325D01*
X77094Y93157D01*
X76457Y93794D01*
X75625Y94139D01*
D02*
G37*
G36*
X251984Y92221D02*
X249032D01*
Y89268D01*
X251984D01*
Y92221D01*
D02*
G37*
G36*
X70125Y92239D02*
X69225D01*
X68392Y91894D01*
X67756Y91257D01*
X67723Y91179D01*
X16775D01*
X16314Y91087D01*
X15923Y90826D01*
X15923Y90826D01*
X10523Y85426D01*
X10262Y85036D01*
X10171Y84575D01*
X10171Y84575D01*
Y78375D01*
X10171Y78375D01*
X10262Y77914D01*
X10523Y77523D01*
X12723Y75323D01*
X13114Y75062D01*
X13575Y74971D01*
X13575Y74971D01*
X14744D01*
X16123Y73591D01*
X15987Y73356D01*
X15728Y72390D01*
Y71390D01*
X15987Y70423D01*
X16488Y69557D01*
X17195Y68850D01*
X18061Y68349D01*
X19027Y68091D01*
X20028D01*
X20994Y68349D01*
X21860Y68850D01*
X22568Y69557D01*
X23068Y70423D01*
X23327Y71390D01*
Y72390D01*
X23068Y73356D01*
X22568Y74223D01*
X21860Y74930D01*
X20994Y75430D01*
X20028Y75689D01*
X19027D01*
X18061Y75430D01*
X17826Y75294D01*
X16476Y76645D01*
X16557Y77056D01*
X17194Y77693D01*
X17226Y77771D01*
X108504D01*
X108505Y77771D01*
X108965Y77862D01*
X109356Y78123D01*
X111774Y80541D01*
X112828D01*
X113105Y80125D01*
X112981Y79825D01*
Y78925D01*
X113326Y78092D01*
X113963Y77456D01*
X114041Y77423D01*
Y65605D01*
X114041Y65605D01*
X114132Y65144D01*
X114393Y64753D01*
X130723Y48423D01*
X130723Y48423D01*
X131114Y48162D01*
X131575Y48071D01*
X155523D01*
X155556Y47993D01*
X156193Y47356D01*
X157025Y47011D01*
X157925D01*
X158757Y47356D01*
X159394Y47993D01*
X159739Y48825D01*
Y49725D01*
X159394Y50557D01*
X158757Y51194D01*
X157925Y51539D01*
X157025D01*
X156193Y51194D01*
X155556Y50557D01*
X155523Y50479D01*
X132074D01*
X116449Y66103D01*
Y68888D01*
X116949Y69095D01*
X117195Y68850D01*
X118061Y68349D01*
X119027Y68091D01*
X120028D01*
X120994Y68349D01*
X121860Y68850D01*
X122568Y69557D01*
X123068Y70423D01*
X123327Y71390D01*
Y72390D01*
X123068Y73356D01*
X122568Y74223D01*
X121860Y74930D01*
X120994Y75430D01*
X120028Y75689D01*
X119027D01*
X118061Y75430D01*
X117195Y74930D01*
X116949Y74684D01*
X116449Y74891D01*
Y77423D01*
X116527Y77456D01*
X117164Y78092D01*
X117509Y78925D01*
Y79825D01*
X117385Y80125D01*
X117662Y80541D01*
X130966D01*
X134483Y77023D01*
X134874Y76762D01*
X135335Y76671D01*
X135335Y76671D01*
X141749D01*
X142211Y76525D01*
Y75625D01*
X142450Y75047D01*
X142026Y74764D01*
X141860Y74930D01*
X140994Y75430D01*
X140028Y75689D01*
X139027D01*
X138061Y75430D01*
X137195Y74930D01*
X136487Y74223D01*
X135987Y73356D01*
X135728Y72390D01*
Y71390D01*
X135987Y70423D01*
X136487Y69557D01*
X137195Y68850D01*
X138061Y68349D01*
X139027Y68091D01*
X140028D01*
X140994Y68349D01*
X141860Y68850D01*
X142568Y69557D01*
X143068Y70423D01*
X143327Y71390D01*
Y72390D01*
X143068Y73356D01*
X142772Y73869D01*
X143172Y74176D01*
X143193Y74156D01*
X144025Y73811D01*
X144925D01*
X145757Y74156D01*
X146394Y74792D01*
X146739Y75625D01*
Y76525D01*
X146394Y77357D01*
X145757Y77994D01*
X144925Y78339D01*
X144025D01*
X143946Y78306D01*
X143526Y78726D01*
X143136Y78987D01*
X142675Y79079D01*
X142675Y79079D01*
X139594D01*
X139413Y79579D01*
X139739Y80365D01*
Y81265D01*
X139394Y82097D01*
X138757Y82734D01*
X137925Y83079D01*
X137024D01*
X136193Y82734D01*
X135556Y82097D01*
X135211Y81265D01*
Y80409D01*
X135096Y80312D01*
X134756Y80156D01*
X132316Y82596D01*
X131925Y82858D01*
X131464Y82949D01*
X131464Y82949D01*
X111275D01*
X110814Y82858D01*
X110423Y82596D01*
X110423Y82596D01*
X108006Y80179D01*
X107189D01*
X107089Y80679D01*
X107757Y80956D01*
X108394Y81593D01*
X108739Y82424D01*
Y83325D01*
X108394Y84157D01*
X107757Y84794D01*
X106925Y85139D01*
X106025D01*
X105192Y84794D01*
X104556Y84157D01*
X104533Y84103D01*
X103979Y84072D01*
X103457Y84594D01*
X102625Y84939D01*
X101725D01*
X100892Y84594D01*
X100256Y83957D01*
X99911Y83125D01*
Y82225D01*
X100256Y81393D01*
X100892Y80756D01*
X101077Y80679D01*
X100978Y80179D01*
X17226D01*
X17194Y80257D01*
X16557Y80894D01*
X15725Y81239D01*
X14825D01*
X13993Y80894D01*
X13356Y80257D01*
X13079Y79589D01*
X12579Y79689D01*
Y84076D01*
X17274Y88771D01*
X67723D01*
X67756Y88692D01*
X68392Y88056D01*
X69225Y87711D01*
X70125D01*
X70957Y88056D01*
X71594Y88692D01*
X71939Y89525D01*
Y90425D01*
X71594Y91257D01*
X70957Y91894D01*
X70125Y92239D01*
D02*
G37*
G36*
X145425Y90239D02*
X144525D01*
X143693Y89894D01*
X143056Y89257D01*
X142711Y88425D01*
Y87524D01*
X143056Y86693D01*
X143693Y86056D01*
X144525Y85711D01*
X145425D01*
X146257Y86056D01*
X146894Y86693D01*
X147239Y87524D01*
Y88425D01*
X146894Y89257D01*
X146257Y89894D01*
X145425Y90239D01*
D02*
G37*
G36*
X131127Y89739D02*
X130226D01*
X129394Y89394D01*
X128757Y88757D01*
X128413Y87925D01*
Y87024D01*
X128757Y86193D01*
X129394Y85556D01*
X130226Y85211D01*
X131127D01*
X131959Y85556D01*
X132596Y86193D01*
X132940Y87024D01*
Y87925D01*
X132596Y88757D01*
X131959Y89394D01*
X131127Y89739D01*
D02*
G37*
G36*
X251984Y87268D02*
X249032D01*
Y84315D01*
X251984D01*
Y87268D01*
D02*
G37*
G36*
X224825Y88739D02*
X223924D01*
X223093Y88394D01*
X222456Y87757D01*
X222111Y86925D01*
Y86024D01*
X222456Y85193D01*
X223093Y84556D01*
X223924Y84211D01*
X224825D01*
X225657Y84556D01*
X226294Y85193D01*
X226639Y86024D01*
Y86925D01*
X226294Y87757D01*
X225657Y88394D01*
X224825Y88739D01*
D02*
G37*
G36*
X226325Y81539D02*
X225425D01*
X224592Y81194D01*
X223956Y80557D01*
X223611Y79725D01*
Y78825D01*
X223956Y77992D01*
X224592Y77356D01*
X225425Y77011D01*
X226325D01*
X227157Y77356D01*
X227794Y77992D01*
X228139Y78825D01*
Y79725D01*
X227794Y80557D01*
X227157Y81194D01*
X226325Y81539D01*
D02*
G37*
G36*
X10528Y75775D02*
Y72890D01*
X13413D01*
X13266Y73438D01*
X12738Y74353D01*
X11991Y75100D01*
X11076Y75628D01*
X10528Y75775D01*
D02*
G37*
G36*
X8528D02*
X7979Y75628D01*
X7064Y75100D01*
X6317Y74353D01*
X5789Y73438D01*
X5642Y72890D01*
X8528D01*
Y75775D01*
D02*
G37*
G36*
X171825Y76039D02*
X170924D01*
X170092Y75694D01*
X169456Y75057D01*
X169111Y74225D01*
Y73325D01*
X169456Y72492D01*
X170092Y71856D01*
X170924Y71511D01*
X171825D01*
X172657Y71856D01*
X173294Y72492D01*
X173639Y73325D01*
Y74225D01*
X173294Y75057D01*
X172657Y75694D01*
X171825Y76039D01*
D02*
G37*
G36*
X248681Y78858D02*
X247697D01*
X246745Y78604D01*
X245893Y78111D01*
X245196Y77415D01*
X244704Y76562D01*
X244449Y75611D01*
Y74626D01*
X244704Y73675D01*
X245196Y72822D01*
X245893Y72125D01*
X246745Y71633D01*
X247697Y71378D01*
X248681D01*
X249633Y71633D01*
X250485Y72125D01*
X251182Y72822D01*
X251674Y73675D01*
X251929Y74626D01*
Y75611D01*
X251674Y76562D01*
X251182Y77415D01*
X250485Y78111D01*
X249633Y78604D01*
X248681Y78858D01*
D02*
G37*
G36*
X110028Y75689D02*
X109027D01*
X108061Y75430D01*
X107195Y74930D01*
X106488Y74223D01*
X105987Y73356D01*
X105728Y72390D01*
Y71390D01*
X105987Y70423D01*
X106488Y69557D01*
X107195Y68850D01*
X108061Y68349D01*
X109027Y68091D01*
X110028D01*
X110994Y68349D01*
X111860Y68850D01*
X112568Y69557D01*
X113068Y70423D01*
X113327Y71390D01*
Y72390D01*
X113068Y73356D01*
X112568Y74223D01*
X111860Y74930D01*
X110994Y75430D01*
X110028Y75689D01*
D02*
G37*
G36*
X100028D02*
X99027D01*
X98061Y75430D01*
X97195Y74930D01*
X96487Y74223D01*
X95987Y73356D01*
X95728Y72390D01*
Y71390D01*
X95987Y70423D01*
X96487Y69557D01*
X97195Y68850D01*
X98061Y68349D01*
X99027Y68091D01*
X100028D01*
X100994Y68349D01*
X101860Y68850D01*
X102568Y69557D01*
X103068Y70423D01*
X103327Y71390D01*
Y72390D01*
X103068Y73356D01*
X102568Y74223D01*
X101860Y74930D01*
X100994Y75430D01*
X100028Y75689D01*
D02*
G37*
G36*
X90028D02*
X89027D01*
X88061Y75430D01*
X87195Y74930D01*
X86488Y74223D01*
X85987Y73356D01*
X85728Y72390D01*
Y71390D01*
X85987Y70423D01*
X86488Y69557D01*
X87195Y68850D01*
X88061Y68349D01*
X89027Y68091D01*
X90028D01*
X90994Y68349D01*
X91860Y68850D01*
X92568Y69557D01*
X93068Y70423D01*
X93327Y71390D01*
Y72390D01*
X93068Y73356D01*
X92568Y74223D01*
X91860Y74930D01*
X90994Y75430D01*
X90028Y75689D01*
D02*
G37*
G36*
X80028D02*
X79027D01*
X78061Y75430D01*
X77195Y74930D01*
X76487Y74223D01*
X75987Y73356D01*
X75728Y72390D01*
Y71390D01*
X75987Y70423D01*
X76487Y69557D01*
X77195Y68850D01*
X78061Y68349D01*
X79027Y68091D01*
X80028D01*
X80994Y68349D01*
X81860Y68850D01*
X82568Y69557D01*
X83068Y70423D01*
X83327Y71390D01*
Y72390D01*
X83068Y73356D01*
X82568Y74223D01*
X81860Y74930D01*
X80994Y75430D01*
X80028Y75689D01*
D02*
G37*
G36*
X70028D02*
X69027D01*
X68061Y75430D01*
X67195Y74930D01*
X66487Y74223D01*
X65987Y73356D01*
X65728Y72390D01*
Y71390D01*
X65987Y70423D01*
X66487Y69557D01*
X67195Y68850D01*
X68061Y68349D01*
X69027Y68091D01*
X70028D01*
X70994Y68349D01*
X71860Y68850D01*
X72568Y69557D01*
X73068Y70423D01*
X73327Y71390D01*
Y72390D01*
X73068Y73356D01*
X72568Y74223D01*
X71860Y74930D01*
X70994Y75430D01*
X70028Y75689D01*
D02*
G37*
G36*
X60028D02*
X59027D01*
X58061Y75430D01*
X57195Y74930D01*
X56488Y74223D01*
X55987Y73356D01*
X55728Y72390D01*
Y71390D01*
X55987Y70423D01*
X56488Y69557D01*
X57195Y68850D01*
X58061Y68349D01*
X59027Y68091D01*
X60028D01*
X60994Y68349D01*
X61860Y68850D01*
X62568Y69557D01*
X63068Y70423D01*
X63327Y71390D01*
Y72390D01*
X63068Y73356D01*
X62568Y74223D01*
X61860Y74930D01*
X60994Y75430D01*
X60028Y75689D01*
D02*
G37*
G36*
X50028D02*
X49027D01*
X48061Y75430D01*
X47195Y74930D01*
X46488Y74223D01*
X45987Y73356D01*
X45728Y72390D01*
Y71390D01*
X45987Y70423D01*
X46488Y69557D01*
X47195Y68850D01*
X48061Y68349D01*
X49027Y68091D01*
X50028D01*
X50994Y68349D01*
X51860Y68850D01*
X52568Y69557D01*
X53068Y70423D01*
X53327Y71390D01*
Y72390D01*
X53068Y73356D01*
X52568Y74223D01*
X51860Y74930D01*
X50994Y75430D01*
X50028Y75689D01*
D02*
G37*
G36*
X40028D02*
X39027D01*
X38061Y75430D01*
X37195Y74930D01*
X36487Y74223D01*
X35987Y73356D01*
X35728Y72390D01*
Y71390D01*
X35987Y70423D01*
X36487Y69557D01*
X37195Y68850D01*
X38061Y68349D01*
X39027Y68091D01*
X40028D01*
X40994Y68349D01*
X41860Y68850D01*
X42568Y69557D01*
X43068Y70423D01*
X43327Y71390D01*
Y72390D01*
X43068Y73356D01*
X42568Y74223D01*
X41860Y74930D01*
X40994Y75430D01*
X40028Y75689D01*
D02*
G37*
G36*
X30028D02*
X29027D01*
X28061Y75430D01*
X27195Y74930D01*
X26487Y74223D01*
X25987Y73356D01*
X25728Y72390D01*
Y71390D01*
X25987Y70423D01*
X26487Y69557D01*
X27195Y68850D01*
X28061Y68349D01*
X29027Y68091D01*
X30028D01*
X30994Y68349D01*
X31860Y68850D01*
X32568Y69557D01*
X33068Y70423D01*
X33327Y71390D01*
Y72390D01*
X33068Y73356D01*
X32568Y74223D01*
X31860Y74930D01*
X30994Y75430D01*
X30028Y75689D01*
D02*
G37*
G36*
X13413Y70890D02*
X10528D01*
Y68004D01*
X11076Y68151D01*
X11991Y68679D01*
X12738Y69427D01*
X13266Y70341D01*
X13413Y70890D01*
D02*
G37*
G36*
X8528D02*
X5642D01*
X5789Y70341D01*
X6317Y69427D01*
X7064Y68679D01*
X7979Y68151D01*
X8528Y68004D01*
Y70890D01*
D02*
G37*
G36*
X248681Y68858D02*
X247697D01*
X246745Y68603D01*
X245893Y68111D01*
X245196Y67415D01*
X244704Y66562D01*
X244449Y65611D01*
Y64626D01*
X244704Y63675D01*
X245196Y62822D01*
X245893Y62125D01*
X246745Y61633D01*
X247697Y61378D01*
X248681D01*
X249633Y61633D01*
X250485Y62125D01*
X251182Y62822D01*
X251674Y63675D01*
X251929Y64626D01*
Y65611D01*
X251674Y66562D01*
X251182Y67415D01*
X250485Y68111D01*
X249633Y68603D01*
X248681Y68858D01*
D02*
G37*
G36*
X238681D02*
X237697D01*
X236745Y68603D01*
X235893Y68111D01*
X235196Y67415D01*
X234704Y66562D01*
X234449Y65611D01*
Y64626D01*
X234704Y63675D01*
X235196Y62822D01*
X235893Y62125D01*
X236745Y61633D01*
X237697Y61378D01*
X238681D01*
X239633Y61633D01*
X240486Y62125D01*
X241182Y62822D01*
X241674Y63675D01*
X241929Y64626D01*
Y65611D01*
X241674Y66562D01*
X241182Y67415D01*
X240486Y68111D01*
X239633Y68603D01*
X238681Y68858D01*
D02*
G37*
G36*
X7283Y61167D02*
X6906D01*
Y58776D01*
X10509D01*
X10220Y59471D01*
X9681Y60174D01*
X8979Y60712D01*
X8161Y61051D01*
X7283Y61167D01*
D02*
G37*
G36*
X238681Y58858D02*
X237697D01*
X236745Y58604D01*
X235893Y58111D01*
X235196Y57415D01*
X234704Y56562D01*
X234640Y56322D01*
X169508D01*
X169494Y56357D01*
X168857Y56994D01*
X168025Y57339D01*
X167124D01*
X166293Y56994D01*
X165656Y56357D01*
X165311Y55525D01*
Y54624D01*
X165656Y53793D01*
X166293Y53156D01*
X167124Y52811D01*
X168025D01*
X168857Y53156D01*
X169494Y53793D01*
X169544Y53914D01*
X234640D01*
X234704Y53675D01*
X235196Y52822D01*
X235893Y52125D01*
X236745Y51633D01*
X237697Y51378D01*
X238681D01*
X239633Y51633D01*
X240486Y52125D01*
X241182Y52822D01*
X241674Y53675D01*
X241929Y54626D01*
Y55611D01*
X241674Y56562D01*
X241182Y57415D01*
X240486Y58111D01*
X239633Y58604D01*
X238681Y58858D01*
D02*
G37*
G36*
X139325Y59339D02*
X138425D01*
X137592Y58994D01*
X136956Y58357D01*
X136611Y57525D01*
Y56625D01*
X136956Y55792D01*
X137592Y55156D01*
X138425Y54811D01*
X139325D01*
X140157Y55156D01*
X140794Y55792D01*
X141139Y56625D01*
Y57525D01*
X140794Y58357D01*
X140157Y58994D01*
X139325Y59339D01*
D02*
G37*
G36*
X10509Y56776D02*
X6906D01*
Y54384D01*
X7283D01*
X8161Y54500D01*
X8979Y54839D01*
X9681Y55378D01*
X10220Y56080D01*
X10509Y56776D01*
D02*
G37*
G36*
X67025Y56639D02*
X66124D01*
X65293Y56294D01*
X64656Y55657D01*
X64311Y54825D01*
Y53925D01*
X64656Y53092D01*
X65293Y52456D01*
X66124Y52111D01*
X67025D01*
X67857Y52456D01*
X68494Y53092D01*
X68839Y53925D01*
Y54825D01*
X68494Y55657D01*
X67857Y56294D01*
X67025Y56639D01*
D02*
G37*
G36*
X248681Y58858D02*
X247697D01*
X246745Y58604D01*
X245893Y58111D01*
X245196Y57415D01*
X244704Y56562D01*
X244449Y55611D01*
Y54626D01*
X244704Y53675D01*
X245196Y52822D01*
X245893Y52125D01*
X246745Y51633D01*
X247697Y51378D01*
X248681D01*
X249633Y51633D01*
X250485Y52125D01*
X251182Y52822D01*
X251674Y53675D01*
X251929Y54626D01*
Y55611D01*
X251674Y56562D01*
X251182Y57415D01*
X250485Y58111D01*
X249633Y58604D01*
X248681Y58858D01*
D02*
G37*
G36*
X18717Y53112D02*
Y51098D01*
X21016D01*
X20789Y51645D01*
X20298Y52286D01*
X19657Y52777D01*
X18911Y53086D01*
X18717Y53112D01*
D02*
G37*
G36*
X16717D02*
X16522Y53086D01*
X15776Y52777D01*
X15135Y52286D01*
X14644Y51645D01*
X14417Y51098D01*
X16717D01*
Y53112D01*
D02*
G37*
G36*
X55925Y54739D02*
X55024D01*
X54193Y54394D01*
X53556Y53757D01*
X53211Y52925D01*
Y52025D01*
X53556Y51192D01*
X54193Y50556D01*
X55024Y50211D01*
X55925D01*
X56757Y50556D01*
X57394Y51192D01*
X57739Y52025D01*
Y52925D01*
X57394Y53757D01*
X56757Y54394D01*
X55925Y54739D01*
D02*
G37*
G36*
X38925Y63839D02*
X38025D01*
X37192Y63494D01*
X36556Y62857D01*
X36211Y62025D01*
Y61124D01*
X36348Y60795D01*
X36070Y60379D01*
X32475D01*
X32014Y60287D01*
X31623Y60026D01*
X27003Y55406D01*
X26925Y55439D01*
X26024D01*
X25192Y55094D01*
X24556Y54457D01*
X24211Y53625D01*
Y52724D01*
X24556Y51893D01*
X25192Y51256D01*
X26024Y50911D01*
X26925D01*
X27757Y51256D01*
X28394Y51893D01*
X28739Y52724D01*
Y53625D01*
X28706Y53703D01*
X32974Y57971D01*
X93076D01*
X96071Y54976D01*
Y47788D01*
X95636Y47515D01*
X95157Y47994D01*
X94325Y48339D01*
X93424D01*
X92593Y47994D01*
X91956Y47357D01*
X91611Y46525D01*
Y45625D01*
X91956Y44793D01*
X92593Y44156D01*
X93424Y43811D01*
X94325D01*
X95157Y44156D01*
X95794Y44793D01*
X95826Y44871D01*
X96175D01*
X96175Y44870D01*
X96636Y44962D01*
X97026Y45223D01*
X98126Y46323D01*
X98126Y46323D01*
X98387Y46714D01*
X98479Y47175D01*
Y55475D01*
X98479Y55475D01*
X98387Y55936D01*
X98126Y56326D01*
X94426Y60026D01*
X94036Y60287D01*
X93575Y60379D01*
X93575Y60379D01*
X40880D01*
X40602Y60795D01*
X40739Y61124D01*
Y62025D01*
X40394Y62857D01*
X39757Y63494D01*
X38925Y63839D01*
D02*
G37*
G36*
X113681Y52126D02*
X112697D01*
X111745Y51871D01*
X110892Y51379D01*
X110196Y50682D01*
X109704Y49829D01*
X109449Y48878D01*
Y47893D01*
X109552Y47508D01*
X109104Y47249D01*
X106445Y49907D01*
X106055Y50168D01*
X105594Y50260D01*
X105594Y50260D01*
X103875D01*
X103875Y50260D01*
X103414Y50168D01*
X103023Y49907D01*
X91695Y38579D01*
X85626D01*
X85594Y38657D01*
X84957Y39294D01*
X84125Y39639D01*
X83224D01*
X82393Y39294D01*
X81756Y38657D01*
X81411Y37825D01*
Y36924D01*
X81756Y36092D01*
X82393Y35456D01*
X83224Y35111D01*
X84125D01*
X84957Y35456D01*
X85594Y36092D01*
X85626Y36171D01*
X92194D01*
X92194Y36171D01*
X92655Y36262D01*
X93045Y36523D01*
X104374Y47852D01*
X105095D01*
X106067Y46880D01*
X105862Y46506D01*
X105801Y46439D01*
X104924D01*
X104093Y46094D01*
X103456Y45457D01*
X103111Y44625D01*
Y43725D01*
X103456Y42893D01*
X104093Y42256D01*
X104924Y41911D01*
X105825D01*
X106657Y42256D01*
X107294Y42893D01*
X107639Y43725D01*
Y44601D01*
X107706Y44662D01*
X108080Y44867D01*
X110108Y42838D01*
X109901Y42338D01*
X109236D01*
Y39386D01*
X113189D01*
X117142D01*
Y42271D01*
X118376D01*
X120123Y40523D01*
X120514Y40262D01*
X120975Y40170D01*
X120975Y40171D01*
X138423D01*
X138456Y40093D01*
X139093Y39456D01*
X139925Y39111D01*
X140825D01*
X141657Y39456D01*
X142294Y40093D01*
X142326Y40171D01*
X169195D01*
X169369Y39671D01*
X168856Y39157D01*
X168511Y38325D01*
Y37424D01*
X168856Y36593D01*
X169492Y35956D01*
X170325Y35611D01*
X171225D01*
X172057Y35956D01*
X172694Y36593D01*
X173039Y37424D01*
Y38325D01*
X172694Y39157D01*
X172180Y39671D01*
X172355Y40171D01*
X209523D01*
X209556Y40093D01*
X210192Y39456D01*
X211024Y39111D01*
X211925D01*
X212757Y39456D01*
X213394Y40093D01*
X213739Y40925D01*
Y41825D01*
X213394Y42657D01*
X212757Y43294D01*
X212467Y43414D01*
X212567Y43914D01*
X234640D01*
X234704Y43675D01*
X235196Y42822D01*
X235893Y42125D01*
X236745Y41633D01*
X237697Y41378D01*
X238681D01*
X239633Y41633D01*
X240486Y42125D01*
X241182Y42822D01*
X241674Y43675D01*
X241929Y44626D01*
Y45611D01*
X241674Y46562D01*
X241182Y47415D01*
X240486Y48111D01*
X239633Y48603D01*
X238681Y48858D01*
X237697D01*
X236745Y48603D01*
X235893Y48111D01*
X235196Y47415D01*
X234704Y46562D01*
X234640Y46322D01*
X166826D01*
X166794Y46400D01*
X166157Y47037D01*
X165325Y47382D01*
X164425D01*
X163593Y47037D01*
X162956Y46400D01*
X162611Y45568D01*
Y44668D01*
X162956Y43836D01*
X163593Y43199D01*
X163882Y43079D01*
X163783Y42579D01*
X142326D01*
X142294Y42657D01*
X141657Y43294D01*
X140825Y43639D01*
X139925D01*
X139093Y43294D01*
X138456Y42657D01*
X138423Y42579D01*
X121474D01*
X119726Y44326D01*
X119336Y44587D01*
X118875Y44679D01*
X118875Y44679D01*
X115249D01*
X115115Y45179D01*
X115486Y45393D01*
X116182Y46089D01*
X116674Y46942D01*
X116929Y47893D01*
Y48878D01*
X116674Y49829D01*
X116182Y50682D01*
X115486Y51379D01*
X114633Y51871D01*
X113681Y52126D01*
D02*
G37*
G36*
X21016Y49098D02*
X18717D01*
Y47085D01*
X18911Y47110D01*
X19657Y47420D01*
X20298Y47911D01*
X20789Y48552D01*
X21016Y49098D01*
D02*
G37*
G36*
X16717D02*
X14417D01*
X14644Y48552D01*
X15135Y47911D01*
X15776Y47420D01*
X16522Y47110D01*
X16717Y47085D01*
Y49098D01*
D02*
G37*
G36*
X37487Y51476D02*
X36587D01*
X35755Y51132D01*
X35118Y50495D01*
X34773Y49663D01*
Y48762D01*
X35118Y47930D01*
X35755Y47293D01*
X36587Y46949D01*
X37487D01*
X38319Y47293D01*
X38956Y47930D01*
X39301Y48762D01*
Y49663D01*
X38956Y50495D01*
X38319Y51132D01*
X37487Y51476D01*
D02*
G37*
G36*
X29225Y48339D02*
X28324D01*
X27492Y47994D01*
X26856Y47357D01*
X26511Y46525D01*
Y45625D01*
X26856Y44793D01*
X27492Y44156D01*
X28324Y43811D01*
X29225D01*
X30057Y44156D01*
X30694Y44793D01*
X31039Y45625D01*
Y46525D01*
X30694Y47357D01*
X30057Y47994D01*
X29225Y48339D01*
D02*
G37*
G36*
X79125Y46439D02*
X78224D01*
X77393Y46094D01*
X76756Y45457D01*
X76411Y44625D01*
Y43725D01*
X76756Y42893D01*
X77393Y42256D01*
X78224Y41911D01*
X79125D01*
X79957Y42256D01*
X80594Y42893D01*
X80939Y43725D01*
Y44625D01*
X80594Y45457D01*
X79957Y46094D01*
X79125Y46439D01*
D02*
G37*
G36*
X248681Y48858D02*
X247697D01*
X246745Y48603D01*
X245893Y48111D01*
X245196Y47415D01*
X244704Y46562D01*
X244449Y45611D01*
Y44626D01*
X244704Y43675D01*
X245196Y42822D01*
X245893Y42125D01*
X246745Y41633D01*
X247697Y41378D01*
X248681D01*
X249633Y41633D01*
X250485Y42125D01*
X251182Y42822D01*
X251674Y43675D01*
X251929Y44626D01*
Y45611D01*
X251674Y46562D01*
X251182Y47415D01*
X250485Y48111D01*
X249633Y48603D01*
X248681Y48858D01*
D02*
G37*
G36*
X57825Y43839D02*
X56924D01*
X56093Y43494D01*
X55456Y42857D01*
X55111Y42025D01*
Y41124D01*
X55456Y40293D01*
X56093Y39656D01*
X56924Y39311D01*
X57825D01*
X58657Y39656D01*
X59294Y40293D01*
X59639Y41124D01*
Y42025D01*
X59294Y42857D01*
X58657Y43494D01*
X57825Y43839D01*
D02*
G37*
G36*
X117142Y37386D02*
X114189D01*
Y34433D01*
X117142D01*
Y37386D01*
D02*
G37*
G36*
X112189D02*
X109236D01*
Y34433D01*
X112189D01*
Y37386D01*
D02*
G37*
G36*
X101925Y38139D02*
X101024D01*
X100192Y37794D01*
X99556Y37157D01*
X99211Y36325D01*
Y35425D01*
X99556Y34593D01*
X100192Y33956D01*
X101024Y33611D01*
X101925D01*
X102757Y33956D01*
X103394Y34593D01*
X103739Y35425D01*
Y36325D01*
X103394Y37157D01*
X102757Y37794D01*
X101925Y38139D01*
D02*
G37*
G36*
X18717Y35592D02*
Y33579D01*
X21016D01*
X20789Y34126D01*
X20298Y34766D01*
X19657Y35258D01*
X18911Y35567D01*
X18717Y35592D01*
D02*
G37*
G36*
X16717D02*
X16522Y35567D01*
X15776Y35258D01*
X15135Y34766D01*
X14644Y34126D01*
X14417Y33579D01*
X16717D01*
Y35592D01*
D02*
G37*
G36*
X79625Y36139D02*
X78724D01*
X77893Y35794D01*
X77256Y35157D01*
X76911Y34325D01*
Y33424D01*
X77256Y32592D01*
X77893Y31956D01*
X78724Y31611D01*
X79625D01*
X80457Y31956D01*
X81094Y32592D01*
X81439Y33424D01*
Y34325D01*
X81094Y35157D01*
X80457Y35794D01*
X79625Y36139D01*
D02*
G37*
G36*
X47925D02*
X47025D01*
X46192Y35794D01*
X45556Y35157D01*
X45211Y34325D01*
Y33424D01*
X45556Y32592D01*
X46192Y31956D01*
X47025Y31611D01*
X47925D01*
X48757Y31956D01*
X49394Y32592D01*
X49739Y33424D01*
Y34325D01*
X49394Y35157D01*
X48757Y35794D01*
X47925Y36139D01*
D02*
G37*
G36*
X248681Y38858D02*
X247697D01*
X246745Y38603D01*
X245893Y38111D01*
X245196Y37415D01*
X244704Y36562D01*
X244449Y35611D01*
Y34626D01*
X244704Y33675D01*
X245196Y32822D01*
X245893Y32125D01*
X246745Y31633D01*
X247697Y31378D01*
X248681D01*
X249633Y31633D01*
X250485Y32125D01*
X251182Y32822D01*
X251674Y33675D01*
X251929Y34626D01*
Y35611D01*
X251674Y36562D01*
X251182Y37415D01*
X250485Y38111D01*
X249633Y38603D01*
X248681Y38858D01*
D02*
G37*
G36*
X238681D02*
X237697D01*
X236745Y38603D01*
X235893Y38111D01*
X235196Y37415D01*
X234704Y36562D01*
X234449Y35611D01*
Y34626D01*
X234704Y33675D01*
X235196Y32822D01*
X235893Y32125D01*
X236745Y31633D01*
X237697Y31378D01*
X238681D01*
X239633Y31633D01*
X240486Y32125D01*
X241182Y32822D01*
X241674Y33675D01*
X241929Y34626D01*
Y35611D01*
X241674Y36562D01*
X241182Y37415D01*
X240486Y38111D01*
X239633Y38603D01*
X238681Y38858D01*
D02*
G37*
G36*
X21016Y31579D02*
X18717D01*
Y29565D01*
X18911Y29591D01*
X19657Y29900D01*
X20298Y30391D01*
X20789Y31032D01*
X21016Y31579D01*
D02*
G37*
G36*
X16717D02*
X14417D01*
X14644Y31032D01*
X15135Y30391D01*
X15776Y29900D01*
X16522Y29591D01*
X16717Y29565D01*
Y31579D01*
D02*
G37*
G36*
X61225Y31791D02*
X60325D01*
X59492Y31447D01*
X58856Y30810D01*
X58511Y29978D01*
Y29077D01*
X58856Y28245D01*
X59492Y27608D01*
X60325Y27264D01*
X61225D01*
X62057Y27608D01*
X62694Y28245D01*
X63039Y29077D01*
Y29978D01*
X62694Y30810D01*
X62057Y31447D01*
X61225Y31791D01*
D02*
G37*
G36*
X252142Y29071D02*
X249189D01*
Y26118D01*
X252142D01*
Y29071D01*
D02*
G37*
G36*
X239189Y28942D02*
Y26118D01*
X242013D01*
X241872Y26644D01*
X241352Y27545D01*
X240616Y28281D01*
X239715Y28802D01*
X239189Y28942D01*
D02*
G37*
G36*
X237189D02*
X236663Y28802D01*
X235762Y28281D01*
X235026Y27545D01*
X234506Y26644D01*
X234365Y26118D01*
X237189D01*
Y28942D01*
D02*
G37*
G36*
X247189Y29071D02*
X244236D01*
Y26118D01*
X247189D01*
Y29071D01*
D02*
G37*
G36*
X7283Y28293D02*
X6906D01*
Y25902D01*
X10509D01*
X10220Y26597D01*
X9681Y27299D01*
X8979Y27839D01*
X8161Y28177D01*
X7283Y28293D01*
D02*
G37*
G36*
X10509Y23902D02*
X6906D01*
Y21510D01*
X7283D01*
X8161Y21626D01*
X8979Y21965D01*
X9681Y22504D01*
X10220Y23206D01*
X10509Y23902D01*
D02*
G37*
G36*
X242013Y24118D02*
X239189D01*
Y21294D01*
X239715Y21435D01*
X240616Y21955D01*
X241352Y22691D01*
X241872Y23593D01*
X242013Y24118D01*
D02*
G37*
G36*
X237189D02*
X234365D01*
X234506Y23593D01*
X235026Y22691D01*
X235762Y21955D01*
X236663Y21435D01*
X237189Y21294D01*
Y24118D01*
D02*
G37*
G36*
X252142D02*
X249189D01*
Y21166D01*
X252142D01*
Y24118D01*
D02*
G37*
G36*
X247189D02*
X244236D01*
Y21166D01*
X247189D01*
Y24118D01*
D02*
G37*
G36*
X63025Y25539D02*
X62125D01*
X61292Y25194D01*
X60656Y24557D01*
X60311Y23725D01*
Y22825D01*
X60656Y21993D01*
X61292Y21356D01*
X62125Y21011D01*
X63025D01*
X63857Y21356D01*
X64494Y21993D01*
X64839Y22825D01*
Y23725D01*
X64494Y24557D01*
X63857Y25194D01*
X63025Y25539D01*
D02*
G37*
G36*
X246819Y17520D02*
X245307D01*
X243824Y17225D01*
X242426Y16646D01*
X241169Y15806D01*
X240100Y14737D01*
X239260Y13479D01*
X238681Y12082D01*
X238386Y10599D01*
Y9087D01*
X238681Y7603D01*
X239260Y6206D01*
X240100Y4949D01*
X241169Y3879D01*
X242426Y3039D01*
X243824Y2461D01*
X245307Y2165D01*
X246819D01*
X248302Y2461D01*
X249699Y3039D01*
X250957Y3879D01*
X252026Y4949D01*
X252866Y6206D01*
X253445Y7603D01*
X253740Y9087D01*
Y10599D01*
X253445Y12082D01*
X252866Y13479D01*
X252026Y14737D01*
X250957Y15806D01*
X249699Y16646D01*
X248302Y17225D01*
X246819Y17520D01*
D02*
G37*
G36*
X10599D02*
X9087D01*
X7603Y17225D01*
X6206Y16646D01*
X4949Y15806D01*
X3879Y14737D01*
X3039Y13479D01*
X2461Y12082D01*
X2165Y10599D01*
Y9087D01*
X2461Y7603D01*
X3039Y6206D01*
X3879Y4949D01*
X4949Y3879D01*
X6206Y3039D01*
X7603Y2461D01*
X9087Y2165D01*
X10599D01*
X12082Y2461D01*
X13479Y3039D01*
X14737Y3879D01*
X15806Y4949D01*
X16646Y6206D01*
X17225Y7603D01*
X17520Y9087D01*
Y10599D01*
X17225Y12082D01*
X16646Y13479D01*
X15806Y14737D01*
X14737Y15806D01*
X13479Y16646D01*
X12082Y17225D01*
X10599Y17520D01*
D02*
G37*
G36*
X228677Y195850D02*
X225724D01*
Y192898D01*
X228677D01*
Y195850D01*
D02*
G37*
G36*
X223724D02*
X220772D01*
Y192898D01*
X223724D01*
Y195850D01*
D02*
G37*
G36*
X225724Y190675D02*
Y187850D01*
X228549D01*
X228408Y188376D01*
X227887Y189277D01*
X227151Y190013D01*
X226250Y190534D01*
X225724Y190675D01*
D02*
G37*
G36*
X223724D02*
X223199Y190534D01*
X222297Y190013D01*
X221561Y189277D01*
X221041Y188376D01*
X220900Y187850D01*
X223724D01*
Y190675D01*
D02*
G37*
G36*
X210449Y163599D02*
X207693D01*
Y161728D01*
X210449D01*
Y163599D01*
D02*
G37*
G36*
X184858D02*
X182102D01*
Y161728D01*
X184858D01*
Y163599D01*
D02*
G37*
G36*
X159268D02*
X156512D01*
Y161728D01*
X159268D01*
Y163599D01*
D02*
G37*
G36*
X133677D02*
X130921D01*
Y161728D01*
X133677D01*
Y163599D01*
D02*
G37*
G36*
X108087D02*
X105331D01*
Y161728D01*
X108087D01*
Y163599D01*
D02*
G37*
G36*
X82496D02*
X79740D01*
Y161728D01*
X82496D01*
Y163599D01*
D02*
G37*
G36*
X56906D02*
X54150D01*
Y161728D01*
X56906D01*
Y163599D01*
D02*
G37*
G36*
X31315D02*
X28559D01*
Y161728D01*
X31315D01*
Y163599D01*
D02*
G37*
G36*
X52150D02*
X49394D01*
Y161728D01*
X52150D01*
Y163599D01*
D02*
G37*
G36*
X26559D02*
X23803D01*
Y161728D01*
X26559D01*
Y163599D01*
D02*
G37*
G36*
X205693D02*
X202937D01*
Y161728D01*
X205693D01*
Y163599D01*
D02*
G37*
G36*
X180102D02*
X177347D01*
Y161728D01*
X180102D01*
Y163599D01*
D02*
G37*
G36*
X154512D02*
X151756D01*
Y161728D01*
X154512D01*
Y163599D01*
D02*
G37*
G36*
X128921D02*
X126165D01*
Y161728D01*
X128921D01*
Y163599D01*
D02*
G37*
G36*
X103331D02*
X100575D01*
Y161728D01*
X103331D01*
Y163599D01*
D02*
G37*
G36*
X77740D02*
X74984D01*
Y161728D01*
X77740D01*
Y163599D01*
D02*
G37*
G36*
X63992Y163273D02*
Y160449D01*
X66816D01*
X66676Y160975D01*
X66155Y161876D01*
X65419Y162612D01*
X64518Y163132D01*
X63992Y163273D01*
D02*
G37*
G36*
X38402D02*
Y160449D01*
X41226D01*
X41085Y160975D01*
X40565Y161876D01*
X39829Y162612D01*
X38927Y163132D01*
X38402Y163273D01*
D02*
G37*
G36*
X217535D02*
Y160449D01*
X220360D01*
X220219Y160975D01*
X219698Y161876D01*
X218962Y162612D01*
X218061Y163132D01*
X217535Y163273D01*
D02*
G37*
G36*
X191945D02*
Y160449D01*
X194769D01*
X194628Y160975D01*
X194108Y161876D01*
X193372Y162612D01*
X192471Y163132D01*
X191945Y163273D01*
D02*
G37*
G36*
X166354D02*
Y160449D01*
X169179D01*
X169038Y160975D01*
X168517Y161876D01*
X167781Y162612D01*
X166880Y163132D01*
X166354Y163273D01*
D02*
G37*
G36*
X140764D02*
Y160449D01*
X143588D01*
X143447Y160975D01*
X142927Y161876D01*
X142191Y162612D01*
X141289Y163132D01*
X140764Y163273D01*
D02*
G37*
G36*
X115173D02*
Y160449D01*
X117997D01*
X117857Y160975D01*
X117336Y161876D01*
X116600Y162612D01*
X115699Y163132D01*
X115173Y163273D01*
D02*
G37*
G36*
X89583D02*
Y160449D01*
X92407D01*
X92266Y160975D01*
X91746Y161876D01*
X91010Y162612D01*
X90108Y163132D01*
X89583Y163273D01*
D02*
G37*
G36*
X61992D02*
X61466Y163132D01*
X60565Y162612D01*
X59829Y161876D01*
X59309Y160975D01*
X59168Y160449D01*
X61992D01*
Y163273D01*
D02*
G37*
G36*
X36402D02*
X35876Y163132D01*
X34975Y162612D01*
X34239Y161876D01*
X33718Y160975D01*
X33577Y160449D01*
X36402D01*
Y163273D01*
D02*
G37*
G36*
X215535D02*
X215010Y163132D01*
X214108Y162612D01*
X213372Y161876D01*
X212852Y160975D01*
X212711Y160449D01*
X215535D01*
Y163273D01*
D02*
G37*
G36*
X189945D02*
X189419Y163132D01*
X188518Y162612D01*
X187782Y161876D01*
X187261Y160975D01*
X187121Y160449D01*
X189945D01*
Y163273D01*
D02*
G37*
G36*
X164354D02*
X163829Y163132D01*
X162927Y162612D01*
X162191Y161876D01*
X161671Y160975D01*
X161530Y160449D01*
X164354D01*
Y163273D01*
D02*
G37*
G36*
X138764D02*
X138238Y163132D01*
X137337Y162612D01*
X136601Y161876D01*
X136080Y160975D01*
X135940Y160449D01*
X138764D01*
Y163273D01*
D02*
G37*
G36*
X113173D02*
X112647Y163132D01*
X111746Y162612D01*
X111010Y161876D01*
X110490Y160975D01*
X110349Y160449D01*
X113173D01*
Y163273D01*
D02*
G37*
G36*
X87583D02*
X87057Y163132D01*
X86156Y162612D01*
X85420Y161876D01*
X84899Y160975D01*
X84758Y160449D01*
X87583D01*
Y163273D01*
D02*
G37*
G36*
X210449Y159728D02*
X207693D01*
Y157858D01*
X210449D01*
Y159728D01*
D02*
G37*
G36*
X205693D02*
X202937D01*
Y157858D01*
X205693D01*
Y159728D01*
D02*
G37*
G36*
X184858D02*
X182102D01*
Y157858D01*
X184858D01*
Y159728D01*
D02*
G37*
G36*
X180102D02*
X177347D01*
Y157858D01*
X180102D01*
Y159728D01*
D02*
G37*
G36*
X159268D02*
X156512D01*
Y157858D01*
X159268D01*
Y159728D01*
D02*
G37*
G36*
X154512D02*
X151756D01*
Y157858D01*
X154512D01*
Y159728D01*
D02*
G37*
G36*
X133677D02*
X130921D01*
Y157858D01*
X133677D01*
Y159728D01*
D02*
G37*
G36*
X128921D02*
X126165D01*
Y157858D01*
X128921D01*
Y159728D01*
D02*
G37*
G36*
X108087D02*
X105331D01*
Y157858D01*
X108087D01*
Y159728D01*
D02*
G37*
G36*
X103331D02*
X100575D01*
Y157858D01*
X103331D01*
Y159728D01*
D02*
G37*
G36*
X82496D02*
X79740D01*
Y157858D01*
X82496D01*
Y159728D01*
D02*
G37*
G36*
X77740D02*
X74984D01*
Y157858D01*
X77740D01*
Y159728D01*
D02*
G37*
G36*
X56906D02*
X54150D01*
Y157858D01*
X56906D01*
Y159728D01*
D02*
G37*
G36*
X52150D02*
X49394D01*
Y157858D01*
X52150D01*
Y159728D01*
D02*
G37*
G36*
X31315D02*
X28559D01*
Y157858D01*
X31315D01*
Y159728D01*
D02*
G37*
G36*
X26559D02*
X23803D01*
Y157858D01*
X26559D01*
Y159728D01*
D02*
G37*
G36*
X220360Y158449D02*
X217535D01*
Y155625D01*
X218061Y155765D01*
X218962Y156286D01*
X219698Y157022D01*
X220219Y157923D01*
X220360Y158449D01*
D02*
G37*
G36*
X194769D02*
X191945D01*
Y155625D01*
X192471Y155765D01*
X193372Y156286D01*
X194108Y157022D01*
X194628Y157923D01*
X194769Y158449D01*
D02*
G37*
G36*
X169179D02*
X166354D01*
Y155625D01*
X166880Y155765D01*
X167781Y156286D01*
X168517Y157022D01*
X169038Y157923D01*
X169179Y158449D01*
D02*
G37*
G36*
X143588D02*
X140764D01*
Y155625D01*
X141289Y155765D01*
X142191Y156286D01*
X142927Y157022D01*
X143447Y157923D01*
X143588Y158449D01*
D02*
G37*
G36*
X117997D02*
X115173D01*
Y155625D01*
X115699Y155765D01*
X116600Y156286D01*
X117336Y157022D01*
X117857Y157923D01*
X117997Y158449D01*
D02*
G37*
G36*
X92407D02*
X89583D01*
Y155625D01*
X90108Y155765D01*
X91010Y156286D01*
X91746Y157022D01*
X92266Y157923D01*
X92407Y158449D01*
D02*
G37*
G36*
X66816D02*
X63992D01*
Y155625D01*
X64518Y155765D01*
X65419Y156286D01*
X66155Y157022D01*
X66676Y157923D01*
X66816Y158449D01*
D02*
G37*
G36*
X41226D02*
X38402D01*
Y155625D01*
X38927Y155765D01*
X39829Y156286D01*
X40565Y157022D01*
X41085Y157923D01*
X41226Y158449D01*
D02*
G37*
G36*
X215535D02*
X212711D01*
X212852Y157923D01*
X213372Y157022D01*
X214108Y156286D01*
X215010Y155765D01*
X215535Y155625D01*
Y158449D01*
D02*
G37*
G36*
X189945D02*
X187121D01*
X187261Y157923D01*
X187782Y157022D01*
X188518Y156286D01*
X189419Y155765D01*
X189945Y155625D01*
Y158449D01*
D02*
G37*
G36*
X164354D02*
X161530D01*
X161671Y157923D01*
X162191Y157022D01*
X162927Y156286D01*
X163829Y155765D01*
X164354Y155625D01*
Y158449D01*
D02*
G37*
G36*
X138764D02*
X135940D01*
X136080Y157923D01*
X136601Y157022D01*
X137337Y156286D01*
X138238Y155765D01*
X138764Y155625D01*
Y158449D01*
D02*
G37*
G36*
X113173D02*
X110349D01*
X110490Y157923D01*
X111010Y157022D01*
X111746Y156286D01*
X112647Y155765D01*
X113173Y155625D01*
Y158449D01*
D02*
G37*
G36*
X87583D02*
X84758D01*
X84899Y157923D01*
X85420Y157022D01*
X86156Y156286D01*
X87057Y155765D01*
X87583Y155625D01*
Y158449D01*
D02*
G37*
G36*
X61992D02*
X59168D01*
X59309Y157923D01*
X59829Y157022D01*
X60565Y156286D01*
X61466Y155765D01*
X61992Y155625D01*
Y158449D01*
D02*
G37*
G36*
X36402D02*
X33577D01*
X33718Y157923D01*
X34239Y157022D01*
X34975Y156286D01*
X35876Y155765D01*
X36402Y155625D01*
Y158449D01*
D02*
G37*
G36*
X12811Y159420D02*
Y152575D01*
X19656D01*
X19398Y153876D01*
X18803Y155312D01*
X17939Y156604D01*
X16840Y157703D01*
X15548Y158567D01*
X14112Y159161D01*
X12811Y159420D01*
D02*
G37*
G36*
X19656Y150575D02*
X12811D01*
Y143729D01*
X14112Y143988D01*
X15548Y144583D01*
X16840Y145446D01*
X17939Y146545D01*
X18803Y147838D01*
X19398Y149273D01*
X19656Y150575D01*
D02*
G37*
%LPD*%
D11*
X95413Y137775D02*
X154075D01*
X140375Y41375D02*
X211475D01*
X120975D02*
X140375D01*
X85275Y146299D02*
X88583Y149606D01*
X85275Y129575D02*
Y146299D01*
Y129575D02*
X88475Y126375D01*
X117680D01*
X129475Y114580D01*
X16775Y89975D02*
X69675D01*
X11375Y84575D02*
X16775Y89975D01*
X11375Y78375D02*
Y84575D01*
Y78375D02*
X13575Y76175D01*
X15243D01*
X19528Y71890D01*
X164875Y45118D02*
X238189D01*
X227175Y94296D02*
Y174975D01*
X221475Y180675D02*
X227175Y174975D01*
X75073Y180675D02*
X221475D01*
X68898Y186850D02*
X75073Y180675D01*
X26929Y137220D02*
X71175D01*
X74858Y133537D01*
Y116792D02*
Y133537D01*
Y116792D02*
X80175Y111475D01*
X121875D01*
X126875Y106475D01*
X145675D01*
X38898Y186850D02*
X44722Y192675D01*
X184575D01*
X193175Y201275D01*
X228875D01*
X233875Y196275D01*
Y80975D02*
Y196275D01*
X224396Y71496D02*
X233875Y80975D01*
X107614Y101875D02*
X138975D01*
X103744Y105745D02*
X107614Y101875D01*
X46605Y105745D02*
X103744D01*
X23875Y128475D02*
X46605Y105745D01*
X89528Y131890D02*
X95413Y137775D01*
X141675Y125375D02*
X154075Y137775D01*
X195175D01*
X131575Y49275D02*
X157475D01*
X115245Y65605D02*
X131575Y49275D01*
X115245Y65605D02*
Y79375D01*
X129528Y71890D02*
X138743Y62675D01*
X158875D01*
X164775Y68575D01*
X225275D01*
X243875Y87175D01*
Y124111D01*
X248032Y128268D01*
X167618Y55118D02*
X238189D01*
X167575Y55075D02*
X167618Y55118D01*
X118875Y43475D02*
X120975Y41375D01*
X111175Y43475D02*
X118875D01*
X105594Y49056D02*
X111175Y43475D01*
X103875Y49056D02*
X105594D01*
X92194Y37375D02*
X103875Y49056D01*
X83675Y37375D02*
X92194D01*
X93875Y46075D02*
X96175D01*
X97275Y47175D01*
Y55475D01*
X93575Y59175D02*
X97275Y55475D01*
X32475Y59175D02*
X93575D01*
X26475Y53175D02*
X32475Y59175D01*
X154775Y145075D02*
X186413D01*
X190945Y149606D01*
X122275Y107475D02*
X125075Y104675D01*
X79775Y107475D02*
X122275D01*
X60708Y126542D02*
X79775Y107475D01*
X104075Y116475D02*
X107075Y113475D01*
X125675D01*
X130946Y108205D01*
X138575D01*
X139645Y109275D01*
X208075D01*
X226175Y91175D01*
X227775D01*
X230175Y93575D01*
Y98375D01*
X15275Y78975D02*
X108505D01*
X111275Y81745D01*
X131464D01*
X135335Y77875D01*
X142675D01*
X144475Y76075D01*
X58898Y186850D02*
X63122Y191075D01*
X208975D01*
X78898Y186850D02*
X83073Y182675D01*
X225275D01*
X231375Y176575D01*
D14*
X9528Y131890D02*
D03*
X19528D02*
D03*
X29528D02*
D03*
X39528D02*
D03*
X49528D02*
D03*
X59528D02*
D03*
X69528D02*
D03*
X109528D02*
D03*
X9528Y71890D02*
D03*
X79528D02*
D03*
Y131890D02*
D03*
X139528D02*
D03*
X129528D02*
D03*
X119528D02*
D03*
X99528D02*
D03*
X89528D02*
D03*
X19528Y71890D02*
D03*
X29528D02*
D03*
X39528D02*
D03*
X49528D02*
D03*
X59528D02*
D03*
X69528D02*
D03*
X89528D02*
D03*
X99528D02*
D03*
X109528D02*
D03*
X119528D02*
D03*
X129528D02*
D03*
X139528D02*
D03*
D18*
X0Y10300D02*
X50Y9290D01*
X198Y8291D01*
X444Y7310D01*
X784Y6358D01*
X1216Y5445D01*
X1736Y4578D01*
X2338Y3766D01*
X3017Y3017D01*
X3766Y2338D01*
X4578Y1736D01*
X5445Y1216D01*
X6358Y784D01*
X7310Y444D01*
X8291Y198D01*
X9290Y50D01*
X10300Y0D01*
X245605D02*
X246615Y50D01*
X247615Y198D01*
X248595Y444D01*
X249547Y784D01*
X250461Y1216D01*
X251328Y1736D01*
X252140Y2338D01*
X252889Y3017D01*
X253568Y3766D01*
X254170Y4578D01*
X254689Y5445D01*
X255121Y6358D01*
X255462Y7310D01*
X255708Y8291D01*
X255856Y9290D01*
X255906Y10300D01*
Y194485D02*
X255856Y195495D01*
X255708Y196494D01*
X255462Y197475D01*
X255121Y198427D01*
X254689Y199340D01*
X254170Y200207D01*
X253568Y201019D01*
X252889Y201768D01*
X252140Y202447D01*
X251328Y203049D01*
X250461Y203569D01*
X249547Y204001D01*
X248595Y204342D01*
X247615Y204587D01*
X246615Y204735D01*
X245605Y204785D01*
X10300D02*
X9290Y204735D01*
X8291Y204587D01*
X7310Y204342D01*
X6358Y204001D01*
X5445Y203569D01*
X4578Y203049D01*
X3766Y202447D01*
X3017Y201768D01*
X2338Y201019D01*
X1736Y200207D01*
X1216Y199340D01*
X784Y198427D01*
X444Y197475D01*
X198Y196494D01*
X50Y195495D01*
X0Y194485D01*
Y10300D02*
Y91535D01*
X10300Y0D02*
X245606D01*
X255906Y10300D02*
Y194485D01*
X10300Y204785D02*
X245606D01*
X0Y91535D02*
Y194485D01*
D19*
X197Y19685D02*
Y62992D01*
D29*
X27559Y168012D02*
D03*
Y160728D02*
D03*
X155512Y168012D02*
D03*
Y160728D02*
D03*
X129921Y168012D02*
D03*
Y160728D02*
D03*
X78740Y168012D02*
D03*
Y160728D02*
D03*
X53150Y168012D02*
D03*
Y160728D02*
D03*
X104331Y168012D02*
D03*
Y160728D02*
D03*
X181102Y168012D02*
D03*
Y160728D02*
D03*
X206693Y168012D02*
D03*
Y160728D02*
D03*
D66*
X5906Y57776D02*
D03*
Y24902D02*
D03*
D67*
X17717Y32579D02*
D03*
Y50098D02*
D03*
D68*
X248032Y161575D02*
D03*
X238032D02*
D03*
Y171575D02*
D03*
X248032D02*
D03*
Y181575D02*
D03*
X238032D02*
D03*
X214724Y186850D02*
D03*
X204724D02*
D03*
X194724Y196850D02*
D03*
X158898Y186850D02*
D03*
X148898D02*
D03*
X128898Y196850D02*
D03*
X118898D02*
D03*
Y186850D02*
D03*
X108898D02*
D03*
Y196850D02*
D03*
X98898D02*
D03*
Y186850D02*
D03*
X88898Y196850D02*
D03*
X78898Y186850D02*
D03*
Y196850D02*
D03*
X68898D02*
D03*
X58898Y186850D02*
D03*
X48898D02*
D03*
X38898Y196850D02*
D03*
X28898D02*
D03*
X248189Y35118D02*
D03*
X238189Y45118D02*
D03*
X248189Y55118D02*
D03*
Y65118D02*
D03*
Y75118D02*
D03*
X248032Y98268D02*
D03*
X238032D02*
D03*
X248032Y108268D02*
D03*
X238032D02*
D03*
X248032Y118268D02*
D03*
X238032Y128268D02*
D03*
Y138268D02*
D03*
X113189Y48386D02*
D03*
X37402Y159449D02*
D03*
X216535D02*
D03*
Y149606D02*
D03*
X28898Y186850D02*
D03*
X38898D02*
D03*
X48898Y196850D02*
D03*
X58898D02*
D03*
X68898Y186850D02*
D03*
X88898D02*
D03*
X128898D02*
D03*
X138898D02*
D03*
Y196850D02*
D03*
X148898D02*
D03*
X158898D02*
D03*
X168898Y186850D02*
D03*
Y196850D02*
D03*
X178898Y186850D02*
D03*
X238032Y151575D02*
D03*
X194724Y186850D02*
D03*
X204724Y196850D02*
D03*
X214724D02*
D03*
X224724Y186850D02*
D03*
X190945Y159449D02*
D03*
Y149606D02*
D03*
X165354Y159449D02*
D03*
Y149606D02*
D03*
X238189Y25118D02*
D03*
Y35118D02*
D03*
X248189Y45118D02*
D03*
X238189Y55118D02*
D03*
Y65118D02*
D03*
Y75118D02*
D03*
X238032Y88268D02*
D03*
Y118268D02*
D03*
X248032Y128268D02*
D03*
Y138268D02*
D03*
X37402Y149606D02*
D03*
X62992D02*
D03*
Y159449D02*
D03*
X88583Y149606D02*
D03*
Y159449D02*
D03*
X114173Y149606D02*
D03*
Y159449D02*
D03*
X139764Y149606D02*
D03*
Y159449D02*
D03*
D69*
X11811Y171260D02*
D03*
D70*
X216535Y169291D02*
D03*
X113189Y38386D02*
D03*
X248032Y151575D02*
D03*
X190945Y169291D02*
D03*
X165354D02*
D03*
X248189Y25118D02*
D03*
X248032Y88268D02*
D03*
X37402Y169291D02*
D03*
X62992D02*
D03*
X88583D02*
D03*
X114173D02*
D03*
X139764D02*
D03*
D71*
X178898Y196850D02*
D03*
X224724D02*
D03*
D72*
X11811Y151575D02*
D03*
X246063Y9843D02*
D03*
Y194882D02*
D03*
X9843D02*
D03*
Y9843D02*
D03*
D73*
X61680Y19028D02*
D03*
X119095Y52165D02*
D03*
X252953Y179134D02*
D03*
Y37402D02*
D03*
X247047Y143701D02*
D03*
X241142Y167323D02*
D03*
Y143701D02*
D03*
X235236Y13780D02*
D03*
X232283Y7874D02*
D03*
X229331Y13780D02*
D03*
X226378Y7874D02*
D03*
X223425Y167323D02*
D03*
X202756Y173228D02*
D03*
Y90551D02*
D03*
X199803Y167323D02*
D03*
Y96457D02*
D03*
X196850Y90551D02*
D03*
X193897Y96457D02*
D03*
X190945Y90551D02*
D03*
X187992Y96457D02*
D03*
X179134Y173228D02*
D03*
X182087Y96457D02*
D03*
X179134Y90551D02*
D03*
X173228Y173228D02*
D03*
X176181Y96457D02*
D03*
X173228Y90551D02*
D03*
X176181Y72835D02*
D03*
Y49213D02*
D03*
X170275Y96457D02*
D03*
X164370D02*
D03*
X155512Y173228D02*
D03*
X158465Y96457D02*
D03*
X149606Y173228D02*
D03*
X143701Y19685D02*
D03*
Y7874D02*
D03*
X140748Y25591D02*
D03*
X137795Y19685D02*
D03*
X140748Y13780D02*
D03*
X131890Y19685D02*
D03*
X128937Y37402D02*
D03*
Y13780D02*
D03*
X125984Y7874D02*
D03*
X123031Y37402D02*
D03*
Y25591D02*
D03*
X120079Y19685D02*
D03*
Y7874D02*
D03*
X108268Y173228D02*
D03*
X96457Y90551D02*
D03*
X90551D02*
D03*
X84646Y7874D02*
D03*
X78740Y173228D02*
D03*
X81693Y13780D02*
D03*
X69882Y179134D02*
D03*
X63976Y13780D02*
D03*
X55118Y149606D02*
D03*
X52165Y143701D02*
D03*
X49213Y102362D02*
D03*
X43307Y173228D02*
D03*
Y114173D02*
D03*
Y102362D02*
D03*
X46260Y96457D02*
D03*
Y13780D02*
D03*
X43307Y7874D02*
D03*
X28543Y96457D02*
D03*
Y84646D02*
D03*
X25591Y7874D02*
D03*
X19685Y196850D02*
D03*
X22638Y120079D02*
D03*
Y108268D02*
D03*
X19685Y102362D02*
D03*
X22638Y96457D02*
D03*
Y13780D02*
D03*
X19685Y7874D02*
D03*
X13780Y185039D02*
D03*
Y19685D02*
D03*
X7874Y185039D02*
D03*
Y19685D02*
D03*
X60775Y29528D02*
D03*
X101475Y35875D02*
D03*
X62575Y23275D02*
D03*
X75175Y91875D02*
D03*
X130676Y87475D02*
D03*
X129475Y114580D02*
D03*
X132475Y110575D02*
D03*
X69675Y89975D02*
D03*
X205575Y130975D02*
D03*
X197075Y127675D02*
D03*
X176375Y126575D02*
D03*
X164875Y45118D02*
D03*
X227175Y94296D02*
D03*
X224275Y61175D02*
D03*
X26929Y137220D02*
D03*
X145675Y106475D02*
D03*
X224396Y71496D02*
D03*
X138975Y101875D02*
D03*
X23875Y128475D02*
D03*
X198975Y194275D02*
D03*
X224375Y86475D02*
D03*
X102175Y82675D02*
D03*
X141675Y125375D02*
D03*
X195175Y137775D02*
D03*
X138875Y57075D02*
D03*
X170775Y37875D02*
D03*
X157475Y49275D02*
D03*
X115245Y79375D02*
D03*
X167575Y55075D02*
D03*
X171375Y73775D02*
D03*
X144975Y87975D02*
D03*
X55475Y52475D02*
D03*
X211475Y41375D02*
D03*
X83675Y37375D02*
D03*
X98575Y103375D02*
D03*
X49508Y108809D02*
D03*
X58875Y97475D02*
D03*
X85575Y100675D02*
D03*
X93875Y46075D02*
D03*
X26475Y53175D02*
D03*
X57375Y41575D02*
D03*
X79175Y33875D02*
D03*
X47475D02*
D03*
X224475Y114375D02*
D03*
X113875Y115875D02*
D03*
X133826Y92126D02*
D03*
X154775Y145075D02*
D03*
X125075Y104675D02*
D03*
X60708Y126542D02*
D03*
X104075Y116475D02*
D03*
X230175Y98375D02*
D03*
X38475Y61575D02*
D03*
X28775Y46075D02*
D03*
X105375Y44175D02*
D03*
X15275Y78975D02*
D03*
X144475Y76075D02*
D03*
X67235Y100168D02*
D03*
X106475Y82875D02*
D03*
X37037Y49213D02*
D03*
X137475Y80815D02*
D03*
X225875Y79275D02*
D03*
X140375Y41375D02*
D03*
X78675Y44175D02*
D03*
X66575Y54375D02*
D03*
X52575Y127675D02*
D03*
X208975Y191075D02*
D03*
X224375Y64875D02*
D03*
X231375Y176575D02*
D03*
D74*
X33268Y25394D02*
D03*
Y29724D02*
D03*
X37598Y25394D02*
D03*
Y29724D02*
D03*
M02*
