M48
;Layer_Color=9474304
;FILE_FORMAT=2:5
INCH,LZ
;TYPE=PLATED
T1F00S00C0.00787
T2F00S00C0.01772
T5F00S00C0.03543
T6F00S00C0.04016
T7F00S00C0.08268
T8F00S00C0.10236
%
T01
X0033268Y0025394
Y0029724
X0037598
Y0025394
T02
X0019685Y0007874
X0025591
X0022638Y001378
X001378Y0019685
X0007874
X004626Y001378
X0043307Y0007874
X0047475Y0033875
X0057375Y0041575
X0055475Y0052475
X0037037Y0049213
X0028775Y0046075
X0026475Y0053175
X0066575Y0054375
X0078675Y0044175
X0079175Y0033875
X0083675Y0037375
X0093875Y0046075
X0105375Y0044175
X0101475Y0035875
X0123031Y0037402
X0128937
X0140375Y0041375
X0140748Y0025591
X0137795Y0019685
X0143701
X0140748Y001378
X0143701Y0007874
X0125984
X0120079
Y0019685
X0123031Y0025591
X013189Y0019685
X0128937Y001378
X0081693
X0084646Y0007874
X0063976Y001378
X006168Y0019028
X0062575Y0023275
X0060775Y0029528
X0119095Y0052165
X0138875Y0057075
X0157475Y0049275
X0164875Y0045118
X0167575Y0055075
X0176181Y0049213
X0170775Y0037875
X0211475Y0041375
X0252953Y0037402
X0235236Y001378
X0229331
X0226378Y0007874
X0232283
X0224275Y0061175
X0224375Y0064875
X0224396Y0071496
X0225875Y0079275
X0224375Y0086475
X0227175Y0094296
X0230175Y0098375
X0224475Y0114375
X0241142Y0143701
X0247047
X0241142Y0167323
X0223425
X0231375Y0176575
X0252953Y0179134
X0208975Y0191075
X0198975Y0194275
X0202756Y0173228
X0199803Y0167323
X0179134Y0173228
X0173228
X0155512
X0149606
X0154775Y0145075
X0141675Y0125375
X0145675Y0106475
X0138975Y0101875
X0133826Y0092126
X0130676Y0087475
X0137475Y0080815
X0144475Y0076075
X0144975Y0087975
X0158465Y0096457
X016437
X0170275
X0176181
X0182087
X0187992
X0193897
X0199803
X019685Y0090551
X0202756
X0190945
X0179134
X0173228
X0171375Y0073775
X0176181Y0072835
X0176375Y0126575
X0197075Y0127675
X0205575Y0130975
X0195175Y0137775
X0129475Y011458
X0132475Y0110575
X0125075Y0104675
X0113875Y0115875
X0104075Y0116475
X0098575Y0103375
X0096457Y0090551
X0090551
X0085575Y0100675
X0067235Y0100168
X0058875Y0097475
X0069675Y0089975
X0075175Y0091875
X0102175Y0082675
X0106475Y0082875
X0115245Y0079375
X0108268Y0173228
X007874
X0069882Y0179134
X0060708Y0126542
X0052575Y0127675
X0052165Y0143701
X0055118Y0149606
X0043307Y0173228
X001378Y0185039
X0007874
X0019685Y019685
X0026929Y013722
X0023875Y0128475
X0022638Y0120079
Y0108268
X0019685Y0102362
X0022638Y0096457
X0028543
Y0084646
X0015275Y0078975
X0038475Y0061575
X004626Y0096457
X0043307Y0102362
X0049213
X0049508Y0108809
X0043307Y0114173
T05
X0113189Y0038386
Y0048386
X0238189Y0045118
Y0035118
X0248189
Y0025118
X0238189
X0248189Y0045118
Y0055118
X0238189
Y0065118
X0248189
Y0075118
X0238189
X0238032Y0088268
Y0098268
X0248032
Y0108268
X0238032
Y0118268
X0248032
Y0128268
X0238032
Y0138268
X0248032
Y0151575
Y0161575
X0238032
Y0171575
X0248032
Y0181575
X0238032
X0224724Y018685
X0214724
Y019685
X0224724
X0216535Y0169291
Y0159449
Y0149606
X0238032Y0151575
X0248032Y0088268
X0190945Y0149606
Y0159449
Y0169291
X0194724Y018685
X0204724
Y019685
X0194724
X0178898
X0168898
X0158898
Y018685
X0148898
X0138898
X0128898
Y019685
X0118898
Y018685
X0108898
Y019685
X0098898
Y018685
X0088898
Y019685
X0078898
Y018685
X0068898
Y019685
X0058898
Y018685
X0062992Y0169291
Y0159449
Y0149606
X0088583
Y0159449
Y0169291
X0114173
Y0159449
Y0149606
X0139764
Y0159449
Y0169291
X0165354
Y0159449
Y0149606
X0168898Y018685
X0178898
X0148898Y019685
X0138898
X0048898
Y018685
X0038898
Y019685
X0028898
Y018685
X0037402Y0169291
Y0159449
Y0149606
T06
X0059528Y007189
X0069528
X0079528
X0089528
X0099528
X0109528
X0119528
X0129528
X0139528
Y013189
X0129528
X0119528
X0109528
X0099528
X0089528
X0079528
X0069528
X0059528
X0049528
X0039528
X0029528
X0019528
X0009528
Y007189
X0019528
X0029528
X0039528
X0049528
T07
X0009843Y0009843
X0246063
Y0194882
X0009843
T08
X0011811Y0151575
Y017126
M30
